<svg xmlns="http://www.w3.org/2000/svg" xmlns:xlink="http://www.w3.org/1999/xlink" width="700" height="500">
<defs>
<style type="text/css"><![CDATA[
  .borderLine {
	   stroke: none;
	   fill-opacity:  0.4 ;
  }
  .outLine {
	   stroke-width:  1 ;
	   fill: none;
  }
  .circle {
	   stroke: #888888;
	   stroke-width: 0.5;
	   fill: none;
    pointer-events: all;
  }
  .nLabel {
	   font-family: Arial;
    pointer-events: none;
	   font-size: 10px;
	   text-anchor: middle;
	   alignment-baseline: central;
  }
  .belong {
	   font-family: Arial;
    pointer-events: none;
	   font-size: 5px;
	   text-anchor: middle;
	   alignment-baseline: central;
  }
  .legend {
    font-family: Arial;
    font-size: 15px;
  }
  #legendBox {
    display:  inline ;
  }
  .p0{
    stroke: none;
    fill:  #00F ;
  }
  .q0{
    fill: none;
    stroke:  #00F ;
  }
  .p1{
    stroke: none;
    fill:  #0F0 ;
  }
  .q1{
    fill: none;
    stroke:  #0F0 ;
  }
  .p2{
    stroke: none;
    fill:  #F00 ;
  }
  .q2{
    fill: none;
    stroke:  #F00 ;
  }
]]>
</style>
<symbol id="bl0">
<path d="M 264.13 343.13 L 259.50 348.14 L 254.84 353.12 L 250.15 358.07 L 245.38 362.94 L 240.50 367.69 L 235.47 372.27 L 230.26 376.62 L 224.85 380.73 L 219.25 384.56 L 213.47 388.10 L 207.53 391.35 L 201.43 394.30 L 195.19 396.93 L 188.82 399.25 L 182.35 401.26 L 175.79 402.93 L 169.15 404.27 L 162.46 405.28 L 155.73 405.95 L 148.97 406.28 L 142.21 406.28 L 135.46 405.93 L 128.72 405.25 L 122.03 404.24 L 115.40 402.89 L 108.84 401.21 L 102.37 399.20 L 96.01 396.88 L 89.77 394.24 L 83.67 391.29 L 77.73 388.03 L 71.95 384.49 L 66.36 380.67 L 60.97 376.57 L 55.79 372.20 L 50.83 367.59 L 46.11 362.73 L 41.64 357.64 L 37.42 352.33 L 33.48 346.82 L 29.81 341.11 L 26.43 335.23 L 23.35 329.19 L 20.57 323.00 L 18.11 316.69 L 15.96 310.26 L 14.14 303.73 L 12.64 297.13 L 11.48 290.46 L 10.65 283.74 L 10.16 276.99 L 10.00 270.22 L 10.18 263.46 L 10.69 256.71 L 11.55 249.99 L 12.73 243.32 L 14.24 236.73 L 16.09 230.22 L 18.25 223.81 L 20.73 217.51 L 23.52 211.35 L 26.61 205.33 L 30.00 199.47 L 33.68 193.80 L 37.64 188.31 L 41.86 183.02 L 46.34 177.96 L 51.06 173.13 L 56.02 168.54 L 61.20 164.21 L 66.59 160.13 L 72.18 156.33 L 77.95 152.81 L 83.90 149.58 L 90.00 146.66 L 96.23 144.04 L 102.59 141.72 L 109.05 139.70 L 115.59 137.95 L 122.19 136.41 L 128.84 135.01 L 135.50 133.68 L 142.17 132.38 L 148.85 131.10 L 155.53 129.83 L 162.22 128.55 L 168.91 127.28 L 175.60 126.00 L 182.29 124.72 L 188.97 123.44 L 195.66 122.16 L 202.34 120.88 L 209.02 119.61 L 215.70 118.34 L 222.38 117.07 L 229.05 115.80 L 235.73 114.53 L 242.41 113.25 L 249.09 111.97 L 255.77 110.70 L 262.46 109.44 L 269.16 108.22 L 275.87 107.09 L 282.61 106.16 L 289.38 105.59 L 296.17 105.52 L 302.92 106.05 L 309.54 107.29 L 315.95 109.31 L 322.05 112.11 L 327.74 115.65 L 332.93 119.91 L 337.53 124.80 L 341.45 130.26 L 344.63 136.23 L 347.02 142.66 L 348.60 149.49 L 349.44 156.68 L 349.71 164.17 L 349.62 171.90 L 349.36 179.82 L 349.02 187.85 L 348.61 195.94 L 348.08 204.02 L 347.31 212.02 L 346.15 219.87 L 344.50 227.51 L 342.38 234.90 L 339.86 242.02 L 336.99 248.88 L 333.84 255.57 L 330.46 262.20 L 326.85 268.78 L 323.01 275.23 L 318.95 281.39 L 314.68 287.15 L 310.23 292.58 L 305.69 297.78 L 301.09 302.88 L 296.48 307.93 L 291.86 312.97 L 287.24 318.00 L 282.62 323.04 L 278.00 328.07 L 273.37 333.10 L 268.75 338.11 Z" />
</symbol>
<symbol id="bl1">
<path d="M 407.30 240.19 L 403.11 241.28 L 398.90 242.36 L 394.70 243.44 L 390.49 244.52 L 386.28 245.59 L 382.05 246.63 L 377.80 247.62 L 373.47 248.46 L 369.05 249.09 L 364.51 249.44 L 359.85 249.53 L 355.10 249.43 L 350.29 249.17 L 345.46 248.81 L 340.61 248.36 L 335.81 247.77 L 331.08 246.92 L 326.48 245.67 L 322.02 243.95 L 317.70 241.80 L 313.47 239.31 L 309.31 236.57 L 305.21 233.61 L 301.13 230.49 L 297.08 227.28 L 293.05 224.03 L 289.01 220.76 L 284.98 217.49 L 280.95 214.20 L 276.93 210.92 L 272.93 207.63 L 269.01 204.33 L 265.25 200.99 L 261.75 197.60 L 258.57 194.12 L 255.70 190.57 L 253.11 186.93 L 250.79 183.17 L 248.78 179.29 L 247.10 175.27 L 245.77 171.13 L 244.81 166.90 L 244.23 162.61 L 244.01 158.28 L 244.16 153.96 L 244.66 149.65 L 245.50 145.41 L 246.68 141.25 L 248.20 137.20 L 250.04 133.30 L 252.18 129.56 L 254.62 126.00 L 257.34 122.65 L 260.33 119.53 L 263.56 116.66 L 267.01 114.05 L 270.67 111.73 L 274.50 109.71 L 278.49 107.99 L 282.59 106.58 L 286.80 105.46 L 291.06 104.58 L 295.36 103.91 L 299.68 103.39 L 304.01 102.95 L 308.34 102.55 L 312.66 102.16 L 316.99 101.78 L 321.32 101.40 L 325.64 101.02 L 329.97 100.65 L 334.29 100.28 L 338.61 99.91 L 342.94 99.54 L 347.28 99.17 L 351.61 98.80 L 355.95 98.43 L 360.29 98.06 L 364.63 97.69 L 368.96 97.32 L 373.30 96.96 L 377.63 96.59 L 381.96 96.23 L 386.29 95.86 L 390.62 95.51 L 394.94 95.15 L 399.26 94.80 L 403.57 94.46 L 407.89 94.14 L 412.20 93.88 L 416.51 93.72 L 420.82 93.73 L 425.13 93.96 L 429.41 94.43 L 433.65 95.16 L 437.85 96.14 L 441.97 97.38 L 446.02 98.87 L 449.96 100.60 L 453.79 102.58 L 457.50 104.78 L 461.06 107.21 L 464.47 109.85 L 467.72 112.71 L 470.78 115.75 L 473.66 118.99 L 476.33 122.39 L 478.78 125.96 L 481.02 129.67 L 483.02 133.51 L 484.78 137.47 L 486.30 141.52 L 487.56 145.66 L 488.56 149.87 L 489.31 154.13 L 489.79 158.42 L 490.00 162.73 L 489.95 167.04 L 489.63 171.35 L 489.05 175.62 L 488.21 179.86 L 487.12 184.03 L 485.77 188.12 L 484.17 192.12 L 482.33 196.01 L 480.26 199.77 L 477.96 203.41 L 475.44 206.89 L 472.72 210.21 L 469.80 213.35 L 466.69 216.32 L 463.40 219.09 L 459.95 221.65 L 456.35 224.00 L 452.61 226.12 L 448.75 228.01 L 444.78 229.69 L 440.73 231.16 L 436.61 232.46 L 432.45 233.65 L 428.27 234.78 L 424.09 235.87 L 419.90 236.95 L 415.70 238.03 L 411.50 239.11 Z" />
</symbol>
<symbol id="bl2">
<path d="M 403.49 289.24 L 403.57 291.68 L 403.50 294.12 L 403.30 296.55 L 402.96 298.96 L 402.48 301.35 L 401.86 303.71 L 401.11 306.03 L 400.22 308.30 L 399.21 310.51 L 398.07 312.67 L 396.81 314.76 L 395.43 316.76 L 393.94 318.69 L 392.34 320.52 L 390.64 322.27 L 388.83 323.91 L 386.93 325.45 L 384.94 326.88 L 382.87 328.19 L 380.73 329.38 L 378.52 330.45 L 376.25 331.38 L 373.94 332.18 L 371.58 332.85 L 369.19 333.38 L 366.78 333.77 L 364.34 334.02 L 361.90 334.12 L 359.45 334.09 L 357.01 333.91 L 354.57 333.59 L 352.17 333.13 L 349.78 332.53 L 347.43 331.80 L 345.13 330.92 L 342.88 329.92 L 340.70 328.79 L 338.59 327.54 L 336.55 326.18 L 334.59 324.71 L 332.70 323.16 L 330.86 321.54 L 329.06 319.87 L 327.29 318.17 L 325.54 316.46 L 323.80 314.73 L 322.06 313.01 L 320.32 311.28 L 318.58 309.57 L 316.84 307.85 L 315.10 306.12 L 313.36 304.40 L 311.62 302.67 L 309.88 300.93 L 308.13 299.20 L 306.39 297.48 L 304.65 295.75 L 302.90 294.03 L 301.16 292.30 L 299.41 290.57 L 297.66 288.85 L 295.92 287.12 L 294.17 285.39 L 292.45 283.65 L 290.76 281.88 L 289.13 280.06 L 287.58 278.17 L 286.15 276.20 L 284.88 274.12 L 283.81 271.92 L 282.96 269.57 L 282.34 267.08 L 281.96 264.47 L 281.82 261.80 L 281.94 259.16 L 282.32 256.60 L 282.95 254.15 L 283.81 251.81 L 284.88 249.57 L 286.10 247.40 L 287.44 245.30 L 288.83 243.23 L 290.27 241.19 L 291.72 239.17 L 293.18 237.15 L 294.64 235.13 L 296.10 233.11 L 297.56 231.09 L 299.03 229.06 L 300.49 227.04 L 301.96 225.02 L 303.43 223.01 L 304.90 221.01 L 306.40 219.01 L 307.94 217.04 L 309.54 215.12 L 311.24 213.29 L 313.06 211.59 L 315.02 210.07 L 317.12 208.76 L 319.37 207.67 L 321.72 206.80 L 324.19 206.19 L 326.75 205.87 L 329.37 205.81 L 332.02 205.99 L 334.66 206.36 L 337.29 206.86 L 339.90 207.44 L 342.51 208.06 L 345.11 208.70 L 347.71 209.34 L 350.31 209.98 L 352.91 210.62 L 355.51 211.26 L 358.11 211.91 L 360.69 212.57 L 363.26 213.27 L 365.81 214.05 L 368.30 214.97 L 370.68 216.11 L 372.92 217.52 L 374.95 219.19 L 376.74 221.06 L 378.27 223.09 L 379.57 225.22 L 380.71 227.42 L 381.74 229.66 L 382.71 231.91 L 383.64 234.17 L 384.57 236.44 L 385.49 238.70 L 386.41 240.96 L 387.33 243.22 L 388.26 245.49 L 389.19 247.75 L 390.12 250.02 L 391.06 252.29 L 392.00 254.56 L 392.94 256.83 L 393.88 259.10 L 394.81 261.36 L 395.75 263.61 L 396.68 265.87 L 397.61 268.13 L 398.54 270.40 L 399.43 272.67 L 400.29 274.96 L 401.09 277.27 L 401.81 279.61 L 402.43 281.98 L 402.92 284.39 L 403.27 286.81 Z" />
</symbol>
</defs>
<!-- isDone: 0 -->
<rect width="700" height="500" style="fill:#fff;stroke-width:0" />
<use class="p0 borderLine" xlink:href="#bl0"/>
<use class="p1 borderLine" xlink:href="#bl1"/>
<use class="p2 borderLine" xlink:href="#bl2"/>
<use class="q0 outLine" xlink:href="#bl0"/>
<use class="q1 outLine" xlink:href="#bl1"/>
<use class="q2 outLine" xlink:href="#bl2"/>
<circle onclick="fromCircle(4)" class="circle" cx="144.6955" cy="270.7531" r="132.3756" />
<text class="nLabel" x="144.70" y="265.75">255</text>
<text class="belong" x="144.70" y="275.75">(1)</text>
<circle onclick="fromCircle(6)" class="circle" cx="297.4066" cy="157.8498" r="49.7381" />
<text class="nLabel" x="297.41" y="152.85">36</text>
<text class="belong" x="297.41" y="162.85">(1, 2)</text>
<circle onclick="fromCircle(7)" class="circle" cx="327.3779" cy="226.2484" r="16.5794" />
<text class="nLabel" x="327.38" y="221.25">4</text>
<text class="belong" x="327.38" y="231.25">(1, 2, 3)</text>
<circle onclick="fromCircle(2)" class="circle" cx="420.1288" cy="163.8002" r="66.3175" />
<text class="nLabel" x="420.13" y="158.80">64</text>
<text class="belong" x="420.13" y="168.80">(2)</text>
<circle onclick="fromCircle(3)" class="circle" cx="362.5368" cy="232.2517" r="14.3581" />
<text class="nLabel" x="362.54" y="227.25">3</text>
<text class="belong" x="362.54" y="237.25">(2, 3)</text>
<circle onclick="fromCircle(1)" class="circle" cx="361.3415" cy="291.9331" r="37.9881" />
<text class="nLabel" x="361.34" y="286.93">21</text>
<text class="belong" x="361.34" y="296.93">(3)</text>
<circle onclick="fromCircle(5)" class="circle" cx="305.9561" cy="261.9567" r="20.3055" />
<text class="nLabel" x="305.96" y="256.96">6</text>
<text class="belong" x="305.96" y="266.96">(1, 3)</text>
<g id="legendBox">
<rect class="p0 borderLine" x="500.00" y="50.00" width="30.00" height="15.00" />
<rect class="q0" x="500.00" y="50.00" width="30.00" height="15.00" />
<text class="legend" x="540.00" y="65.00">bike UGA_2019</text>
<rect class="p1 borderLine" x="500.00" y="90.00" width="30.00" height="15.00" />
<rect class="q1" x="500.00" y="90.00" width="30.00" height="15.00" />
<text class="legend" x="540.00" y="105.00">motorbike UGA_2019</text>
<rect class="p2 borderLine" x="500.00" y="130.00" width="30.00" height="15.00" />
<rect class="q2" x="500.00" y="130.00" width="30.00" height="15.00" />
<text class="legend" x="540.00" y="145.00">motor_vehicle UGA_2019</text>
</g>
</svg>
