<svg xmlns="http://www.w3.org/2000/svg" xmlns:xlink="http://www.w3.org/1999/xlink" width="700" height="500">
<defs>
<style type="text/css"><![CDATA[
  .borderLine {
	   stroke: none;
	   fill-opacity:  0.4 ;
  }
  .outLine {
	   stroke-width:  1 ;
	   fill: none;
  }
  .circle {
	   stroke: #888888;
	   stroke-width: 0.5;
	   fill: none;
    pointer-events: all;
  }
  .nLabel {
	   font-family: Arial;
    pointer-events: none;
	   font-size: 10px;
	   text-anchor: middle;
	   alignment-baseline: central;
  }
  .belong {
	   font-family: Arial;
    pointer-events: none;
	   font-size: 5px;
	   text-anchor: middle;
	   alignment-baseline: central;
  }
  .legend {
    font-family: Arial;
    font-size: 15px;
  }
  #legendBox {
    display:  inline ;
  }
  .p0{
    stroke: none;
    fill:  #00F ;
  }
  .q0{
    fill: none;
    stroke:  #00F ;
  }
  .p1{
    stroke: none;
    fill:  #0F0 ;
  }
  .q1{
    fill: none;
    stroke:  #0F0 ;
  }
  .p2{
    stroke: none;
    fill:  #F00 ;
  }
  .q2{
    fill: none;
    stroke:  #F00 ;
  }
]]>
</style>
<symbol id="bl0">
<path d="M 408.29 324.07 L 401.47 330.48 L 394.81 336.31 L 388.34 341.88 L 382.00 347.36 L 375.61 352.69 L 368.93 357.67 L 361.80 362.12 L 354.31 366.02 L 346.59 369.42 L 338.79 372.38 L 330.97 375.04 L 323.15 377.53 L 315.33 379.94 L 307.50 382.33 L 299.68 384.71 L 291.86 387.09 L 284.04 389.47 L 276.22 391.85 L 268.40 394.23 L 260.59 396.60 L 252.77 398.96 L 244.95 401.31 L 237.11 403.60 L 229.25 405.80 L 221.34 407.84 L 213.38 409.66 L 205.37 411.19 L 197.30 412.36 L 189.19 413.15 L 181.05 413.56 L 172.90 413.56 L 164.75 413.17 L 156.64 412.38 L 148.58 411.19 L 140.58 409.61 L 132.66 407.65 L 124.86 405.30 L 117.17 402.56 L 109.63 399.46 L 102.25 395.99 L 95.05 392.16 L 88.04 387.99 L 81.24 383.47 L 74.68 378.63 L 68.35 373.49 L 62.29 368.03 L 56.50 362.28 L 51.00 356.26 L 45.80 349.98 L 40.92 343.45 L 36.35 336.70 L 32.13 329.72 L 28.24 322.55 L 24.71 315.20 L 21.55 307.68 L 18.76 300.02 L 16.33 292.22 L 14.30 284.32 L 12.65 276.32 L 11.39 268.27 L 10.54 260.15 L 10.07 252.00 L 10.00 243.84 L 10.34 235.69 L 11.06 227.56 L 12.19 219.47 L 13.71 211.46 L 15.61 203.52 L 17.90 195.68 L 20.57 187.97 L 23.62 180.40 L 27.02 172.99 L 30.79 165.76 L 34.90 158.71 L 39.35 151.88 L 44.13 145.27 L 49.22 138.91 L 54.62 132.80 L 60.31 126.96 L 66.28 121.40 L 72.51 116.13 L 79.00 111.19 L 85.72 106.56 L 92.66 102.26 L 99.80 98.32 L 107.12 94.72 L 114.61 91.48 L 122.25 88.62 L 130.02 86.14 L 137.90 84.03 L 145.88 82.31 L 153.93 80.99 L 162.03 80.05 L 170.16 79.52 L 178.32 79.39 L 186.47 79.65 L 194.60 80.31 L 202.68 81.38 L 210.71 82.82 L 218.66 84.67 L 226.50 86.90 L 234.24 89.50 L 241.84 92.48 L 249.30 95.79 L 256.63 99.40 L 263.82 103.28 L 270.92 107.34 L 277.96 111.51 L 284.98 115.72 L 291.99 119.95 L 299.00 124.19 L 306.01 128.43 L 313.02 132.67 L 320.03 136.91 L 327.04 141.15 L 334.06 145.40 L 341.07 149.64 L 348.09 153.89 L 355.11 158.14 L 362.13 162.38 L 369.15 166.63 L 376.18 170.87 L 383.25 175.10 L 390.43 179.27 L 397.87 183.32 L 405.73 187.24 L 414.05 191.10 L 422.63 195.30 L 431.04 200.37 L 438.81 206.76 L 445.47 214.56 L 450.60 223.57 L 453.94 233.44 L 455.33 243.79 L 454.73 254.25 L 452.23 264.48 L 448.04 274.26 L 442.51 283.49 L 436.12 292.30 L 429.27 300.81 L 422.26 309.05 L 415.24 316.89 Z" />
</symbol>
<symbol id="bl1">
<path d="M 441.06 288.09 L 438.39 291.36 L 435.71 294.63 L 433.03 297.90 L 430.34 301.17 L 427.65 304.44 L 424.97 307.70 L 422.28 310.97 L 419.59 314.23 L 416.90 317.50 L 414.21 320.76 L 411.51 324.02 L 408.79 327.24 L 405.98 330.37 L 402.99 333.28 L 399.70 335.78 L 396.04 337.70 L 392.10 338.93 L 388.07 339.35 L 384.12 338.88 L 380.43 337.54 L 377.14 335.40 L 374.35 332.53 L 371.99 329.14 L 369.92 325.47 L 368.07 321.70 L 366.42 317.90 L 364.90 314.12 L 363.46 310.34 L 362.04 306.56 L 360.64 302.78 L 359.24 299.00 L 357.84 295.22 L 356.44 291.44 L 355.04 287.66 L 353.64 283.89 L 352.25 280.11 L 350.86 276.33 L 349.50 272.54 L 348.21 268.73 L 347.05 264.87 L 346.08 260.97 L 345.31 257.02 L 344.78 253.07 L 344.48 249.11 L 344.40 245.15 L 344.52 241.17 L 344.89 237.15 L 345.52 233.09 L 346.39 229.00 L 347.46 224.92 L 348.68 220.87 L 349.99 216.85 L 351.36 212.85 L 352.75 208.84 L 354.14 204.84 L 355.54 200.85 L 356.93 196.85 L 358.33 192.85 L 359.73 188.85 L 361.12 184.86 L 362.52 180.86 L 363.91 176.86 L 365.31 172.86 L 366.70 168.86 L 368.10 164.86 L 369.50 160.86 L 370.89 156.86 L 372.29 152.86 L 373.68 148.86 L 375.08 144.86 L 376.48 140.85 L 377.88 136.86 L 379.29 132.86 L 380.72 128.88 L 382.22 124.92 L 383.83 121.01 L 385.62 117.20 L 387.66 113.52 L 389.96 110.00 L 392.51 106.66 L 395.30 103.53 L 398.33 100.62 L 401.57 97.95 L 405.00 95.54 L 408.61 93.39 L 412.37 91.52 L 416.26 89.96 L 420.26 88.68 L 424.35 87.72 L 428.50 87.07 L 432.69 86.74 L 436.89 86.73 L 441.08 87.04 L 445.24 87.67 L 449.34 88.61 L 453.35 89.87 L 457.25 91.43 L 461.03 93.28 L 464.65 95.42 L 468.10 97.82 L 471.36 100.48 L 474.40 103.38 L 477.22 106.50 L 479.79 109.83 L 482.09 113.34 L 484.12 117.03 L 485.87 120.85 L 487.32 124.81 L 488.46 128.85 L 489.29 132.98 L 489.80 137.15 L 490.00 141.35 L 489.89 145.56 L 489.48 149.74 L 488.81 153.90 L 487.94 158.03 L 486.91 162.12 L 485.77 166.17 L 484.58 170.22 L 483.36 174.26 L 482.13 178.29 L 480.90 182.33 L 479.67 186.37 L 478.44 190.40 L 477.21 194.44 L 475.98 198.48 L 474.75 202.51 L 473.52 206.55 L 472.29 210.59 L 471.07 214.63 L 469.84 218.66 L 468.61 222.70 L 467.38 226.74 L 466.15 230.78 L 464.92 234.81 L 463.70 238.85 L 462.47 242.89 L 461.24 246.93 L 460.01 250.96 L 458.76 254.99 L 457.48 259.00 L 456.10 262.98 L 454.56 266.90 L 452.81 270.72 L 450.84 274.42 L 448.64 278.00 L 446.24 281.45 L 443.69 284.80 Z" />
</symbol>
<symbol id="bl2">
<path d="M 438.08 407.28 L 436.37 409.01 L 434.57 410.63 L 432.68 412.16 L 430.70 413.56 L 428.64 414.85 L 426.51 416.02 L 424.32 417.06 L 422.07 417.97 L 419.78 418.75 L 417.44 419.40 L 415.06 419.91 L 412.66 420.29 L 410.24 420.52 L 407.81 420.61 L 405.38 420.57 L 402.96 420.37 L 400.55 420.04 L 398.17 419.58 L 395.82 418.97 L 393.50 418.23 L 391.23 417.36 L 389.02 416.36 L 386.87 415.23 L 384.78 413.98 L 382.77 412.62 L 380.82 411.16 L 378.92 409.63 L 377.08 408.04 L 375.27 406.41 L 373.48 404.76 L 371.70 403.10 L 369.91 401.44 L 368.14 399.77 L 366.36 398.10 L 364.58 396.44 L 362.80 394.78 L 361.01 393.13 L 359.23 391.47 L 357.45 389.81 L 355.67 388.15 L 353.89 386.48 L 352.11 384.81 L 350.32 383.15 L 348.54 381.49 L 346.76 379.83 L 344.98 378.17 L 343.21 376.51 L 341.43 374.85 L 339.65 373.19 L 337.87 371.54 L 336.09 369.88 L 334.32 368.21 L 332.55 366.54 L 330.80 364.86 L 329.08 363.14 L 327.42 361.37 L 325.87 359.52 L 324.46 357.56 L 323.22 355.51 L 322.16 353.35 L 321.28 351.11 L 320.60 348.80 L 320.11 346.44 L 319.84 344.05 L 319.78 341.64 L 319.92 339.23 L 320.30 336.83 L 320.90 334.44 L 321.74 332.06 L 322.80 329.70 L 324.06 327.42 L 325.48 325.27 L 327.03 323.32 L 328.70 321.55 L 330.49 319.96 L 332.41 318.56 L 334.44 317.32 L 336.56 316.25 L 338.76 315.32 L 341.00 314.51 L 343.27 313.77 L 345.56 313.04 L 347.85 312.33 L 350.14 311.62 L 352.43 310.90 L 354.72 310.19 L 357.00 309.47 L 359.30 308.75 L 361.59 308.04 L 363.88 307.32 L 366.17 306.60 L 368.47 305.89 L 370.76 305.18 L 373.05 304.47 L 375.35 303.76 L 377.66 303.07 L 379.98 302.45 L 382.36 301.95 L 384.83 301.70 L 387.42 301.73 L 390.09 302.02 L 392.77 302.50 L 395.38 303.16 L 397.83 304.05 L 400.07 305.22 L 402.11 306.64 L 403.97 308.24 L 405.68 309.99 L 407.31 311.81 L 408.88 313.67 L 410.43 315.56 L 411.96 317.44 L 413.50 319.33 L 415.05 321.23 L 416.59 323.12 L 418.13 325.02 L 419.67 326.92 L 421.21 328.81 L 422.75 330.70 L 424.29 332.59 L 425.83 334.48 L 427.37 336.37 L 428.91 338.26 L 430.44 340.16 L 431.98 342.05 L 433.51 343.96 L 435.05 345.86 L 436.58 347.76 L 438.10 349.66 L 439.59 351.59 L 441.03 353.56 L 442.39 355.58 L 443.65 357.66 L 444.81 359.80 L 445.84 362.01 L 446.74 364.27 L 447.52 366.57 L 448.15 368.92 L 448.66 371.29 L 449.02 373.70 L 449.24 376.12 L 449.32 378.55 L 449.26 380.97 L 449.06 383.39 L 448.72 385.80 L 448.24 388.18 L 447.62 390.53 L 446.87 392.84 L 445.99 395.11 L 444.97 397.31 L 443.83 399.46 L 442.57 401.54 L 441.18 403.54 L 439.69 405.45 Z" />
</symbol>
</defs>
<!-- isDone: 0 -->
<rect width="700" height="500" style="fill:#fff;stroke-width:0" />
<use class="p0 borderLine" xlink:href="#bl0"/>
<use class="p1 borderLine" xlink:href="#bl1"/>
<use class="p2 borderLine" xlink:href="#bl2"/>
<use class="q0 outLine" xlink:href="#bl0"/>
<use class="q1 outLine" xlink:href="#bl1"/>
<use class="q2 outLine" xlink:href="#bl2"/>
<circle onclick="fromCircle(4)" class="circle" cx="176.1687" cy="246.3574" r="162.6871" />
<text class="nLabel" x="176.17" y="241.36">359</text>
<text class="belong" x="176.17" y="251.36">(1)</text>
<circle onclick="fromCircle(6)" class="circle" cx="401.3065" cy="245.5928" r="52.2284" />
<text class="nLabel" x="401.31" y="240.59">37</text>
<text class="belong" x="401.31" y="250.59">(1, 2)</text>
<circle onclick="fromCircle(7)" class="circle" cx="388.1590" cy="320.9657" r="14.8719" />
<text class="nLabel" x="388.16" y="315.97">3</text>
<text class="belong" x="388.16" y="325.97">(1, 2, 3)</text>
<circle onclick="fromCircle(2)" class="circle" cx="435.1096" cy="141.3835" r="50.0663" />
<text class="nLabel" x="435.11" y="136.38">34</text>
<text class="belong" x="435.11" y="146.38">(2)</text>
<circle onclick="fromCircle(1)" class="circle" cx="407.4951" cy="378.9149" r="36.4286" />
<text class="nLabel" x="407.50" y="373.91">18</text>
<text class="belong" x="407.50" y="383.91">(3)</text>
<circle onclick="fromCircle(5)" class="circle" cx="347.7637" cy="342.0907" r="22.7172" />
<text class="nLabel" x="347.76" y="337.09">7</text>
<text class="belong" x="347.76" y="347.09">(1, 3)</text>
<g id="legendBox">
<rect class="p0 borderLine" x="500.00" y="50.00" width="30.00" height="15.00" />
<rect class="q0" x="500.00" y="50.00" width="30.00" height="15.00" />
<text class="legend" x="540.00" y="65.00">bike</text>
<rect class="p1 borderLine" x="500.00" y="90.00" width="30.00" height="15.00" />
<rect class="q1" x="500.00" y="90.00" width="30.00" height="15.00" />
<text class="legend" x="540.00" y="105.00">motorbike</text>
<rect class="p2 borderLine" x="500.00" y="130.00" width="30.00" height="15.00" />
<rect class="q2" x="500.00" y="130.00" width="30.00" height="15.00" />
<text class="legend" x="540.00" y="145.00">motor_vehicle</text>
</g>
</svg>
