<svg xmlns="http://www.w3.org/2000/svg" xmlns:xlink="http://www.w3.org/1999/xlink" width="700" height="500">
<defs>
<style type="text/css"><![CDATA[
  .borderLine {
	   stroke: none;
	   fill-opacity:  0.4 ;
  }
  .outLine {
	   stroke-width:  1 ;
	   fill: none;
  }
  .circle {
	   stroke: #888888;
	   stroke-width: 0.5;
	   fill: none;
    pointer-events: all;
  }
  .nLabel {
	   font-family: Arial;
    pointer-events: none;
	   font-size: 10px;
	   text-anchor: middle;
	   alignment-baseline: central;
  }
  .belong {
	   font-family: Arial;
    pointer-events: none;
	   font-size: 5px;
	   text-anchor: middle;
	   alignment-baseline: central;
  }
  .legend {
    font-family: Arial;
    font-size: 15px;
  }
  #legendBox {
    display:  inline ;
  }
  .p0{
    stroke: none;
    fill:  #00F ;
  }
  .q0{
    fill: none;
    stroke:  #00F ;
  }
  .p1{
    stroke: none;
    fill:  #0F0 ;
  }
  .q1{
    fill: none;
    stroke:  #0F0 ;
  }
  .p2{
    stroke: none;
    fill:  #F00 ;
  }
  .q2{
    fill: none;
    stroke:  #F00 ;
  }
]]>
</style>
<symbol id="bl0">
<path d="M 301.67 338.31 L 295.66 342.89 L 289.66 347.47 L 283.65 352.05 L 277.64 356.62 L 271.63 361.19 L 265.61 365.72 L 259.55 370.20 L 253.42 374.57 L 247.17 378.73 L 240.76 382.64 L 234.19 386.26 L 227.46 389.56 L 220.57 392.53 L 213.55 395.17 L 206.41 397.45 L 199.16 399.38 L 191.83 400.95 L 184.44 402.17 L 177.00 403.02 L 169.53 403.50 L 162.04 403.62 L 154.56 403.37 L 147.10 402.76 L 139.68 401.78 L 132.32 400.44 L 125.03 398.74 L 117.84 396.69 L 110.74 394.29 L 103.78 391.54 L 96.95 388.46 L 90.28 385.05 L 83.78 381.31 L 77.48 377.27 L 71.38 372.91 L 65.49 368.27 L 59.84 363.34 L 54.44 358.14 L 49.30 352.67 L 44.42 346.97 L 39.83 341.02 L 35.54 334.86 L 31.54 328.50 L 27.87 321.94 L 24.52 315.21 L 21.50 308.34 L 18.82 301.32 L 16.49 294.19 L 14.50 286.95 L 12.88 279.62 L 11.62 272.23 L 10.71 264.78 L 10.17 257.30 L 10.00 249.80 L 10.19 242.31 L 10.75 234.83 L 11.67 227.39 L 12.95 220.00 L 14.59 212.68 L 16.59 205.45 L 18.94 198.32 L 21.63 191.32 L 24.66 184.46 L 28.02 177.76 L 31.70 171.22 L 35.70 164.88 L 40.00 158.73 L 44.61 152.80 L 49.49 147.10 L 54.65 141.65 L 60.07 136.46 L 65.74 131.54 L 71.63 126.90 L 77.74 122.56 L 84.06 118.52 L 90.56 114.79 L 97.23 111.40 L 104.06 108.33 L 111.03 105.60 L 118.12 103.22 L 125.33 101.18 L 132.62 99.50 L 139.99 98.18 L 147.41 97.22 L 154.88 96.62 L 162.37 96.38 L 169.86 96.50 L 177.34 96.95 L 184.80 97.71 L 192.25 98.69 L 199.68 99.83 L 207.11 101.03 L 214.53 102.28 L 221.96 103.54 L 229.39 104.80 L 236.83 106.06 L 244.27 107.33 L 251.70 108.60 L 259.14 109.88 L 266.58 111.15 L 274.02 112.42 L 281.46 113.69 L 288.90 114.96 L 296.34 116.23 L 303.78 117.50 L 311.22 118.77 L 318.66 120.04 L 326.11 121.31 L 333.55 122.59 L 341.00 123.88 L 348.44 125.23 L 355.85 126.68 L 363.18 128.35 L 370.35 130.42 L 377.22 133.10 L 383.68 136.57 L 389.59 140.84 L 394.83 145.89 L 399.29 151.63 L 402.89 157.97 L 405.52 164.76 L 407.14 171.89 L 407.70 179.26 L 407.23 186.78 L 405.82 194.39 L 403.70 202.09 L 401.18 209.87 L 398.50 217.73 L 395.74 225.59 L 392.92 233.32 L 389.98 240.77 L 386.82 247.93 L 383.32 254.89 L 379.37 261.82 L 374.93 268.82 L 370.15 275.81 L 365.18 282.66 L 360.07 289.19 L 354.76 295.25 L 349.22 300.77 L 343.47 305.85 L 337.58 310.66 L 331.62 315.33 L 325.64 319.95 L 319.65 324.55 L 313.66 329.14 L 307.67 333.73 Z" />
</symbol>
<symbol id="bl1">
<path d="M 413.53 268.20 L 410.20 268.90 L 406.83 269.44 L 403.40 269.70 L 399.87 269.62 L 396.21 269.18 L 392.39 268.41 L 388.42 267.38 L 384.32 266.15 L 380.20 264.78 L 376.15 263.30 L 372.35 261.67 L 368.93 259.84 L 365.95 257.77 L 363.34 255.51 L 360.89 253.13 L 358.43 250.71 L 355.86 248.29 L 353.17 245.89 L 350.41 243.50 L 347.60 241.11 L 344.78 238.73 L 341.95 236.35 L 339.12 233.98 L 336.29 231.61 L 333.46 229.22 L 330.64 226.83 L 327.84 224.40 L 325.08 221.93 L 322.39 219.39 L 319.81 216.75 L 317.38 213.98 L 315.15 211.09 L 313.14 208.08 L 311.38 205.01 L 309.86 201.89 L 308.56 198.74 L 307.43 195.56 L 306.47 192.34 L 305.68 189.05 L 305.10 185.72 L 304.74 182.35 L 304.63 178.97 L 304.75 175.58 L 305.11 172.22 L 305.70 168.88 L 306.50 165.59 L 307.51 162.35 L 308.73 159.19 L 310.14 156.11 L 311.75 153.13 L 313.55 150.27 L 315.53 147.52 L 317.68 144.90 L 320.00 142.43 L 322.47 140.11 L 325.08 137.95 L 327.83 135.97 L 330.69 134.16 L 333.67 132.55 L 336.74 131.13 L 339.89 129.91 L 343.12 128.89 L 346.41 128.09 L 349.74 127.49 L 353.11 127.11 L 356.50 126.96 L 359.89 127.01 L 363.28 127.28 L 366.63 127.77 L 369.96 128.47 L 373.24 129.37 L 376.47 130.46 L 379.65 131.69 L 382.78 133.04 L 385.88 134.46 L 388.95 135.92 L 392.01 137.40 L 395.06 138.89 L 398.11 140.40 L 401.17 141.90 L 404.22 143.40 L 407.29 144.90 L 410.35 146.40 L 413.41 147.90 L 416.48 149.39 L 419.55 150.89 L 422.61 152.39 L 425.67 153.88 L 428.73 155.38 L 431.78 156.89 L 434.84 158.40 L 437.89 159.90 L 440.94 161.41 L 443.99 162.92 L 447.04 164.42 L 450.09 165.94 L 453.14 167.46 L 456.19 169.00 L 459.23 170.55 L 462.26 172.15 L 465.23 173.82 L 468.15 175.61 L 470.97 177.54 L 473.67 179.62 L 476.21 181.88 L 478.58 184.32 L 480.76 186.93 L 482.73 189.70 L 484.48 192.60 L 486.01 195.63 L 487.30 198.77 L 488.34 202.00 L 489.14 205.30 L 489.68 208.64 L 489.97 212.02 L 490.00 215.41 L 489.77 218.78 L 489.28 222.13 L 488.55 225.43 L 487.56 228.66 L 486.32 231.81 L 484.85 234.86 L 483.15 237.79 L 481.23 240.59 L 479.10 243.23 L 476.78 245.70 L 474.27 247.98 L 471.60 250.07 L 468.78 251.94 L 465.82 253.61 L 462.76 255.06 L 459.60 256.30 L 456.38 257.37 L 453.12 258.33 L 449.84 259.22 L 446.55 260.07 L 443.25 260.90 L 439.95 261.72 L 436.65 262.54 L 433.35 263.36 L 430.05 264.17 L 426.75 264.99 L 423.45 265.81 L 420.15 266.62 L 416.84 267.43 Z" />
</symbol>
<symbol id="bl2">
<path d="M 426.81 312.98 L 426.28 315.17 L 425.61 317.31 L 424.81 319.41 L 423.88 321.46 L 422.83 323.44 L 421.66 325.35 L 420.37 327.19 L 418.97 328.94 L 417.47 330.60 L 415.86 332.16 L 414.16 333.62 L 412.37 334.98 L 410.50 336.21 L 408.56 337.34 L 406.55 338.34 L 404.49 339.22 L 402.37 339.96 L 400.21 340.58 L 398.02 341.06 L 395.80 341.40 L 393.58 341.61 L 391.35 341.67 L 389.12 341.60 L 386.90 341.38 L 384.70 341.03 L 382.52 340.54 L 380.37 339.93 L 378.27 339.18 L 376.21 338.30 L 374.21 337.30 L 372.27 336.18 L 370.40 334.95 L 368.58 333.62 L 366.82 332.21 L 365.11 330.74 L 363.43 329.23 L 361.76 327.71 L 360.09 326.19 L 358.43 324.66 L 356.77 323.12 L 355.11 321.59 L 353.45 320.05 L 351.79 318.51 L 350.13 316.96 L 348.47 315.42 L 346.82 313.87 L 345.16 312.33 L 343.51 310.78 L 341.85 309.24 L 340.20 307.69 L 338.55 306.15 L 336.89 304.60 L 335.23 303.06 L 333.57 301.51 L 331.92 299.96 L 330.26 298.41 L 328.61 296.85 L 326.98 295.28 L 325.39 293.68 L 323.85 292.02 L 322.40 290.29 L 321.06 288.47 L 319.85 286.57 L 318.79 284.58 L 317.90 282.51 L 317.19 280.36 L 316.66 278.15 L 316.33 275.87 L 316.21 273.53 L 316.30 271.10 L 316.63 268.59 L 317.22 265.98 L 318.11 263.30 L 319.32 260.61 L 320.86 258.00 L 322.70 255.55 L 324.82 253.31 L 327.17 251.30 L 329.72 249.50 L 332.41 247.90 L 335.19 246.43 L 338.02 245.06 L 340.88 243.73 L 343.75 242.42 L 346.61 241.12 L 349.47 239.84 L 352.33 238.55 L 355.17 237.27 L 357.99 236.01 L 360.77 234.79 L 363.47 233.65 L 366.03 232.66 L 368.45 231.86 L 370.75 231.27 L 373.00 230.89 L 375.26 230.77 L 377.56 230.93 L 379.89 231.31 L 382.23 231.86 L 384.57 232.51 L 386.89 233.21 L 389.21 233.95 L 391.51 234.70 L 393.81 235.47 L 396.11 236.23 L 398.40 237.01 L 400.68 237.82 L 402.95 238.67 L 405.17 239.61 L 407.32 240.69 L 409.33 241.97 L 411.15 243.47 L 412.73 245.19 L 414.07 247.08 L 415.14 249.11 L 416.00 251.22 L 416.71 253.38 L 417.31 255.57 L 417.86 257.77 L 418.38 259.97 L 418.88 262.17 L 419.39 264.37 L 419.89 266.57 L 420.39 268.77 L 420.89 270.97 L 421.38 273.18 L 421.87 275.38 L 422.36 277.58 L 422.86 279.78 L 423.36 281.97 L 423.87 284.17 L 424.38 286.36 L 424.89 288.56 L 425.40 290.76 L 425.90 292.96 L 426.38 295.16 L 426.81 297.37 L 427.18 299.59 L 427.43 301.82 L 427.57 304.06 L 427.59 306.30 L 427.46 308.54 L 427.21 310.77 Z" />
</symbol>
</defs>
<!-- isDone: 0 -->
<rect width="700" height="500" style="fill:#fff;stroke-width:0" />
<use class="p0 borderLine" xlink:href="#bl0"/>
<use class="p1 borderLine" xlink:href="#bl1"/>
<use class="p2 borderLine" xlink:href="#bl2"/>
<use class="q0 outLine" xlink:href="#bl0"/>
<use class="q1 outLine" xlink:href="#bl1"/>
<use class="q2 outLine" xlink:href="#bl2"/>
<circle onclick="fromCircle(4)" class="circle" cx="162.3991" cy="250.0226" r="149.7136" />
<text class="nLabel" x="162.40" y="245.02">369</text>
<text class="belong" x="162.40" y="255.02">(1)</text>
<circle onclick="fromCircle(6)" class="circle" cx="357.3292" cy="179.5974" r="48.0441" />
<text class="nLabel" x="357.33" y="174.60">38</text>
<text class="belong" x="357.33" y="184.60">(1, 2)</text>
<circle onclick="fromCircle(7)" class="circle" cx="374.6623" cy="246.1825" r="11.0221" />
<text class="nLabel" x="374.66" y="241.18">2</text>
<text class="belong" x="374.66" y="251.18">(1, 2, 3)</text>
<circle onclick="fromCircle(2)" class="circle" cx="445.8414" cy="213.9940" r="39.7406" />
<text class="nLabel" x="445.84" y="208.99">26</text>
<text class="belong" x="445.84" y="218.99">(2)</text>
<circle onclick="fromCircle(3)" class="circle" cx="400.6309" cy="254.7312" r="11.0221" />
<text class="nLabel" x="400.63" y="249.73">2</text>
<text class="belong" x="400.63" y="259.73">(2, 3)</text>
<circle onclick="fromCircle(1)" class="circle" cx="391.5028" cy="305.5964" r="31.1751" />
<text class="nLabel" x="391.50" y="300.60">16</text>
<text class="belong" x="391.50" y="310.60">(3)</text>
<circle onclick="fromCircle(5)" class="circle" cx="342.9455" cy="272.8466" r="22.0441" />
<text class="nLabel" x="342.95" y="267.85">8</text>
<text class="belong" x="342.95" y="277.85">(1, 3)</text>
<g id="legendBox">
<rect class="p0 borderLine" x="500.00" y="50.00" width="30.00" height="15.00" />
<rect class="q0" x="500.00" y="50.00" width="30.00" height="15.00" />
<text class="legend" x="540.00" y="65.00">bike</text>
<rect class="p1 borderLine" x="500.00" y="90.00" width="30.00" height="15.00" />
<rect class="q1" x="500.00" y="90.00" width="30.00" height="15.00" />
<text class="legend" x="540.00" y="105.00">motorbike</text>
<rect class="p2 borderLine" x="500.00" y="130.00" width="30.00" height="15.00" />
<rect class="q2" x="500.00" y="130.00" width="30.00" height="15.00" />
<text class="legend" x="540.00" y="145.00">motor_vehicle</text>
</g>
</svg>
