<svg xmlns="http://www.w3.org/2000/svg" xmlns:xlink="http://www.w3.org/1999/xlink" width="700" height="500">
<defs>
<style type="text/css"><![CDATA[
  .borderLine {
	   stroke: none;
	   fill-opacity:  0.4 ;
  }
  .outLine {
	   stroke-width:  1 ;
	   fill: none;
  }
  .circle {
	   stroke: #888888;
	   stroke-width: 0.5;
	   fill: none;
    pointer-events: all;
  }
  .nLabel {
	   font-family: Arial;
    pointer-events: none;
	   font-size: 10px;
	   text-anchor: middle;
	   alignment-baseline: central;
  }
  .belong {
	   font-family: Arial;
    pointer-events: none;
	   font-size: 5px;
	   text-anchor: middle;
	   alignment-baseline: central;
  }
  .legend {
    font-family: Arial;
    font-size: 15px;
  }
  #legendBox {
    display:  inline ;
  }
  .p0{
    stroke: none;
    fill:  #00F ;
  }
  .q0{
    fill: none;
    stroke:  #00F ;
  }
  .p1{
    stroke: none;
    fill:  #0F0 ;
  }
  .q1{
    fill: none;
    stroke:  #0F0 ;
  }
  .p2{
    stroke: none;
    fill:  #F00 ;
  }
  .q2{
    fill: none;
    stroke:  #F00 ;
  }
]]>
</style>
<symbol id="bl0">
<path d="M 273.08 326.66 L 267.99 330.93 L 262.89 335.23 L 257.79 339.54 L 252.69 343.85 L 247.61 348.15 L 242.53 352.45 L 237.45 356.70 L 232.32 360.88 L 227.11 364.92 L 221.77 368.79 L 216.29 372.45 L 210.66 375.88 L 204.85 379.06 L 198.90 381.97 L 192.82 384.59 L 186.63 386.91 L 180.36 388.91 L 174.03 390.60 L 167.65 391.97 L 161.23 393.01 L 154.78 393.73 L 148.30 394.13 L 141.78 394.21 L 135.24 393.96 L 128.67 393.39 L 122.11 392.49 L 115.60 391.27 L 109.15 389.72 L 102.81 387.87 L 96.59 385.73 L 90.51 383.29 L 84.57 380.57 L 78.79 377.58 L 73.16 374.30 L 67.69 370.74 L 62.40 366.90 L 57.28 362.78 L 52.36 358.38 L 47.66 353.75 L 43.19 348.90 L 38.96 343.85 L 35.00 338.62 L 31.32 333.22 L 27.92 327.67 L 24.80 321.97 L 21.96 316.11 L 19.41 310.12 L 17.15 304.01 L 15.19 297.79 L 13.54 291.48 L 12.20 285.10 L 11.17 278.66 L 10.47 272.18 L 10.07 265.67 L 10.00 259.15 L 10.24 252.63 L 10.79 246.14 L 11.65 239.70 L 12.81 233.32 L 14.29 227.01 L 16.08 220.78 L 18.17 214.65 L 20.56 208.63 L 23.24 202.73 L 26.22 196.95 L 29.48 191.31 L 33.03 185.82 L 36.85 180.49 L 40.93 175.34 L 45.26 170.40 L 49.82 165.67 L 54.59 161.19 L 59.57 156.96 L 64.74 152.98 L 70.09 149.27 L 75.62 145.82 L 81.31 142.66 L 87.14 139.77 L 93.09 137.17 L 99.15 134.87 L 105.30 132.87 L 111.52 131.14 L 117.80 129.65 L 124.16 128.35 L 130.59 127.21 L 137.09 126.17 L 143.65 125.22 L 150.26 124.33 L 156.87 123.48 L 163.46 122.67 L 169.99 121.88 L 176.48 121.10 L 182.92 120.32 L 189.36 119.54 L 195.82 118.74 L 202.33 117.92 L 208.91 117.09 L 215.54 116.25 L 222.19 115.42 L 228.84 114.59 L 235.48 113.77 L 242.13 112.94 L 248.88 112.12 L 255.86 111.27 L 263.21 110.38 L 270.88 109.48 L 278.58 108.64 L 286.03 107.96 L 293.15 107.58 L 300.06 107.64 L 306.83 108.28 L 313.46 109.57 L 319.87 111.54 L 325.94 114.22 L 331.57 117.57 L 336.70 121.55 L 341.24 126.12 L 345.14 131.19 L 348.36 136.71 L 350.84 142.60 L 352.55 148.77 L 353.50 155.14 L 353.73 161.64 L 353.40 168.23 L 352.70 174.94 L 351.79 181.77 L 350.80 188.74 L 349.83 195.81 L 348.98 202.95 L 348.24 210.14 L 347.46 217.39 L 346.37 224.73 L 344.84 232.12 L 342.76 239.43 L 340.27 246.48 L 337.44 253.15 L 334.39 259.45 L 331.22 265.47 L 327.98 271.28 L 324.63 276.90 L 321.08 282.31 L 317.18 287.43 L 312.86 292.25 L 308.20 296.79 L 303.31 301.17 L 298.32 305.46 L 293.29 309.70 L 288.25 313.94 L 283.20 318.17 L 278.15 322.40 Z" />
</symbol>
<symbol id="bl1">
<path d="M 408.46 248.62 L 404.02 249.35 L 399.63 250.09 L 395.32 250.84 L 391.08 251.60 L 386.88 252.38 L 382.65 253.15 L 378.35 253.87 L 373.96 254.50 L 369.46 254.99 L 364.87 255.26 L 360.21 255.28 L 355.51 254.99 L 350.80 254.42 L 346.04 253.62 L 341.22 252.67 L 336.36 251.60 L 331.54 250.32 L 326.89 248.72 L 322.49 246.72 L 318.34 244.38 L 314.41 241.83 L 310.67 239.17 L 307.09 236.48 L 303.62 233.78 L 300.23 231.07 L 296.85 228.36 L 293.47 225.63 L 290.05 222.85 L 286.61 220.03 L 283.15 217.16 L 279.68 214.27 L 276.25 211.36 L 272.89 208.42 L 269.63 205.45 L 266.51 202.41 L 263.58 199.31 L 260.85 196.11 L 258.35 192.80 L 256.07 189.37 L 253.98 185.80 L 252.12 182.05 L 250.53 178.10 L 249.23 173.95 L 248.29 169.66 L 247.73 165.28 L 247.55 160.83 L 247.75 156.35 L 248.32 151.89 L 249.25 147.49 L 250.52 143.20 L 252.12 139.06 L 254.05 135.11 L 256.27 131.35 L 258.78 127.82 L 261.57 124.51 L 264.59 121.43 L 267.86 118.61 L 271.34 116.05 L 275.00 113.78 L 278.84 111.81 L 282.83 110.15 L 286.96 108.82 L 291.21 107.80 L 295.53 107.08 L 299.88 106.61 L 304.23 106.35 L 308.56 106.24 L 312.86 106.20 L 317.13 106.18 L 321.38 106.17 L 325.64 106.14 L 329.93 106.12 L 334.24 106.09 L 338.58 106.07 L 342.93 106.05 L 347.29 106.03 L 351.63 106.01 L 355.94 105.98 L 360.23 105.95 L 364.52 105.92 L 368.80 105.88 L 373.09 105.84 L 377.40 105.82 L 381.73 105.81 L 386.09 105.80 L 390.46 105.79 L 394.85 105.79 L 399.25 105.80 L 403.66 105.84 L 408.07 105.91 L 412.47 106.01 L 416.85 106.16 L 421.20 106.37 L 425.51 106.69 L 429.79 107.18 L 434.03 107.88 L 438.24 108.84 L 442.39 110.05 L 446.49 111.53 L 450.50 113.26 L 454.40 115.24 L 458.17 117.47 L 461.78 119.92 L 465.21 122.58 L 468.45 125.44 L 471.48 128.48 L 474.29 131.69 L 476.88 135.06 L 479.25 138.57 L 481.41 142.20 L 483.35 145.97 L 485.07 149.86 L 486.55 153.87 L 487.78 157.99 L 488.74 162.22 L 489.44 166.52 L 489.86 170.88 L 490.00 175.26 L 489.87 179.64 L 489.47 183.99 L 488.79 188.31 L 487.83 192.59 L 486.60 196.82 L 485.10 200.99 L 483.35 205.05 L 481.35 208.98 L 479.12 212.74 L 476.68 216.31 L 474.04 219.68 L 471.21 222.85 L 468.18 225.83 L 464.95 228.63 L 461.53 231.24 L 457.92 233.66 L 454.15 235.86 L 450.25 237.83 L 446.27 239.57 L 442.25 241.07 L 438.20 242.37 L 434.14 243.52 L 430.06 244.53 L 425.91 245.46 L 421.68 246.32 L 417.33 247.12 L 412.91 247.87 Z" />
</symbol>
<symbol id="bl2">
<path d="M 403.19 297.65 L 403.22 300.34 L 403.09 302.99 L 402.78 305.61 L 402.26 308.22 L 401.53 310.87 L 400.59 313.59 L 399.45 316.35 L 398.16 319.05 L 396.76 321.57 L 395.27 323.88 L 393.68 326.01 L 391.99 328.00 L 390.17 329.87 L 388.23 331.63 L 386.17 333.26 L 384.00 334.75 L 381.75 336.11 L 379.42 337.34 L 377.04 338.42 L 374.62 339.34 L 372.15 340.09 L 369.65 340.69 L 367.12 341.16 L 364.56 341.51 L 361.99 341.75 L 359.41 341.85 L 356.83 341.78 L 354.26 341.52 L 351.71 341.06 L 349.18 340.39 L 346.69 339.54 L 344.24 338.57 L 341.85 337.49 L 339.53 336.32 L 337.32 335.04 L 335.22 333.64 L 333.21 332.13 L 331.26 330.52 L 329.36 328.84 L 327.47 327.11 L 325.59 325.35 L 323.70 323.56 L 321.80 321.78 L 319.90 320.00 L 318.00 318.24 L 316.13 316.49 L 314.30 314.71 L 312.49 312.91 L 310.71 311.08 L 308.91 309.21 L 307.06 307.29 L 305.10 305.29 L 302.98 303.17 L 300.67 300.93 L 298.23 298.64 L 295.75 296.38 L 293.34 294.25 L 291.08 292.26 L 289.00 290.35 L 287.08 288.45 L 285.29 286.46 L 283.58 284.29 L 281.95 281.87 L 280.42 279.17 L 279.10 276.24 L 278.07 273.22 L 277.40 270.24 L 277.06 267.42 L 277.00 264.76 L 277.15 262.22 L 277.50 259.76 L 278.06 257.37 L 278.87 255.04 L 279.92 252.78 L 281.22 250.61 L 282.71 248.50 L 284.30 246.43 L 285.94 244.41 L 287.63 242.44 L 289.39 240.55 L 291.23 238.74 L 293.13 236.97 L 295.03 235.17 L 296.91 233.27 L 298.77 231.21 L 300.64 228.98 L 302.55 226.62 L 304.51 224.28 L 306.52 222.08 L 308.63 220.05 L 310.86 218.11 L 313.25 216.26 L 315.76 214.56 L 318.36 213.09 L 321.00 211.87 L 323.64 210.91 L 326.26 210.24 L 328.85 209.89 L 331.39 209.84 L 333.89 210.07 L 336.36 210.52 L 338.82 211.16 L 341.29 211.92 L 343.80 212.75 L 346.33 213.62 L 348.87 214.50 L 351.39 215.36 L 353.89 216.21 L 356.37 217.06 L 358.87 217.94 L 361.42 218.89 L 364.07 219.99 L 366.79 221.31 L 369.49 222.91 L 372.06 224.84 L 374.38 227.08 L 376.41 229.59 L 378.12 232.27 L 379.54 234.99 L 380.76 237.61 L 381.85 240.09 L 382.88 242.47 L 383.89 244.79 L 384.91 247.08 L 385.96 249.36 L 387.04 251.60 L 388.15 253.84 L 389.28 256.07 L 390.41 258.30 L 391.50 260.56 L 392.52 262.86 L 393.47 265.27 L 394.40 267.79 L 395.39 270.49 L 396.49 273.37 L 397.70 276.42 L 398.95 279.59 L 400.15 282.81 L 401.20 286.02 L 402.03 289.12 L 402.62 292.08 L 402.99 294.91 Z" />
</symbol>
</defs>
<!-- isDone: 0 -->
<rect width="700" height="500" style="fill:#fff;stroke-width:0" />
<use class="p0 borderLine" xlink:href="#bl0"/>
<use class="p1 borderLine" xlink:href="#bl1"/>
<use class="p2 borderLine" xlink:href="#bl2"/>
<use class="q0 outLine" xlink:href="#bl0"/>
<use class="q1 outLine" xlink:href="#bl1"/>
<use class="q2 outLine" xlink:href="#bl2"/>
<circle onclick="fromCircle(4)" class="circle" cx="142.2271" cy="260.9651" r="130.0249" />
<text class="nLabel" x="142.23" y="255.97">261</text>
<text class="belong" x="142.23" y="265.97">(1)</text>
<circle onclick="fromCircle(6)" class="circle" cx="301.3705" cy="160.5663" r="50.2619" />
<text class="nLabel" x="301.37" y="155.57">39</text>
<text class="belong" x="301.37" y="165.57">(1, 2)</text>
<circle onclick="fromCircle(7)" class="circle" cx="328.5418" cy="229.6096" r="16.0967" />
<text class="nLabel" x="328.54" y="224.61">4</text>
<text class="belong" x="328.54" y="234.61">(1, 2, 3)</text>
<circle onclick="fromCircle(2)" class="circle" cx="421.6240" cy="175.3241" r="64.8878" />
<text class="nLabel" x="421.62" y="170.32">65</text>
<text class="belong" x="421.62" y="180.32">(2)</text>
<circle onclick="fromCircle(3)" class="circle" cx="361.5369" cy="238.5032" r="13.9401" />
<text class="nLabel" x="361.54" y="233.50">3</text>
<text class="belong" x="361.54" y="243.50">(2, 3)</text>
<circle onclick="fromCircle(1)" class="circle" cx="360.4960" cy="298.9193" r="38.5985" />
<text class="nLabel" x="360.50" y="293.92">23</text>
<text class="belong" x="360.50" y="303.92">(3)</text>
<circle onclick="fromCircle(5)" class="circle" cx="303.5549" cy="265.7954" r="22.7641" />
<text class="nLabel" x="303.55" y="260.80">8</text>
<text class="belong" x="303.55" y="270.80">(1, 3)</text>
<g id="legendBox">
<rect class="p0 borderLine" x="500.00" y="50.00" width="30.00" height="15.00" />
<rect class="q0" x="500.00" y="50.00" width="30.00" height="15.00" />
<text class="legend" x="540.00" y="65.00">bike</text>
<rect class="p1 borderLine" x="500.00" y="90.00" width="30.00" height="15.00" />
<rect class="q1" x="500.00" y="90.00" width="30.00" height="15.00" />
<text class="legend" x="540.00" y="105.00">motorbike</text>
<rect class="p2 borderLine" x="500.00" y="130.00" width="30.00" height="15.00" />
<rect class="q2" x="500.00" y="130.00" width="30.00" height="15.00" />
<text class="legend" x="540.00" y="145.00">motor_vehicle</text>
</g>
</svg>
