<svg xmlns="http://www.w3.org/2000/svg" xmlns:xlink="http://www.w3.org/1999/xlink" width="700" height="500">
<defs>
<style type="text/css"><![CDATA[
  .borderLine {
	   stroke: none;
	   fill-opacity:  0.4 ;
  }
  .outLine {
	   stroke-width:  1 ;
	   fill: none;
  }
  .circle {
	   stroke: #888888;
	   stroke-width: 0.5;
	   fill: none;
    pointer-events: all;
  }
  .nLabel {
	   font-family: Arial;
    pointer-events: none;
	   font-size: 10px;
	   text-anchor: middle;
	   alignment-baseline: central;
  }
  .belong {
	   font-family: Arial;
    pointer-events: none;
	   font-size: 5px;
	   text-anchor: middle;
	   alignment-baseline: central;
  }
  .legend {
    font-family: Arial;
    font-size: 15px;
  }
  #legendBox {
    display:  inline ;
  }
  .p0{
    stroke: none;
    fill:  #00F ;
  }
  .q0{
    fill: none;
    stroke:  #00F ;
  }
  .p1{
    stroke: none;
    fill:  #0F0 ;
  }
  .q1{
    fill: none;
    stroke:  #0F0 ;
  }
  .p2{
    stroke: none;
    fill:  #F00 ;
  }
  .q2{
    fill: none;
    stroke:  #F00 ;
  }
  .p3{
    stroke: none;
    fill:  #000 ;
  }
  .q3{
    fill: none;
    stroke:  #000 ;
  }
]]>
</style>
<symbol id="bl0">
<path d="M 267.88 166.90 L 267.66 168.42 L 267.44 169.95 L 267.21 171.49 L 266.98 173.03 L 266.75 174.59 L 266.52 176.14 L 266.29 177.68 L 266.05 179.20 L 265.79 180.72 L 265.50 182.22 L 265.17 183.70 L 264.77 185.17 L 264.30 186.61 L 263.77 188.04 L 263.18 189.44 L 262.56 190.81 L 261.89 192.16 L 261.19 193.48 L 260.44 194.77 L 259.66 196.04 L 258.83 197.29 L 257.96 198.52 L 257.04 199.70 L 256.05 200.82 L 254.99 201.86 L 253.86 202.85 L 252.70 203.78 L 251.50 204.68 L 250.29 205.55 L 249.05 206.39 L 247.78 207.18 L 246.47 207.93 L 245.14 208.63 L 243.77 209.29 L 242.38 209.89 L 240.96 210.43 L 239.53 210.91 L 238.09 211.34 L 236.64 211.72 L 235.18 212.05 L 233.73 212.33 L 232.26 212.54 L 230.80 212.67 L 229.32 212.72 L 227.85 212.70 L 226.38 212.61 L 224.92 212.47 L 223.46 212.29 L 222.00 212.07 L 220.56 211.81 L 219.13 211.51 L 217.71 211.16 L 216.31 210.75 L 214.95 210.27 L 213.61 209.72 L 212.30 209.10 L 211.02 208.42 L 209.76 207.69 L 208.52 206.92 L 207.29 206.10 L 206.09 205.25 L 204.92 204.35 L 203.79 203.41 L 202.70 202.41 L 201.66 201.38 L 200.65 200.30 L 199.67 199.20 L 198.73 198.07 L 197.81 196.91 L 196.93 195.71 L 196.10 194.47 L 195.33 193.19 L 194.61 191.86 L 193.94 190.50 L 193.30 189.11 L 192.66 187.73 L 192.01 186.35 L 191.36 184.98 L 190.70 183.62 L 190.02 182.27 L 189.34 180.92 L 188.66 179.57 L 187.97 178.23 L 187.27 176.89 L 186.59 175.54 L 185.91 174.20 L 185.23 172.86 L 184.56 171.53 L 183.89 170.21 L 183.23 168.88 L 182.58 167.55 L 181.93 166.21 L 181.28 164.86 L 180.64 163.51 L 180.01 162.14 L 179.37 160.79 L 178.73 159.44 L 178.08 158.10 L 177.43 156.78 L 176.77 155.45 L 176.11 154.14 L 175.45 152.82 L 174.79 151.50 L 174.14 150.18 L 173.48 148.88 L 172.85 147.58 L 172.25 146.27 L 171.72 144.94 L 171.30 143.57 L 170.99 142.16 L 170.79 140.72 L 170.69 139.26 L 170.69 137.80 L 170.78 136.33 L 170.98 134.88 L 171.30 133.45 L 171.74 132.06 L 172.33 130.71 L 173.06 129.41 L 173.92 128.13 L 174.88 126.88 L 175.90 125.64 L 176.93 124.40 L 177.94 123.15 L 178.93 121.88 L 179.92 120.59 L 180.92 119.29 L 181.94 117.98 L 182.97 116.65 L 184.01 115.30 L 185.06 113.93 L 186.10 112.56 L 187.13 111.18 L 188.15 109.81 L 189.16 108.45 L 190.15 107.11 L 191.13 105.79 L 192.11 104.49 L 193.11 103.20 L 194.17 101.96 L 195.30 100.77 L 196.54 99.68 L 197.90 98.69 L 199.38 97.81 L 200.97 97.04 L 202.65 96.39 L 204.42 95.84 L 206.21 95.38 L 207.98 94.98 L 209.68 94.64 L 211.30 94.32 L 212.85 94.03 L 214.35 93.75 L 215.82 93.48 L 217.29 93.22 L 218.76 92.96 L 220.25 92.70 L 221.75 92.45 L 223.27 92.20 L 224.80 91.94 L 226.35 91.70 L 227.89 91.45 L 229.44 91.21 L 230.99 90.97 L 232.53 90.73 L 234.07 90.49 L 235.60 90.25 L 237.12 90.02 L 238.64 89.79 L 240.15 89.56 L 241.67 89.35 L 243.23 89.15 L 244.82 88.97 L 246.48 88.84 L 248.20 88.77 L 249.97 88.79 L 251.76 88.92 L 253.49 89.15 L 255.13 89.48 L 256.65 89.90 L 258.10 90.39 L 259.48 90.97 L 260.82 91.62 L 262.11 92.33 L 263.36 93.10 L 264.56 93.94 L 265.70 94.85 L 266.79 95.83 L 267.82 96.88 L 268.80 97.99 L 269.74 99.14 L 270.61 100.35 L 271.40 101.60 L 272.11 102.91 L 272.72 104.26 L 273.27 105.66 L 273.74 107.08 L 274.14 108.53 L 274.47 109.99 L 274.70 111.47 L 274.85 112.97 L 274.92 114.47 L 274.92 115.98 L 274.87 117.48 L 274.78 118.97 L 274.65 120.46 L 274.51 121.94 L 274.34 123.42 L 274.16 124.91 L 273.96 126.41 L 273.74 127.91 L 273.51 129.45 L 273.26 131.05 L 273.01 132.76 L 272.75 134.59 L 272.49 136.54 L 272.23 138.54 L 271.95 140.55 L 271.67 142.49 L 271.39 144.33 L 271.13 146.03 L 270.88 147.62 L 270.63 149.13 L 270.40 150.61 L 270.17 152.08 L 269.94 153.54 L 269.72 155.01 L 269.49 156.48 L 269.27 157.95 L 269.04 159.43 L 268.80 160.92 L 268.57 162.41 L 268.34 163.90 L 268.11 165.40 Z" />
</symbol>
<symbol id="bl1">
<path d="M 210.83 134.73 L 210.18 135.91 L 209.54 137.12 L 208.89 138.33 L 208.21 139.55 L 207.50 140.76 L 206.77 141.95 L 206.03 143.11 L 205.29 144.24 L 204.55 145.35 L 203.79 146.42 L 203.00 147.47 L 202.18 148.49 L 201.30 149.49 L 200.36 150.45 L 199.36 151.36 L 198.30 152.20 L 197.19 152.98 L 196.03 153.69 L 194.82 154.33 L 193.58 154.88 L 192.32 155.32 L 191.04 155.64 L 189.75 155.84 L 188.48 155.91 L 187.22 155.89 L 185.97 155.76 L 184.75 155.52 L 183.55 155.19 L 182.37 154.77 L 181.21 154.29 L 180.07 153.77 L 178.94 153.22 L 177.81 152.64 L 176.68 152.05 L 175.53 151.45 L 174.36 150.85 L 173.16 150.25 L 171.95 149.65 L 170.71 149.07 L 169.47 148.48 L 168.24 147.88 L 167.03 147.27 L 165.85 146.65 L 164.70 146.03 L 163.57 145.41 L 162.45 144.81 L 161.33 144.23 L 160.20 143.66 L 159.06 143.11 L 157.91 142.55 L 156.76 141.98 L 155.61 141.39 L 154.45 140.77 L 153.30 140.14 L 152.14 139.50 L 150.99 138.86 L 149.83 138.23 L 148.67 137.61 L 147.52 136.98 L 146.36 136.35 L 145.22 135.70 L 144.07 135.04 L 142.92 134.36 L 141.77 133.67 L 140.62 132.98 L 139.48 132.28 L 138.34 131.59 L 137.22 130.89 L 136.11 130.19 L 135.04 129.46 L 133.99 128.70 L 132.99 127.90 L 132.03 127.05 L 131.12 126.15 L 130.27 125.20 L 129.46 124.23 L 128.69 123.24 L 127.96 122.23 L 127.26 121.20 L 126.61 120.15 L 125.99 119.07 L 125.42 117.97 L 124.91 116.84 L 124.44 115.69 L 124.03 114.50 L 123.66 113.29 L 123.32 112.06 L 123.01 110.79 L 122.74 109.50 L 122.52 108.19 L 122.38 106.85 L 122.31 105.52 L 122.32 104.19 L 122.41 102.87 L 122.56 101.57 L 122.75 100.28 L 122.97 99.01 L 123.22 97.76 L 123.53 96.52 L 123.89 95.31 L 124.30 94.11 L 124.76 92.94 L 125.27 91.79 L 125.84 90.67 L 126.47 89.57 L 127.16 88.50 L 127.91 87.45 L 128.69 86.42 L 129.50 85.41 L 130.35 84.40 L 131.23 83.43 L 132.16 82.49 L 133.13 81.59 L 134.14 80.72 L 135.19 79.91 L 136.26 79.14 L 137.37 78.41 L 138.48 77.73 L 139.62 77.11 L 140.77 76.55 L 141.93 76.04 L 143.09 75.58 L 144.25 75.17 L 145.41 74.79 L 146.56 74.42 L 147.72 74.07 L 148.87 73.73 L 150.04 73.39 L 151.22 73.05 L 152.42 72.72 L 153.64 72.39 L 154.88 72.05 L 156.12 71.71 L 157.38 71.36 L 158.66 71.00 L 159.94 70.64 L 161.24 70.27 L 162.54 69.91 L 163.85 69.55 L 165.14 69.20 L 166.43 68.86 L 167.71 68.52 L 168.97 68.18 L 170.23 67.82 L 171.47 67.45 L 172.70 67.05 L 173.92 66.63 L 175.13 66.22 L 176.33 65.80 L 177.52 65.39 L 178.70 64.99 L 179.87 64.60 L 181.05 64.21 L 182.24 63.82 L 183.45 63.44 L 184.66 63.06 L 185.90 62.68 L 187.15 62.30 L 188.42 61.93 L 189.71 61.58 L 191.01 61.28 L 192.33 61.04 L 193.64 60.89 L 194.95 60.84 L 196.25 60.87 L 197.53 60.98 L 198.80 61.17 L 200.04 61.45 L 201.26 61.81 L 202.47 62.25 L 203.66 62.78 L 204.82 63.39 L 205.94 64.10 L 207.00 64.89 L 207.99 65.79 L 208.92 66.78 L 209.78 67.86 L 210.59 69.00 L 211.33 70.19 L 211.99 71.40 L 212.56 72.61 L 213.04 73.82 L 213.46 75.03 L 213.84 76.25 L 214.19 77.48 L 214.52 78.73 L 214.83 79.99 L 215.14 81.27 L 215.44 82.55 L 215.76 83.84 L 216.10 85.13 L 216.46 86.42 L 216.84 87.71 L 217.24 89.00 L 217.64 90.31 L 218.04 91.62 L 218.42 92.96 L 218.79 94.29 L 219.15 95.62 L 219.51 96.94 L 219.89 98.24 L 220.26 99.54 L 220.65 100.84 L 221.02 102.13 L 221.39 103.43 L 221.73 104.75 L 222.04 106.09 L 222.30 107.46 L 222.48 108.86 L 222.58 110.30 L 222.57 111.77 L 222.44 113.23 L 222.21 114.66 L 221.88 116.03 L 221.45 117.33 L 220.95 118.57 L 220.38 119.76 L 219.76 120.89 L 219.09 121.98 L 218.40 123.03 L 217.70 124.06 L 217.00 125.09 L 216.31 126.13 L 215.62 127.17 L 214.93 128.21 L 214.24 129.26 L 213.55 130.30 L 212.85 131.37 L 212.16 132.46 L 211.48 133.58 Z" />
</symbol>
<symbol id="bl2">
<path d="M 274.18 120.90 L 273.70 122.60 L 273.13 124.27 L 272.48 125.86 L 271.77 127.36 L 270.98 128.77 L 270.13 130.11 L 269.21 131.40 L 268.20 132.61 L 267.11 133.73 L 265.94 134.78 L 264.71 135.77 L 263.43 136.69 L 262.11 137.56 L 260.74 138.35 L 259.32 139.06 L 257.86 139.66 L 256.36 140.16 L 254.84 140.54 L 253.30 140.81 L 251.76 140.98 L 250.21 141.07 L 248.68 141.07 L 247.14 140.99 L 245.60 140.81 L 244.06 140.54 L 242.50 140.19 L 240.94 139.75 L 239.38 139.26 L 237.83 138.76 L 236.29 138.27 L 234.76 137.78 L 233.24 137.28 L 231.69 136.77 L 230.08 136.21 L 228.38 135.61 L 226.57 134.95 L 224.66 134.24 L 222.70 133.50 L 220.71 132.75 L 218.71 132.01 L 216.72 131.29 L 214.72 130.59 L 212.74 129.91 L 210.76 129.24 L 208.83 128.59 L 206.97 127.96 L 205.22 127.35 L 203.60 126.76 L 202.11 126.16 L 200.72 125.51 L 199.41 124.80 L 198.15 123.99 L 196.95 123.09 L 195.81 122.06 L 194.74 120.90 L 193.75 119.64 L 192.86 118.29 L 192.07 116.90 L 191.35 115.47 L 190.67 114.03 L 190.02 112.57 L 189.36 111.10 L 188.71 109.62 L 188.07 108.13 L 187.45 106.62 L 186.85 105.10 L 186.27 103.59 L 185.70 102.08 L 185.10 100.58 L 184.47 99.08 L 183.80 97.58 L 183.14 96.08 L 182.47 94.56 L 181.78 93.05 L 181.07 91.53 L 180.31 90.02 L 179.56 88.51 L 178.87 87.01 L 178.28 85.50 L 177.81 83.99 L 177.45 82.47 L 177.21 80.95 L 177.09 79.43 L 177.10 77.92 L 177.26 76.43 L 177.57 74.97 L 178.01 73.53 L 178.58 72.13 L 179.25 70.76 L 180.00 69.41 L 180.83 68.08 L 181.70 66.77 L 182.61 65.47 L 183.57 64.17 L 184.58 62.83 L 185.66 61.43 L 186.81 59.94 L 188.00 58.40 L 189.18 56.86 L 190.32 55.37 L 191.40 53.98 L 192.43 52.68 L 193.43 51.42 L 194.41 50.19 L 195.39 48.95 L 196.38 47.71 L 197.36 46.46 L 198.34 45.21 L 199.33 43.98 L 200.33 42.76 L 201.32 41.55 L 202.29 40.33 L 203.25 39.09 L 204.18 37.84 L 205.10 36.59 L 206.03 35.34 L 206.95 34.09 L 207.89 32.85 L 208.85 31.58 L 209.86 30.27 L 210.95 28.87 L 212.11 27.39 L 213.34 25.85 L 214.58 24.33 L 215.81 22.91 L 217.01 21.63 L 218.19 20.49 L 219.38 19.48 L 220.59 18.55 L 221.85 17.67 L 223.14 16.85 L 224.47 16.05 L 225.82 15.29 L 227.19 14.57 L 228.58 13.89 L 229.98 13.26 L 231.40 12.69 L 232.83 12.17 L 234.28 11.72 L 235.75 11.32 L 237.23 10.97 L 238.73 10.67 L 240.25 10.42 L 241.78 10.21 L 243.32 10.06 L 244.87 10.00 L 246.44 10.03 L 248.01 10.15 L 249.58 10.34 L 251.14 10.58 L 252.68 10.87 L 254.21 11.23 L 255.71 11.64 L 257.18 12.11 L 258.63 12.64 L 260.05 13.21 L 261.46 13.83 L 262.84 14.50 L 264.20 15.22 L 265.54 15.99 L 266.84 16.81 L 268.11 17.69 L 269.32 18.62 L 270.48 19.61 L 271.59 20.64 L 272.65 21.72 L 273.69 22.83 L 274.69 23.97 L 275.67 25.14 L 276.60 26.36 L 277.49 27.63 L 278.32 28.95 L 279.11 30.30 L 279.87 31.69 L 280.58 33.10 L 281.23 34.52 L 281.83 35.96 L 282.36 37.41 L 282.83 38.87 L 283.25 40.34 L 283.62 41.82 L 283.93 43.33 L 284.18 44.86 L 284.37 46.42 L 284.49 48.01 L 284.54 49.62 L 284.52 51.23 L 284.41 52.84 L 284.25 54.42 L 284.06 55.98 L 283.86 57.51 L 283.68 59.03 L 283.51 60.53 L 283.33 62.01 L 283.12 63.49 L 282.90 64.96 L 282.66 66.43 L 282.42 67.90 L 282.18 69.37 L 281.94 70.84 L 281.71 72.30 L 281.49 73.77 L 281.28 75.23 L 281.06 76.71 L 280.85 78.19 L 280.65 79.67 L 280.44 81.16 L 280.24 82.65 L 280.03 84.15 L 279.82 85.65 L 279.60 87.15 L 279.37 88.64 L 279.14 90.14 L 278.90 91.65 L 278.65 93.15 L 278.42 94.66 L 278.19 96.16 L 277.97 97.67 L 277.76 99.20 L 277.56 100.74 L 277.37 102.29 L 277.17 103.85 L 276.97 105.41 L 276.76 106.96 L 276.52 108.50 L 276.27 110.03 L 276.01 111.55 L 275.75 113.06 L 275.47 114.57 L 275.19 116.09 L 274.90 117.64 L 274.57 119.24 Z" />
</symbol>
<symbol id="bl3">
<path d="M 369.88 444.38 L 368.95 446.25 L 367.96 448.10 L 366.93 449.92 L 365.85 451.71 L 364.72 453.48 L 363.55 455.21 L 362.33 456.91 L 361.07 458.57 L 359.77 460.21 L 358.44 461.82 L 357.07 463.40 L 355.66 464.94 L 354.21 466.45 L 352.71 467.92 L 351.19 469.35 L 349.63 470.75 L 348.04 472.11 L 346.42 473.43 L 344.75 474.69 L 343.04 475.90 L 341.29 477.05 L 339.50 478.16 L 337.70 479.21 L 335.86 480.23 L 334.01 481.21 L 332.13 482.14 L 330.23 483.03 L 328.32 483.87 L 326.38 484.66 L 324.41 485.39 L 322.43 486.06 L 320.43 486.67 L 318.41 487.22 L 316.37 487.71 L 314.33 488.15 L 312.27 488.55 L 310.21 488.89 L 308.14 489.19 L 306.06 489.44 L 303.98 489.65 L 301.89 489.82 L 299.80 489.93 L 297.71 490.00 L 295.61 490.00 L 293.51 489.93 L 291.43 489.78 L 289.34 489.56 L 287.27 489.28 L 285.21 488.96 L 283.15 488.60 L 281.11 488.19 L 279.07 487.75 L 277.04 487.26 L 275.02 486.73 L 273.02 486.14 L 271.03 485.50 L 269.07 484.79 L 267.12 484.03 L 265.20 483.20 L 263.30 482.34 L 261.41 481.43 L 259.55 480.49 L 257.72 479.49 L 255.92 478.43 L 254.15 477.31 L 252.41 476.15 L 250.70 474.95 L 249.01 473.71 L 247.37 472.42 L 245.76 471.09 L 244.19 469.71 L 242.65 468.29 L 241.14 466.85 L 239.66 465.38 L 238.23 463.86 L 236.84 462.31 L 235.50 460.72 L 234.21 459.08 L 232.98 457.40 L 231.80 455.69 L 230.65 453.95 L 229.54 452.18 L 228.46 450.39 L 227.43 448.57 L 226.46 446.72 L 225.53 444.85 L 224.65 442.95 L 223.82 441.03 L 223.04 439.09 L 222.31 437.14 L 221.64 435.16 L 221.01 433.17 L 220.43 431.16 L 219.91 429.14 L 219.44 427.11 L 219.01 425.07 L 218.64 423.02 L 218.32 420.95 L 218.05 418.88 L 217.85 416.81 L 217.71 414.72 L 217.63 412.64 L 217.60 410.55 L 217.63 408.47 L 217.71 406.38 L 217.85 404.30 L 218.04 402.22 L 218.29 400.14 L 218.58 398.07 L 218.93 396.01 L 219.32 393.95 L 219.76 391.90 L 220.25 389.87 L 220.79 387.85 L 221.40 385.85 L 222.07 383.86 L 222.80 381.90 L 223.59 379.96 L 224.43 378.04 L 225.33 376.14 L 226.26 374.27 L 227.23 372.41 L 228.26 370.58 L 229.33 368.79 L 230.45 367.02 L 231.61 365.28 L 232.81 363.56 L 234.04 361.88 L 235.33 360.23 L 236.67 358.62 L 238.06 357.05 L 239.49 355.52 L 240.96 354.01 L 242.46 352.54 L 244.01 351.11 L 245.59 349.72 L 247.21 348.38 L 248.87 347.09 L 250.56 345.84 L 252.28 344.63 L 254.02 343.47 L 255.79 342.35 L 257.59 341.27 L 259.42 340.25 L 261.27 339.27 L 263.15 338.34 L 265.05 337.46 L 266.98 336.62 L 268.92 335.84 L 270.90 335.12 L 272.89 334.46 L 274.90 333.85 L 276.92 333.28 L 278.95 332.76 L 280.99 332.28 L 283.04 331.84 L 285.10 331.45 L 287.17 331.13 L 289.26 330.86 L 291.35 330.67 L 293.44 330.54 L 295.54 330.47 L 297.63 330.44 L 299.73 330.47 L 301.82 330.54 L 303.91 330.68 L 306.00 330.88 L 308.08 331.12 L 310.16 331.42 L 312.22 331.77 L 314.27 332.18 L 316.31 332.64 L 318.34 333.16 L 320.35 333.73 L 322.35 334.35 L 324.33 335.02 L 326.30 335.74 L 328.24 336.52 L 330.17 337.34 L 332.07 338.21 L 333.94 339.13 L 335.80 340.09 L 337.63 341.09 L 339.43 342.14 L 341.20 343.24 L 342.94 344.39 L 344.65 345.59 L 346.33 346.83 L 347.97 348.12 L 349.58 349.46 L 351.16 350.83 L 352.70 352.24 L 354.21 353.68 L 355.69 355.16 L 357.13 356.68 L 358.52 358.24 L 359.87 359.83 L 361.17 361.47 L 362.42 363.14 L 363.62 364.86 L 364.77 366.60 L 365.87 368.38 L 366.92 370.18 L 367.93 372.01 L 368.89 373.86 L 369.81 375.73 L 370.70 377.62 L 371.53 379.53 L 372.32 381.46 L 373.06 383.41 L 373.74 385.38 L 374.36 387.36 L 374.93 389.37 L 375.45 391.39 L 375.92 393.42 L 376.32 395.47 L 376.68 397.52 L 376.97 399.59 L 377.22 401.66 L 377.42 403.73 L 377.57 405.81 L 377.66 407.90 L 377.69 409.99 L 377.66 412.08 L 377.58 414.17 L 377.44 416.25 L 377.24 418.33 L 376.98 420.41 L 376.67 422.47 L 376.31 424.53 L 375.91 426.59 L 375.46 428.63 L 374.96 430.66 L 374.40 432.68 L 373.77 434.67 L 373.09 436.66 L 372.36 438.62 L 371.58 440.56 L 370.76 442.48 Z" />
</symbol>
</defs>
<!-- isDone: 0 -->
<rect width="700" height="500" style="fill:#fff;stroke-width:0" />
<use class="p0 borderLine" xlink:href="#bl0"/>
<use class="p1 borderLine" xlink:href="#bl1"/>
<use class="p2 borderLine" xlink:href="#bl2"/>
<use class="p3 borderLine" xlink:href="#bl3"/>
<use class="q0 outLine" xlink:href="#bl0"/>
<use class="q1 outLine" xlink:href="#bl1"/>
<use class="q2 outLine" xlink:href="#bl2"/>
<use class="q3 outLine" xlink:href="#bl3"/>
<circle onclick="fromCircle(8)" class="circle" cx="228.4981" cy="175.2326" r="33.8905" />
<text class="nLabel" x="228.50" y="170.23">113</text>
<text class="belong" x="228.50" y="180.23">(1)</text>
<circle onclick="fromCircle(12)" class="circle" cx="187.9344" cy="138.1501" r="13.8968" />
<text class="nLabel" x="187.93" y="133.15">19</text>
<text class="belong" x="187.93" y="143.15">(1, 2)</text>
<circle onclick="fromCircle(14)" class="circle" cx="206.8887" cy="111.1922" r="12.3477" />
<text class="nLabel" x="206.89" y="106.19">15</text>
<text class="belong" x="206.89" y="116.19">(1, 2, 3)</text>
<circle onclick="fromCircle(4)" class="circle" cx="153.2649" cy="104.5526" r="27.2396" />
<text class="nLabel" x="153.26" y="99.55">73</text>
<text class="belong" x="153.26" y="109.55">(2)</text>
<circle onclick="fromCircle(6)" class="circle" cx="195.4117" cy="79.0855" r="14.9538" />
<text class="nLabel" x="195.41" y="74.09">22</text>
<text class="belong" x="195.41" y="84.09">(2, 3)</text>
<circle onclick="fromCircle(2)" class="circle" cx="244.9588" cy="49.1920" r="35.7869" />
<text class="nLabel" x="244.96" y="44.19">126</text>
<text class="belong" x="244.96" y="54.19">(3)</text>
<circle onclick="fromCircle(10)" class="circle" cx="248.7857" cy="114.7540" r="22.7680" />
<text class="nLabel" x="248.79" y="109.75">51</text>
<text class="belong" x="248.79" y="119.75">(1, 3)</text>
<circle onclick="fromCircle(1)" class="circle" cx="298.0793" cy="411.6024" r="76.8470" />
<text class="nLabel" x="298.08" y="406.60">581</text>
<text class="belong" x="298.08" y="416.60">(4)</text>
<g id="legendBox">
<rect class="p0 borderLine" x="500.00" y="50.00" width="30.00" height="15.00" />
<rect class="q0" x="500.00" y="50.00" width="30.00" height="15.00" />
<text class="legend" x="540.00" y="65.00">bike ALB_2012</text>
<rect class="p1 borderLine" x="500.00" y="90.00" width="30.00" height="15.00" />
<rect class="q1" x="500.00" y="90.00" width="30.00" height="15.00" />
<text class="legend" x="540.00" y="105.00">motorbike ALB_2012</text>
<rect class="p2 borderLine" x="500.00" y="130.00" width="30.00" height="15.00" />
<rect class="q2" x="500.00" y="130.00" width="30.00" height="15.00" />
<text class="legend" x="540.00" y="145.00">motor_vehicle ALB_2012</text>
<rect class="p3 borderLine" x="500.00" y="170.00" width="30.00" height="15.00" />
<rect class="q3" x="500.00" y="170.00" width="30.00" height="15.00" />
<text class="legend" x="540.00" y="185.00">no_transport ALB_2012</text>
</g>
</svg>
