<svg xmlns="http://www.w3.org/2000/svg" xmlns:xlink="http://www.w3.org/1999/xlink" width="700" height="500">
<defs>
<style type="text/css"><![CDATA[
  .borderLine {
	   stroke: none;
	   fill-opacity:  0.4 ;
  }
  .outLine {
	   stroke-width:  1 ;
	   fill: none;
  }
  .circle {
	   stroke: #888888;
	   stroke-width: 0.5;
	   fill: none;
    pointer-events: all;
  }
  .nLabel {
	   font-family: Arial;
    pointer-events: none;
	   font-size: 10px;
	   text-anchor: middle;
	   alignment-baseline: central;
  }
  .belong {
	   font-family: Arial;
    pointer-events: none;
	   font-size: 5px;
	   text-anchor: middle;
	   alignment-baseline: central;
  }
  .legend {
    font-family: Arial;
    font-size: 15px;
  }
  #legendBox {
    display:  inline ;
  }
  .p0{
    stroke: none;
    fill:  #00F ;
  }
  .q0{
    fill: none;
    stroke:  #00F ;
  }
  .p1{
    stroke: none;
    fill:  #0F0 ;
  }
  .q1{
    fill: none;
    stroke:  #0F0 ;
  }
  .p2{
    stroke: none;
    fill:  #F00 ;
  }
  .q2{
    fill: none;
    stroke:  #F00 ;
  }
  .p3{
    stroke: none;
    fill:  #000 ;
  }
  .q3{
    fill: none;
    stroke:  #000 ;
  }
]]>
</style>
<symbol id="bl0">
<path d="M 222.24 142.92 L 222.12 144.16 L 222.01 145.41 L 221.88 146.65 L 221.72 147.88 L 221.54 149.12 L 221.32 150.34 L 221.06 151.56 L 220.77 152.77 L 220.43 153.98 L 220.05 155.18 L 219.62 156.36 L 219.16 157.54 L 218.66 158.70 L 218.11 159.84 L 217.52 160.96 L 216.90 162.05 L 216.23 163.12 L 215.54 164.18 L 214.80 165.20 L 214.04 166.20 L 213.23 167.17 L 212.40 168.12 L 211.52 169.04 L 210.62 169.92 L 209.68 170.78 L 208.72 171.60 L 207.72 172.39 L 206.69 173.15 L 205.63 173.87 L 204.55 174.55 L 203.46 175.20 L 202.34 175.80 L 201.20 176.36 L 200.05 176.89 L 198.88 177.37 L 197.69 177.81 L 196.49 178.21 L 195.28 178.57 L 194.05 178.88 L 192.81 179.15 L 191.57 179.38 L 190.31 179.57 L 189.05 179.71 L 187.78 179.81 L 186.51 179.86 L 185.24 179.87 L 183.98 179.83 L 182.71 179.75 L 181.45 179.63 L 180.20 179.46 L 178.95 179.25 L 177.71 179.00 L 176.49 178.70 L 175.27 178.36 L 174.07 177.97 L 172.88 177.55 L 171.71 177.08 L 170.55 176.58 L 169.41 176.04 L 168.29 175.45 L 167.19 174.83 L 166.11 174.16 L 165.06 173.46 L 164.03 172.72 L 163.02 171.95 L 162.05 171.14 L 161.10 170.30 L 160.18 169.43 L 159.30 168.54 L 158.44 167.61 L 157.63 166.65 L 156.85 165.67 L 156.10 164.65 L 155.38 163.61 L 154.70 162.54 L 154.06 161.44 L 153.45 160.32 L 152.88 159.17 L 152.35 158.00 L 151.86 156.82 L 151.42 155.62 L 151.02 154.41 L 150.66 153.19 L 150.35 151.96 L 150.08 150.72 L 149.85 149.47 L 149.67 148.22 L 149.53 146.96 L 149.43 145.69 L 149.38 144.43 L 149.37 143.15 L 149.39 141.88 L 149.44 140.61 L 149.52 139.34 L 149.62 138.07 L 149.73 136.80 L 149.85 135.54 L 149.97 134.27 L 150.10 133.00 L 150.23 131.73 L 150.37 130.46 L 150.51 129.20 L 150.65 127.93 L 150.79 126.67 L 150.93 125.41 L 151.07 124.14 L 151.21 122.87 L 151.36 121.60 L 151.50 120.33 L 151.64 119.05 L 151.78 117.78 L 151.91 116.50 L 152.05 115.23 L 152.18 113.95 L 152.32 112.66 L 152.46 111.38 L 152.61 110.09 L 152.75 108.82 L 152.88 107.54 L 153.02 106.27 L 153.16 105.01 L 153.30 103.74 L 153.43 102.47 L 153.57 101.20 L 153.71 99.93 L 153.86 98.66 L 154.03 97.39 L 154.25 96.14 L 154.55 94.90 L 154.93 93.70 L 155.41 92.54 L 156.01 91.44 L 156.71 90.39 L 157.52 89.40 L 158.42 88.48 L 159.41 87.62 L 160.45 86.80 L 161.51 86.00 L 162.55 85.23 L 163.56 84.46 L 164.56 83.69 L 165.55 82.92 L 166.54 82.16 L 167.53 81.40 L 168.52 80.63 L 169.50 79.87 L 170.48 79.11 L 171.47 78.35 L 172.45 77.59 L 173.44 76.84 L 174.46 76.10 L 175.53 75.39 L 176.67 74.73 L 177.89 74.14 L 179.17 73.66 L 180.46 73.30 L 181.74 73.09 L 183.00 73.01 L 184.24 73.01 L 185.47 73.05 L 186.70 73.13 L 187.92 73.21 L 189.15 73.30 L 190.37 73.39 L 191.59 73.49 L 192.82 73.59 L 194.04 73.70 L 195.26 73.81 L 196.47 73.92 L 197.68 74.03 L 198.90 74.14 L 200.11 74.24 L 201.32 74.35 L 202.54 74.45 L 203.77 74.55 L 205.02 74.65 L 206.29 74.75 L 207.58 74.86 L 208.88 75.00 L 210.18 75.20 L 211.44 75.45 L 212.67 75.79 L 213.87 76.20 L 215.02 76.69 L 216.13 77.26 L 217.20 77.91 L 218.22 78.64 L 219.20 79.43 L 220.12 80.29 L 220.98 81.21 L 221.77 82.19 L 222.50 83.22 L 223.15 84.29 L 223.73 85.41 L 224.23 86.56 L 224.64 87.75 L 224.98 88.97 L 225.24 90.21 L 225.41 91.46 L 225.52 92.71 L 225.56 93.97 L 225.54 95.23 L 225.48 96.48 L 225.40 97.73 L 225.31 98.99 L 225.22 100.24 L 225.13 101.49 L 225.04 102.75 L 224.95 104.00 L 224.87 105.25 L 224.79 106.51 L 224.71 107.77 L 224.64 109.03 L 224.56 110.29 L 224.48 111.55 L 224.40 112.81 L 224.32 114.08 L 224.24 115.34 L 224.16 116.60 L 224.08 117.86 L 224.00 119.12 L 223.92 120.37 L 223.84 121.63 L 223.76 122.88 L 223.68 124.13 L 223.60 125.38 L 223.51 126.63 L 223.43 127.88 L 223.34 129.13 L 223.25 130.39 L 223.16 131.64 L 223.06 132.90 L 222.96 134.16 L 222.86 135.41 L 222.76 136.67 L 222.66 137.93 L 222.56 139.18 L 222.45 140.43 L 222.34 141.67 Z" />
</symbol>
<symbol id="bl1">
<path d="M 182.09 98.75 L 181.67 99.39 L 181.25 100.04 L 180.83 100.69 L 180.41 101.34 L 179.99 101.99 L 179.57 102.64 L 179.14 103.30 L 178.71 103.95 L 178.26 104.60 L 177.81 105.24 L 177.33 105.86 L 176.82 106.46 L 176.29 107.03 L 175.73 107.57 L 175.14 108.07 L 174.52 108.54 L 173.86 108.97 L 173.16 109.36 L 172.44 109.71 L 171.70 110.03 L 170.94 110.30 L 170.19 110.52 L 169.45 110.70 L 168.70 110.83 L 167.95 110.92 L 167.19 110.96 L 166.44 110.95 L 165.69 110.90 L 164.94 110.80 L 164.20 110.66 L 163.47 110.48 L 162.76 110.25 L 162.06 109.99 L 161.38 109.69 L 160.72 109.35 L 160.07 108.98 L 159.46 108.56 L 158.86 108.12 L 158.29 107.64 L 157.74 107.13 L 157.22 106.60 L 156.71 106.05 L 156.22 105.49 L 155.73 104.91 L 155.25 104.34 L 154.76 103.76 L 154.28 103.19 L 153.80 102.63 L 153.32 102.06 L 152.84 101.50 L 152.36 100.93 L 151.88 100.37 L 151.40 99.80 L 150.93 99.23 L 150.45 98.66 L 149.98 98.09 L 149.50 97.52 L 149.02 96.96 L 148.54 96.39 L 148.06 95.82 L 147.57 95.25 L 147.08 94.68 L 146.59 94.11 L 146.10 93.54 L 145.61 92.96 L 145.12 92.39 L 144.63 91.82 L 144.15 91.25 L 143.66 90.68 L 143.18 90.11 L 142.70 89.53 L 142.23 88.96 L 141.75 88.39 L 141.27 87.82 L 140.79 87.24 L 140.31 86.66 L 139.83 86.09 L 139.35 85.50 L 138.88 84.91 L 138.41 84.32 L 137.95 83.71 L 137.51 83.10 L 137.09 82.48 L 136.69 81.84 L 136.33 81.18 L 135.99 80.51 L 135.69 79.83 L 135.42 79.14 L 135.18 78.43 L 134.97 77.72 L 134.79 77.00 L 134.65 76.27 L 134.54 75.53 L 134.46 74.79 L 134.42 74.06 L 134.41 73.32 L 134.43 72.58 L 134.49 71.83 L 134.58 71.10 L 134.70 70.36 L 134.86 69.63 L 135.05 68.91 L 135.27 68.20 L 135.52 67.50 L 135.80 66.82 L 136.11 66.15 L 136.45 65.50 L 136.82 64.86 L 137.22 64.24 L 137.64 63.64 L 138.10 63.06 L 138.58 62.50 L 139.09 61.96 L 139.62 61.44 L 140.18 60.94 L 140.76 60.47 L 141.36 60.02 L 141.97 59.60 L 142.61 59.22 L 143.25 58.86 L 143.92 58.53 L 144.59 58.24 L 145.28 57.97 L 145.98 57.73 L 146.69 57.52 L 147.41 57.35 L 148.13 57.20 L 148.86 57.09 L 149.59 57.01 L 150.33 56.95 L 151.07 56.91 L 151.81 56.88 L 152.55 56.86 L 153.29 56.84 L 154.04 56.82 L 154.78 56.81 L 155.53 56.80 L 156.27 56.78 L 157.01 56.77 L 157.75 56.76 L 158.49 56.75 L 159.23 56.74 L 159.97 56.72 L 160.72 56.69 L 161.46 56.66 L 162.21 56.62 L 162.96 56.59 L 163.71 56.56 L 164.46 56.53 L 165.20 56.50 L 165.95 56.48 L 166.69 56.46 L 167.44 56.44 L 168.18 56.42 L 168.93 56.41 L 169.68 56.39 L 170.42 56.36 L 171.16 56.34 L 171.90 56.31 L 172.63 56.28 L 173.37 56.26 L 174.10 56.25 L 174.83 56.27 L 175.56 56.31 L 176.29 56.40 L 177.00 56.53 L 177.70 56.72 L 178.39 56.96 L 179.05 57.26 L 179.69 57.60 L 180.30 58.00 L 180.88 58.45 L 181.42 58.96 L 181.93 59.52 L 182.40 60.12 L 182.84 60.76 L 183.24 61.42 L 183.61 62.09 L 183.94 62.77 L 184.26 63.45 L 184.56 64.14 L 184.85 64.83 L 185.14 65.52 L 185.43 66.21 L 185.71 66.90 L 185.99 67.59 L 186.27 68.28 L 186.54 68.97 L 186.82 69.66 L 187.11 70.35 L 187.39 71.03 L 187.67 71.72 L 187.95 72.40 L 188.24 73.08 L 188.53 73.77 L 188.83 74.44 L 189.12 75.12 L 189.41 75.80 L 189.70 76.49 L 189.98 77.18 L 190.24 77.88 L 190.47 78.59 L 190.68 79.31 L 190.85 80.03 L 190.96 80.76 L 191.01 81.50 L 191.01 82.23 L 190.94 82.96 L 190.82 83.68 L 190.64 84.38 L 190.42 85.06 L 190.16 85.71 L 189.86 86.35 L 189.53 86.99 L 189.16 87.63 L 188.78 88.27 L 188.38 88.92 L 187.97 89.57 L 187.55 90.23 L 187.14 90.88 L 186.72 91.53 L 186.31 92.19 L 185.89 92.85 L 185.47 93.51 L 185.05 94.17 L 184.63 94.83 L 184.21 95.49 L 183.79 96.15 L 183.37 96.80 L 182.95 97.45 L 182.52 98.10 Z" />
</symbol>
<symbol id="bl2">
<path d="M 228.75 87.52 L 228.38 88.60 L 228.01 89.67 L 227.63 90.75 L 227.26 91.83 L 226.89 92.91 L 226.52 93.99 L 226.15 95.07 L 225.77 96.15 L 225.39 97.22 L 225.00 98.29 L 224.59 99.35 L 224.14 100.39 L 223.65 101.41 L 223.11 102.40 L 222.52 103.36 L 221.87 104.29 L 221.16 105.17 L 220.41 106.01 L 219.60 106.81 L 218.75 107.55 L 217.85 108.23 L 216.91 108.86 L 215.94 109.43 L 214.94 109.94 L 213.91 110.38 L 212.86 110.76 L 211.79 111.07 L 210.70 111.32 L 209.59 111.51 L 208.47 111.62 L 207.35 111.67 L 206.22 111.65 L 205.10 111.55 L 203.98 111.38 L 202.86 111.14 L 201.75 110.83 L 200.65 110.44 L 199.56 109.99 L 198.50 109.48 L 197.47 108.89 L 196.44 108.22 L 195.40 107.44 L 194.33 106.54 L 193.23 105.55 L 192.10 104.49 L 190.98 103.39 L 189.84 102.27 L 188.70 101.14 L 187.57 100.02 L 186.43 98.90 L 185.29 97.77 L 184.15 96.65 L 183.01 95.53 L 181.87 94.40 L 180.73 93.28 L 179.60 92.17 L 178.50 91.07 L 177.43 90.01 L 176.42 88.97 L 175.50 87.94 L 174.68 86.91 L 173.98 85.85 L 173.38 84.77 L 172.85 83.67 L 172.36 82.56 L 171.88 81.44 L 171.41 80.31 L 170.94 79.19 L 170.46 78.06 L 169.99 76.93 L 169.51 75.81 L 169.04 74.69 L 168.56 73.56 L 168.09 72.43 L 167.63 71.28 L 167.19 70.12 L 166.81 68.93 L 166.49 67.74 L 166.28 66.56 L 166.19 65.39 L 166.24 64.25 L 166.40 63.14 L 166.67 62.05 L 167.02 60.99 L 167.42 59.93 L 167.84 58.88 L 168.27 57.84 L 168.70 56.79 L 169.14 55.74 L 169.58 54.69 L 170.01 53.64 L 170.44 52.59 L 170.87 51.55 L 171.30 50.50 L 171.73 49.46 L 172.17 48.42 L 172.60 47.38 L 173.03 46.34 L 173.45 45.29 L 173.88 44.25 L 174.31 43.21 L 174.73 42.16 L 175.16 41.11 L 175.59 40.06 L 176.02 39.01 L 176.45 37.97 L 176.88 36.92 L 177.31 35.88 L 177.74 34.84 L 178.18 33.80 L 178.62 32.77 L 179.06 31.74 L 179.50 30.71 L 179.96 29.68 L 180.43 28.65 L 180.94 27.64 L 181.48 26.65 L 182.05 25.67 L 182.65 24.71 L 183.28 23.78 L 183.95 22.86 L 184.64 21.98 L 185.36 21.12 L 186.11 20.29 L 186.89 19.49 L 187.69 18.72 L 188.52 17.97 L 189.38 17.25 L 190.26 16.56 L 191.17 15.90 L 192.09 15.27 L 193.04 14.67 L 194.01 14.11 L 195.00 13.58 L 196.01 13.09 L 197.03 12.63 L 198.07 12.21 L 199.12 11.82 L 200.18 11.47 L 201.26 11.16 L 202.34 10.88 L 203.44 10.64 L 204.54 10.44 L 205.65 10.27 L 206.77 10.15 L 207.89 10.06 L 209.01 10.01 L 210.14 10.00 L 211.27 10.03 L 212.39 10.10 L 213.52 10.21 L 214.64 10.36 L 215.76 10.54 L 216.87 10.77 L 217.97 11.03 L 219.06 11.33 L 220.14 11.67 L 221.21 12.05 L 222.25 12.46 L 223.28 12.91 L 224.30 13.39 L 225.29 13.91 L 226.27 14.46 L 227.23 15.05 L 228.17 15.67 L 229.08 16.32 L 229.97 17.00 L 230.84 17.71 L 231.68 18.45 L 232.50 19.22 L 233.29 20.02 L 234.06 20.84 L 234.79 21.70 L 235.49 22.57 L 236.17 23.47 L 236.81 24.39 L 237.42 25.33 L 237.99 26.28 L 238.53 27.26 L 239.04 28.25 L 239.51 29.26 L 239.94 30.29 L 240.34 31.33 L 240.71 32.38 L 241.03 33.44 L 241.32 34.52 L 241.58 35.61 L 241.80 36.70 L 241.98 37.81 L 242.12 38.92 L 242.22 40.04 L 242.28 41.16 L 242.31 42.28 L 242.30 43.40 L 242.25 44.52 L 242.16 45.63 L 242.03 46.74 L 241.86 47.86 L 241.65 48.96 L 241.41 50.06 L 241.13 51.16 L 240.83 52.25 L 240.50 53.33 L 240.15 54.41 L 239.79 55.48 L 239.42 56.54 L 239.04 57.60 L 238.67 58.66 L 238.29 59.72 L 237.92 60.77 L 237.55 61.83 L 237.18 62.89 L 236.81 63.95 L 236.45 65.01 L 236.09 66.07 L 235.73 67.13 L 235.37 68.19 L 235.01 69.26 L 234.66 70.32 L 234.30 71.38 L 233.95 72.45 L 233.59 73.52 L 233.24 74.60 L 232.88 75.67 L 232.51 76.74 L 232.14 77.82 L 231.77 78.89 L 231.39 79.97 L 231.01 81.05 L 230.63 82.13 L 230.25 83.21 L 229.87 84.29 L 229.50 85.37 L 229.13 86.44 Z" />
</symbol>
<symbol id="bl3">
<path d="M 357.38 440.14 L 356.39 442.18 L 355.35 444.19 L 354.25 446.17 L 353.10 448.13 L 351.90 450.06 L 350.65 451.94 L 349.36 453.80 L 348.01 455.62 L 346.62 457.41 L 345.18 459.15 L 343.69 460.87 L 342.16 462.54 L 340.59 464.17 L 338.97 465.76 L 337.32 467.31 L 335.62 468.82 L 333.88 470.28 L 332.11 471.70 L 330.30 473.07 L 328.46 474.39 L 326.58 475.66 L 324.67 476.89 L 322.73 478.06 L 320.76 479.18 L 318.76 480.25 L 316.74 481.26 L 314.69 482.22 L 312.61 483.13 L 310.51 483.99 L 308.39 484.79 L 306.25 485.54 L 304.09 486.22 L 301.91 486.86 L 299.72 487.43 L 297.52 487.96 L 295.30 488.42 L 293.07 488.82 L 290.84 489.17 L 288.59 489.46 L 286.34 489.68 L 284.08 489.84 L 281.82 489.95 L 279.55 490.00 L 277.29 489.99 L 275.02 489.93 L 272.76 489.80 L 270.50 489.62 L 268.25 489.38 L 266.00 489.08 L 263.77 488.72 L 261.54 488.30 L 259.33 487.82 L 257.12 487.28 L 254.94 486.69 L 252.77 486.04 L 250.61 485.33 L 248.48 484.57 L 246.36 483.75 L 244.27 482.88 L 242.20 481.95 L 240.15 480.97 L 238.14 479.93 L 236.15 478.84 L 234.19 477.71 L 232.27 476.53 L 230.37 475.29 L 228.51 474.01 L 226.68 472.68 L 224.89 471.30 L 223.14 469.87 L 221.43 468.40 L 219.75 466.88 L 218.12 465.32 L 216.53 463.72 L 214.98 462.07 L 213.47 460.39 L 212.01 458.67 L 210.59 456.91 L 209.22 455.12 L 207.89 453.29 L 206.61 451.42 L 205.39 449.53 L 204.21 447.60 L 203.08 445.64 L 202.01 443.65 L 200.99 441.63 L 200.02 439.59 L 199.11 437.52 L 198.25 435.43 L 197.45 433.32 L 196.70 431.19 L 196.01 429.04 L 195.37 426.87 L 194.79 424.68 L 194.27 422.49 L 193.81 420.28 L 193.41 418.05 L 193.06 415.82 L 192.78 413.57 L 192.55 411.32 L 192.39 409.07 L 192.28 406.81 L 192.23 404.55 L 192.24 402.28 L 192.31 400.03 L 192.44 397.77 L 192.63 395.52 L 192.87 393.27 L 193.18 391.03 L 193.55 388.80 L 193.97 386.58 L 194.45 384.37 L 194.99 382.17 L 195.59 379.99 L 196.24 377.82 L 196.96 375.67 L 197.73 373.54 L 198.55 371.43 L 199.43 369.34 L 200.36 367.28 L 201.35 365.24 L 202.38 363.22 L 203.47 361.24 L 204.62 359.28 L 205.81 357.36 L 207.06 355.46 L 208.35 353.61 L 209.70 351.79 L 211.09 350.00 L 212.52 348.24 L 214.00 346.53 L 215.53 344.85 L 217.09 343.22 L 218.71 341.62 L 220.36 340.07 L 222.05 338.56 L 223.79 337.10 L 225.56 335.68 L 227.37 334.31 L 229.21 332.99 L 231.09 331.72 L 233.00 330.49 L 234.95 329.31 L 236.92 328.19 L 238.92 327.11 L 240.95 326.09 L 243.01 325.12 L 245.09 324.20 L 247.20 323.33 L 249.33 322.53 L 251.47 321.78 L 253.64 321.08 L 255.82 320.44 L 258.02 319.86 L 260.24 319.34 L 262.46 318.87 L 264.70 318.47 L 266.94 318.12 L 269.19 317.82 L 271.45 317.59 L 273.72 317.42 L 275.98 317.31 L 278.25 317.26 L 280.52 317.27 L 282.79 317.34 L 285.05 317.46 L 287.31 317.64 L 289.57 317.88 L 291.81 318.18 L 294.05 318.54 L 296.27 318.96 L 298.49 319.43 L 300.69 319.97 L 302.88 320.56 L 305.05 321.20 L 307.21 321.91 L 309.35 322.66 L 311.47 323.48 L 313.56 324.35 L 315.63 325.27 L 317.68 326.25 L 319.70 327.29 L 321.69 328.38 L 323.65 329.52 L 325.58 330.70 L 327.47 331.94 L 329.34 333.22 L 331.17 334.56 L 332.96 335.94 L 334.72 337.37 L 336.43 338.85 L 338.11 340.37 L 339.75 341.93 L 341.35 343.54 L 342.90 345.18 L 344.41 346.87 L 345.87 348.59 L 347.29 350.35 L 348.66 352.15 L 349.99 353.98 L 351.26 355.85 L 352.48 357.75 L 353.66 359.69 L 354.78 361.65 L 355.85 363.64 L 356.87 365.67 L 357.84 367.71 L 358.75 369.78 L 359.61 371.88 L 360.41 373.99 L 361.15 376.13 L 361.85 378.29 L 362.48 380.46 L 363.05 382.65 L 363.57 384.86 L 364.03 387.07 L 364.43 389.30 L 364.78 391.54 L 365.06 393.79 L 365.28 396.04 L 365.45 398.30 L 365.55 400.57 L 365.59 402.83 L 365.58 405.10 L 365.50 407.36 L 365.37 409.62 L 365.18 411.88 L 364.92 414.13 L 364.61 416.37 L 364.24 418.61 L 363.81 420.83 L 363.33 423.04 L 362.78 425.25 L 362.18 427.43 L 361.51 429.60 L 360.80 431.75 L 360.02 433.88 L 359.20 435.98 L 358.32 438.07 Z" />
</symbol>
</defs>
<!-- isDone: 0 -->
<rect width="700" height="500" style="fill:#fff;stroke-width:0" />
<use class="p0 borderLine" xlink:href="#bl0"/>
<use class="p1 borderLine" xlink:href="#bl1"/>
<use class="p2 borderLine" xlink:href="#bl2"/>
<use class="p3 borderLine" xlink:href="#bl3"/>
<use class="q0 outLine" xlink:href="#bl0"/>
<use class="q1 outLine" xlink:href="#bl1"/>
<use class="q2 outLine" xlink:href="#bl2"/>
<use class="q3 outLine" xlink:href="#bl3"/>
<circle onclick="fromCircle(8)" class="circle" cx="185.6227" cy="143.5947" r="32.4563" />
<text class="nLabel" x="185.62" y="138.59">113</text>
<text class="belong" x="185.62" y="148.59">(1)</text>
<circle onclick="fromCircle(12)" class="circle" cx="166.9302" cy="97.8067" r="9.1597" />
<text class="nLabel" x="166.93" y="92.81">9</text>
<text class="belong" x="166.93" y="102.81">(1, 2)</text>
<circle onclick="fromCircle(14)" class="circle" cx="181.8750" cy="81.7376" r="5.2884" />
<text class="nLabel" x="181.88" y="76.74">3</text>
<text class="belong" x="181.88" y="86.74">(1, 2, 3)</text>
<circle onclick="fromCircle(4)" class="circle" cx="150.7861" cy="73.2638" r="12.5888" />
<text class="nLabel" x="150.79" y="68.26">17</text>
<text class="belong" x="150.79" y="78.26">(2)</text>
<circle onclick="fromCircle(6)" class="circle" cx="174.9752" cy="65.2271" r="5.2884" />
<text class="nLabel" x="174.98" y="60.23">3</text>
<text class="belong" x="174.98" y="70.23">(2, 3)</text>
<circle onclick="fromCircle(2)" class="circle" cx="209.8242" cy="42.2082" r="28.6419" />
<text class="nLabel" x="209.82" y="37.21">88</text>
<text class="belong" x="209.82" y="47.21">(3)</text>
<circle onclick="fromCircle(10)" class="circle" cx="207.1092" cy="93.1305" r="14.6428" />
<text class="nLabel" x="207.11" y="88.13">23</text>
<text class="belong" x="207.11" y="98.13">(1, 3)</text>
<circle onclick="fromCircle(1)" class="circle" cx="279.3681" cy="405.1225" r="83.2812" />
<text class="nLabel" x="279.37" y="400.12">744</text>
<text class="belong" x="279.37" y="410.12">(4)</text>
<g id="legendBox">
<rect class="p0 borderLine" x="500.00" y="50.00" width="30.00" height="15.00" />
<rect class="q0" x="500.00" y="50.00" width="30.00" height="15.00" />
<text class="legend" x="540.00" y="65.00">bike ALB_2002</text>
<rect class="p1 borderLine" x="500.00" y="90.00" width="30.00" height="15.00" />
<rect class="q1" x="500.00" y="90.00" width="30.00" height="15.00" />
<text class="legend" x="540.00" y="105.00">motorbike ALB_2002</text>
<rect class="p2 borderLine" x="500.00" y="130.00" width="30.00" height="15.00" />
<rect class="q2" x="500.00" y="130.00" width="30.00" height="15.00" />
<text class="legend" x="540.00" y="145.00">motor_vehicle ALB_2002</text>
<rect class="p3 borderLine" x="500.00" y="170.00" width="30.00" height="15.00" />
<rect class="q3" x="500.00" y="170.00" width="30.00" height="15.00" />
<text class="legend" x="540.00" y="185.00">no_transport ALB_2002</text>
</g>
</svg>
