<svg xmlns="http://www.w3.org/2000/svg" xmlns:xlink="http://www.w3.org/1999/xlink" width="700" height="500">
<defs>
<style type="text/css"><![CDATA[
  .borderLine {
	   stroke: none;
	   fill-opacity:  0.4 ;
  }
  .outLine {
	   stroke-width:  1 ;
	   fill: none;
  }
  .circle {
	   stroke: #888888;
	   stroke-width: 0.5;
	   fill: none;
    pointer-events: all;
  }
  .nLabel {
	   font-family: Arial;
    pointer-events: none;
	   font-size: 10px;
	   text-anchor: middle;
	   alignment-baseline: central;
  }
  .belong {
	   font-family: Arial;
    pointer-events: none;
	   font-size: 5px;
	   text-anchor: middle;
	   alignment-baseline: central;
  }
  .legend {
    font-family: Arial;
    font-size: 15px;
  }
  #legendBox {
    display:  inline ;
  }
  .p0{
    stroke: none;
    fill:  #00F ;
  }
  .q0{
    fill: none;
    stroke:  #00F ;
  }
  .p1{
    stroke: none;
    fill:  #0F0 ;
  }
  .q1{
    fill: none;
    stroke:  #0F0 ;
  }
  .p2{
    stroke: none;
    fill:  #F00 ;
  }
  .q2{
    fill: none;
    stroke:  #F00 ;
  }
  .p3{
    stroke: none;
    fill:  #000 ;
  }
  .q3{
    fill: none;
    stroke:  #000 ;
  }
]]>
</style>
<symbol id="bl0">
<path d="M 231.47 144.65 L 231.54 145.78 L 231.57 146.92 L 231.58 148.06 L 231.58 149.21 L 231.58 150.38 L 231.55 151.57 L 231.51 152.77 L 231.43 153.99 L 231.31 155.20 L 231.13 156.40 L 230.92 157.57 L 230.67 158.72 L 230.38 159.84 L 230.07 160.95 L 229.72 162.05 L 229.34 163.16 L 228.90 164.28 L 228.41 165.42 L 227.87 166.57 L 227.27 167.70 L 226.66 168.79 L 226.03 169.83 L 225.38 170.84 L 224.69 171.82 L 223.95 172.80 L 223.13 173.79 L 222.25 174.77 L 221.33 175.73 L 220.39 176.66 L 219.42 177.54 L 218.43 178.36 L 217.42 179.12 L 216.37 179.82 L 215.30 180.48 L 214.21 181.10 L 213.10 181.69 L 211.98 182.23 L 210.84 182.75 L 209.70 183.23 L 208.55 183.68 L 207.40 184.08 L 206.25 184.44 L 205.09 184.73 L 203.94 184.97 L 202.79 185.16 L 201.64 185.32 L 200.50 185.47 L 199.36 185.59 L 198.22 185.68 L 197.08 185.71 L 195.93 185.69 L 194.78 185.60 L 193.62 185.46 L 192.47 185.27 L 191.31 185.06 L 190.16 184.82 L 189.02 184.57 L 187.87 184.27 L 186.72 183.94 L 185.53 183.54 L 184.30 183.07 L 183.01 182.53 L 181.70 181.91 L 180.41 181.26 L 179.18 180.60 L 178.04 179.96 L 176.99 179.32 L 176.02 178.64 L 175.14 177.91 L 174.30 177.12 L 173.50 176.28 L 172.72 175.43 L 171.95 174.55 L 171.20 173.64 L 170.48 172.71 L 169.77 171.75 L 169.09 170.77 L 168.43 169.76 L 167.79 168.75 L 167.18 167.72 L 166.62 166.68 L 166.09 165.64 L 165.61 164.58 L 165.15 163.51 L 164.74 162.41 L 164.37 161.29 L 164.05 160.14 L 163.77 158.96 L 163.53 157.75 L 163.32 156.52 L 163.11 155.27 L 162.89 154.01 L 162.69 152.73 L 162.51 151.45 L 162.39 150.17 L 162.36 148.89 L 162.40 147.62 L 162.48 146.35 L 162.58 145.09 L 162.65 143.85 L 162.69 142.64 L 162.68 141.46 L 162.61 140.31 L 162.52 139.16 L 162.41 138.00 L 162.29 136.81 L 162.16 135.60 L 162.03 134.37 L 161.91 133.12 L 161.83 131.84 L 161.82 130.54 L 161.89 129.21 L 162.04 127.89 L 162.26 126.58 L 162.50 125.32 L 162.75 124.11 L 162.98 122.93 L 163.16 121.78 L 163.28 120.63 L 163.35 119.47 L 163.37 118.28 L 163.34 117.04 L 163.27 115.76 L 163.21 114.45 L 163.16 113.15 L 163.17 111.89 L 163.26 110.67 L 163.46 109.48 L 163.80 108.30 L 164.27 107.14 L 164.88 106.00 L 165.61 104.89 L 166.42 103.82 L 167.28 102.77 L 168.16 101.76 L 169.00 100.78 L 169.80 99.84 L 170.58 98.95 L 171.37 98.09 L 172.21 97.25 L 173.10 96.42 L 174.04 95.57 L 175.03 94.72 L 176.03 93.88 L 177.01 93.10 L 177.98 92.37 L 178.95 91.66 L 179.93 90.98 L 180.97 90.33 L 182.09 89.75 L 183.30 89.26 L 184.58 88.89 L 185.89 88.61 L 187.23 88.41 L 188.55 88.25 L 189.86 88.12 L 191.14 88.00 L 192.42 87.89 L 193.71 87.75 L 195.02 87.57 L 196.34 87.35 L 197.66 87.12 L 199.00 86.89 L 200.39 86.67 L 201.84 86.49 L 203.34 86.35 L 204.87 86.28 L 206.39 86.28 L 207.87 86.37 L 209.33 86.56 L 210.77 86.88 L 212.20 87.34 L 213.60 87.94 L 214.93 88.66 L 216.18 89.50 L 217.32 90.41 L 218.33 91.37 L 219.21 92.37 L 219.98 93.41 L 220.67 94.50 L 221.30 95.67 L 221.84 96.91 L 222.30 98.18 L 222.68 99.48 L 222.98 100.81 L 223.21 102.15 L 223.38 103.50 L 223.53 104.81 L 223.66 106.08 L 223.78 107.30 L 223.90 108.50 L 224.01 109.70 L 224.14 110.92 L 224.28 112.14 L 224.44 113.36 L 224.63 114.58 L 224.85 115.79 L 225.11 117.00 L 225.41 118.23 L 225.76 119.49 L 226.16 120.81 L 226.59 122.17 L 227.04 123.55 L 227.47 124.95 L 227.87 126.36 L 228.27 127.76 L 228.64 129.15 L 228.99 130.51 L 229.29 131.80 L 229.55 133.04 L 229.78 134.24 L 229.97 135.42 L 230.16 136.59 L 230.36 137.76 L 230.57 138.92 L 230.79 140.07 L 231.01 141.22 L 231.20 142.37 L 231.36 143.51 Z" />
</symbol>
<symbol id="bl1">
<path d="M 184.55 116.80 L 184.17 117.48 L 183.74 118.16 L 183.26 118.82 L 182.74 119.43 L 182.18 119.99 L 181.56 120.49 L 180.88 120.91 L 180.17 121.27 L 179.44 121.57 L 178.70 121.82 L 177.96 122.03 L 177.23 122.21 L 176.50 122.35 L 175.79 122.44 L 175.07 122.48 L 174.34 122.48 L 173.59 122.42 L 172.82 122.30 L 172.03 122.13 L 171.25 121.91 L 170.47 121.63 L 169.71 121.32 L 168.97 120.97 L 168.25 120.59 L 167.54 120.18 L 166.83 119.77 L 166.13 119.34 L 165.44 118.90 L 164.75 118.46 L 164.07 118.00 L 163.39 117.53 L 162.72 117.05 L 162.05 116.55 L 161.38 116.05 L 160.71 115.57 L 160.03 115.13 L 159.36 114.73 L 158.68 114.37 L 158.00 114.04 L 157.33 113.73 L 156.66 113.44 L 155.99 113.16 L 155.29 112.88 L 154.56 112.61 L 153.80 112.36 L 153.04 112.12 L 152.29 111.89 L 151.57 111.67 L 150.87 111.44 L 150.18 111.19 L 149.50 110.94 L 148.80 110.70 L 148.09 110.46 L 147.36 110.23 L 146.62 109.97 L 145.86 109.66 L 145.10 109.32 L 144.34 108.92 L 143.58 108.50 L 142.83 108.05 L 142.09 107.58 L 141.36 107.11 L 140.66 106.64 L 139.98 106.15 L 139.33 105.64 L 138.71 105.11 L 138.14 104.55 L 137.61 103.95 L 137.12 103.31 L 136.65 102.66 L 136.21 101.98 L 135.80 101.30 L 135.43 100.60 L 135.10 99.87 L 134.81 99.11 L 134.53 98.31 L 134.28 97.46 L 134.06 96.56 L 133.88 95.63 L 133.74 94.71 L 133.65 93.80 L 133.59 92.94 L 133.57 92.13 L 133.58 91.35 L 133.61 90.56 L 133.68 89.77 L 133.78 88.94 L 133.94 88.09 L 134.14 87.21 L 134.39 86.33 L 134.67 85.47 L 135.00 84.61 L 135.36 83.79 L 135.74 83.02 L 136.15 82.30 L 136.56 81.63 L 136.98 81.01 L 137.42 80.41 L 137.90 79.82 L 138.42 79.23 L 139.00 78.64 L 139.63 78.07 L 140.29 77.52 L 140.98 77.01 L 141.69 76.53 L 142.40 76.08 L 143.13 75.66 L 143.88 75.27 L 144.65 74.89 L 145.45 74.54 L 146.27 74.23 L 147.12 73.95 L 147.98 73.71 L 148.86 73.48 L 149.73 73.26 L 150.60 73.04 L 151.47 72.83 L 152.34 72.62 L 153.23 72.43 L 154.13 72.28 L 155.05 72.15 L 155.98 72.04 L 156.91 71.94 L 157.84 71.83 L 158.78 71.72 L 159.72 71.62 L 160.68 71.53 L 161.67 71.45 L 162.66 71.39 L 163.64 71.35 L 164.61 71.31 L 165.54 71.29 L 166.44 71.28 L 167.29 71.29 L 168.08 71.33 L 168.83 71.39 L 169.57 71.46 L 170.31 71.55 L 171.07 71.65 L 171.86 71.73 L 172.66 71.79 L 173.47 71.81 L 174.27 71.78 L 175.06 71.75 L 175.89 71.74 L 176.76 71.76 L 177.67 71.84 L 178.59 71.96 L 179.48 72.13 L 180.34 72.36 L 181.12 72.66 L 181.84 73.02 L 182.48 73.42 L 183.07 73.87 L 183.61 74.37 L 184.10 74.91 L 184.56 75.48 L 184.99 76.09 L 185.40 76.73 L 185.77 77.39 L 186.10 78.08 L 186.40 78.80 L 186.65 79.54 L 186.88 80.30 L 187.09 81.08 L 187.29 81.88 L 187.50 82.67 L 187.72 83.47 L 187.94 84.28 L 188.16 85.07 L 188.36 85.86 L 188.57 86.63 L 188.77 87.39 L 189.00 88.13 L 189.24 88.87 L 189.50 89.59 L 189.78 90.30 L 190.08 91.01 L 190.37 91.71 L 190.66 92.41 L 190.90 93.12 L 191.09 93.84 L 191.23 94.57 L 191.30 95.30 L 191.30 96.02 L 191.23 96.73 L 191.10 97.44 L 190.93 98.14 L 190.73 98.84 L 190.52 99.54 L 190.28 100.23 L 190.02 100.94 L 189.71 101.66 L 189.38 102.39 L 189.03 103.13 L 188.71 103.88 L 188.42 104.61 L 188.18 105.34 L 187.96 106.06 L 187.76 106.78 L 187.57 107.51 L 187.37 108.23 L 187.16 108.94 L 186.95 109.64 L 186.74 110.33 L 186.52 111.04 L 186.31 111.77 L 186.11 112.53 L 185.90 113.29 L 185.68 114.04 L 185.45 114.75 L 185.18 115.45 L 184.89 116.12 Z" />
</symbol>
<symbol id="bl2">
<path d="M 229.00 95.03 L 228.32 96.37 L 227.61 97.77 L 226.90 99.21 L 226.19 100.66 L 225.47 102.10 L 224.74 103.51 L 224.00 104.86 L 223.27 106.13 L 222.55 107.33 L 221.81 108.47 L 221.05 109.61 L 220.24 110.74 L 219.38 111.86 L 218.46 112.93 L 217.50 113.91 L 216.49 114.80 L 215.43 115.59 L 214.32 116.27 L 213.17 116.85 L 211.99 117.31 L 210.78 117.66 L 209.54 117.91 L 208.27 118.05 L 206.97 118.10 L 205.66 118.04 L 204.33 117.87 L 202.98 117.59 L 201.60 117.19 L 200.21 116.65 L 198.85 115.98 L 197.56 115.21 L 196.37 114.37 L 195.30 113.51 L 194.32 112.65 L 193.38 111.81 L 192.45 110.97 L 191.49 110.11 L 190.51 109.20 L 189.48 108.22 L 188.40 107.20 L 187.27 106.17 L 186.12 105.19 L 184.94 104.28 L 183.75 103.42 L 182.55 102.56 L 181.36 101.66 L 180.21 100.68 L 179.13 99.61 L 178.13 98.47 L 177.19 97.30 L 176.31 96.11 L 175.47 94.92 L 174.67 93.73 L 173.88 92.53 L 173.09 91.32 L 172.30 90.11 L 171.53 88.88 L 170.79 87.64 L 170.11 86.42 L 169.53 85.21 L 169.06 84.01 L 168.71 82.82 L 168.47 81.64 L 168.35 80.45 L 168.35 79.25 L 168.44 78.02 L 168.59 76.77 L 168.77 75.50 L 168.95 74.23 L 169.12 72.97 L 169.31 71.73 L 169.51 70.51 L 169.73 69.31 L 169.97 68.12 L 170.21 66.93 L 170.46 65.73 L 170.72 64.52 L 170.96 63.30 L 171.20 62.07 L 171.41 60.82 L 171.59 59.56 L 171.75 58.30 L 171.90 57.03 L 172.06 55.78 L 172.23 54.53 L 172.42 53.30 L 172.63 52.08 L 172.85 50.86 L 173.06 49.64 L 173.23 48.40 L 173.38 47.16 L 173.51 45.92 L 173.65 44.67 L 173.81 43.43 L 174.00 42.20 L 174.23 40.95 L 174.53 39.66 L 174.90 38.32 L 175.35 36.90 L 175.88 35.46 L 176.44 34.04 L 177.01 32.69 L 177.58 31.43 L 178.14 30.27 L 178.71 29.15 L 179.32 28.06 L 179.97 26.99 L 180.67 25.94 L 181.44 24.92 L 182.27 23.92 L 183.15 22.94 L 184.07 21.97 L 185.04 21.02 L 186.04 20.09 L 187.09 19.19 L 188.17 18.31 L 189.29 17.48 L 190.43 16.69 L 191.58 15.96 L 192.76 15.27 L 193.96 14.62 L 195.17 14.01 L 196.42 13.43 L 197.69 12.88 L 199.00 12.37 L 200.33 11.91 L 201.67 11.52 L 203.01 11.17 L 204.34 10.89 L 205.64 10.65 L 206.93 10.45 L 208.20 10.29 L 209.47 10.17 L 210.74 10.08 L 212.02 10.02 L 213.32 10.00 L 214.64 10.02 L 215.97 10.08 L 217.32 10.21 L 218.67 10.40 L 220.02 10.65 L 221.35 10.96 L 222.65 11.32 L 223.92 11.73 L 225.17 12.18 L 226.38 12.65 L 227.56 13.16 L 228.71 13.72 L 229.82 14.31 L 230.91 14.95 L 231.97 15.63 L 233.02 16.37 L 234.06 17.13 L 235.10 17.94 L 236.14 18.76 L 237.17 19.62 L 238.17 20.50 L 239.14 21.40 L 240.05 22.33 L 240.92 23.28 L 241.74 24.24 L 242.53 25.22 L 243.29 26.22 L 244.02 27.23 L 244.70 28.29 L 245.35 29.41 L 245.97 30.61 L 246.56 31.90 L 247.14 33.29 L 247.69 34.73 L 248.20 36.18 L 248.64 37.59 L 249.00 38.95 L 249.30 40.26 L 249.54 41.55 L 249.76 42.84 L 249.93 44.12 L 250.07 45.41 L 250.15 46.69 L 250.19 47.96 L 250.17 49.21 L 250.11 50.45 L 250.01 51.67 L 249.88 52.90 L 249.71 54.13 L 249.50 55.37 L 249.24 56.62 L 248.91 57.89 L 248.52 59.19 L 248.07 60.52 L 247.57 61.88 L 247.02 63.25 L 246.41 64.61 L 245.76 65.95 L 245.08 67.25 L 244.39 68.52 L 243.70 69.73 L 242.99 70.92 L 242.27 72.11 L 241.53 73.31 L 240.80 74.52 L 240.11 75.71 L 239.45 76.87 L 238.80 77.99 L 238.13 79.09 L 237.45 80.18 L 236.75 81.26 L 236.03 82.33 L 235.32 83.41 L 234.63 84.52 L 233.96 85.66 L 233.31 86.83 L 232.69 87.99 L 232.09 89.15 L 231.50 90.30 L 230.91 91.44 L 230.30 92.59 L 229.67 93.78 Z" />
</symbol>
<symbol id="bl3">
<path d="M 359.28 437.78 L 357.98 440.59 L 356.59 443.34 L 355.09 446.01 L 353.52 448.59 L 351.92 451.02 L 350.36 453.28 L 348.86 455.33 L 347.41 457.21 L 345.98 458.97 L 344.54 460.64 L 343.07 462.27 L 341.55 463.86 L 339.97 465.43 L 338.34 466.96 L 336.66 468.47 L 334.92 469.96 L 333.13 471.41 L 331.27 472.82 L 329.37 474.19 L 327.41 475.52 L 325.41 476.81 L 323.36 478.05 L 321.26 479.24 L 319.13 480.36 L 316.95 481.41 L 314.74 482.39 L 312.50 483.31 L 310.24 484.18 L 307.96 484.99 L 305.65 485.76 L 303.33 486.46 L 300.99 487.11 L 298.63 487.71 L 296.24 488.26 L 293.83 488.75 L 291.40 489.18 L 288.95 489.54 L 286.48 489.81 L 284.01 489.96 L 281.53 490.00 L 279.05 489.94 L 276.57 489.81 L 274.11 489.62 L 271.65 489.39 L 269.20 489.11 L 266.75 488.78 L 264.30 488.40 L 261.85 487.97 L 259.41 487.47 L 256.98 486.91 L 254.58 486.27 L 252.20 485.53 L 249.87 484.71 L 247.59 483.81 L 245.37 482.84 L 243.19 481.81 L 241.06 480.71 L 238.98 479.56 L 236.94 478.35 L 234.92 477.11 L 232.93 475.81 L 230.97 474.47 L 229.05 473.07 L 227.18 471.63 L 225.35 470.14 L 223.56 468.61 L 221.81 467.05 L 220.11 465.45 L 218.45 463.82 L 216.84 462.15 L 215.28 460.44 L 213.75 458.72 L 212.27 456.98 L 210.85 455.22 L 209.50 453.43 L 208.24 451.60 L 207.05 449.72 L 205.95 447.81 L 204.90 445.88 L 203.91 443.92 L 202.96 441.93 L 202.02 439.87 L 201.08 437.69 L 200.11 435.33 L 199.13 432.76 L 198.17 430.01 L 197.27 427.12 L 196.49 424.16 L 195.83 421.16 L 195.29 418.15 L 194.87 415.13 L 194.57 412.12 L 194.38 409.11 L 194.30 406.11 L 194.31 403.12 L 194.42 400.14 L 194.61 397.15 L 194.89 394.17 L 195.27 391.20 L 195.74 388.23 L 196.31 385.27 L 196.97 382.32 L 197.74 379.39 L 198.63 376.48 L 199.65 373.61 L 200.78 370.82 L 201.97 368.17 L 203.19 365.71 L 204.39 363.46 L 205.56 361.39 L 206.74 359.44 L 207.94 357.58 L 209.16 355.75 L 210.41 353.94 L 211.69 352.13 L 213.00 350.34 L 214.36 348.58 L 215.78 346.84 L 217.27 345.15 L 218.84 343.51 L 220.49 341.93 L 222.21 340.40 L 223.98 338.91 L 225.80 337.47 L 227.67 336.05 L 229.57 334.66 L 231.50 333.31 L 233.48 332.00 L 235.50 330.75 L 237.56 329.55 L 239.66 328.40 L 241.78 327.29 L 243.93 326.22 L 246.12 325.19 L 248.35 324.22 L 250.63 323.34 L 252.96 322.55 L 255.32 321.84 L 257.72 321.21 L 260.13 320.64 L 262.55 320.12 L 264.97 319.65 L 267.39 319.23 L 269.81 318.88 L 272.23 318.63 L 274.65 318.45 L 277.08 318.35 L 279.51 318.32 L 281.95 318.33 L 284.40 318.38 L 286.87 318.49 L 289.34 318.65 L 291.81 318.89 L 294.27 319.22 L 296.71 319.63 L 299.13 320.12 L 301.51 320.69 L 303.86 321.33 L 306.19 322.03 L 308.48 322.79 L 310.75 323.62 L 313.00 324.52 L 315.22 325.49 L 317.42 326.52 L 319.60 327.62 L 321.75 328.78 L 323.88 329.98 L 325.97 331.24 L 328.01 332.55 L 330.02 333.92 L 331.97 335.32 L 333.87 336.77 L 335.70 338.25 L 337.47 339.77 L 339.18 341.33 L 340.81 342.92 L 342.39 344.54 L 343.91 346.18 L 345.38 347.83 L 346.81 349.49 L 348.19 351.17 L 349.53 352.87 L 350.82 354.60 L 352.05 356.35 L 353.23 358.14 L 354.36 359.99 L 355.46 361.93 L 356.54 364.01 L 357.64 366.27 L 358.75 368.75 L 359.87 371.42 L 360.96 374.23 L 361.98 377.12 L 362.91 380.07 L 363.75 383.04 L 364.49 386.04 L 365.12 389.07 L 365.63 392.11 L 366.00 395.18 L 366.26 398.28 L 366.40 401.40 L 366.43 404.54 L 366.35 407.67 L 366.15 410.81 L 365.86 413.93 L 365.46 417.03 L 364.96 420.10 L 364.32 423.14 L 363.54 426.14 L 362.64 429.11 L 361.61 432.03 L 360.49 434.92 Z" />
</symbol>
</defs>
<!-- isDone: 0 -->
<rect width="700" height="500" style="fill:#fff;stroke-width:0" />
<use class="p0 borderLine" xlink:href="#bl0"/>
<use class="p1 borderLine" xlink:href="#bl1"/>
<use class="p2 borderLine" xlink:href="#bl2"/>
<use class="p3 borderLine" xlink:href="#bl3"/>
<use class="q0 outLine" xlink:href="#bl0"/>
<use class="q1 outLine" xlink:href="#bl1"/>
<use class="q2 outLine" xlink:href="#bl2"/>
<use class="q3 outLine" xlink:href="#bl3"/>
<circle onclick="fromCircle(8)" class="circle" cx="197.2560" cy="151.3472" r="30.3365" />
<text class="nLabel" x="197.26" y="146.35">98</text>
<text class="belong" x="197.26" y="156.35">(1)</text>
<circle onclick="fromCircle(12)" class="circle" cx="174.6577" cy="111.0874" r="7.5063" />
<text class="nLabel" x="174.66" y="106.09">6</text>
<text class="belong" x="174.66" y="116.09">(1, 2)</text>
<circle onclick="fromCircle(14)" class="circle" cx="184.4283" cy="95.7271" r="3.0644" />
<text class="nLabel" x="184.43" y="90.73">1</text>
<text class="belong" x="184.43" y="100.73">(1, 2, 3)</text>
<circle onclick="fromCircle(4)" class="circle" cx="152.0056" cy="91.7032" r="14.6966" />
<text class="nLabel" x="152.01" y="86.70">23</text>
<text class="belong" x="152.01" y="96.70">(2)</text>
<circle onclick="fromCircle(6)" class="circle" cx="177.4299" cy="81.0361" r="5.3078" />
<text class="nLabel" x="177.43" y="76.04">3</text>
<text class="belong" x="177.43" y="86.04">(2, 3)</text>
<circle onclick="fromCircle(2)" class="circle" cx="211.8726" cy="47.9979" r="34.3983" />
<text class="nLabel" x="211.87" y="43.00">126</text>
<text class="belong" x="211.87" y="53.00">(3)</text>
<circle onclick="fromCircle(10)" class="circle" cx="206.6300" cy="102.0315" r="12.2578" />
<text class="nLabel" x="206.63" y="97.03">16</text>
<text class="belong" x="206.63" y="107.03">(1, 3)</text>
<circle onclick="fromCircle(1)" class="circle" cx="280.6633" cy="405.3823" r="82.6265" />
<text class="nLabel" x="280.66" y="400.38">727</text>
<text class="belong" x="280.66" y="410.38">(4)</text>
<g id="legendBox">
<rect class="p0 borderLine" x="500.00" y="50.00" width="30.00" height="15.00" />
<rect class="q0" x="500.00" y="50.00" width="30.00" height="15.00" />
<text class="legend" x="540.00" y="65.00">bike ALB_2005</text>
<rect class="p1 borderLine" x="500.00" y="90.00" width="30.00" height="15.00" />
<rect class="q1" x="500.00" y="90.00" width="30.00" height="15.00" />
<text class="legend" x="540.00" y="105.00">motorbike ALB_2005</text>
<rect class="p2 borderLine" x="500.00" y="130.00" width="30.00" height="15.00" />
<rect class="q2" x="500.00" y="130.00" width="30.00" height="15.00" />
<text class="legend" x="540.00" y="145.00">motor_vehicle ALB_2005</text>
<rect class="p3 borderLine" x="500.00" y="170.00" width="30.00" height="15.00" />
<rect class="q3" x="500.00" y="170.00" width="30.00" height="15.00" />
<text class="legend" x="540.00" y="185.00">no_transport ALB_2005</text>
</g>
</svg>
