<svg xmlns="http://www.w3.org/2000/svg" xmlns:xlink="http://www.w3.org/1999/xlink" width="700" height="500">
<defs>
<style type="text/css"><![CDATA[
  .borderLine {
	   stroke: none;
	   fill-opacity:  0.4 ;
  }
  .outLine {
	   stroke-width:  1 ;
	   fill: none;
  }
  .circle {
	   stroke: #888888;
	   stroke-width: 0.5;
	   fill: none;
    pointer-events: all;
  }
  .nLabel {
	   font-family: Arial;
    pointer-events: none;
	   font-size: 10px;
	   text-anchor: middle;
	   alignment-baseline: central;
  }
  .belong {
	   font-family: Arial;
    pointer-events: none;
	   font-size: 5px;
	   text-anchor: middle;
	   alignment-baseline: central;
  }
  .legend {
    font-family: Arial;
    font-size: 15px;
  }
  #legendBox {
    display:  inline ;
  }
  .p0{
    stroke: none;
    fill:  #00F ;
  }
  .q0{
    fill: none;
    stroke:  #00F ;
  }
  .p1{
    stroke: none;
    fill:  #0F0 ;
  }
  .q1{
    fill: none;
    stroke:  #0F0 ;
  }
  .p2{
    stroke: none;
    fill:  #F00 ;
  }
  .q2{
    fill: none;
    stroke:  #F00 ;
  }
  .p3{
    stroke: none;
    fill:  #000 ;
  }
  .q3{
    fill: none;
    stroke:  #000 ;
  }
]]>
</style>
<symbol id="bl0">
<path d="M 279.48 166.85 L 279.04 168.61 L 278.54 170.34 L 277.99 172.07 L 277.39 173.77 L 276.74 175.46 L 276.04 177.14 L 275.29 178.78 L 274.47 180.40 L 273.61 182.00 L 272.68 183.56 L 271.71 185.10 L 270.68 186.60 L 269.60 188.07 L 268.48 189.51 L 267.32 190.92 L 266.11 192.29 L 264.87 193.62 L 263.59 194.92 L 262.26 196.17 L 260.90 197.38 L 259.49 198.54 L 258.06 199.65 L 256.58 200.72 L 255.07 201.73 L 253.53 202.70 L 251.96 203.62 L 250.36 204.48 L 248.74 205.30 L 247.09 206.06 L 245.42 206.77 L 243.73 207.43 L 242.02 208.04 L 240.29 208.60 L 238.54 209.11 L 236.78 209.55 L 235.00 209.94 L 233.20 210.26 L 231.40 210.53 L 229.59 210.74 L 227.78 210.89 L 225.96 210.99 L 224.14 211.03 L 222.32 211.01 L 220.50 210.94 L 218.68 210.81 L 216.87 210.62 L 215.06 210.37 L 213.27 210.06 L 211.49 209.68 L 209.72 209.24 L 207.96 208.75 L 206.22 208.21 L 204.49 207.63 L 202.78 207.00 L 201.09 206.31 L 199.43 205.58 L 197.79 204.78 L 196.19 203.93 L 194.62 203.02 L 193.08 202.05 L 191.58 201.04 L 190.10 199.99 L 188.65 198.89 L 187.24 197.75 L 185.87 196.57 L 184.53 195.34 L 183.24 194.07 L 181.98 192.76 L 180.76 191.41 L 179.57 190.02 L 178.42 188.61 L 177.31 187.16 L 176.24 185.68 L 175.22 184.16 L 174.27 182.60 L 173.39 181.01 L 172.57 179.39 L 171.79 177.75 L 171.04 176.09 L 170.33 174.42 L 169.66 172.73 L 169.04 171.02 L 168.45 169.30 L 167.87 167.57 L 167.29 165.84 L 166.70 164.11 L 166.11 162.39 L 165.52 160.67 L 164.92 158.94 L 164.32 157.22 L 163.72 155.51 L 163.11 153.79 L 162.51 152.08 L 161.90 150.37 L 161.30 148.66 L 160.70 146.95 L 160.11 145.24 L 159.52 143.53 L 158.93 141.81 L 158.35 140.09 L 157.76 138.37 L 157.18 136.65 L 156.60 134.92 L 156.02 133.20 L 155.43 131.48 L 154.84 129.75 L 154.25 128.03 L 153.66 126.31 L 153.06 124.59 L 152.47 122.88 L 151.89 121.16 L 151.31 119.44 L 150.73 117.72 L 150.15 116.00 L 149.58 114.28 L 149.00 112.56 L 148.42 110.84 L 147.83 109.11 L 147.25 107.39 L 146.68 105.65 L 146.13 103.92 L 145.63 102.18 L 145.19 100.42 L 144.86 98.64 L 144.63 96.85 L 144.52 95.05 L 144.53 93.25 L 144.68 91.46 L 144.96 89.68 L 145.38 87.93 L 145.93 86.21 L 146.61 84.54 L 147.41 82.93 L 148.32 81.37 L 149.35 79.89 L 150.48 78.50 L 151.72 77.19 L 153.06 75.98 L 154.48 74.87 L 155.99 73.87 L 157.56 72.99 L 159.21 72.23 L 160.93 71.59 L 162.72 71.06 L 164.57 70.63 L 166.44 70.27 L 168.29 69.95 L 170.11 69.64 L 171.89 69.33 L 173.64 69.02 L 175.38 68.70 L 177.11 68.39 L 178.84 68.07 L 180.57 67.76 L 182.29 67.45 L 184.00 67.14 L 185.72 66.83 L 187.44 66.52 L 189.16 66.21 L 190.91 65.93 L 192.66 65.70 L 194.42 65.54 L 196.19 65.48 L 197.97 65.51 L 199.77 65.66 L 201.60 65.92 L 203.46 66.29 L 205.34 66.76 L 207.24 67.29 L 209.14 67.86 L 211.05 68.44 L 212.97 69.03 L 214.90 69.62 L 216.85 70.21 L 218.79 70.80 L 220.73 71.42 L 222.61 72.10 L 224.39 72.88 L 226.04 73.81 L 227.57 74.87 L 228.99 76.04 L 230.34 77.28 L 231.64 78.58 L 232.91 79.90 L 234.18 81.23 L 235.43 82.57 L 236.69 83.91 L 237.95 85.25 L 239.20 86.59 L 240.45 87.94 L 241.70 89.28 L 242.95 90.63 L 244.20 91.96 L 245.46 93.30 L 246.71 94.63 L 247.97 95.96 L 249.22 97.29 L 250.47 98.63 L 251.72 99.96 L 252.96 101.29 L 254.20 102.62 L 255.44 103.95 L 256.67 105.28 L 257.91 106.61 L 259.14 107.94 L 260.38 109.27 L 261.62 110.60 L 262.85 111.94 L 264.09 113.27 L 265.31 114.62 L 266.50 115.99 L 267.66 117.39 L 268.77 118.82 L 269.85 120.29 L 270.89 121.78 L 271.89 123.30 L 272.84 124.85 L 273.75 126.43 L 274.61 128.03 L 275.42 129.66 L 276.18 131.32 L 276.89 133.00 L 277.55 134.70 L 278.16 136.42 L 278.70 138.15 L 279.18 139.90 L 279.60 141.67 L 279.97 143.44 L 280.27 145.22 L 280.52 147.02 L 280.71 148.82 L 280.86 150.62 L 280.94 152.44 L 280.96 154.26 L 280.92 156.08 L 280.81 157.89 L 280.65 159.71 L 280.44 161.51 L 280.17 163.30 L 279.86 165.09 Z" />
</symbol>
<symbol id="bl1">
<path d="M 194.38 99.39 L 193.74 100.41 L 193.10 101.42 L 192.46 102.44 L 191.81 103.45 L 191.15 104.47 L 190.49 105.49 L 189.83 106.50 L 189.14 107.50 L 188.42 108.48 L 187.65 109.43 L 186.84 110.36 L 185.96 111.27 L 185.03 112.17 L 184.05 113.03 L 183.04 113.85 L 182.00 114.61 L 180.93 115.30 L 179.84 115.93 L 178.71 116.49 L 177.56 116.99 L 176.38 117.42 L 175.18 117.79 L 173.95 118.10 L 172.72 118.34 L 171.47 118.53 L 170.22 118.65 L 168.97 118.70 L 167.72 118.69 L 166.47 118.61 L 165.22 118.46 L 163.99 118.26 L 162.77 118.00 L 161.56 117.68 L 160.37 117.29 L 159.20 116.83 L 158.06 116.31 L 156.94 115.72 L 155.85 115.08 L 154.79 114.38 L 153.77 113.64 L 152.79 112.85 L 151.85 112.01 L 150.95 111.13 L 150.11 110.21 L 149.32 109.24 L 148.58 108.23 L 147.91 107.18 L 147.29 106.10 L 146.72 104.99 L 146.21 103.85 L 145.75 102.68 L 145.33 101.50 L 144.95 100.29 L 144.60 99.07 L 144.27 97.85 L 143.96 96.61 L 143.66 95.38 L 143.35 94.15 L 143.05 92.92 L 142.76 91.69 L 142.45 90.47 L 142.15 89.25 L 141.85 88.03 L 141.54 86.81 L 141.24 85.58 L 140.94 84.35 L 140.63 83.12 L 140.33 81.89 L 140.03 80.66 L 139.73 79.43 L 139.43 78.19 L 139.14 76.96 L 138.85 75.74 L 138.56 74.51 L 138.28 73.28 L 137.99 72.05 L 137.71 70.83 L 137.42 69.61 L 137.13 68.39 L 136.84 67.18 L 136.55 65.96 L 136.25 64.74 L 135.96 63.53 L 135.66 62.31 L 135.37 61.09 L 135.07 59.87 L 134.78 58.64 L 134.50 57.41 L 134.21 56.18 L 133.93 54.96 L 133.64 53.73 L 133.35 52.50 L 133.07 51.27 L 132.78 50.05 L 132.51 48.82 L 132.25 47.60 L 132.01 46.37 L 131.80 45.14 L 131.63 43.90 L 131.51 42.66 L 131.43 41.41 L 131.40 40.15 L 131.43 38.90 L 131.52 37.64 L 131.67 36.38 L 131.87 35.13 L 132.13 33.89 L 132.43 32.67 L 132.79 31.46 L 133.19 30.27 L 133.64 29.10 L 134.13 27.95 L 134.66 26.82 L 135.24 25.71 L 135.87 24.64 L 136.55 23.59 L 137.27 22.57 L 138.02 21.58 L 138.81 20.61 L 139.65 19.67 L 140.52 18.76 L 141.44 17.89 L 142.39 17.06 L 143.38 16.26 L 144.40 15.51 L 145.45 14.81 L 146.53 14.15 L 147.63 13.53 L 148.75 12.97 L 149.90 12.45 L 151.07 11.98 L 152.25 11.55 L 153.46 11.17 L 154.67 10.84 L 155.90 10.56 L 157.14 10.34 L 158.39 10.18 L 159.64 10.07 L 160.89 10.01 L 162.15 10.00 L 163.40 10.04 L 164.65 10.13 L 165.90 10.27 L 167.13 10.46 L 168.35 10.70 L 169.56 10.99 L 170.75 11.32 L 171.93 11.71 L 173.10 12.15 L 174.25 12.63 L 175.38 13.15 L 176.49 13.71 L 177.58 14.33 L 178.63 15.00 L 179.66 15.72 L 180.67 16.48 L 181.65 17.29 L 182.60 18.13 L 183.51 19.02 L 184.37 19.95 L 185.19 20.91 L 185.97 21.90 L 186.73 22.91 L 187.46 23.93 L 188.19 24.96 L 188.90 25.99 L 189.61 27.03 L 190.32 28.07 L 191.04 29.10 L 191.76 30.14 L 192.48 31.17 L 193.20 32.20 L 193.92 33.23 L 194.64 34.27 L 195.35 35.30 L 196.06 36.34 L 196.77 37.38 L 197.47 38.43 L 198.18 39.47 L 198.89 40.51 L 199.60 41.55 L 200.30 42.60 L 201.01 43.65 L 201.72 44.71 L 202.43 45.77 L 203.13 46.83 L 203.82 47.90 L 204.51 48.98 L 205.17 50.08 L 205.80 51.20 L 206.36 52.36 L 206.84 53.58 L 207.20 54.87 L 207.46 56.19 L 207.61 57.52 L 207.68 58.84 L 207.70 60.13 L 207.69 61.41 L 207.68 62.69 L 207.68 63.96 L 207.69 65.24 L 207.71 66.53 L 207.74 67.83 L 207.76 69.13 L 207.78 70.43 L 207.79 71.73 L 207.77 73.02 L 207.71 74.29 L 207.60 75.53 L 207.40 76.73 L 207.11 77.89 L 206.72 79.00 L 206.27 80.09 L 205.76 81.15 L 205.21 82.19 L 204.61 83.22 L 204.00 84.24 L 203.36 85.25 L 202.72 86.26 L 202.08 87.27 L 201.44 88.28 L 200.80 89.30 L 200.16 90.31 L 199.52 91.32 L 198.87 92.33 L 198.23 93.34 L 197.59 94.35 L 196.95 95.35 L 196.31 96.36 L 195.67 97.37 L 195.03 98.38 Z" />
</symbol>
<symbol id="bl2">
<path d="M 227.69 93.69 L 227.09 94.22 L 226.45 94.72 L 225.78 95.17 L 225.08 95.58 L 224.36 95.94 L 223.61 96.24 L 222.84 96.49 L 222.06 96.69 L 221.24 96.84 L 220.40 96.95 L 219.51 97.02 L 218.60 97.04 L 217.66 97.00 L 216.75 96.91 L 215.88 96.77 L 215.07 96.58 L 214.30 96.36 L 213.55 96.10 L 212.83 95.82 L 212.12 95.50 L 211.43 95.15 L 210.76 94.78 L 210.08 94.39 L 209.39 94.00 L 208.71 93.61 L 208.02 93.23 L 207.33 92.84 L 206.64 92.45 L 205.96 92.06 L 205.28 91.66 L 204.59 91.25 L 203.91 90.84 L 203.23 90.43 L 202.55 90.03 L 201.86 89.63 L 201.16 89.24 L 200.46 88.86 L 199.75 88.48 L 199.05 88.10 L 198.34 87.72 L 197.64 87.33 L 196.95 86.93 L 196.26 86.53 L 195.57 86.13 L 194.87 85.73 L 194.18 85.33 L 193.50 84.92 L 192.82 84.51 L 192.16 84.07 L 191.51 83.59 L 190.89 83.07 L 190.30 82.50 L 189.74 81.87 L 189.22 81.19 L 188.74 80.47 L 188.32 79.73 L 187.96 78.97 L 187.67 78.21 L 187.44 77.45 L 187.27 76.69 L 187.17 75.93 L 187.11 75.17 L 187.11 74.40 L 187.15 73.63 L 187.21 72.85 L 187.28 72.07 L 187.35 71.28 L 187.41 70.49 L 187.47 69.69 L 187.52 68.89 L 187.58 68.10 L 187.62 67.31 L 187.68 66.53 L 187.73 65.75 L 187.79 64.98 L 187.86 64.20 L 187.92 63.43 L 188.00 62.65 L 188.07 61.86 L 188.15 61.07 L 188.22 60.28 L 188.30 59.49 L 188.38 58.70 L 188.47 57.91 L 188.57 57.12 L 188.69 56.32 L 188.83 55.53 L 189.00 54.73 L 189.22 53.94 L 189.50 53.15 L 189.84 52.39 L 190.23 51.67 L 190.68 50.99 L 191.17 50.37 L 191.70 49.79 L 192.28 49.26 L 192.89 48.77 L 193.53 48.32 L 194.20 47.90 L 194.88 47.51 L 195.57 47.13 L 196.26 46.77 L 196.96 46.41 L 197.65 46.04 L 198.34 45.67 L 199.03 45.30 L 199.72 44.92 L 200.41 44.54 L 201.10 44.15 L 201.79 43.77 L 202.49 43.39 L 203.18 43.02 L 203.88 42.65 L 204.59 42.29 L 205.29 41.94 L 205.99 41.58 L 206.68 41.21 L 207.38 40.84 L 208.07 40.47 L 208.76 40.10 L 209.45 39.72 L 210.14 39.35 L 210.83 38.98 L 211.53 38.61 L 212.22 38.25 L 212.92 37.89 L 213.62 37.53 L 214.32 37.17 L 215.01 36.81 L 215.70 36.46 L 216.40 36.10 L 217.09 35.74 L 217.80 35.38 L 218.51 35.04 L 219.23 34.72 L 219.96 34.42 L 220.70 34.14 L 221.45 33.90 L 222.22 33.70 L 222.99 33.53 L 223.77 33.41 L 224.56 33.32 L 225.36 33.27 L 226.16 33.24 L 226.96 33.24 L 227.76 33.27 L 228.56 33.32 L 229.35 33.40 L 230.13 33.50 L 230.90 33.64 L 231.67 33.82 L 232.42 34.03 L 233.17 34.27 L 233.91 34.54 L 234.64 34.84 L 235.36 35.16 L 236.07 35.51 L 236.78 35.86 L 237.47 36.24 L 238.15 36.65 L 238.81 37.10 L 239.44 37.60 L 240.04 38.13 L 240.61 38.70 L 241.17 39.28 L 241.69 39.89 L 242.20 40.50 L 242.68 41.14 L 243.13 41.79 L 243.56 42.46 L 243.96 43.14 L 244.34 43.83 L 244.69 44.55 L 245.01 45.28 L 245.31 46.02 L 245.58 46.78 L 245.83 47.55 L 246.04 48.32 L 246.23 49.10 L 246.37 49.89 L 246.47 50.68 L 246.53 51.47 L 246.56 52.27 L 246.57 53.06 L 246.54 53.85 L 246.50 54.65 L 246.42 55.44 L 246.30 56.23 L 246.14 57.01 L 245.94 57.78 L 245.71 58.55 L 245.45 59.30 L 245.17 60.04 L 244.88 60.77 L 244.58 61.49 L 244.26 62.20 L 243.94 62.91 L 243.60 63.61 L 243.26 64.31 L 242.92 65.01 L 242.58 65.72 L 242.25 66.42 L 241.92 67.12 L 241.58 67.83 L 241.24 68.53 L 240.91 69.22 L 240.56 69.91 L 240.22 70.61 L 239.87 71.30 L 239.52 71.99 L 239.17 72.68 L 238.82 73.37 L 238.48 74.07 L 238.13 74.77 L 237.78 75.49 L 237.42 76.22 L 237.04 76.97 L 236.64 77.76 L 236.23 78.57 L 235.82 79.38 L 235.42 80.17 L 235.05 80.91 L 234.69 81.63 L 234.34 82.33 L 234.00 83.02 L 233.66 83.72 L 233.32 84.42 L 232.99 85.12 L 232.66 85.82 L 232.33 86.52 L 231.99 87.21 L 231.65 87.91 L 231.31 88.60 L 230.95 89.29 L 230.57 89.97 L 230.17 90.64 L 229.75 91.30 L 229.29 91.94 L 228.80 92.55 L 228.26 93.13 Z" />
</symbol>
<symbol id="bl3">
<path d="M 360.37 442.19 L 359.41 444.16 L 358.40 446.11 L 357.33 448.03 L 356.20 449.91 L 355.03 451.76 L 353.81 453.59 L 352.56 455.39 L 351.26 457.16 L 349.92 458.89 L 348.52 460.57 L 347.07 462.22 L 345.57 463.81 L 344.02 465.36 L 342.43 466.88 L 340.82 468.36 L 339.18 469.81 L 337.50 471.24 L 335.79 472.61 L 334.04 473.93 L 332.24 475.19 L 330.41 476.41 L 328.55 477.57 L 326.66 478.69 L 324.75 479.76 L 322.80 480.79 L 320.83 481.75 L 318.83 482.66 L 316.81 483.52 L 314.77 484.32 L 312.71 485.07 L 310.63 485.77 L 308.54 486.43 L 306.43 487.04 L 304.30 487.59 L 302.16 488.09 L 300.00 488.54 L 297.84 488.94 L 295.67 489.28 L 293.49 489.55 L 291.31 489.76 L 289.12 489.90 L 286.93 489.98 L 284.74 490.00 L 282.55 489.97 L 280.36 489.89 L 278.17 489.76 L 275.99 489.57 L 273.81 489.34 L 271.64 489.06 L 269.47 488.71 L 267.32 488.30 L 265.18 487.81 L 263.06 487.27 L 260.95 486.67 L 258.85 486.02 L 256.77 485.32 L 254.71 484.58 L 252.66 483.78 L 250.64 482.93 L 248.64 482.03 L 246.66 481.07 L 244.71 480.06 L 242.79 479.01 L 240.89 477.90 L 239.03 476.75 L 237.19 475.55 L 235.39 474.30 L 233.63 473.00 L 231.91 471.65 L 230.23 470.24 L 228.59 468.79 L 226.99 467.30 L 225.41 465.77 L 223.88 464.21 L 222.38 462.61 L 220.92 460.97 L 219.51 459.30 L 218.14 457.59 L 216.82 455.84 L 215.54 454.05 L 214.30 452.25 L 213.11 450.41 L 211.96 448.54 L 210.88 446.63 L 209.85 444.69 L 208.89 442.72 L 207.98 440.72 L 207.12 438.71 L 206.31 436.67 L 205.55 434.62 L 204.84 432.55 L 204.19 430.46 L 203.58 428.36 L 203.03 426.25 L 202.53 424.12 L 202.08 421.99 L 201.69 419.84 L 201.36 417.68 L 201.08 415.51 L 200.88 413.33 L 200.74 411.15 L 200.65 408.96 L 200.62 406.77 L 200.64 404.58 L 200.73 402.39 L 200.88 400.21 L 201.09 398.03 L 201.36 395.86 L 201.67 393.69 L 202.04 391.54 L 202.46 389.40 L 202.94 387.26 L 203.47 385.14 L 204.06 383.03 L 204.70 380.94 L 205.40 378.86 L 206.15 376.80 L 206.95 374.76 L 207.82 372.74 L 208.73 370.75 L 209.70 368.78 L 210.72 366.84 L 211.79 364.92 L 212.91 363.04 L 214.08 361.18 L 215.30 359.35 L 216.57 357.56 L 217.88 355.80 L 219.24 354.08 L 220.64 352.39 L 222.09 350.74 L 223.57 349.13 L 225.10 347.55 L 226.66 346.01 L 228.28 344.52 L 229.93 343.07 L 231.63 341.67 L 233.37 340.32 L 235.15 339.01 L 236.96 337.75 L 238.79 336.53 L 240.64 335.34 L 242.52 334.19 L 244.43 333.10 L 246.37 332.06 L 248.34 331.08 L 250.34 330.15 L 252.36 329.28 L 254.40 328.46 L 256.46 327.70 L 258.54 327.00 L 260.64 326.36 L 262.76 325.76 L 264.89 325.23 L 267.04 324.75 L 269.19 324.33 L 271.36 323.96 L 273.54 323.64 L 275.72 323.38 L 277.91 323.17 L 280.11 323.01 L 282.30 322.91 L 284.50 322.86 L 286.70 322.88 L 288.89 322.96 L 291.09 323.09 L 293.28 323.28 L 295.47 323.51 L 297.65 323.79 L 299.82 324.12 L 301.99 324.51 L 304.13 324.96 L 306.27 325.49 L 308.38 326.08 L 310.47 326.74 L 312.54 327.46 L 314.60 328.23 L 316.64 329.05 L 318.65 329.92 L 320.65 330.84 L 322.62 331.81 L 324.57 332.83 L 326.49 333.90 L 328.38 335.01 L 330.25 336.17 L 332.10 337.36 L 333.91 338.60 L 335.68 339.90 L 337.41 341.24 L 339.10 342.64 L 340.74 344.09 L 342.34 345.59 L 343.90 347.13 L 345.43 348.70 L 346.92 350.30 L 348.38 351.94 L 349.79 353.62 L 351.15 355.32 L 352.46 357.07 L 353.72 358.86 L 354.93 360.68 L 356.09 362.52 L 357.21 364.40 L 358.29 366.30 L 359.32 368.23 L 360.30 370.18 L 361.23 372.16 L 362.10 374.17 L 362.92 376.20 L 363.68 378.25 L 364.40 380.32 L 365.06 382.40 L 365.67 384.50 L 366.22 386.62 L 366.72 388.76 L 367.16 390.90 L 367.54 393.06 L 367.87 395.22 L 368.15 397.40 L 368.36 399.58 L 368.50 401.76 L 368.58 403.95 L 368.60 406.14 L 368.54 408.33 L 368.44 410.52 L 368.27 412.71 L 368.06 414.89 L 367.79 417.07 L 367.48 419.24 L 367.10 421.40 L 366.67 423.55 L 366.19 425.68 L 365.64 427.80 L 365.04 429.91 L 364.39 432.00 L 363.68 434.08 L 362.93 436.13 L 362.13 438.17 L 361.28 440.19 Z" />
</symbol>
</defs>
<!-- isDone: 0 -->
<rect width="700" height="500" style="fill:#fff;stroke-width:0" />
<use class="p0 borderLine" xlink:href="#bl0"/>
<use class="p1 borderLine" xlink:href="#bl1"/>
<use class="p2 borderLine" xlink:href="#bl2"/>
<use class="p3 borderLine" xlink:href="#bl3"/>
<use class="q0 outLine" xlink:href="#bl0"/>
<use class="q1 outLine" xlink:href="#bl1"/>
<use class="q2 outLine" xlink:href="#bl2"/>
<use class="q3 outLine" xlink:href="#bl3"/>
<circle onclick="fromCircle(8)" class="circle" cx="223.8807" cy="154.0601" r="53.4312" />
<text class="nLabel" x="223.88" y="149.06">261</text>
<text class="belong" x="223.88" y="159.06">(1)</text>
<circle onclick="fromCircle(12)" class="circle" cx="168.5043" cy="94.2503" r="20.6541" />
<text class="nLabel" x="168.50" y="89.25">39</text>
<text class="belong" x="168.50" y="99.25">(1, 2)</text>
<circle onclick="fromCircle(14)" class="circle" cx="197.4097" cy="74.9532" r="6.6146" />
<text class="nLabel" x="197.41" y="69.95">4</text>
<text class="belong" x="197.41" y="79.95">(1, 2, 3)</text>
<circle onclick="fromCircle(4)" class="circle" cx="161.7052" cy="40.0709" r="26.6644" />
<text class="nLabel" x="161.71" y="35.07">65</text>
<text class="belong" x="161.71" y="45.07">(2)</text>
<circle onclick="fromCircle(6)" class="circle" cx="198.1673" cy="56.3171" r="5.7284" />
<text class="nLabel" x="198.17" y="51.32">3</text>
<text class="belong" x="198.17" y="61.32">(2, 3)</text>
<circle onclick="fromCircle(2)" class="circle" cx="226.8954" cy="52.6092" r="15.8613" />
<text class="nLabel" x="226.90" y="47.61">23</text>
<text class="belong" x="226.90" y="57.61">(3)</text>
<circle onclick="fromCircle(10)" class="circle" cx="218.7783" cy="83.8843" r="9.3545" />
<text class="nLabel" x="218.78" y="78.88">8</text>
<text class="belong" x="218.78" y="88.88">(1, 3)</text>
<circle onclick="fromCircle(1)" class="circle" cx="285.0204" cy="408.0176" r="80.6061" />
<text class="nLabel" x="285.02" y="403.02">594</text>
<text class="belong" x="285.02" y="413.02">(4)</text>
<g id="legendBox">
<rect class="p0 borderLine" x="500.00" y="50.00" width="30.00" height="15.00" />
<rect class="q0" x="500.00" y="50.00" width="30.00" height="15.00" />
<text class="legend" x="540.00" y="65.00">bike UGA_2018</text>
<rect class="p1 borderLine" x="500.00" y="90.00" width="30.00" height="15.00" />
<rect class="q1" x="500.00" y="90.00" width="30.00" height="15.00" />
<text class="legend" x="540.00" y="105.00">motorbike UGA_2018</text>
<rect class="p2 borderLine" x="500.00" y="130.00" width="30.00" height="15.00" />
<rect class="q2" x="500.00" y="130.00" width="30.00" height="15.00" />
<text class="legend" x="540.00" y="145.00">motor_vehicle UGA_2018</text>
<rect class="p3 borderLine" x="500.00" y="170.00" width="30.00" height="15.00" />
<rect class="q3" x="500.00" y="170.00" width="30.00" height="15.00" />
<text class="legend" x="540.00" y="185.00">no_transport UGA_2018</text>
</g>
</svg>
