<svg xmlns="http://www.w3.org/2000/svg" xmlns:xlink="http://www.w3.org/1999/xlink" width="700" height="500">
<defs>
<style type="text/css"><![CDATA[
  .borderLine {
	   stroke: none;
	   fill-opacity:  0.4 ;
  }
  .outLine {
	   stroke-width:  1 ;
	   fill: none;
  }
  .circle {
	   stroke: #888888;
	   stroke-width: 0.5;
	   fill: none;
    pointer-events: all;
  }
  .nLabel {
	   font-family: Arial;
    pointer-events: none;
	   font-size: 10px;
	   text-anchor: middle;
	   alignment-baseline: central;
  }
  .belong {
	   font-family: Arial;
    pointer-events: none;
	   font-size: 5px;
	   text-anchor: middle;
	   alignment-baseline: central;
  }
  .legend {
    font-family: Arial;
    font-size: 15px;
  }
  #legendBox {
    display:  inline ;
  }
  .p0{
    stroke: none;
    fill:  #00F ;
  }
  .q0{
    fill: none;
    stroke:  #00F ;
  }
  .p1{
    stroke: none;
    fill:  #0F0 ;
  }
  .q1{
    fill: none;
    stroke:  #0F0 ;
  }
  .p2{
    stroke: none;
    fill:  #F00 ;
  }
  .q2{
    fill: none;
    stroke:  #F00 ;
  }
  .p3{
    stroke: none;
    fill:  #000 ;
  }
  .q3{
    fill: none;
    stroke:  #000 ;
  }
]]>
</style>
<symbol id="bl0">
<path d="M 294.44 170.13 L 293.93 172.11 L 293.36 174.08 L 292.72 176.03 L 292.02 177.96 L 291.25 179.87 L 290.42 181.77 L 289.53 183.65 L 288.58 185.50 L 287.58 187.31 L 286.53 189.09 L 285.43 190.82 L 284.29 192.50 L 283.10 194.13 L 281.87 195.72 L 280.60 197.27 L 279.28 198.77 L 277.90 200.24 L 276.48 201.68 L 275.00 203.07 L 273.47 204.42 L 271.89 205.73 L 270.28 207.00 L 268.62 208.21 L 266.92 209.38 L 265.19 210.49 L 263.41 211.55 L 261.59 212.56 L 259.74 213.52 L 257.85 214.42 L 255.93 215.26 L 253.98 216.03 L 252.01 216.75 L 250.02 217.39 L 248.01 217.97 L 245.99 218.49 L 243.95 218.94 L 241.89 219.34 L 239.82 219.66 L 237.72 219.92 L 235.61 220.12 L 233.48 220.24 L 231.33 220.29 L 229.17 220.28 L 227.01 220.19 L 224.85 220.04 L 222.70 219.81 L 220.58 219.52 L 218.47 219.16 L 216.40 218.74 L 214.36 218.25 L 212.35 217.70 L 210.38 217.10 L 208.43 216.44 L 206.52 215.72 L 204.63 214.94 L 202.77 214.10 L 200.94 213.21 L 199.13 212.25 L 197.34 211.23 L 195.58 210.15 L 193.84 209.01 L 192.13 207.81 L 190.45 206.55 L 188.80 205.24 L 187.20 203.86 L 185.63 202.43 L 184.12 200.94 L 182.65 199.40 L 181.23 197.83 L 179.86 196.21 L 178.55 194.55 L 177.30 192.87 L 176.11 191.14 L 174.97 189.39 L 173.89 187.60 L 172.86 185.79 L 171.87 183.95 L 170.92 182.08 L 169.99 180.20 L 169.08 178.30 L 168.17 176.39 L 167.27 174.48 L 166.36 172.56 L 165.46 170.66 L 164.57 168.76 L 163.68 166.88 L 162.80 164.99 L 161.93 163.11 L 161.06 161.23 L 160.19 159.36 L 159.32 157.49 L 158.45 155.62 L 157.59 153.76 L 156.74 151.90 L 155.89 150.04 L 155.05 148.17 L 154.20 146.31 L 153.37 144.43 L 152.53 142.56 L 151.70 140.68 L 150.88 138.80 L 150.05 136.92 L 149.24 135.04 L 148.43 133.17 L 147.61 131.29 L 146.80 129.40 L 145.99 127.51 L 145.18 125.62 L 144.38 123.72 L 143.57 121.82 L 142.77 119.92 L 141.96 118.01 L 141.15 116.10 L 140.34 114.19 L 139.52 112.27 L 138.71 110.35 L 137.90 108.43 L 137.10 106.51 L 136.32 104.58 L 135.57 102.65 L 134.88 100.70 L 134.26 98.72 L 133.74 96.72 L 133.35 94.70 L 133.10 92.65 L 132.99 90.61 L 133.03 88.58 L 133.21 86.56 L 133.53 84.56 L 133.99 82.59 L 134.59 80.66 L 135.32 78.77 L 136.20 76.92 L 137.20 75.13 L 138.34 73.41 L 139.60 71.77 L 140.98 70.23 L 142.47 68.78 L 144.06 67.45 L 145.75 66.23 L 147.53 65.13 L 149.39 64.17 L 151.32 63.34 L 153.31 62.65 L 155.36 62.12 L 157.47 61.74 L 159.65 61.50 L 161.89 61.40 L 164.16 61.41 L 166.44 61.50 L 168.69 61.66 L 170.90 61.85 L 173.09 62.07 L 175.27 62.31 L 177.44 62.55 L 179.60 62.79 L 181.77 63.04 L 183.94 63.28 L 186.11 63.52 L 188.29 63.75 L 190.46 63.95 L 192.60 64.11 L 194.71 64.25 L 196.82 64.39 L 198.99 64.59 L 201.27 64.91 L 203.68 65.39 L 206.18 66.00 L 208.74 66.71 L 211.30 67.48 L 213.82 68.30 L 216.25 69.16 L 218.57 70.06 L 220.76 71.01 L 222.83 72.02 L 224.80 73.09 L 226.69 74.20 L 228.53 75.35 L 230.33 76.50 L 232.11 77.66 L 233.88 78.82 L 235.63 79.97 L 237.38 81.11 L 239.14 82.25 L 240.90 83.38 L 242.67 84.50 L 244.46 85.62 L 246.25 86.74 L 248.04 87.86 L 249.83 88.99 L 251.62 90.12 L 253.40 91.25 L 255.17 92.38 L 256.95 93.51 L 258.72 94.64 L 260.50 95.78 L 262.27 96.92 L 264.03 98.09 L 265.79 99.27 L 267.53 100.48 L 269.24 101.71 L 270.91 102.99 L 272.54 104.30 L 274.13 105.65 L 275.67 107.06 L 277.18 108.52 L 278.64 110.04 L 280.05 111.60 L 281.40 113.19 L 282.70 114.82 L 283.94 116.49 L 285.12 118.21 L 286.25 119.96 L 287.33 121.74 L 288.36 123.57 L 289.33 125.42 L 290.24 127.29 L 291.08 129.19 L 291.86 131.10 L 292.58 133.04 L 293.23 135.00 L 293.83 137.00 L 294.36 139.02 L 294.83 141.06 L 295.23 143.12 L 295.57 145.20 L 295.84 147.29 L 296.04 149.39 L 296.18 151.50 L 296.24 153.62 L 296.24 155.74 L 296.19 157.85 L 296.06 159.95 L 295.87 162.03 L 295.61 164.09 L 295.28 166.12 L 294.89 168.14 Z" />
</symbol>
<symbol id="bl1">
<path d="M 179.94 112.65 L 178.96 113.43 L 177.94 114.16 L 176.89 114.84 L 175.82 115.47 L 174.73 116.05 L 173.62 116.58 L 172.49 117.06 L 171.35 117.48 L 170.20 117.86 L 169.03 118.19 L 167.86 118.47 L 166.67 118.69 L 165.48 118.87 L 164.27 119.00 L 163.04 119.08 L 161.81 119.10 L 160.56 119.08 L 159.33 119.01 L 158.09 118.88 L 156.87 118.70 L 155.64 118.47 L 154.41 118.17 L 153.18 117.81 L 151.95 117.39 L 150.73 116.92 L 149.54 116.39 L 148.36 115.82 L 147.22 115.20 L 146.11 114.53 L 145.05 113.82 L 144.02 113.07 L 143.04 112.28 L 142.10 111.45 L 141.20 110.60 L 140.34 109.71 L 139.51 108.78 L 138.72 107.81 L 137.97 106.80 L 137.27 105.75 L 136.60 104.64 L 135.99 103.48 L 135.42 102.28 L 134.89 101.04 L 134.41 99.77 L 133.99 98.48 L 133.63 97.18 L 133.33 95.88 L 133.09 94.57 L 132.92 93.26 L 132.80 91.96 L 132.74 90.65 L 132.74 89.33 L 132.77 88.01 L 132.85 86.69 L 132.97 85.35 L 133.11 84.01 L 133.27 82.66 L 133.44 81.31 L 133.61 79.96 L 133.77 78.62 L 133.93 77.27 L 134.07 75.92 L 134.22 74.57 L 134.36 73.21 L 134.51 71.85 L 134.66 70.49 L 134.81 69.11 L 134.97 67.73 L 135.12 66.35 L 135.28 64.98 L 135.43 63.62 L 135.57 62.28 L 135.71 60.96 L 135.83 59.67 L 135.94 58.40 L 136.03 57.14 L 136.12 55.89 L 136.22 54.63 L 136.32 53.36 L 136.42 52.08 L 136.53 50.78 L 136.65 49.47 L 136.76 48.17 L 136.87 46.87 L 136.97 45.60 L 137.08 44.34 L 137.18 43.10 L 137.29 41.87 L 137.41 40.63 L 137.53 39.38 L 137.65 38.10 L 137.78 36.80 L 137.92 35.48 L 138.07 34.17 L 138.23 32.86 L 138.44 31.57 L 138.69 30.31 L 138.99 29.07 L 139.35 27.85 L 139.77 26.65 L 140.25 25.47 L 140.78 24.33 L 141.37 23.21 L 142.00 22.14 L 142.67 21.10 L 143.40 20.10 L 144.17 19.13 L 145.00 18.20 L 145.89 17.30 L 146.82 16.44 L 147.80 15.62 L 148.80 14.85 L 149.82 14.15 L 150.86 13.50 L 151.91 12.92 L 152.98 12.39 L 154.07 11.91 L 155.20 11.48 L 156.35 11.10 L 157.54 10.77 L 158.75 10.50 L 159.98 10.29 L 161.22 10.13 L 162.46 10.04 L 163.71 10.00 L 164.97 10.02 L 166.22 10.11 L 167.46 10.25 L 168.68 10.46 L 169.88 10.72 L 171.06 11.03 L 172.23 11.40 L 173.38 11.83 L 174.52 12.32 L 175.64 12.87 L 176.73 13.48 L 177.81 14.14 L 178.85 14.85 L 179.86 15.60 L 180.82 16.39 L 181.74 17.23 L 182.62 18.09 L 183.47 18.98 L 184.30 19.88 L 185.10 20.80 L 185.89 21.72 L 186.68 22.66 L 187.46 23.61 L 188.25 24.57 L 189.03 25.54 L 189.81 26.51 L 190.59 27.48 L 191.36 28.46 L 192.13 29.43 L 192.89 30.40 L 193.65 31.37 L 194.41 32.34 L 195.16 33.30 L 195.90 34.25 L 196.64 35.19 L 197.38 36.11 L 198.13 37.04 L 198.90 37.99 L 199.72 38.98 L 200.60 40.04 L 201.56 41.17 L 202.55 42.34 L 203.55 43.53 L 204.49 44.68 L 205.33 45.79 L 206.06 46.87 L 206.68 47.96 L 207.18 49.09 L 207.56 50.25 L 207.84 51.46 L 208.01 52.70 L 208.10 53.97 L 208.12 55.25 L 208.09 56.53 L 208.03 57.79 L 207.94 59.05 L 207.83 60.30 L 207.71 61.54 L 207.59 62.77 L 207.47 64.01 L 207.35 65.24 L 207.24 66.49 L 207.13 67.74 L 207.03 69.00 L 206.92 70.26 L 206.80 71.52 L 206.64 72.77 L 206.42 73.99 L 206.14 75.18 L 205.77 76.35 L 205.32 77.49 L 204.79 78.60 L 204.18 79.69 L 203.50 80.77 L 202.79 81.86 L 202.07 82.96 L 201.35 84.06 L 200.63 85.17 L 199.90 86.27 L 199.17 87.35 L 198.43 88.43 L 197.69 89.51 L 196.94 90.58 L 196.17 91.66 L 195.40 92.74 L 194.63 93.82 L 193.87 94.90 L 193.12 95.97 L 192.37 97.02 L 191.63 98.07 L 190.89 99.12 L 190.15 100.15 L 189.43 101.18 L 188.72 102.20 L 188.02 103.22 L 187.33 104.23 L 186.63 105.24 L 185.90 106.24 L 185.15 107.22 L 184.36 108.19 L 183.53 109.13 L 182.68 110.05 L 181.80 110.95 L 180.88 111.82 Z" />
</symbol>
<symbol id="bl2">
<path d="M 223.80 87.17 L 223.13 87.74 L 222.44 88.29 L 221.73 88.78 L 220.99 89.21 L 220.21 89.58 L 219.39 89.90 L 218.55 90.15 L 217.72 90.34 L 216.92 90.47 L 216.14 90.54 L 215.38 90.55 L 214.63 90.50 L 213.88 90.41 L 213.12 90.26 L 212.34 90.06 L 211.52 89.79 L 210.66 89.45 L 209.75 89.06 L 208.81 88.63 L 207.86 88.17 L 206.90 87.71 L 205.94 87.25 L 204.98 86.80 L 204.01 86.37 L 203.02 85.98 L 202.01 85.62 L 201.00 85.28 L 200.00 84.96 L 199.01 84.62 L 198.05 84.28 L 197.12 83.94 L 196.22 83.61 L 195.36 83.30 L 194.51 82.99 L 193.68 82.66 L 192.86 82.30 L 192.07 81.88 L 191.33 81.41 L 190.65 80.87 L 190.01 80.27 L 189.42 79.60 L 188.89 78.90 L 188.43 78.19 L 188.05 77.47 L 187.72 76.75 L 187.44 76.00 L 187.21 75.24 L 187.02 74.44 L 186.86 73.63 L 186.75 72.80 L 186.66 71.97 L 186.59 71.13 L 186.51 70.28 L 186.43 69.44 L 186.34 68.58 L 186.24 67.71 L 186.15 66.84 L 186.06 65.96 L 185.98 65.10 L 185.92 64.23 L 185.86 63.36 L 185.82 62.49 L 185.77 61.62 L 185.70 60.75 L 185.62 59.89 L 185.53 59.05 L 185.44 58.21 L 185.35 57.39 L 185.28 56.57 L 185.21 55.75 L 185.17 54.92 L 185.16 54.07 L 185.19 53.19 L 185.27 52.28 L 185.40 51.37 L 185.60 50.48 L 185.86 49.63 L 186.19 48.80 L 186.57 48.00 L 187.03 47.22 L 187.54 46.47 L 188.10 45.76 L 188.72 45.11 L 189.37 44.52 L 190.06 43.98 L 190.79 43.51 L 191.55 43.09 L 192.34 42.73 L 193.14 42.42 L 193.94 42.16 L 194.74 41.94 L 195.53 41.75 L 196.30 41.57 L 197.06 41.40 L 197.81 41.22 L 198.56 41.05 L 199.31 40.87 L 200.05 40.70 L 200.78 40.53 L 201.53 40.35 L 202.27 40.17 L 203.02 39.98 L 203.77 39.80 L 204.53 39.61 L 205.29 39.42 L 206.04 39.23 L 206.80 39.03 L 207.55 38.83 L 208.32 38.62 L 209.10 38.40 L 209.93 38.16 L 210.78 37.90 L 211.64 37.62 L 212.48 37.35 L 213.32 37.08 L 214.17 36.81 L 215.03 36.54 L 215.87 36.28 L 216.68 36.02 L 217.45 35.77 L 218.20 35.53 L 218.94 35.28 L 219.67 35.04 L 220.40 34.79 L 221.13 34.56 L 221.87 34.34 L 222.61 34.15 L 223.36 33.99 L 224.12 33.86 L 224.88 33.76 L 225.66 33.69 L 226.47 33.64 L 227.33 33.62 L 228.26 33.64 L 229.23 33.71 L 230.24 33.84 L 231.25 34.01 L 232.23 34.23 L 233.16 34.47 L 234.01 34.74 L 234.79 35.03 L 235.54 35.34 L 236.27 35.68 L 236.99 36.04 L 237.68 36.45 L 238.36 36.89 L 239.01 37.36 L 239.64 37.86 L 240.24 38.38 L 240.83 38.93 L 241.39 39.50 L 241.94 40.09 L 242.47 40.71 L 242.98 41.35 L 243.46 42.03 L 243.93 42.75 L 244.38 43.52 L 244.83 44.35 L 245.26 45.23 L 245.65 46.12 L 245.98 47.00 L 246.25 47.84 L 246.45 48.65 L 246.60 49.44 L 246.71 50.22 L 246.79 51.00 L 246.85 51.78 L 246.87 52.55 L 246.86 53.32 L 246.83 54.09 L 246.76 54.87 L 246.66 55.68 L 246.52 56.51 L 246.33 57.37 L 246.11 58.23 L 245.87 59.04 L 245.60 59.82 L 245.31 60.55 L 244.99 61.24 L 244.65 61.92 L 244.28 62.59 L 243.88 63.23 L 243.47 63.86 L 243.03 64.48 L 242.56 65.09 L 242.08 65.68 L 241.58 66.26 L 241.07 66.83 L 240.54 67.41 L 240.02 68.01 L 239.49 68.62 L 238.97 69.25 L 238.45 69.89 L 237.94 70.53 L 237.43 71.18 L 236.92 71.87 L 236.40 72.57 L 235.90 73.28 L 235.41 73.98 L 234.93 74.65 L 234.47 75.30 L 234.02 75.94 L 233.56 76.57 L 233.10 77.21 L 232.61 77.84 L 232.09 78.49 L 231.54 79.15 L 230.96 79.82 L 230.37 80.48 L 229.79 81.12 L 229.21 81.73 L 228.66 82.31 L 228.10 82.90 L 227.53 83.49 L 226.94 84.11 L 226.32 84.74 L 225.69 85.38 L 225.07 85.99 L 224.44 86.58 Z" />
</symbol>
<symbol id="bl3">
<path d="M 359.10 441.15 L 358.12 443.15 L 357.09 445.12 L 356.01 447.07 L 354.87 448.99 L 353.69 450.88 L 352.46 452.73 L 351.18 454.55 L 349.85 456.34 L 348.47 458.10 L 347.05 459.82 L 345.59 461.50 L 344.08 463.14 L 342.53 464.74 L 340.94 466.30 L 339.31 467.82 L 337.64 469.29 L 335.93 470.73 L 334.19 472.11 L 332.41 473.45 L 330.59 474.75 L 328.74 476.00 L 326.86 477.20 L 324.95 478.35 L 323.01 479.45 L 321.04 480.50 L 319.04 481.49 L 317.02 482.44 L 314.98 483.32 L 312.91 484.16 L 310.82 484.94 L 308.72 485.67 L 306.59 486.33 L 304.45 486.95 L 302.29 487.51 L 300.12 488.02 L 297.94 488.47 L 295.75 488.86 L 293.54 489.20 L 291.33 489.47 L 289.12 489.69 L 286.90 489.85 L 284.67 489.96 L 282.45 490.00 L 280.22 489.99 L 277.99 489.91 L 275.77 489.78 L 273.55 489.60 L 271.34 489.36 L 269.14 489.06 L 266.95 488.70 L 264.76 488.28 L 262.59 487.81 L 260.43 487.28 L 258.29 486.69 L 256.16 486.05 L 254.05 485.36 L 251.95 484.61 L 249.88 483.80 L 247.83 482.95 L 245.80 482.04 L 243.80 481.07 L 241.82 480.06 L 239.86 478.99 L 237.94 477.87 L 236.05 476.70 L 234.19 475.48 L 232.36 474.22 L 230.56 472.91 L 228.80 471.55 L 227.08 470.15 L 225.39 468.70 L 223.74 467.20 L 222.13 465.67 L 220.57 464.09 L 219.04 462.47 L 217.56 460.82 L 216.12 459.12 L 214.73 457.39 L 213.38 455.62 L 212.08 453.82 L 210.82 451.98 L 209.62 450.11 L 208.46 448.21 L 207.36 446.28 L 206.30 444.32 L 205.30 442.34 L 204.35 440.32 L 203.45 438.28 L 202.60 436.23 L 201.81 434.14 L 201.08 432.04 L 200.40 429.92 L 199.77 427.78 L 199.21 425.63 L 198.70 423.46 L 198.25 421.28 L 197.85 419.09 L 197.52 416.89 L 197.24 414.68 L 197.02 412.46 L 196.85 410.24 L 196.75 408.01 L 196.71 405.78 L 196.72 403.55 L 196.79 401.32 L 196.92 399.10 L 197.11 396.87 L 197.36 394.65 L 197.67 392.44 L 198.03 390.24 L 198.45 388.05 L 198.93 385.87 L 199.47 383.70 L 200.06 381.55 L 200.71 379.42 L 201.42 377.30 L 202.18 375.21 L 203.00 373.13 L 203.87 371.08 L 204.80 369.05 L 205.78 367.04 L 206.81 365.07 L 207.89 363.12 L 209.03 361.20 L 210.21 359.30 L 211.44 357.44 L 212.73 355.62 L 214.05 353.82 L 215.43 352.06 L 216.85 350.34 L 218.32 348.66 L 219.83 347.01 L 221.38 345.41 L 222.97 343.84 L 224.60 342.32 L 226.28 340.85 L 227.99 339.41 L 229.74 338.02 L 231.52 336.68 L 233.34 335.39 L 235.19 334.14 L 237.07 332.94 L 238.98 331.80 L 240.92 330.70 L 242.89 329.65 L 244.89 328.65 L 246.91 327.70 L 248.96 326.81 L 251.03 325.97 L 253.12 325.19 L 255.23 324.46 L 257.35 323.79 L 259.50 323.17 L 261.65 322.61 L 263.82 322.10 L 266.01 321.64 L 268.20 321.25 L 270.41 320.92 L 272.62 320.64 L 274.84 320.42 L 277.06 320.26 L 279.29 320.15 L 281.52 320.10 L 283.75 320.12 L 285.98 320.19 L 288.21 320.32 L 290.43 320.50 L 292.65 320.75 L 294.86 321.05 L 297.06 321.41 L 299.25 321.82 L 301.42 322.29 L 303.59 322.82 L 305.74 323.40 L 307.88 324.04 L 309.99 324.74 L 312.09 325.49 L 314.17 326.29 L 316.22 327.16 L 318.25 328.07 L 320.26 329.04 L 322.24 330.05 L 324.19 331.12 L 326.12 332.25 L 328.02 333.42 L 329.88 334.64 L 331.71 335.90 L 333.51 337.22 L 335.27 338.58 L 336.99 339.99 L 338.68 341.44 L 340.33 342.94 L 341.94 344.48 L 343.50 346.06 L 345.03 347.68 L 346.51 349.34 L 347.95 351.04 L 349.34 352.77 L 350.69 354.55 L 351.99 356.35 L 353.24 358.19 L 354.44 360.06 L 355.60 361.96 L 356.70 363.89 L 357.75 365.85 L 358.75 367.84 L 359.70 369.85 L 360.59 371.89 L 361.43 373.95 L 362.21 376.03 L 362.94 378.13 L 363.62 380.25 L 364.24 382.39 L 364.80 384.55 L 365.31 386.72 L 365.75 388.90 L 366.15 391.10 L 366.48 393.31 L 366.75 395.52 L 366.97 397.75 L 367.12 399.97 L 367.22 402.20 L 367.26 404.44 L 367.25 406.67 L 367.17 408.90 L 367.03 411.12 L 366.84 413.35 L 366.58 415.56 L 366.27 417.77 L 365.90 419.97 L 365.47 422.16 L 364.99 424.34 L 364.45 426.51 L 363.85 428.65 L 363.20 430.79 L 362.49 432.90 L 361.72 435.00 L 360.90 437.07 L 360.03 439.12 Z" />
</symbol>
</defs>
<!-- isDone: 0 -->
<rect width="700" height="500" style="fill:#fff;stroke-width:0" />
<use class="p0 borderLine" xlink:href="#bl0"/>
<use class="p1 borderLine" xlink:href="#bl1"/>
<use class="p2 borderLine" xlink:href="#bl2"/>
<use class="p3 borderLine" xlink:href="#bl3"/>
<use class="q0 outLine" xlink:href="#bl0"/>
<use class="q1 outLine" xlink:href="#bl1"/>
<use class="q2 outLine" xlink:href="#bl2"/>
<use class="q3 outLine" xlink:href="#bl3"/>
<circle onclick="fromCircle(8)" class="circle" cx="230.7276" cy="154.8328" r="61.9648" />
<text class="nLabel" x="230.73" y="149.83">318</text>
<text class="belong" x="230.73" y="159.83">(1)</text>
<circle onclick="fromCircle(12)" class="circle" cx="161.6606" cy="89.9403" r="25.2970" />
<text class="nLabel" x="161.66" y="84.94">53</text>
<text class="belong" x="161.66" y="94.94">(1, 2)</text>
<circle onclick="fromCircle(14)" class="circle" cx="196.7616" cy="73.1478" r="6.0186" />
<text class="nLabel" x="196.76" y="68.15">3</text>
<text class="belong" x="196.76" y="78.15">(1, 2, 3)</text>
<circle onclick="fromCircle(4)" class="circle" cx="163.7090" cy="35.4045" r="21.9766" />
<text class="nLabel" x="163.71" y="30.40">40</text>
<text class="belong" x="163.71" y="40.40">(2)</text>
<circle onclick="fromCircle(6)" class="circle" cx="196.6632" cy="53.1638" r="7.7699" />
<text class="nLabel" x="196.66" y="48.16">5</text>
<text class="belong" x="196.66" y="58.16">(2, 3)</text>
<circle onclick="fromCircle(2)" class="circle" cx="227.4912" cy="52.7337" r="15.5398" />
<text class="nLabel" x="227.49" y="47.73">20</text>
<text class="belong" x="227.49" y="57.73">(3)</text>
<circle onclick="fromCircle(10)" class="circle" cx="215.8442" cy="79.6821" r="6.9496" />
<text class="nLabel" x="215.84" y="74.68">4</text>
<text class="belong" x="215.84" y="84.68">(1, 3)</text>
<circle onclick="fromCircle(1)" class="circle" cx="282.3916" cy="406.6227" r="81.9349" />
<text class="nLabel" x="282.39" y="401.62">556</text>
<text class="belong" x="282.39" y="411.62">(4)</text>
<g id="legendBox">
<rect class="p0 borderLine" x="500.00" y="50.00" width="30.00" height="15.00" />
<rect class="q0" x="500.00" y="50.00" width="30.00" height="15.00" />
<text class="legend" x="540.00" y="65.00">bike UGA_2015</text>
<rect class="p1 borderLine" x="500.00" y="90.00" width="30.00" height="15.00" />
<rect class="q1" x="500.00" y="90.00" width="30.00" height="15.00" />
<text class="legend" x="540.00" y="105.00">motorbike UGA_2015</text>
<rect class="p2 borderLine" x="500.00" y="130.00" width="30.00" height="15.00" />
<rect class="q2" x="500.00" y="130.00" width="30.00" height="15.00" />
<text class="legend" x="540.00" y="145.00">motor_vehicle UGA_2015</text>
<rect class="p3 borderLine" x="500.00" y="170.00" width="30.00" height="15.00" />
<rect class="q3" x="500.00" y="170.00" width="30.00" height="15.00" />
<text class="legend" x="540.00" y="185.00">no_transport UGA_2015</text>
</g>
</svg>
