<svg xmlns="http://www.w3.org/2000/svg" xmlns:xlink="http://www.w3.org/1999/xlink" width="700" height="500">
<defs>
<style type="text/css"><![CDATA[
  .borderLine {
	   stroke: none;
	   fill-opacity:  0.4 ;
  }
  .outLine {
	   stroke-width:  1 ;
	   fill: none;
  }
  .circle {
	   stroke: #888888;
	   stroke-width: 0.5;
	   fill: none;
    pointer-events: all;
  }
  .nLabel {
	   font-family: Arial;
    pointer-events: none;
	   font-size: 10px;
	   text-anchor: middle;
	   alignment-baseline: central;
  }
  .belong {
	   font-family: Arial;
    pointer-events: none;
	   font-size: 5px;
	   text-anchor: middle;
	   alignment-baseline: central;
  }
  .legend {
    font-family: Arial;
    font-size: 15px;
  }
  #legendBox {
    display:  inline ;
  }
  .p0{
    stroke: none;
    fill:  #00F ;
  }
  .q0{
    fill: none;
    stroke:  #00F ;
  }
  .p1{
    stroke: none;
    fill:  #0F0 ;
  }
  .q1{
    fill: none;
    stroke:  #0F0 ;
  }
  .p2{
    stroke: none;
    fill:  #F00 ;
  }
  .q2{
    fill: none;
    stroke:  #F00 ;
  }
  .p3{
    stroke: none;
    fill:  #000 ;
  }
  .q3{
    fill: none;
    stroke:  #000 ;
  }
]]>
</style>
<symbol id="bl0">
<path d="M 251.56 159.96 L 251.91 161.97 L 252.23 163.99 L 252.47 166.04 L 252.61 168.13 L 252.65 170.24 L 252.61 172.36 L 252.48 174.48 L 252.30 176.60 L 252.07 178.69 L 251.77 180.76 L 251.41 182.81 L 250.98 184.84 L 250.47 186.86 L 249.89 188.87 L 249.24 190.89 L 248.53 192.90 L 247.73 194.91 L 246.84 196.88 L 245.85 198.81 L 244.77 200.68 L 243.63 202.51 L 242.47 204.28 L 241.28 205.99 L 240.07 207.64 L 238.83 209.23 L 237.55 210.76 L 236.20 212.21 L 234.79 213.61 L 233.31 214.94 L 231.77 216.22 L 230.16 217.45 L 228.50 218.63 L 226.80 219.76 L 225.05 220.83 L 223.27 221.83 L 221.46 222.77 L 219.64 223.64 L 217.81 224.46 L 215.95 225.21 L 214.06 225.92 L 212.08 226.57 L 210.00 227.17 L 207.84 227.70 L 205.66 228.16 L 203.53 228.54 L 201.48 228.85 L 199.46 229.09 L 197.45 229.26 L 195.43 229.36 L 193.38 229.38 L 191.31 229.31 L 189.24 229.15 L 187.17 228.90 L 185.11 228.55 L 183.08 228.12 L 181.06 227.61 L 179.08 227.04 L 177.12 226.42 L 175.19 225.74 L 173.29 225.01 L 171.42 224.23 L 169.56 223.40 L 167.72 222.51 L 165.90 221.55 L 164.11 220.52 L 162.35 219.41 L 160.64 218.22 L 158.99 216.95 L 157.40 215.60 L 155.87 214.19 L 154.41 212.72 L 152.99 211.21 L 151.63 209.66 L 150.32 208.07 L 149.05 206.43 L 147.82 204.76 L 146.65 203.04 L 145.55 201.29 L 144.51 199.51 L 143.54 197.70 L 142.66 195.86 L 141.85 194.01 L 141.10 192.14 L 140.41 190.24 L 139.77 188.32 L 139.18 186.38 L 138.66 184.43 L 138.22 182.46 L 137.85 180.48 L 137.58 178.48 L 137.39 176.48 L 137.28 174.47 L 137.24 172.45 L 137.28 170.44 L 137.38 168.43 L 137.53 166.44 L 137.74 164.45 L 138.00 162.47 L 138.31 160.50 L 138.68 158.54 L 139.13 156.60 L 139.68 154.67 L 140.30 152.77 L 140.99 150.89 L 141.73 149.02 L 142.52 147.19 L 143.37 145.39 L 144.27 143.64 L 145.23 141.92 L 146.22 140.23 L 147.25 138.56 L 148.30 136.90 L 149.37 135.22 L 150.46 133.53 L 151.56 131.82 L 152.67 130.09 L 153.79 128.36 L 154.89 126.62 L 156.00 124.88 L 157.12 123.12 L 158.26 121.28 L 159.45 119.34 L 160.67 117.27 L 161.92 115.11 L 163.14 112.94 L 164.30 110.86 L 165.39 108.91 L 166.43 107.09 L 167.44 105.36 L 168.43 103.69 L 169.42 102.04 L 170.41 100.37 L 171.41 98.65 L 172.45 96.83 L 173.55 94.88 L 174.72 92.81 L 175.93 90.64 L 177.13 88.46 L 178.28 86.35 L 179.38 84.37 L 180.42 82.49 L 181.46 80.68 L 182.51 78.86 L 183.59 76.98 L 184.70 74.98 L 185.83 72.85 L 186.96 70.60 L 188.09 68.25 L 189.20 65.86 L 190.29 63.44 L 191.36 61.01 L 192.44 58.61 L 193.53 56.30 L 194.65 54.13 L 195.87 52.18 L 197.21 50.49 L 198.70 49.06 L 200.41 47.91 L 202.36 47.06 L 204.58 46.59 L 207.02 46.51 L 209.58 46.77 L 212.21 47.27 L 214.84 47.87 L 217.44 48.45 L 219.95 48.96 L 222.32 49.39 L 224.52 49.78 L 226.57 50.20 L 228.49 50.71 L 230.28 51.36 L 231.96 52.21 L 233.49 53.25 L 234.86 54.51 L 236.03 55.98 L 237.00 57.63 L 237.76 59.46 L 238.34 61.46 L 238.79 63.60 L 239.15 65.84 L 239.46 68.08 L 239.76 70.25 L 240.04 72.33 L 240.33 74.35 L 240.62 76.34 L 240.89 78.32 L 241.15 80.29 L 241.39 82.27 L 241.61 84.25 L 241.82 86.24 L 242.02 88.26 L 242.22 90.32 L 242.43 92.41 L 242.66 94.52 L 242.89 96.65 L 243.11 98.78 L 243.31 100.89 L 243.48 102.99 L 243.63 105.06 L 243.76 107.10 L 243.89 109.14 L 244.04 111.15 L 244.23 113.16 L 244.46 115.16 L 244.74 117.17 L 245.06 119.19 L 245.39 121.23 L 245.73 123.30 L 246.06 125.38 L 246.37 127.48 L 246.69 129.57 L 247.02 131.65 L 247.36 133.71 L 247.73 135.74 L 248.11 137.76 L 248.49 139.77 L 248.84 141.78 L 249.16 143.80 L 249.44 145.82 L 249.71 147.86 L 249.99 149.89 L 250.28 151.92 L 250.58 153.95 L 250.89 155.96 L 251.22 157.96 Z" />
</symbol>
<symbol id="bl1">
<path d="M 221.23 106.82 L 220.40 107.76 L 219.52 108.65 L 218.61 109.48 L 217.64 110.24 L 216.63 110.93 L 215.57 111.56 L 214.45 112.13 L 213.26 112.65 L 212.00 113.14 L 210.67 113.59 L 209.30 113.97 L 207.92 114.25 L 206.53 114.44 L 205.13 114.53 L 203.73 114.52 L 202.33 114.45 L 200.98 114.33 L 199.68 114.18 L 198.44 113.98 L 197.21 113.74 L 195.98 113.44 L 194.71 113.08 L 193.37 112.66 L 191.96 112.19 L 190.51 111.68 L 189.08 111.16 L 187.71 110.64 L 186.44 110.12 L 185.26 109.60 L 184.14 109.07 L 183.05 108.53 L 181.96 107.99 L 180.85 107.44 L 179.70 106.91 L 178.53 106.37 L 177.32 105.82 L 176.08 105.27 L 174.84 104.72 L 173.58 104.17 L 172.33 103.61 L 171.10 103.07 L 169.89 102.52 L 168.70 101.98 L 167.54 101.44 L 166.39 100.91 L 165.26 100.38 L 164.13 99.86 L 163.00 99.34 L 161.86 98.81 L 160.73 98.28 L 159.59 97.73 L 158.46 97.17 L 157.32 96.61 L 156.16 96.04 L 154.98 95.47 L 153.77 94.89 L 152.55 94.32 L 151.32 93.73 L 150.10 93.14 L 148.89 92.54 L 147.69 91.93 L 146.50 91.32 L 145.32 90.71 L 144.14 90.09 L 142.97 89.46 L 141.81 88.80 L 140.65 88.11 L 139.51 87.36 L 138.38 86.56 L 137.28 85.69 L 136.21 84.76 L 135.18 83.78 L 134.19 82.75 L 133.26 81.68 L 132.39 80.59 L 131.56 79.47 L 130.78 78.32 L 130.06 77.15 L 129.40 75.95 L 128.81 74.73 L 128.28 73.48 L 127.81 72.22 L 127.39 70.94 L 127.02 69.65 L 126.70 68.33 L 126.44 66.99 L 126.25 65.64 L 126.14 64.27 L 126.10 62.90 L 126.11 61.54 L 126.18 60.20 L 126.28 58.89 L 126.42 57.60 L 126.61 56.34 L 126.84 55.11 L 127.13 53.89 L 127.48 52.69 L 127.90 51.50 L 128.37 50.32 L 128.90 49.14 L 129.49 47.97 L 130.12 46.82 L 130.81 45.68 L 131.54 44.57 L 132.32 43.48 L 133.16 42.42 L 134.06 41.38 L 135.01 40.38 L 136.01 39.42 L 137.07 38.49 L 138.18 37.59 L 139.32 36.73 L 140.50 35.93 L 141.71 35.19 L 142.94 34.53 L 144.18 33.94 L 145.43 33.40 L 146.68 32.92 L 147.93 32.51 L 149.18 32.15 L 150.44 31.86 L 151.72 31.63 L 153.02 31.45 L 154.35 31.32 L 155.72 31.22 L 157.10 31.17 L 158.50 31.16 L 159.89 31.20 L 161.26 31.27 L 162.61 31.37 L 163.94 31.46 L 165.28 31.54 L 166.63 31.61 L 168.00 31.67 L 169.38 31.75 L 170.77 31.87 L 172.16 32.01 L 173.55 32.16 L 174.95 32.29 L 176.35 32.41 L 177.75 32.51 L 179.15 32.59 L 180.55 32.65 L 181.96 32.68 L 183.38 32.68 L 184.80 32.65 L 186.22 32.62 L 187.62 32.58 L 189.01 32.57 L 190.36 32.59 L 191.70 32.66 L 193.00 32.80 L 194.28 33.05 L 195.52 33.44 L 196.72 33.98 L 197.86 34.65 L 198.93 35.44 L 199.94 36.31 L 200.89 37.24 L 201.80 38.18 L 202.66 39.14 L 203.50 40.10 L 204.34 41.07 L 205.19 42.04 L 206.08 43.00 L 207.02 43.93 L 208.02 44.85 L 209.06 45.74 L 210.13 46.63 L 211.18 47.55 L 212.17 48.55 L 213.06 49.65 L 213.83 50.85 L 214.43 52.14 L 214.87 53.48 L 215.14 54.84 L 215.23 56.18 L 215.19 57.48 L 215.05 58.77 L 214.90 60.08 L 214.81 61.46 L 214.84 62.92 L 215.04 64.44 L 215.43 65.98 L 216.02 67.49 L 216.80 68.94 L 217.73 70.31 L 218.76 71.60 L 219.85 72.83 L 220.91 74.01 L 221.89 75.15 L 222.77 76.24 L 223.54 77.30 L 224.22 78.34 L 224.83 79.39 L 225.36 80.46 L 225.82 81.56 L 226.21 82.67 L 226.54 83.80 L 226.82 84.94 L 227.07 86.10 L 227.28 87.26 L 227.44 88.45 L 227.54 89.68 L 227.57 90.96 L 227.50 92.32 L 227.33 93.77 L 227.05 95.27 L 226.67 96.80 L 226.19 98.30 L 225.63 99.76 L 225.00 101.15 L 224.30 102.47 L 223.57 103.68 L 222.81 104.80 L 222.03 105.84 Z" />
</symbol>
<symbol id="bl2">
<path d="M 237.87 66.64 L 237.41 67.61 L 236.90 68.54 L 236.36 69.42 L 235.79 70.21 L 235.19 70.91 L 234.53 71.54 L 233.79 72.10 L 232.95 72.60 L 232.03 73.06 L 231.06 73.45 L 230.07 73.78 L 229.07 74.04 L 228.10 74.23 L 227.13 74.34 L 226.16 74.37 L 225.18 74.32 L 224.19 74.17 L 223.21 73.92 L 222.25 73.59 L 221.33 73.19 L 220.46 72.74 L 219.65 72.24 L 218.88 71.72 L 218.13 71.20 L 217.39 70.68 L 216.67 70.16 L 215.97 69.66 L 215.25 69.16 L 214.51 68.70 L 213.74 68.30 L 212.94 67.97 L 212.11 67.71 L 211.25 67.49 L 210.35 67.28 L 209.41 67.09 L 208.43 66.92 L 207.45 66.78 L 206.48 66.67 L 205.55 66.59 L 204.66 66.53 L 203.81 66.45 L 202.96 66.33 L 202.10 66.15 L 201.22 65.89 L 200.34 65.54 L 199.47 65.09 L 198.63 64.56 L 197.84 63.95 L 197.10 63.28 L 196.42 62.55 L 195.80 61.78 L 195.24 60.95 L 194.71 60.09 L 194.18 59.21 L 193.65 58.34 L 193.09 57.50 L 192.52 56.69 L 191.94 55.95 L 191.37 55.27 L 190.80 54.64 L 190.22 54.05 L 189.63 53.46 L 189.01 52.87 L 188.36 52.26 L 187.69 51.64 L 187.03 51.03 L 186.41 50.43 L 185.84 49.83 L 185.33 49.22 L 184.88 48.57 L 184.47 47.88 L 184.09 47.12 L 183.73 46.31 L 183.39 45.47 L 183.11 44.61 L 182.89 43.75 L 182.75 42.90 L 182.69 42.07 L 182.72 41.25 L 182.82 40.44 L 183.00 39.66 L 183.24 38.89 L 183.55 38.14 L 183.93 37.41 L 184.40 36.70 L 184.93 36.00 L 185.53 35.32 L 186.17 34.65 L 186.85 34.01 L 187.54 33.42 L 188.23 32.86 L 188.91 32.31 L 189.54 31.75 L 190.14 31.16 L 190.72 30.54 L 191.29 29.92 L 191.88 29.33 L 192.49 28.77 L 193.13 28.25 L 193.79 27.74 L 194.43 27.22 L 195.04 26.67 L 195.60 26.07 L 196.12 25.43 L 196.63 24.77 L 197.15 24.10 L 197.68 23.45 L 198.23 22.81 L 198.81 22.19 L 199.41 21.59 L 200.01 21.00 L 200.62 20.42 L 201.23 19.85 L 201.83 19.27 L 202.44 18.69 L 203.04 18.11 L 203.66 17.54 L 204.29 16.98 L 204.95 16.43 L 205.63 15.86 L 206.32 15.27 L 207.00 14.68 L 207.67 14.11 L 208.33 13.56 L 209.01 13.05 L 209.72 12.59 L 210.45 12.16 L 211.21 11.79 L 211.99 11.45 L 212.78 11.15 L 213.58 10.88 L 214.38 10.62 L 215.18 10.40 L 216.00 10.23 L 216.84 10.11 L 217.68 10.04 L 218.51 10.01 L 219.34 10.00 L 220.16 10.02 L 220.97 10.06 L 221.77 10.13 L 222.59 10.22 L 223.41 10.34 L 224.26 10.48 L 225.12 10.66 L 225.98 10.91 L 226.83 11.23 L 227.68 11.62 L 228.51 12.06 L 229.32 12.54 L 230.11 13.05 L 230.85 13.58 L 231.56 14.11 L 232.22 14.65 L 232.86 15.20 L 233.47 15.76 L 234.05 16.35 L 234.61 16.96 L 235.14 17.59 L 235.64 18.26 L 236.11 18.96 L 236.55 19.69 L 236.94 20.45 L 237.29 21.22 L 237.61 21.99 L 237.90 22.79 L 238.16 23.60 L 238.40 24.43 L 238.61 25.25 L 238.79 26.08 L 238.94 26.92 L 239.08 27.77 L 239.21 28.64 L 239.32 29.53 L 239.40 30.44 L 239.44 31.36 L 239.46 32.29 L 239.47 33.21 L 239.49 34.12 L 239.54 35.00 L 239.59 35.85 L 239.65 36.68 L 239.71 37.49 L 239.76 38.29 L 239.80 39.12 L 239.82 39.97 L 239.85 40.85 L 239.89 41.76 L 239.95 42.69 L 240.04 43.63 L 240.13 44.55 L 240.21 45.46 L 240.27 46.36 L 240.30 47.26 L 240.31 48.16 L 240.30 49.04 L 240.27 49.92 L 240.23 50.78 L 240.20 51.64 L 240.15 52.51 L 240.10 53.41 L 240.02 54.36 L 239.91 55.34 L 239.78 56.36 L 239.66 57.40 L 239.55 58.44 L 239.45 59.49 L 239.36 60.53 L 239.24 61.58 L 239.08 62.61 L 238.88 63.63 L 238.61 64.64 L 238.27 65.65 Z" />
</symbol>
<symbol id="bl3">
<path d="M 365.90 439.33 L 364.97 441.33 L 364.00 443.31 L 362.98 445.27 L 361.89 447.20 L 360.74 449.10 L 359.53 450.96 L 358.27 452.80 L 356.98 454.61 L 355.66 456.41 L 354.31 458.18 L 352.92 459.93 L 351.47 461.62 L 349.96 463.27 L 348.39 464.86 L 346.76 466.42 L 345.10 467.94 L 343.41 469.43 L 341.66 470.88 L 339.88 472.28 L 338.05 473.63 L 336.19 474.94 L 334.30 476.20 L 332.38 477.40 L 330.42 478.53 L 328.43 479.58 L 326.42 480.59 L 324.39 481.57 L 322.35 482.52 L 320.29 483.44 L 318.19 484.29 L 316.05 485.05 L 313.86 485.73 L 311.62 486.35 L 309.36 486.94 L 307.06 487.52 L 304.72 488.07 L 302.35 488.59 L 299.93 489.04 L 297.47 489.39 L 294.97 489.64 L 292.45 489.79 L 289.91 489.90 L 287.38 489.97 L 284.85 490.00 L 282.35 489.95 L 279.86 489.81 L 277.40 489.56 L 274.95 489.21 L 272.53 488.79 L 270.12 488.30 L 267.72 487.75 L 265.33 487.16 L 262.95 486.53 L 260.59 485.82 L 258.24 485.05 L 255.93 484.21 L 253.64 483.32 L 251.39 482.36 L 249.19 481.35 L 247.05 480.26 L 244.96 479.11 L 242.92 477.92 L 240.92 476.71 L 238.94 475.50 L 236.99 474.27 L 235.09 472.98 L 233.26 471.61 L 231.49 470.15 L 229.77 468.63 L 228.08 467.05 L 226.44 465.44 L 224.84 463.78 L 223.29 462.08 L 221.79 460.36 L 220.34 458.61 L 218.94 456.86 L 217.60 455.08 L 216.31 453.30 L 215.07 451.49 L 213.86 449.66 L 212.65 447.81 L 211.44 445.89 L 210.22 443.85 L 208.98 441.61 L 207.75 439.14 L 206.59 436.46 L 205.52 433.61 L 204.57 430.66 L 203.73 427.65 L 202.99 424.63 L 202.33 421.60 L 201.76 418.54 L 201.29 415.47 L 200.94 412.37 L 200.72 409.26 L 200.62 406.15 L 200.62 403.04 L 200.71 399.95 L 200.90 396.88 L 201.18 393.81 L 201.59 390.76 L 202.12 387.73 L 202.77 384.71 L 203.52 381.71 L 204.36 378.72 L 205.27 375.76 L 206.27 372.84 L 207.34 370.00 L 208.48 367.30 L 209.64 364.79 L 210.82 362.50 L 211.99 360.39 L 213.16 358.41 L 214.33 356.49 L 215.53 354.61 L 216.78 352.77 L 218.10 350.97 L 219.49 349.22 L 220.94 347.51 L 222.45 345.85 L 224.01 344.22 L 225.63 342.63 L 227.29 341.08 L 228.99 339.54 L 230.71 338.02 L 232.44 336.52 L 234.19 335.04 L 235.97 333.61 L 237.80 332.25 L 239.68 330.96 L 241.62 329.74 L 243.61 328.60 L 245.66 327.52 L 247.76 326.50 L 249.90 325.54 L 252.09 324.62 L 254.31 323.74 L 256.56 322.90 L 258.84 322.09 L 261.14 321.33 L 263.47 320.60 L 265.83 319.94 L 268.22 319.34 L 270.64 318.82 L 273.09 318.38 L 275.56 318.02 L 278.04 317.74 L 280.54 317.53 L 283.05 317.39 L 285.57 317.33 L 288.10 317.34 L 290.64 317.41 L 293.17 317.53 L 295.69 317.72 L 298.20 317.97 L 300.70 318.29 L 303.17 318.68 L 305.61 319.14 L 308.01 319.66 L 310.37 320.25 L 312.69 320.90 L 314.94 321.61 L 317.14 322.39 L 319.29 323.23 L 321.39 324.13 L 323.44 325.07 L 325.47 326.04 L 327.48 327.05 L 329.45 328.08 L 331.39 329.17 L 333.30 330.32 L 335.16 331.52 L 336.99 332.78 L 338.79 334.08 L 340.55 335.42 L 342.29 336.79 L 344.00 338.20 L 345.68 339.64 L 347.32 341.12 L 348.92 342.64 L 350.49 344.21 L 352.00 345.82 L 353.46 347.49 L 354.87 349.20 L 356.23 350.96 L 357.55 352.76 L 358.82 354.60 L 360.04 356.48 L 361.22 358.38 L 362.35 360.31 L 363.43 362.26 L 364.46 364.25 L 365.43 366.27 L 366.37 368.31 L 367.26 370.37 L 368.09 372.45 L 368.86 374.55 L 369.56 376.68 L 370.20 378.83 L 370.79 380.98 L 371.36 383.14 L 371.88 385.30 L 372.33 387.46 L 372.72 389.64 L 373.04 391.82 L 373.33 394.01 L 373.57 396.20 L 373.77 398.39 L 373.88 400.59 L 373.90 402.79 L 373.84 405.00 L 373.73 407.21 L 373.59 409.43 L 373.43 411.64 L 373.23 413.84 L 372.98 416.04 L 372.66 418.23 L 372.26 420.41 L 371.78 422.57 L 371.22 424.72 L 370.60 426.87 L 369.94 429.00 L 369.24 431.12 L 368.48 433.21 L 367.67 435.27 L 366.80 437.31 Z" />
</symbol>
</defs>
<!-- isDone: 0 -->
<rect width="700" height="500" style="fill:#fff;stroke-width:0" />
<use class="p0 borderLine" xlink:href="#bl0"/>
<use class="p1 borderLine" xlink:href="#bl1"/>
<use class="p2 borderLine" xlink:href="#bl2"/>
<use class="p3 borderLine" xlink:href="#bl3"/>
<use class="q0 outLine" xlink:href="#bl0"/>
<use class="q1 outLine" xlink:href="#bl1"/>
<use class="q2 outLine" xlink:href="#bl2"/>
<use class="q3 outLine" xlink:href="#bl3"/>
<circle onclick="fromCircle(8)" class="circle" cx="194.8566" cy="171.8019" r="53.8915" />
<text class="nLabel" x="194.86" y="166.80">255</text>
<text class="belong" x="194.86" y="176.80">(1)</text>
<circle onclick="fromCircle(12)" class="circle" cx="203.3667" cy="90.4388" r="20.2489" />
<text class="nLabel" x="203.37" y="85.44">36</text>
<text class="belong" x="203.37" y="95.44">(1, 2)</text>
<circle onclick="fromCircle(14)" class="circle" cx="205.0046" cy="55.7126" r="6.7496" />
<text class="nLabel" x="205.00" y="50.71">4</text>
<text class="belong" x="205.00" y="60.71">(1, 2, 3)</text>
<circle onclick="fromCircle(4)" class="circle" cx="156.7921" cy="61.7491" r="26.9985" />
<text class="nLabel" x="156.79" y="56.75">64</text>
<text class="belong" x="156.79" y="66.75">(2)</text>
<circle onclick="fromCircle(6)" class="circle" cx="192.3373" cy="41.9269" r="5.8454" />
<text class="nLabel" x="192.34" y="36.93">3</text>
<text class="belong" x="192.34" y="46.93">(2, 3)</text>
<circle onclick="fromCircle(2)" class="circle" cx="219.6759" cy="29.0766" r="15.4653" />
<text class="nLabel" x="219.68" y="24.08">21</text>
<text class="belong" x="219.68" y="34.08">(3)</text>
<circle onclick="fromCircle(10)" class="circle" cx="226.5354" cy="62.0526" r="8.2666" />
<text class="nLabel" x="226.54" y="57.05">6</text>
<text class="belong" x="226.54" y="67.05">(1, 3)</text>
<circle onclick="fromCircle(1)" class="circle" cx="287.5651" cy="405.1028" r="83.1466" />
<text class="nLabel" x="287.57" y="400.10">607</text>
<text class="belong" x="287.57" y="410.10">(4)</text>
<g id="legendBox">
<rect class="p0 borderLine" x="500.00" y="50.00" width="30.00" height="15.00" />
<rect class="q0" x="500.00" y="50.00" width="30.00" height="15.00" />
<text class="legend" x="540.00" y="65.00">bike UGA_2019</text>
<rect class="p1 borderLine" x="500.00" y="90.00" width="30.00" height="15.00" />
<rect class="q1" x="500.00" y="90.00" width="30.00" height="15.00" />
<text class="legend" x="540.00" y="105.00">motorbike UGA_2019</text>
<rect class="p2 borderLine" x="500.00" y="130.00" width="30.00" height="15.00" />
<rect class="q2" x="500.00" y="130.00" width="30.00" height="15.00" />
<text class="legend" x="540.00" y="145.00">motor_vehicle UGA_2019</text>
<rect class="p3 borderLine" x="500.00" y="170.00" width="30.00" height="15.00" />
<rect class="q3" x="500.00" y="170.00" width="30.00" height="15.00" />
<text class="legend" x="540.00" y="185.00">no_transport UGA_2019</text>
</g>
</svg>
