<svg xmlns="http://www.w3.org/2000/svg" xmlns:xlink="http://www.w3.org/1999/xlink" width="700" height="500">
<defs>
<style type="text/css"><![CDATA[
  .borderLine {
	   stroke: none;
	   fill-opacity:  0.4 ;
  }
  .outLine {
	   stroke-width:  1 ;
	   fill: none;
  }
  .circle {
	   stroke: #888888;
	   stroke-width: 0.5;
	   fill: none;
    pointer-events: all;
  }
  .nLabel {
	   font-family: Arial;
    pointer-events: none;
	   font-size: 10px;
	   text-anchor: middle;
	   alignment-baseline: central;
  }
  .belong {
	   font-family: Arial;
    pointer-events: none;
	   font-size: 5px;
	   text-anchor: middle;
	   alignment-baseline: central;
  }
  .legend {
    font-family: Arial;
    font-size: 15px;
  }
  #legendBox {
    display:  inline ;
  }
  .p0{
    stroke: none;
    fill:  #00F ;
  }
  .q0{
    fill: none;
    stroke:  #00F ;
  }
  .p1{
    stroke: none;
    fill:  #0F0 ;
  }
  .q1{
    fill: none;
    stroke:  #0F0 ;
  }
  .p2{
    stroke: none;
    fill:  #F00 ;
  }
  .q2{
    fill: none;
    stroke:  #F00 ;
  }
  .p3{
    stroke: none;
    fill:  #000 ;
  }
  .q3{
    fill: none;
    stroke:  #000 ;
  }
]]>
</style>
<symbol id="bl0">
<path d="M 284.50 182.15 L 283.93 184.29 L 283.29 186.42 L 282.60 188.53 L 281.83 190.62 L 281.01 192.69 L 280.12 194.74 L 279.16 196.76 L 278.14 198.76 L 277.07 200.72 L 275.93 202.64 L 274.75 204.52 L 273.51 206.35 L 272.21 208.15 L 270.87 209.90 L 269.47 211.61 L 268.02 213.28 L 266.53 214.91 L 264.98 216.50 L 263.38 218.03 L 261.74 219.52 L 260.05 220.96 L 258.32 222.35 L 256.55 223.68 L 254.74 224.95 L 252.90 226.17 L 251.01 227.34 L 249.08 228.45 L 247.11 229.51 L 245.10 230.51 L 243.07 231.45 L 241.00 232.33 L 238.91 233.14 L 236.81 233.89 L 234.69 234.58 L 232.55 235.19 L 230.41 235.74 L 228.25 236.22 L 226.08 236.64 L 223.90 236.99 L 221.70 237.28 L 219.49 237.50 L 217.27 237.65 L 215.04 237.74 L 212.81 237.76 L 210.58 237.71 L 208.35 237.59 L 206.13 237.40 L 203.92 237.15 L 201.72 236.83 L 199.53 236.44 L 197.34 235.99 L 195.18 235.47 L 193.02 234.88 L 190.89 234.23 L 188.77 233.52 L 186.68 232.74 L 184.62 231.90 L 182.58 230.99 L 180.58 230.02 L 178.59 228.99 L 176.64 227.90 L 174.72 226.75 L 172.84 225.54 L 170.99 224.27 L 169.18 222.95 L 167.41 221.57 L 165.69 220.14 L 164.02 218.67 L 162.39 217.14 L 160.81 215.58 L 159.29 213.96 L 157.82 212.30 L 156.40 210.60 L 155.03 208.85 L 153.71 207.06 L 152.44 205.23 L 151.23 203.36 L 150.07 201.44 L 148.97 199.49 L 147.94 197.51 L 146.96 195.49 L 146.04 193.45 L 145.19 191.38 L 144.40 189.28 L 143.68 187.16 L 143.02 185.02 L 142.42 182.86 L 141.89 180.67 L 141.43 178.48 L 141.03 176.26 L 140.70 174.04 L 140.43 171.82 L 140.21 169.58 L 140.04 167.34 L 139.90 165.09 L 139.79 162.85 L 139.69 160.61 L 139.60 158.37 L 139.50 156.14 L 139.41 153.91 L 139.32 151.69 L 139.23 149.47 L 139.14 147.26 L 139.04 145.05 L 138.94 142.86 L 138.84 140.67 L 138.73 138.48 L 138.62 136.30 L 138.50 134.12 L 138.39 131.93 L 138.27 129.75 L 138.15 127.55 L 138.03 125.35 L 137.91 123.14 L 137.78 120.93 L 137.66 118.72 L 137.53 116.51 L 137.41 114.31 L 137.30 112.11 L 137.19 109.91 L 137.09 107.72 L 136.98 105.53 L 136.88 103.34 L 136.78 101.14 L 136.68 98.95 L 136.58 96.75 L 136.47 94.55 L 136.37 92.35 L 136.27 90.16 L 136.18 87.97 L 136.10 85.77 L 136.04 83.59 L 136.03 81.41 L 136.10 79.24 L 136.27 77.09 L 136.59 74.97 L 137.07 72.89 L 137.72 70.85 L 138.52 68.89 L 139.49 66.99 L 140.62 65.17 L 141.89 63.46 L 143.29 61.85 L 144.83 60.37 L 146.49 59.02 L 148.25 57.81 L 150.10 56.75 L 152.04 55.85 L 154.06 55.11 L 156.14 54.55 L 158.28 54.17 L 160.48 53.96 L 162.74 53.92 L 165.04 54.03 L 167.37 54.24 L 169.69 54.48 L 171.99 54.73 L 174.26 54.96 L 176.50 55.18 L 178.74 55.38 L 180.98 55.58 L 183.22 55.77 L 185.47 55.97 L 187.74 56.18 L 190.04 56.44 L 192.38 56.74 L 194.74 57.10 L 197.10 57.56 L 199.45 58.11 L 201.78 58.78 L 204.09 59.54 L 206.39 60.37 L 208.69 61.23 L 211.00 62.11 L 213.31 63.01 L 215.59 63.96 L 217.80 64.99 L 219.86 66.15 L 221.74 67.47 L 223.47 68.92 L 225.10 70.46 L 226.67 72.06 L 228.22 73.67 L 229.77 75.30 L 231.31 76.93 L 232.85 78.55 L 234.40 80.16 L 235.94 81.77 L 237.47 83.37 L 239.01 84.98 L 240.55 86.58 L 242.08 88.19 L 243.61 89.81 L 245.15 91.42 L 246.70 93.04 L 248.24 94.66 L 249.79 96.27 L 251.34 97.89 L 252.89 99.50 L 254.43 101.12 L 255.97 102.74 L 257.51 104.36 L 259.04 105.98 L 260.58 107.60 L 262.11 109.21 L 263.63 110.84 L 265.14 112.48 L 266.64 114.13 L 268.11 115.80 L 269.54 117.49 L 270.93 119.22 L 272.27 120.98 L 273.56 122.77 L 274.79 124.60 L 275.96 126.46 L 277.08 128.36 L 278.14 130.30 L 279.15 132.27 L 280.09 134.27 L 280.98 136.30 L 281.81 138.36 L 282.58 140.45 L 283.28 142.57 L 283.92 144.71 L 284.49 146.86 L 285.00 149.04 L 285.44 151.23 L 285.81 153.44 L 286.12 155.65 L 286.36 157.87 L 286.52 160.09 L 286.63 162.31 L 286.66 164.54 L 286.62 166.77 L 286.52 169.00 L 286.35 171.21 L 286.11 173.42 L 285.81 175.62 L 285.44 177.81 L 285.00 179.99 Z" />
</symbol>
<symbol id="bl1">
<path d="M 188.51 87.43 L 187.88 88.32 L 187.25 89.21 L 186.62 90.11 L 185.99 91.00 L 185.36 91.89 L 184.73 92.78 L 184.10 93.67 L 183.46 94.55 L 182.80 95.41 L 182.12 96.24 L 181.40 97.05 L 180.65 97.84 L 179.87 98.60 L 179.03 99.33 L 178.15 100.03 L 177.23 100.70 L 176.27 101.34 L 175.30 101.94 L 174.32 102.52 L 173.33 103.05 L 172.32 103.54 L 171.31 103.98 L 170.27 104.36 L 169.23 104.69 L 168.17 104.97 L 167.10 105.20 L 166.01 105.39 L 164.92 105.54 L 163.82 105.64 L 162.71 105.70 L 161.60 105.72 L 160.48 105.68 L 159.37 105.61 L 158.26 105.48 L 157.16 105.30 L 156.07 105.07 L 154.99 104.80 L 153.93 104.48 L 152.88 104.12 L 151.85 103.71 L 150.84 103.26 L 149.85 102.77 L 148.88 102.23 L 147.93 101.65 L 147.00 101.03 L 146.10 100.37 L 145.22 99.67 L 144.37 98.93 L 143.56 98.16 L 142.77 97.35 L 142.02 96.51 L 141.31 95.63 L 140.63 94.72 L 139.99 93.78 L 139.39 92.81 L 138.84 91.81 L 138.32 90.80 L 137.86 89.77 L 137.44 88.72 L 137.07 87.65 L 136.75 86.57 L 136.47 85.48 L 136.24 84.38 L 136.07 83.28 L 135.93 82.17 L 135.85 81.07 L 135.81 79.97 L 135.81 78.88 L 135.87 77.79 L 135.97 76.70 L 136.11 75.60 L 136.30 74.50 L 136.52 73.41 L 136.77 72.33 L 137.04 71.24 L 137.31 70.16 L 137.58 69.09 L 137.85 68.01 L 138.12 66.94 L 138.39 65.87 L 138.67 64.80 L 138.94 63.73 L 139.22 62.66 L 139.50 61.60 L 139.77 60.55 L 140.04 59.49 L 140.31 58.44 L 140.58 57.38 L 140.85 56.33 L 141.12 55.26 L 141.38 54.19 L 141.63 53.11 L 141.89 52.03 L 142.15 50.95 L 142.42 49.87 L 142.69 48.78 L 142.96 47.70 L 143.24 46.61 L 143.52 45.52 L 143.79 44.43 L 144.05 43.33 L 144.31 42.23 L 144.57 41.13 L 144.82 40.04 L 145.08 38.95 L 145.34 37.87 L 145.61 36.78 L 145.88 35.70 L 146.16 34.62 L 146.42 33.55 L 146.69 32.47 L 146.94 31.41 L 147.19 30.34 L 147.44 29.27 L 147.70 28.21 L 147.97 27.14 L 148.28 26.08 L 148.63 25.02 L 149.02 23.98 L 149.47 22.96 L 149.96 21.96 L 150.51 20.98 L 151.10 20.04 L 151.74 19.12 L 152.44 18.23 L 153.17 17.38 L 153.94 16.56 L 154.75 15.79 L 155.60 15.06 L 156.47 14.38 L 157.36 13.75 L 158.29 13.16 L 159.24 12.62 L 160.22 12.13 L 161.23 11.68 L 162.26 11.29 L 163.30 10.95 L 164.36 10.66 L 165.43 10.42 L 166.51 10.24 L 167.60 10.10 L 168.70 10.03 L 169.80 10.00 L 170.90 10.03 L 172.00 10.11 L 173.09 10.26 L 174.17 10.45 L 175.24 10.70 L 176.30 11.01 L 177.34 11.36 L 178.36 11.77 L 179.36 12.22 L 180.34 12.73 L 181.29 13.28 L 182.22 13.88 L 183.12 14.52 L 183.98 15.21 L 184.81 15.93 L 185.60 16.70 L 186.35 17.49 L 187.05 18.33 L 187.72 19.18 L 188.34 20.07 L 188.94 20.98 L 189.51 21.90 L 190.08 22.84 L 190.64 23.79 L 191.20 24.74 L 191.76 25.68 L 192.32 26.62 L 192.88 27.54 L 193.44 28.46 L 193.99 29.37 L 194.54 30.28 L 195.09 31.18 L 195.65 32.09 L 196.20 32.99 L 196.76 33.88 L 197.32 34.76 L 197.87 35.65 L 198.42 36.54 L 198.96 37.44 L 199.51 38.34 L 200.07 39.26 L 200.64 40.18 L 201.21 41.10 L 201.79 42.05 L 202.37 43.01 L 202.91 43.98 L 203.41 44.98 L 203.83 46.02 L 204.17 47.12 L 204.40 48.26 L 204.53 49.44 L 204.56 50.64 L 204.51 51.83 L 204.39 53.01 L 204.24 54.17 L 204.07 55.33 L 203.90 56.47 L 203.72 57.62 L 203.55 58.75 L 203.37 59.89 L 203.20 61.02 L 203.03 62.14 L 202.85 63.26 L 202.65 64.37 L 202.42 65.45 L 202.14 66.50 L 201.79 67.50 L 201.36 68.45 L 200.87 69.35 L 200.34 70.24 L 199.77 71.12 L 199.19 72.01 L 198.59 72.91 L 197.99 73.81 L 197.38 74.73 L 196.76 75.65 L 196.13 76.56 L 195.50 77.48 L 194.86 78.39 L 194.22 79.31 L 193.58 80.22 L 192.94 81.13 L 192.29 82.03 L 191.65 82.93 L 191.02 83.83 L 190.38 84.73 L 189.76 85.63 L 189.13 86.53 Z" />
</symbol>
<symbol id="bl2">
<path d="M 223.95 85.49 L 223.48 86.10 L 222.98 86.68 L 222.45 87.23 L 221.88 87.74 L 221.29 88.23 L 220.68 88.68 L 220.04 89.10 L 219.39 89.48 L 218.72 89.83 L 218.03 90.15 L 217.31 90.42 L 216.58 90.66 L 215.83 90.85 L 215.06 91.00 L 214.28 91.10 L 213.49 91.16 L 212.70 91.18 L 211.92 91.17 L 211.15 91.12 L 210.40 91.04 L 209.66 90.92 L 208.94 90.76 L 208.22 90.55 L 207.52 90.31 L 206.83 90.02 L 206.15 89.69 L 205.49 89.33 L 204.85 88.93 L 204.23 88.50 L 203.62 88.04 L 203.03 87.54 L 202.46 87.01 L 201.90 86.47 L 201.36 85.91 L 200.83 85.35 L 200.30 84.78 L 199.78 84.21 L 199.26 83.64 L 198.73 83.08 L 198.21 82.52 L 197.69 81.97 L 197.17 81.43 L 196.66 80.89 L 196.14 80.34 L 195.63 79.80 L 195.12 79.25 L 194.62 78.69 L 194.11 78.13 L 193.60 77.57 L 193.08 77.00 L 192.55 76.43 L 192.02 75.86 L 191.49 75.29 L 190.96 74.72 L 190.42 74.16 L 189.89 73.61 L 189.37 73.06 L 188.84 72.51 L 188.32 71.95 L 187.81 71.38 L 187.30 70.79 L 186.82 70.17 L 186.36 69.50 L 185.94 68.78 L 185.57 68.02 L 185.26 67.24 L 185.03 66.45 L 184.86 65.67 L 184.77 64.89 L 184.73 64.11 L 184.75 63.32 L 184.80 62.54 L 184.88 61.77 L 184.97 60.99 L 185.06 60.22 L 185.17 59.44 L 185.28 58.62 L 185.41 57.75 L 185.54 56.83 L 185.69 55.84 L 185.84 54.82 L 185.99 53.78 L 186.14 52.74 L 186.30 51.72 L 186.46 50.75 L 186.62 49.82 L 186.78 48.95 L 186.96 48.12 L 187.18 47.31 L 187.46 46.51 L 187.79 45.74 L 188.18 45.00 L 188.61 44.32 L 189.08 43.70 L 189.58 43.14 L 190.12 42.63 L 190.70 42.17 L 191.31 41.75 L 191.95 41.37 L 192.61 41.01 L 193.28 40.66 L 193.95 40.33 L 194.63 40.00 L 195.30 39.67 L 195.98 39.34 L 196.66 39.01 L 197.33 38.69 L 198.00 38.37 L 198.68 38.05 L 199.37 37.73 L 200.09 37.40 L 200.84 37.05 L 201.63 36.69 L 202.42 36.34 L 203.20 36.00 L 203.94 35.67 L 204.65 35.36 L 205.36 35.05 L 206.06 34.74 L 206.77 34.43 L 207.47 34.12 L 208.17 33.82 L 208.87 33.51 L 209.56 33.20 L 210.24 32.88 L 210.92 32.57 L 211.59 32.25 L 212.26 31.93 L 212.94 31.61 L 213.61 31.28 L 214.30 30.97 L 214.99 30.66 L 215.70 30.37 L 216.41 30.10 L 217.14 29.86 L 217.87 29.64 L 218.61 29.46 L 219.34 29.30 L 220.08 29.18 L 220.82 29.08 L 221.56 29.01 L 222.30 28.97 L 223.05 28.96 L 223.79 28.98 L 224.54 29.04 L 225.29 29.12 L 226.04 29.24 L 226.77 29.38 L 227.50 29.56 L 228.22 29.76 L 228.93 29.99 L 229.63 30.24 L 230.31 30.53 L 230.98 30.84 L 231.64 31.18 L 232.28 31.54 L 232.92 31.93 L 233.53 32.35 L 234.13 32.79 L 234.71 33.25 L 235.27 33.74 L 235.82 34.25 L 236.34 34.79 L 236.84 35.35 L 237.31 35.93 L 237.77 36.54 L 238.21 37.21 L 238.65 37.92 L 239.07 38.68 L 239.46 39.45 L 239.81 40.22 L 240.11 40.96 L 240.36 41.70 L 240.57 42.42 L 240.76 43.15 L 240.92 43.88 L 241.05 44.61 L 241.15 45.34 L 241.22 46.08 L 241.25 46.82 L 241.25 47.57 L 241.23 48.33 L 241.16 49.09 L 241.07 49.85 L 240.94 50.62 L 240.78 51.38 L 240.59 52.13 L 240.37 52.88 L 240.13 53.61 L 239.86 54.32 L 239.57 55.03 L 239.27 55.72 L 238.95 56.41 L 238.62 57.08 L 238.29 57.76 L 237.95 58.43 L 237.60 59.11 L 237.26 59.79 L 236.91 60.48 L 236.55 61.17 L 236.19 61.86 L 235.82 62.56 L 235.44 63.25 L 235.07 63.96 L 234.69 64.66 L 234.31 65.37 L 233.94 66.07 L 233.56 66.78 L 233.19 67.49 L 232.82 68.20 L 232.45 68.91 L 232.08 69.61 L 231.71 70.32 L 231.32 71.04 L 230.93 71.79 L 230.52 72.56 L 230.11 73.33 L 229.72 74.08 L 229.36 74.79 L 229.01 75.47 L 228.69 76.13 L 228.37 76.80 L 228.07 77.46 L 227.77 78.13 L 227.46 78.80 L 227.16 79.48 L 226.85 80.16 L 226.53 80.84 L 226.20 81.52 L 225.87 82.20 L 225.53 82.88 L 225.17 83.55 L 224.79 84.21 L 224.39 84.86 Z" />
</symbol>
<symbol id="bl3">
<path d="M 355.93 440.88 L 354.94 442.90 L 353.90 444.89 L 352.81 446.85 L 351.67 448.78 L 350.47 450.68 L 349.23 452.55 L 347.94 454.39 L 346.60 456.18 L 345.21 457.95 L 343.78 459.68 L 342.30 461.37 L 340.78 463.02 L 339.22 464.64 L 337.61 466.21 L 335.96 467.74 L 334.28 469.22 L 332.55 470.66 L 330.79 472.06 L 328.99 473.41 L 327.16 474.71 L 325.29 475.97 L 323.39 477.17 L 321.46 478.32 L 319.51 479.43 L 317.52 480.48 L 315.51 481.48 L 313.47 482.43 L 311.41 483.33 L 309.32 484.16 L 307.22 484.95 L 305.09 485.68 L 302.95 486.36 L 300.79 486.98 L 298.61 487.54 L 296.42 488.04 L 294.21 488.49 L 292.00 488.88 L 289.78 489.21 L 287.55 489.49 L 285.31 489.70 L 283.08 489.86 L 280.83 489.96 L 278.59 490.00 L 276.35 489.98 L 274.10 489.91 L 271.87 489.77 L 269.63 489.58 L 267.40 489.33 L 265.18 489.02 L 262.97 488.65 L 260.77 488.23 L 258.58 487.75 L 256.40 487.21 L 254.24 486.61 L 252.09 485.96 L 249.96 485.26 L 247.86 484.50 L 245.77 483.69 L 243.71 482.82 L 241.66 481.90 L 239.65 480.92 L 237.66 479.89 L 235.69 478.81 L 233.76 477.68 L 231.86 476.50 L 229.99 475.27 L 228.15 473.99 L 226.34 472.66 L 224.57 471.29 L 222.84 469.87 L 221.14 468.41 L 219.49 466.90 L 217.88 465.35 L 216.30 463.76 L 214.77 462.13 L 213.28 460.46 L 211.84 458.75 L 210.44 457.01 L 209.08 455.22 L 207.78 453.41 L 206.52 451.56 L 205.31 449.67 L 204.15 447.76 L 203.04 445.81 L 201.98 443.84 L 200.98 441.83 L 200.03 439.81 L 199.13 437.76 L 198.28 435.68 L 197.49 433.59 L 196.76 431.47 L 196.08 429.34 L 195.45 427.19 L 194.89 425.02 L 194.38 422.84 L 193.93 420.64 L 193.53 418.43 L 193.20 416.21 L 192.92 413.99 L 192.70 411.76 L 192.54 409.52 L 192.44 407.28 L 192.40 405.04 L 192.42 402.80 L 192.50 400.56 L 192.63 398.32 L 192.82 396.08 L 193.08 393.85 L 193.39 391.63 L 193.76 389.41 L 194.19 387.21 L 194.68 385.01 L 195.22 382.84 L 195.82 380.67 L 196.48 378.53 L 197.20 376.40 L 197.97 374.29 L 198.79 372.21 L 199.67 370.14 L 200.60 368.10 L 201.58 366.08 L 202.62 364.09 L 203.71 362.13 L 204.85 360.20 L 206.05 358.30 L 207.29 356.43 L 208.58 354.59 L 209.92 352.79 L 211.31 351.02 L 212.74 349.30 L 214.22 347.61 L 215.74 345.95 L 217.30 344.34 L 218.90 342.77 L 220.55 341.24 L 222.23 339.75 L 223.95 338.31 L 225.70 336.92 L 227.50 335.57 L 229.33 334.26 L 231.19 333.01 L 233.09 331.80 L 235.01 330.64 L 236.96 329.54 L 238.94 328.48 L 240.95 327.48 L 242.99 326.53 L 245.05 325.63 L 247.14 324.79 L 249.24 324.00 L 251.37 323.26 L 253.51 322.58 L 255.67 321.96 L 257.85 321.39 L 260.04 320.89 L 262.24 320.43 L 264.46 320.04 L 266.68 319.70 L 268.91 319.42 L 271.15 319.20 L 273.39 319.04 L 275.64 318.94 L 277.89 318.89 L 280.14 318.90 L 282.38 318.97 L 284.63 319.10 L 286.87 319.29 L 289.10 319.54 L 291.33 319.84 L 293.55 320.21 L 295.76 320.63 L 297.96 321.11 L 300.14 321.64 L 302.31 322.23 L 304.46 322.88 L 306.59 323.59 L 308.71 324.35 L 310.80 325.16 L 312.87 326.03 L 314.92 326.96 L 316.94 327.93 L 318.94 328.96 L 320.91 330.04 L 322.85 331.17 L 324.75 332.36 L 326.63 333.59 L 328.48 334.87 L 330.29 336.20 L 332.06 337.58 L 333.80 339.00 L 335.50 340.47 L 337.16 341.98 L 338.78 343.53 L 340.36 345.13 L 341.89 346.76 L 343.38 348.44 L 344.83 350.15 L 346.23 351.90 L 347.58 353.68 L 348.89 355.50 L 350.15 357.35 L 351.35 359.24 L 352.51 361.16 L 353.62 363.11 L 354.67 365.09 L 355.68 367.10 L 356.63 369.13 L 357.52 371.18 L 358.37 373.26 L 359.15 375.36 L 359.88 377.48 L 360.56 379.62 L 361.18 381.78 L 361.74 383.95 L 362.25 386.13 L 362.69 388.33 L 363.08 390.54 L 363.42 392.76 L 363.69 394.99 L 363.90 397.22 L 364.06 399.46 L 364.16 401.71 L 364.19 403.95 L 364.17 406.20 L 364.09 408.44 L 363.95 410.68 L 363.75 412.92 L 363.49 415.15 L 363.18 417.37 L 362.80 419.59 L 362.37 421.79 L 361.88 423.98 L 361.34 426.15 L 360.73 428.31 L 360.07 430.46 L 359.36 432.59 L 358.58 434.69 L 357.75 436.78 L 356.87 438.85 Z" />
</symbol>
</defs>
<!-- isDone: 0 -->
<rect width="700" height="500" style="fill:#fff;stroke-width:0" />
<use class="p0 borderLine" xlink:href="#bl0"/>
<use class="p1 borderLine" xlink:href="#bl1"/>
<use class="p2 borderLine" xlink:href="#bl2"/>
<use class="p3 borderLine" xlink:href="#bl3"/>
<use class="q0 outLine" xlink:href="#bl0"/>
<use class="q1 outLine" xlink:href="#bl1"/>
<use class="q2 outLine" xlink:href="#bl2"/>
<use class="q3 outLine" xlink:href="#bl3"/>
<circle onclick="fromCircle(8)" class="circle" cx="213.3941" cy="164.6673" r="69.6518" />
<text class="nLabel" x="213.39" y="159.67">369</text>
<text class="belong" x="213.39" y="169.67">(1)</text>
<circle onclick="fromCircle(12)" class="circle" cx="161.8574" cy="79.4400" r="22.3517" />
<text class="nLabel" x="161.86" y="74.44">38</text>
<text class="belong" x="161.86" y="84.44">(1, 2)</text>
<circle onclick="fromCircle(14)" class="circle" cx="193.5964" cy="64.2926" r="5.1278" />
<text class="nLabel" x="193.60" y="59.29">2</text>
<text class="belong" x="193.60" y="69.29">(1, 2, 3)</text>
<circle onclick="fromCircle(4)" class="circle" cx="169.5942" cy="31.9924" r="18.4887" />
<text class="nLabel" x="169.59" y="26.99">26</text>
<text class="belong" x="169.59" y="36.99">(2)</text>
<circle onclick="fromCircle(6)" class="circle" cx="195.7833" cy="49.2524" r="5.1278" />
<text class="nLabel" x="195.78" y="44.25">2</text>
<text class="belong" x="195.78" y="54.25">(2, 3)</text>
<circle onclick="fromCircle(2)" class="circle" cx="222.8845" cy="47.0903" r="14.5037" />
<text class="nLabel" x="222.88" y="42.09">16</text>
<text class="belong" x="222.88" y="52.09">(3)</text>
<circle onclick="fromCircle(10)" class="circle" cx="212.5606" cy="77.0013" r="10.2557" />
<text class="nLabel" x="212.56" y="72.00">8</text>
<text class="belong" x="212.56" y="82.00">(1, 3)</text>
<circle onclick="fromCircle(1)" class="circle" cx="278.7041" cy="406.0395" r="82.5247" />
<text class="nLabel" x="278.70" y="401.04">518</text>
<text class="belong" x="278.70" y="411.04">(4)</text>
<g id="legendBox">
<rect class="p0 borderLine" x="500.00" y="50.00" width="30.00" height="15.00" />
<rect class="q0" x="500.00" y="50.00" width="30.00" height="15.00" />
<text class="legend" x="540.00" y="65.00">bike UGA_2010</text>
<rect class="p1 borderLine" x="500.00" y="90.00" width="30.00" height="15.00" />
<rect class="q1" x="500.00" y="90.00" width="30.00" height="15.00" />
<text class="legend" x="540.00" y="105.00">motorbike UGA_2010</text>
<rect class="p2 borderLine" x="500.00" y="130.00" width="30.00" height="15.00" />
<rect class="q2" x="500.00" y="130.00" width="30.00" height="15.00" />
<text class="legend" x="540.00" y="145.00">motor_vehicle UGA_2010</text>
<rect class="p3 borderLine" x="500.00" y="170.00" width="30.00" height="15.00" />
<rect class="q3" x="500.00" y="170.00" width="30.00" height="15.00" />
<text class="legend" x="540.00" y="185.00">no_transport UGA_2010</text>
</g>
</svg>
