<svg xmlns="http://www.w3.org/2000/svg" xmlns:xlink="http://www.w3.org/1999/xlink" width="700" height="500">
<defs>
<style type="text/css"><![CDATA[
  .borderLine {
	   stroke: none;
	   fill-opacity:  0.4 ;
  }
  .outLine {
	   stroke-width:  1 ;
	   fill: none;
  }
  .circle {
	   stroke: #888888;
	   stroke-width: 0.5;
	   fill: none;
    pointer-events: all;
  }
  .nLabel {
	   font-family: Arial;
    pointer-events: none;
	   font-size: 10px;
	   text-anchor: middle;
	   alignment-baseline: central;
  }
  .belong {
	   font-family: Arial;
    pointer-events: none;
	   font-size: 5px;
	   text-anchor: middle;
	   alignment-baseline: central;
  }
  .legend {
    font-family: Arial;
    font-size: 15px;
  }
  #legendBox {
    display:  inline ;
  }
  .p0{
    stroke: none;
    fill:  #00F ;
  }
  .q0{
    fill: none;
    stroke:  #00F ;
  }
  .p1{
    stroke: none;
    fill:  #0F0 ;
  }
  .q1{
    fill: none;
    stroke:  #0F0 ;
  }
  .p2{
    stroke: none;
    fill:  #F00 ;
  }
  .q2{
    fill: none;
    stroke:  #F00 ;
  }
  .p3{
    stroke: none;
    fill:  #000 ;
  }
  .q3{
    fill: none;
    stroke:  #000 ;
  }
]]>
</style>
<symbol id="bl0">
<path d="M 279.79 178.62 L 279.26 180.69 L 278.67 182.73 L 278.02 184.76 L 277.31 186.76 L 276.54 188.74 L 275.71 190.70 L 274.83 192.63 L 273.88 194.54 L 272.88 196.41 L 271.82 198.26 L 270.71 200.07 L 269.55 201.85 L 268.33 203.59 L 267.06 205.30 L 265.74 206.96 L 264.38 208.59 L 262.96 210.17 L 261.51 211.72 L 260.00 213.21 L 258.46 214.66 L 256.88 216.06 L 255.26 217.41 L 253.60 218.70 L 251.91 219.95 L 250.18 221.15 L 248.41 222.30 L 246.61 223.39 L 244.78 224.43 L 242.91 225.42 L 241.01 226.36 L 239.07 227.24 L 237.11 228.06 L 235.13 228.83 L 233.12 229.53 L 231.10 230.17 L 229.07 230.76 L 227.02 231.28 L 224.96 231.74 L 222.89 232.14 L 220.80 232.48 L 218.70 232.75 L 216.59 232.97 L 214.48 233.12 L 212.36 233.20 L 210.24 233.23 L 208.13 233.19 L 206.01 233.09 L 203.90 232.93 L 201.80 232.70 L 199.71 232.41 L 197.63 232.07 L 195.56 231.66 L 193.51 231.19 L 191.48 230.66 L 189.47 230.08 L 187.48 229.43 L 185.50 228.73 L 183.55 227.96 L 181.61 227.14 L 179.70 226.26 L 177.81 225.32 L 175.95 224.33 L 174.11 223.28 L 172.31 222.17 L 170.54 221.01 L 168.80 219.80 L 167.10 218.53 L 165.43 217.21 L 163.80 215.85 L 162.22 214.44 L 160.68 212.98 L 159.18 211.48 L 157.74 209.94 L 156.34 208.36 L 154.99 206.74 L 153.70 205.08 L 152.45 203.39 L 151.25 201.65 L 150.10 199.88 L 149.01 198.08 L 147.97 196.24 L 146.98 194.37 L 146.05 192.48 L 145.17 190.56 L 144.36 188.61 L 143.60 186.64 L 142.90 184.65 L 142.26 182.63 L 141.68 180.60 L 141.15 178.56 L 140.69 176.49 L 140.30 174.41 L 139.96 172.32 L 139.68 170.22 L 139.47 168.12 L 139.31 166.00 L 139.20 163.89 L 139.13 161.77 L 139.09 159.65 L 139.07 157.54 L 139.05 155.43 L 139.03 153.32 L 139.01 151.21 L 138.99 149.10 L 138.97 146.99 L 138.95 144.88 L 138.92 142.78 L 138.90 140.67 L 138.87 138.56 L 138.85 136.44 L 138.82 134.32 L 138.79 132.19 L 138.77 130.07 L 138.74 127.94 L 138.72 125.81 L 138.70 123.69 L 138.68 121.57 L 138.66 119.45 L 138.63 117.34 L 138.61 115.23 L 138.57 113.12 L 138.54 111.02 L 138.50 108.91 L 138.45 106.81 L 138.41 104.70 L 138.36 102.59 L 138.32 100.49 L 138.29 98.38 L 138.25 96.27 L 138.23 94.17 L 138.21 92.07 L 138.19 89.97 L 138.19 87.86 L 138.19 85.76 L 138.21 83.66 L 138.28 81.56 L 138.42 79.46 L 138.68 77.38 L 139.09 75.33 L 139.66 73.32 L 140.40 71.37 L 141.31 69.49 L 142.39 67.70 L 143.62 66.02 L 144.99 64.45 L 146.50 63.01 L 148.13 61.71 L 149.88 60.57 L 151.72 59.59 L 153.65 58.78 L 155.67 58.15 L 157.78 57.71 L 159.97 57.45 L 162.23 57.37 L 164.53 57.44 L 166.82 57.66 L 169.09 57.98 L 171.31 58.38 L 173.51 58.81 L 175.69 59.27 L 177.86 59.73 L 180.03 60.18 L 182.20 60.61 L 184.37 61.02 L 186.55 61.41 L 188.74 61.78 L 190.93 62.16 L 193.12 62.60 L 195.29 63.12 L 197.43 63.75 L 199.55 64.48 L 201.65 65.29 L 203.74 66.16 L 205.82 67.10 L 207.89 68.12 L 209.92 69.24 L 211.89 70.45 L 213.77 71.72 L 215.55 73.03 L 217.25 74.37 L 218.88 75.72 L 220.48 77.07 L 222.07 78.43 L 223.66 79.79 L 225.26 81.16 L 226.86 82.53 L 228.47 83.90 L 230.10 85.28 L 231.72 86.66 L 233.35 88.04 L 234.99 89.42 L 236.62 90.80 L 238.26 92.18 L 239.90 93.56 L 241.55 94.95 L 243.19 96.33 L 244.84 97.72 L 246.49 99.10 L 248.13 100.48 L 249.78 101.86 L 251.42 103.24 L 253.05 104.62 L 254.68 106.00 L 256.30 107.39 L 257.88 108.80 L 259.44 110.25 L 260.97 111.75 L 262.45 113.28 L 263.89 114.86 L 265.28 116.48 L 266.63 118.15 L 267.92 119.86 L 269.17 121.61 L 270.37 123.40 L 271.50 125.22 L 272.58 127.07 L 273.61 128.95 L 274.58 130.87 L 275.48 132.80 L 276.33 134.76 L 277.12 136.74 L 277.85 138.75 L 278.52 140.78 L 279.12 142.82 L 279.67 144.88 L 280.15 146.96 L 280.57 149.05 L 280.92 151.15 L 281.22 153.26 L 281.45 155.37 L 281.61 157.49 L 281.72 159.62 L 281.76 161.75 L 281.73 163.88 L 281.65 166.00 L 281.49 168.12 L 281.28 170.24 L 281.00 172.35 L 280.66 174.45 L 280.25 176.54 Z" />
</symbol>
<symbol id="bl1">
<path d="M 185.80 87.56 L 185.20 88.47 L 184.59 89.38 L 183.99 90.30 L 183.37 91.21 L 182.75 92.12 L 182.13 93.02 L 181.49 93.90 L 180.83 94.77 L 180.14 95.61 L 179.43 96.42 L 178.68 97.20 L 177.88 97.95 L 177.04 98.66 L 176.14 99.35 L 175.19 100.01 L 174.20 100.64 L 173.17 101.25 L 172.13 101.80 L 171.09 102.30 L 170.06 102.74 L 169.02 103.11 L 167.98 103.43 L 166.93 103.69 L 165.87 103.91 L 164.80 104.07 L 163.72 104.18 L 162.63 104.24 L 161.54 104.25 L 160.45 104.22 L 159.36 104.13 L 158.27 103.99 L 157.19 103.81 L 156.13 103.57 L 155.08 103.29 L 154.04 102.96 L 153.02 102.58 L 152.02 102.15 L 151.04 101.68 L 150.08 101.16 L 149.15 100.60 L 148.24 100.00 L 147.37 99.36 L 146.52 98.68 L 145.71 97.96 L 144.93 97.20 L 144.18 96.41 L 143.48 95.59 L 142.81 94.73 L 142.18 93.84 L 141.59 92.93 L 141.04 91.99 L 140.54 91.02 L 140.08 90.03 L 139.67 89.02 L 139.30 87.99 L 138.98 86.94 L 138.71 85.89 L 138.49 84.82 L 138.32 83.75 L 138.19 82.68 L 138.11 81.60 L 138.08 80.52 L 138.09 79.44 L 138.13 78.37 L 138.19 77.30 L 138.26 76.23 L 138.34 75.16 L 138.42 74.09 L 138.50 73.01 L 138.58 71.94 L 138.66 70.86 L 138.74 69.78 L 138.82 68.69 L 138.90 67.61 L 138.98 66.52 L 139.05 65.44 L 139.12 64.36 L 139.19 63.28 L 139.26 62.20 L 139.33 61.12 L 139.40 60.05 L 139.46 58.98 L 139.53 57.91 L 139.60 56.84 L 139.66 55.77 L 139.73 54.71 L 139.79 53.64 L 139.84 52.56 L 139.91 51.47 L 139.97 50.39 L 140.03 49.30 L 140.09 48.22 L 140.16 47.14 L 140.22 46.07 L 140.27 44.99 L 140.33 43.92 L 140.39 42.85 L 140.44 41.79 L 140.50 40.73 L 140.56 39.68 L 140.62 38.62 L 140.67 37.57 L 140.72 36.52 L 140.76 35.46 L 140.81 34.40 L 140.87 33.33 L 140.95 32.27 L 141.06 31.21 L 141.21 30.15 L 141.40 29.09 L 141.64 28.04 L 141.93 27.00 L 142.25 25.97 L 142.63 24.96 L 143.05 23.97 L 143.51 23.00 L 144.01 22.06 L 144.55 21.14 L 145.13 20.24 L 145.76 19.38 L 146.43 18.54 L 147.13 17.73 L 147.88 16.95 L 148.66 16.21 L 149.47 15.50 L 150.32 14.83 L 151.19 14.20 L 152.10 13.61 L 153.03 13.05 L 153.99 12.55 L 154.97 12.08 L 155.96 11.66 L 156.97 11.28 L 158.00 10.95 L 159.04 10.67 L 160.09 10.44 L 161.15 10.26 L 162.22 10.12 L 163.29 10.04 L 164.37 10.00 L 165.45 10.01 L 166.53 10.07 L 167.61 10.18 L 168.69 10.34 L 169.75 10.55 L 170.81 10.80 L 171.85 11.10 L 172.88 11.45 L 173.88 11.85 L 174.86 12.30 L 175.83 12.78 L 176.77 13.31 L 177.68 13.88 L 178.56 14.49 L 179.42 15.14 L 180.24 15.82 L 181.02 16.53 L 181.78 17.28 L 182.49 18.06 L 183.17 18.87 L 183.81 19.71 L 184.43 20.57 L 185.01 21.46 L 185.58 22.37 L 186.13 23.29 L 186.68 24.21 L 187.22 25.13 L 187.77 26.05 L 188.31 26.97 L 188.86 27.89 L 189.41 28.81 L 189.96 29.73 L 190.51 30.65 L 191.06 31.57 L 191.62 32.49 L 192.17 33.42 L 192.72 34.35 L 193.27 35.28 L 193.82 36.21 L 194.36 37.14 L 194.90 38.07 L 195.43 39.00 L 195.97 39.94 L 196.50 40.88 L 197.03 41.82 L 197.57 42.75 L 198.11 43.69 L 198.66 44.63 L 199.20 45.57 L 199.73 46.52 L 200.24 47.49 L 200.70 48.49 L 201.09 49.51 L 201.40 50.58 L 201.61 51.68 L 201.72 52.81 L 201.72 53.96 L 201.62 55.09 L 201.44 56.20 L 201.19 57.26 L 200.91 58.31 L 200.60 59.34 L 200.29 60.36 L 199.97 61.38 L 199.66 62.40 L 199.35 63.42 L 199.02 64.44 L 198.70 65.47 L 198.36 66.49 L 198.02 67.51 L 197.67 68.52 L 197.29 69.50 L 196.86 70.44 L 196.37 71.34 L 195.83 72.21 L 195.26 73.06 L 194.67 73.93 L 194.08 74.81 L 193.48 75.71 L 192.88 76.62 L 192.29 77.53 L 191.69 78.44 L 191.10 79.35 L 190.51 80.27 L 189.93 81.18 L 189.34 82.10 L 188.75 83.01 L 188.17 83.92 L 187.58 84.83 L 186.99 85.74 L 186.40 86.65 Z" />
</symbol>
<symbol id="bl2">
<path d="M 214.51 86.53 L 213.98 87.02 L 213.45 87.51 L 212.90 87.97 L 212.34 88.41 L 211.76 88.82 L 211.16 89.19 L 210.53 89.53 L 209.88 89.84 L 209.21 90.11 L 208.52 90.33 L 207.81 90.52 L 207.07 90.66 L 206.32 90.76 L 205.56 90.81 L 204.79 90.82 L 204.03 90.78 L 203.29 90.69 L 202.55 90.56 L 201.84 90.37 L 201.14 90.14 L 200.46 89.87 L 199.79 89.55 L 199.15 89.19 L 198.53 88.79 L 197.93 88.36 L 197.37 87.88 L 196.83 87.38 L 196.32 86.85 L 195.84 86.30 L 195.37 85.74 L 194.91 85.16 L 194.45 84.59 L 193.99 84.01 L 193.53 83.44 L 193.06 82.87 L 192.60 82.29 L 192.13 81.72 L 191.66 81.15 L 191.20 80.58 L 190.73 80.02 L 190.27 79.45 L 189.81 78.89 L 189.35 78.33 L 188.88 77.77 L 188.41 77.22 L 187.94 76.66 L 187.46 76.10 L 186.98 75.54 L 186.50 74.98 L 186.02 74.41 L 185.55 73.84 L 185.08 73.25 L 184.63 72.63 L 184.21 71.97 L 183.83 71.28 L 183.51 70.55 L 183.24 69.81 L 183.05 69.08 L 182.91 68.35 L 182.82 67.62 L 182.76 66.90 L 182.71 66.17 L 182.68 65.45 L 182.64 64.71 L 182.61 63.98 L 182.58 63.24 L 182.54 62.51 L 182.51 61.78 L 182.48 61.04 L 182.44 60.32 L 182.40 59.59 L 182.36 58.87 L 182.32 58.14 L 182.29 57.41 L 182.25 56.69 L 182.22 55.97 L 182.19 55.25 L 182.17 54.53 L 182.17 53.81 L 182.19 53.10 L 182.24 52.39 L 182.33 51.68 L 182.47 50.99 L 182.66 50.31 L 182.90 49.64 L 183.20 48.99 L 183.54 48.35 L 183.94 47.72 L 184.39 47.12 L 184.88 46.54 L 185.40 46.01 L 185.97 45.52 L 186.56 45.08 L 187.17 44.69 L 187.81 44.34 L 188.47 44.02 L 189.13 43.75 L 189.80 43.51 L 190.47 43.28 L 191.15 43.05 L 191.82 42.83 L 192.50 42.61 L 193.18 42.39 L 193.86 42.17 L 194.55 41.95 L 195.24 41.73 L 195.93 41.50 L 196.62 41.27 L 197.31 41.04 L 198.00 40.81 L 198.68 40.59 L 199.37 40.37 L 200.06 40.15 L 200.76 39.94 L 201.46 39.72 L 202.17 39.51 L 202.88 39.29 L 203.60 39.08 L 204.31 38.87 L 205.02 38.66 L 205.73 38.44 L 206.43 38.22 L 207.13 38.00 L 207.82 37.77 L 208.52 37.54 L 209.22 37.32 L 209.92 37.10 L 210.61 36.88 L 211.31 36.66 L 212.00 36.43 L 212.70 36.20 L 213.39 35.97 L 214.09 35.74 L 214.78 35.51 L 215.49 35.30 L 216.20 35.11 L 216.92 34.95 L 217.64 34.80 L 218.36 34.69 L 219.08 34.60 L 219.80 34.54 L 220.53 34.50 L 221.26 34.50 L 221.99 34.52 L 222.72 34.57 L 223.45 34.64 L 224.17 34.74 L 224.89 34.88 L 225.61 35.03 L 226.32 35.22 L 227.02 35.44 L 227.72 35.68 L 228.41 35.95 L 229.08 36.25 L 229.75 36.57 L 230.40 36.92 L 231.04 37.28 L 231.66 37.68 L 232.26 38.09 L 232.85 38.54 L 233.42 39.00 L 233.98 39.49 L 234.51 39.99 L 235.03 40.52 L 235.52 41.06 L 235.99 41.61 L 236.44 42.18 L 236.86 42.77 L 237.26 43.37 L 237.63 43.98 L 237.98 44.60 L 238.31 45.24 L 238.61 45.89 L 238.89 46.55 L 239.15 47.23 L 239.38 47.91 L 239.58 48.61 L 239.76 49.32 L 239.91 50.03 L 240.04 50.75 L 240.14 51.47 L 240.21 52.21 L 240.25 52.94 L 240.27 53.68 L 240.26 54.42 L 240.22 55.15 L 240.15 55.89 L 240.05 56.62 L 239.92 57.34 L 239.76 58.05 L 239.59 58.76 L 239.38 59.46 L 239.15 60.14 L 238.89 60.81 L 238.62 61.48 L 238.31 62.13 L 237.98 62.77 L 237.63 63.39 L 237.25 64.01 L 236.85 64.62 L 236.42 65.21 L 235.97 65.79 L 235.50 66.36 L 235.01 66.91 L 234.52 67.45 L 234.01 67.97 L 233.50 68.49 L 232.98 69.00 L 232.46 69.51 L 231.94 70.02 L 231.41 70.53 L 230.88 71.04 L 230.36 71.54 L 229.84 72.05 L 229.31 72.55 L 228.79 73.04 L 228.27 73.53 L 227.75 74.02 L 227.23 74.51 L 226.70 75.01 L 226.18 75.51 L 225.65 76.01 L 225.11 76.51 L 224.58 77.01 L 224.04 77.52 L 223.50 78.02 L 222.96 78.52 L 222.43 79.02 L 221.91 79.53 L 221.39 80.04 L 220.87 80.54 L 220.35 81.05 L 219.83 81.55 L 219.30 82.05 L 218.77 82.56 L 218.24 83.06 L 217.71 83.56 L 217.18 84.06 L 216.64 84.55 L 216.11 85.05 L 215.57 85.54 L 215.04 86.03 Z" />
</symbol>
<symbol id="bl3">
<path d="M 353.77 441.09 L 352.80 443.10 L 351.77 445.08 L 350.69 447.03 L 349.55 448.94 L 348.37 450.84 L 347.14 452.69 L 345.86 454.52 L 344.53 456.31 L 343.16 458.06 L 341.74 459.78 L 340.28 461.46 L 338.77 463.11 L 337.22 464.71 L 335.63 466.27 L 334.00 467.79 L 332.33 469.26 L 330.62 470.70 L 328.88 472.09 L 327.09 473.43 L 325.28 474.73 L 323.43 475.97 L 321.54 477.17 L 319.63 478.32 L 317.69 479.42 L 315.72 480.47 L 313.72 481.47 L 311.70 482.42 L 309.66 483.31 L 307.59 484.14 L 305.50 484.93 L 303.39 485.66 L 301.27 486.33 L 299.13 486.95 L 296.97 487.51 L 294.80 488.02 L 292.61 488.47 L 290.42 488.86 L 288.21 489.20 L 286.00 489.48 L 283.78 489.70 L 281.56 489.86 L 279.34 489.96 L 277.11 490.00 L 274.88 489.99 L 272.65 489.92 L 270.43 489.79 L 268.21 489.60 L 266.00 489.36 L 263.79 489.06 L 261.60 488.70 L 259.41 488.28 L 257.24 487.81 L 255.07 487.29 L 252.93 486.70 L 250.79 486.06 L 248.68 485.37 L 246.58 484.62 L 244.51 483.81 L 242.46 482.95 L 240.43 482.04 L 238.42 481.07 L 236.45 480.06 L 234.49 478.99 L 232.57 477.87 L 230.68 476.70 L 228.82 475.49 L 226.99 474.22 L 225.20 472.91 L 223.44 471.55 L 221.71 470.15 L 220.03 468.70 L 218.38 467.21 L 216.77 465.67 L 215.20 464.10 L 213.68 462.48 L 212.19 460.83 L 210.75 459.13 L 209.36 457.40 L 208.01 455.63 L 206.71 453.82 L 205.46 451.98 L 204.25 450.11 L 203.10 448.22 L 201.99 446.28 L 200.94 444.32 L 199.93 442.34 L 198.98 440.33 L 198.08 438.30 L 197.23 436.24 L 196.44 434.16 L 195.71 432.06 L 195.03 429.94 L 194.41 427.80 L 193.84 425.65 L 193.33 423.48 L 192.88 421.30 L 192.49 419.11 L 192.15 416.90 L 191.87 414.69 L 191.65 412.48 L 191.49 410.25 L 191.38 408.03 L 191.34 405.80 L 191.35 403.58 L 191.42 401.35 L 191.55 399.12 L 191.74 396.90 L 191.99 394.69 L 192.29 392.48 L 192.66 390.28 L 193.08 388.09 L 193.56 385.91 L 194.09 383.75 L 194.69 381.60 L 195.34 379.46 L 196.04 377.34 L 196.80 375.25 L 197.62 373.17 L 198.49 371.11 L 199.41 369.08 L 200.39 367.08 L 201.42 365.10 L 202.50 363.15 L 203.63 361.23 L 204.81 359.33 L 206.05 357.47 L 207.33 355.65 L 208.66 353.85 L 210.03 352.09 L 211.45 350.37 L 212.91 348.69 L 214.41 347.04 L 215.96 345.44 L 217.55 343.87 L 219.18 342.35 L 220.85 340.87 L 222.56 339.44 L 224.31 338.05 L 226.09 336.71 L 227.91 335.41 L 229.76 334.16 L 231.64 332.96 L 233.55 331.81 L 235.49 330.71 L 237.47 329.66 L 239.46 328.66 L 241.48 327.71 L 243.53 326.82 L 245.60 325.98 L 247.69 325.19 L 249.80 324.46 L 251.92 323.78 L 254.07 323.16 L 256.23 322.60 L 258.40 322.09 L 260.59 321.64 L 262.78 321.24 L 264.99 320.90 L 267.20 320.62 L 269.42 320.40 L 271.65 320.24 L 273.88 320.13 L 276.11 320.08 L 278.34 320.09 L 280.57 320.16 L 282.80 320.29 L 285.02 320.47 L 287.24 320.71 L 289.45 321.01 L 291.65 321.37 L 293.85 321.78 L 296.03 322.25 L 298.19 322.78 L 300.35 323.37 L 302.48 324.01 L 304.60 324.70 L 306.70 325.45 L 308.78 326.26 L 310.84 327.12 L 312.87 328.03 L 314.88 329.00 L 316.87 330.02 L 318.82 331.09 L 320.75 332.21 L 322.64 333.38 L 324.51 334.60 L 326.34 335.87 L 328.14 337.19 L 329.91 338.55 L 331.63 339.96 L 333.32 341.41 L 334.97 342.91 L 336.58 344.45 L 338.15 346.03 L 339.67 347.65 L 341.15 349.31 L 342.59 351.01 L 343.98 352.74 L 345.33 354.51 L 346.63 356.32 L 347.88 358.16 L 349.09 360.03 L 350.24 361.94 L 351.35 363.87 L 352.40 365.83 L 353.40 367.82 L 354.34 369.83 L 355.24 371.87 L 356.08 373.93 L 356.86 376.02 L 357.60 378.12 L 358.27 380.24 L 358.89 382.38 L 359.45 384.53 L 359.95 386.70 L 360.40 388.88 L 360.79 391.08 L 361.12 393.28 L 361.40 395.49 L 361.62 397.71 L 361.78 399.94 L 361.88 402.16 L 361.92 404.39 L 361.90 406.62 L 361.82 408.85 L 361.69 411.07 L 361.49 413.30 L 361.24 415.51 L 360.93 417.72 L 360.56 419.92 L 360.14 422.11 L 359.65 424.29 L 359.11 426.45 L 358.52 428.60 L 357.86 430.73 L 357.16 432.85 L 356.39 434.94 L 355.58 437.01 L 354.70 439.07 Z" />
</symbol>
</defs>
<!-- isDone: 0 -->
<rect width="700" height="500" style="fill:#fff;stroke-width:0" />
<use class="p0 borderLine" xlink:href="#bl0"/>
<use class="p1 borderLine" xlink:href="#bl1"/>
<use class="p2 borderLine" xlink:href="#bl2"/>
<use class="p3 borderLine" xlink:href="#bl3"/>
<use class="q0 outLine" xlink:href="#bl0"/>
<use class="q1 outLine" xlink:href="#bl1"/>
<use class="q2 outLine" xlink:href="#bl2"/>
<use class="q3 outLine" xlink:href="#bl3"/>
<circle onclick="fromCircle(8)" class="circle" cx="210.5008" cy="162.1206" r="67.6523" />
<text class="nLabel" x="210.50" y="157.12">368</text>
<text class="belong" x="210.50" y="167.12">(1)</text>
<circle onclick="fromCircle(12)" class="circle" cx="161.7316" cy="80.4029" r="19.9496" />
<text class="nLabel" x="161.73" y="75.40">32</text>
<text class="belong" x="161.73" y="85.40">(1, 2)</text>
<circle onclick="fromCircle(14)" class="circle" cx="190.1400" cy="67.7496" r="3.5266" />
<text class="nLabel" x="190.14" y="62.75">1</text>
<text class="belong" x="190.14" y="72.75">(1, 2, 3)</text>
<circle onclick="fromCircle(4)" class="circle" cx="164.5630" cy="33.4203" r="19.9496" />
<text class="nLabel" x="164.56" y="28.42">32</text>
<text class="belong" x="164.56" y="38.42">(2)</text>
<circle onclick="fromCircle(6)" class="circle" cx="192.0454" cy="53.0353" r="6.1083" />
<text class="nLabel" x="192.05" y="48.04">3</text>
<text class="belong" x="192.05" y="58.04">(2, 3)</text>
<circle onclick="fromCircle(2)" class="circle" cx="221.0561" cy="53.4778" r="15.3722" />
<text class="nLabel" x="221.06" y="48.48">19</text>
<text class="belong" x="221.06" y="58.48">(3)</text>
<circle onclick="fromCircle(10)" class="circle" cx="205.1248" cy="79.0261" r="7.8858" />
<text class="nLabel" x="205.12" y="74.03">5</text>
<text class="belong" x="205.12" y="84.03">(1, 3)</text>
<circle onclick="fromCircle(1)" class="circle" cx="277.0452" cy="406.6342" r="81.9512" />
<text class="nLabel" x="277.05" y="401.63">540</text>
<text class="belong" x="277.05" y="411.63">(4)</text>
<g id="legendBox">
<rect class="p0 borderLine" x="500.00" y="50.00" width="30.00" height="15.00" />
<rect class="q0" x="500.00" y="50.00" width="30.00" height="15.00" />
<text class="legend" x="540.00" y="65.00">bike UGA_2005</text>
<rect class="p1 borderLine" x="500.00" y="90.00" width="30.00" height="15.00" />
<rect class="q1" x="500.00" y="90.00" width="30.00" height="15.00" />
<text class="legend" x="540.00" y="105.00">motorbike UGA_2005</text>
<rect class="p2 borderLine" x="500.00" y="130.00" width="30.00" height="15.00" />
<rect class="q2" x="500.00" y="130.00" width="30.00" height="15.00" />
<text class="legend" x="540.00" y="145.00">motor_vehicle UGA_2005</text>
<rect class="p3 borderLine" x="500.00" y="170.00" width="30.00" height="15.00" />
<rect class="q3" x="500.00" y="170.00" width="30.00" height="15.00" />
<text class="legend" x="540.00" y="185.00">no_transport UGA_2005</text>
</g>
</svg>
