<svg xmlns="http://www.w3.org/2000/svg" xmlns:xlink="http://www.w3.org/1999/xlink" width="700" height="500">
<defs>
<style type="text/css"><![CDATA[
  .borderLine {
	   stroke: none;
	   fill-opacity:  0.4 ;
  }
  .outLine {
	   stroke-width:  1 ;
	   fill: none;
  }
  .circle {
	   stroke: #888888;
	   stroke-width: 0.5;
	   fill: none;
    pointer-events: all;
  }
  .nLabel {
	   font-family: Arial;
    pointer-events: none;
	   font-size: 10px;
	   text-anchor: middle;
	   alignment-baseline: central;
  }
  .belong {
	   font-family: Arial;
    pointer-events: none;
	   font-size: 5px;
	   text-anchor: middle;
	   alignment-baseline: central;
  }
  .legend {
    font-family: Arial;
    font-size: 15px;
  }
  #legendBox {
    display:  inline ;
  }
  .p0{
    stroke: none;
    fill:  #00F ;
  }
  .q0{
    fill: none;
    stroke:  #00F ;
  }
  .p1{
    stroke: none;
    fill:  #0F0 ;
  }
  .q1{
    fill: none;
    stroke:  #0F0 ;
  }
  .p2{
    stroke: none;
    fill:  #F00 ;
  }
  .q2{
    fill: none;
    stroke:  #F00 ;
  }
  .p3{
    stroke: none;
    fill:  #000 ;
  }
  .q3{
    fill: none;
    stroke:  #000 ;
  }
]]>
</style>
<symbol id="bl0">
<path d="M 260.77 176.79 L 260.71 179.01 L 260.59 181.26 L 260.41 183.53 L 260.16 185.83 L 259.83 188.15 L 259.41 190.47 L 258.89 192.81 L 258.25 195.20 L 257.50 197.67 L 256.66 200.19 L 255.74 202.68 L 254.78 205.03 L 253.78 207.23 L 252.75 209.33 L 251.68 211.38 L 250.54 213.39 L 249.33 215.35 L 248.01 217.25 L 246.61 219.10 L 245.14 220.90 L 243.61 222.65 L 242.02 224.36 L 240.39 226.03 L 238.71 227.67 L 236.98 229.27 L 235.17 230.82 L 233.30 232.33 L 231.36 233.78 L 229.35 235.18 L 227.29 236.52 L 225.18 237.80 L 223.02 239.00 L 220.82 240.11 L 218.57 241.13 L 216.28 242.06 L 213.97 242.90 L 211.63 243.67 L 209.27 244.36 L 206.91 244.99 L 204.52 245.55 L 202.13 246.03 L 199.71 246.42 L 197.28 246.70 L 194.85 246.90 L 192.42 247.00 L 190.00 247.02 L 187.60 246.99 L 185.22 246.89 L 182.86 246.72 L 180.52 246.47 L 178.20 246.10 L 175.91 245.64 L 173.64 245.09 L 171.38 244.46 L 169.14 243.77 L 166.92 243.02 L 164.70 242.21 L 162.50 241.33 L 160.32 240.36 L 158.16 239.30 L 156.02 238.15 L 153.91 236.91 L 151.84 235.59 L 149.80 234.20 L 147.81 232.73 L 145.88 231.19 L 144.01 229.59 L 142.20 227.95 L 140.47 226.27 L 138.81 224.57 L 137.22 222.84 L 135.71 221.08 L 134.27 219.29 L 132.90 217.46 L 131.60 215.58 L 130.36 213.64 L 129.18 211.62 L 128.06 209.52 L 126.99 207.34 L 125.97 205.11 L 125.00 202.82 L 124.11 200.51 L 123.31 198.18 L 122.60 195.84 L 121.99 193.49 L 121.47 191.14 L 121.04 188.78 L 120.68 186.40 L 120.40 183.99 L 120.20 181.57 L 120.08 179.12 L 120.03 176.66 L 120.06 174.21 L 120.16 171.77 L 120.35 169.37 L 120.62 167.01 L 120.98 164.68 L 121.43 162.38 L 121.95 160.10 L 122.56 157.83 L 123.25 155.56 L 124.02 153.30 L 124.85 151.05 L 125.76 148.82 L 126.75 146.63 L 127.80 144.47 L 128.92 142.36 L 130.11 140.28 L 131.36 138.25 L 132.69 136.26 L 134.09 134.32 L 135.56 132.43 L 137.09 130.60 L 138.69 128.83 L 140.35 127.14 L 142.04 125.50 L 143.76 123.91 L 145.49 122.35 L 147.22 120.79 L 148.95 119.23 L 150.67 117.66 L 152.40 116.09 L 154.14 114.54 L 155.89 113.01 L 157.65 111.52 L 159.40 110.06 L 161.14 108.61 L 162.87 107.18 L 164.59 105.74 L 166.30 104.31 L 168.01 102.87 L 169.72 101.41 L 171.42 99.94 L 173.11 98.45 L 174.80 96.94 L 176.51 95.43 L 178.23 93.93 L 179.98 92.46 L 181.74 91.00 L 183.51 89.53 L 185.25 88.04 L 186.96 86.49 L 188.61 84.88 L 190.18 83.18 L 191.64 81.39 L 192.95 79.50 L 194.08 77.52 L 195.02 75.45 L 195.75 73.32 L 196.29 71.10 L 196.64 68.77 L 196.86 66.31 L 197.02 63.75 L 197.26 61.19 L 197.73 58.75 L 198.57 56.48 L 199.88 54.37 L 201.69 52.42 L 203.89 50.64 L 206.28 49.04 L 208.67 47.62 L 210.93 46.32 L 213.03 45.06 L 214.99 43.74 L 216.86 42.34 L 218.71 40.96 L 220.61 39.73 L 222.60 38.77 L 224.68 38.16 L 226.81 37.91 L 228.94 38.04 L 231.01 38.54 L 232.98 39.40 L 234.77 40.59 L 236.36 42.08 L 237.71 43.81 L 238.82 45.76 L 239.74 47.93 L 240.55 50.29 L 241.29 52.80 L 242.03 55.31 L 242.79 57.72 L 243.57 60.00 L 244.37 62.21 L 245.19 64.41 L 246.02 66.70 L 246.85 69.12 L 247.66 71.65 L 248.44 74.21 L 249.17 76.72 L 249.85 79.20 L 250.46 81.73 L 251.01 84.35 L 251.49 86.98 L 251.89 89.52 L 252.23 91.96 L 252.53 94.31 L 252.80 96.63 L 253.05 98.94 L 253.29 101.26 L 253.54 103.57 L 253.78 105.89 L 254.01 108.21 L 254.22 110.53 L 254.45 112.85 L 254.70 115.17 L 254.99 117.49 L 255.30 119.80 L 255.62 122.12 L 255.94 124.44 L 256.23 126.76 L 256.51 129.08 L 256.79 131.40 L 257.06 133.72 L 257.34 136.05 L 257.62 138.38 L 257.90 140.71 L 258.18 143.03 L 258.45 145.32 L 258.72 147.59 L 258.99 149.84 L 259.26 152.07 L 259.51 154.29 L 259.72 156.52 L 259.90 158.77 L 260.04 161.04 L 260.18 163.32 L 260.32 165.60 L 260.47 167.87 L 260.60 170.12 L 260.70 172.35 L 260.76 174.57 Z" />
</symbol>
<symbol id="bl1">
<path d="M 246.53 103.73 L 245.75 104.71 L 244.93 105.66 L 244.05 106.57 L 243.11 107.45 L 242.11 108.30 L 241.05 109.13 L 239.94 109.92 L 238.83 110.64 L 237.74 111.27 L 236.67 111.80 L 235.60 112.24 L 234.50 112.61 L 233.38 112.92 L 232.24 113.17 L 231.07 113.38 L 229.89 113.55 L 228.71 113.67 L 227.52 113.75 L 226.32 113.78 L 225.11 113.74 L 223.88 113.63 L 222.64 113.45 L 221.39 113.18 L 220.14 112.84 L 218.91 112.45 L 217.74 112.02 L 216.62 111.58 L 215.53 111.13 L 214.46 110.67 L 213.35 110.19 L 212.18 109.70 L 210.98 109.20 L 209.75 108.72 L 208.52 108.25 L 207.29 107.80 L 206.08 107.35 L 204.87 106.91 L 203.67 106.46 L 202.47 106.01 L 201.27 105.56 L 200.08 105.14 L 198.87 104.73 L 197.66 104.33 L 196.44 103.95 L 195.22 103.55 L 194.01 103.14 L 192.80 102.71 L 191.58 102.26 L 190.34 101.80 L 189.10 101.31 L 187.87 100.80 L 186.65 100.27 L 185.45 99.73 L 184.25 99.19 L 183.05 98.67 L 181.86 98.16 L 180.68 97.65 L 179.52 97.15 L 178.37 96.65 L 177.24 96.16 L 176.12 95.68 L 175.01 95.22 L 173.90 94.75 L 172.82 94.26 L 171.75 93.76 L 170.69 93.22 L 169.65 92.68 L 168.61 92.12 L 167.57 91.57 L 166.54 91.04 L 165.50 90.52 L 164.47 90.01 L 163.46 89.50 L 162.46 88.97 L 161.47 88.42 L 160.49 87.84 L 159.51 87.20 L 158.49 86.48 L 157.43 85.65 L 156.35 84.71 L 155.28 83.66 L 154.25 82.53 L 153.27 81.32 L 152.39 80.06 L 151.60 78.78 L 150.93 77.49 L 150.35 76.23 L 149.86 74.98 L 149.44 73.73 L 149.08 72.44 L 148.79 71.13 L 148.57 69.81 L 148.44 68.51 L 148.38 67.25 L 148.39 66.02 L 148.47 64.81 L 148.60 63.60 L 148.80 62.34 L 149.06 61.03 L 149.42 59.67 L 149.87 58.29 L 150.42 56.93 L 151.06 55.59 L 151.78 54.30 L 152.55 53.08 L 153.38 51.95 L 154.25 50.91 L 155.14 49.98 L 156.03 49.14 L 156.91 48.37 L 157.80 47.65 L 158.72 46.97 L 159.67 46.32 L 160.68 45.72 L 161.73 45.17 L 162.83 44.66 L 163.97 44.19 L 165.13 43.77 L 166.32 43.39 L 167.52 43.08 L 168.73 42.84 L 169.92 42.66 L 171.09 42.55 L 172.24 42.49 L 173.37 42.49 L 174.48 42.53 L 175.59 42.63 L 176.68 42.77 L 177.79 42.95 L 178.90 43.18 L 180.05 43.45 L 181.25 43.78 L 182.50 44.14 L 183.76 44.50 L 185.01 44.82 L 186.25 45.10 L 187.52 45.39 L 188.85 45.71 L 190.22 46.06 L 191.62 46.43 L 192.99 46.78 L 194.32 47.10 L 195.59 47.38 L 196.81 47.65 L 198.01 47.91 L 199.18 48.16 L 200.35 48.40 L 201.52 48.63 L 202.70 48.85 L 203.88 49.08 L 205.06 49.32 L 206.25 49.59 L 207.47 49.90 L 208.72 50.27 L 209.96 50.74 L 211.14 51.32 L 212.24 52.05 L 213.23 52.91 L 214.10 53.89 L 214.88 54.97 L 215.61 56.09 L 216.35 57.20 L 217.13 58.24 L 217.97 59.20 L 218.89 60.06 L 219.88 60.83 L 220.94 61.49 L 222.08 62.04 L 223.29 62.49 L 224.56 62.84 L 225.86 63.10 L 227.15 63.30 L 228.43 63.46 L 229.68 63.62 L 230.88 63.81 L 232.06 64.03 L 233.20 64.29 L 234.33 64.60 L 235.43 64.95 L 236.53 65.37 L 237.62 65.84 L 238.72 66.36 L 239.80 66.94 L 240.88 67.56 L 241.92 68.23 L 242.89 68.98 L 243.79 69.79 L 244.61 70.68 L 245.38 71.59 L 246.11 72.54 L 246.80 73.51 L 247.47 74.51 L 248.11 75.55 L 248.71 76.62 L 249.27 77.72 L 249.80 78.85 L 250.30 80.04 L 250.75 81.30 L 251.16 82.66 L 251.47 84.11 L 251.66 85.62 L 251.75 87.15 L 251.74 88.65 L 251.67 90.07 L 251.54 91.39 L 251.36 92.64 L 251.13 93.84 L 250.83 95.01 L 250.48 96.18 L 250.08 97.33 L 249.62 98.46 L 249.11 99.57 L 248.54 100.66 L 247.92 101.71 L 247.25 102.73 Z" />
</symbol>
<symbol id="bl2">
<path d="M 235.69 60.04 L 235.06 60.52 L 234.41 60.97 L 233.71 61.39 L 232.95 61.78 L 232.13 62.14 L 231.28 62.45 L 230.44 62.71 L 229.64 62.90 L 228.87 63.04 L 228.13 63.13 L 227.39 63.17 L 226.65 63.19 L 225.86 63.18 L 225.03 63.17 L 224.15 63.17 L 223.25 63.22 L 222.35 63.31 L 221.46 63.45 L 220.61 63.64 L 219.77 63.89 L 218.94 64.19 L 218.12 64.53 L 217.30 64.88 L 216.47 65.24 L 215.65 65.61 L 214.86 66.03 L 214.10 66.48 L 213.37 66.95 L 212.66 67.40 L 211.96 67.85 L 211.26 68.27 L 210.54 68.65 L 209.77 68.99 L 208.97 69.27 L 208.16 69.48 L 207.32 69.60 L 206.48 69.62 L 205.61 69.55 L 204.73 69.40 L 203.83 69.17 L 202.93 68.88 L 202.07 68.50 L 201.26 68.05 L 200.50 67.52 L 199.81 66.91 L 199.17 66.24 L 198.60 65.54 L 198.09 64.80 L 197.66 64.03 L 197.30 63.24 L 196.98 62.40 L 196.69 61.52 L 196.41 60.63 L 196.15 59.75 L 195.89 58.90 L 195.60 58.09 L 195.30 57.30 L 194.95 56.51 L 194.57 55.72 L 194.19 54.92 L 193.82 54.14 L 193.50 53.39 L 193.23 52.65 L 193.01 51.92 L 192.81 51.19 L 192.62 50.47 L 192.41 49.75 L 192.18 49.03 L 191.94 48.31 L 191.68 47.59 L 191.42 46.88 L 191.17 46.16 L 190.93 45.44 L 190.69 44.73 L 190.43 44.00 L 190.15 43.27 L 189.83 42.52 L 189.47 41.74 L 189.07 40.95 L 188.63 40.17 L 188.18 39.42 L 187.75 38.70 L 187.37 38.01 L 187.05 37.32 L 186.78 36.62 L 186.55 35.91 L 186.32 35.18 L 186.10 34.43 L 185.89 33.65 L 185.70 32.87 L 185.54 32.09 L 185.42 31.31 L 185.35 30.54 L 185.33 29.77 L 185.34 29.00 L 185.37 28.22 L 185.42 27.42 L 185.49 26.60 L 185.62 25.79 L 185.82 24.98 L 186.06 24.19 L 186.33 23.41 L 186.61 22.66 L 186.90 21.92 L 187.22 21.18 L 187.58 20.44 L 187.99 19.69 L 188.44 18.95 L 188.92 18.21 L 189.42 17.49 L 189.94 16.80 L 190.47 16.15 L 191.01 15.55 L 191.58 14.99 L 192.17 14.47 L 192.79 13.97 L 193.43 13.51 L 194.11 13.06 L 194.83 12.64 L 195.61 12.23 L 196.46 11.86 L 197.37 11.53 L 198.32 11.22 L 199.28 10.93 L 200.21 10.67 L 201.09 10.43 L 201.92 10.23 L 202.70 10.08 L 203.45 10.00 L 204.20 10.00 L 204.95 10.06 L 205.71 10.15 L 206.47 10.27 L 207.24 10.41 L 208.01 10.57 L 208.77 10.76 L 209.53 10.97 L 210.27 11.19 L 211.00 11.43 L 211.72 11.69 L 212.43 12.00 L 213.14 12.37 L 213.84 12.78 L 214.52 13.23 L 215.17 13.71 L 215.81 14.20 L 216.43 14.71 L 217.03 15.23 L 217.63 15.79 L 218.22 16.39 L 218.80 17.02 L 219.36 17.67 L 219.87 18.31 L 220.36 18.92 L 220.82 19.52 L 221.29 20.12 L 221.76 20.76 L 222.22 21.43 L 222.66 22.16 L 223.07 22.90 L 223.44 23.62 L 223.80 24.29 L 224.17 24.93 L 224.57 25.55 L 225.02 26.15 L 225.51 26.78 L 226.03 27.43 L 226.55 28.09 L 227.06 28.74 L 227.57 29.37 L 228.06 30.01 L 228.57 30.64 L 229.08 31.28 L 229.60 31.93 L 230.12 32.58 L 230.64 33.22 L 231.15 33.88 L 231.63 34.53 L 232.10 35.18 L 232.56 35.82 L 233.02 36.44 L 233.48 37.05 L 233.95 37.65 L 234.44 38.27 L 234.93 38.89 L 235.44 39.52 L 235.96 40.14 L 236.48 40.78 L 237.00 41.42 L 237.50 42.08 L 237.99 42.77 L 238.43 43.48 L 238.81 44.20 L 239.15 44.94 L 239.43 45.67 L 239.68 46.41 L 239.88 47.15 L 240.04 47.93 L 240.17 48.75 L 240.25 49.58 L 240.28 50.41 L 240.27 51.22 L 240.23 52.01 L 240.16 52.79 L 240.04 53.55 L 239.87 54.30 L 239.64 55.02 L 239.33 55.72 L 238.96 56.40 L 238.53 57.07 L 238.04 57.72 L 237.50 58.35 L 236.92 58.95 L 236.31 59.51 Z" />
</symbol>
<symbol id="bl3">
<path d="M 371.34 441.79 L 370.33 443.77 L 369.27 445.72 L 368.15 447.63 L 366.99 449.50 L 365.78 451.36 L 364.52 453.21 L 363.22 455.05 L 361.88 456.87 L 360.47 458.65 L 359.00 460.40 L 357.48 462.10 L 355.91 463.75 L 354.30 465.37 L 352.65 466.95 L 350.99 468.52 L 349.30 470.06 L 347.58 471.57 L 345.82 473.01 L 344.00 474.37 L 342.13 475.65 L 340.23 476.87 L 338.29 478.03 L 336.34 479.14 L 334.36 480.22 L 332.35 481.25 L 330.33 482.24 L 328.28 483.18 L 326.21 484.06 L 324.13 484.89 L 322.01 485.63 L 319.88 486.30 L 317.72 486.88 L 315.56 487.41 L 313.40 487.89 L 311.24 488.34 L 309.07 488.75 L 306.90 489.12 L 304.72 489.43 L 302.53 489.69 L 300.31 489.87 L 298.08 489.97 L 295.83 490.00 L 293.56 489.96 L 291.27 489.86 L 288.97 489.70 L 286.66 489.49 L 284.33 489.22 L 282.01 488.90 L 279.67 488.53 L 277.34 488.11 L 275.03 487.61 L 272.72 487.06 L 270.43 486.43 L 268.16 485.77 L 265.91 485.06 L 263.71 484.30 L 261.55 483.48 L 259.44 482.58 L 257.39 481.61 L 255.38 480.56 L 253.41 479.44 L 251.47 478.28 L 249.55 477.08 L 247.65 475.85 L 245.77 474.60 L 243.91 473.34 L 242.07 472.04 L 240.27 470.73 L 238.50 469.39 L 236.79 468.02 L 235.13 466.60 L 233.55 465.12 L 232.06 463.56 L 230.65 461.92 L 229.31 460.22 L 228.03 458.46 L 226.78 456.67 L 225.57 454.87 L 224.36 453.07 L 223.15 451.27 L 221.93 449.48 L 220.67 447.66 L 219.39 445.76 L 218.09 443.73 L 216.81 441.57 L 215.64 439.37 L 214.61 437.20 L 213.74 435.09 L 213.01 433.03 L 212.40 430.97 L 211.88 428.90 L 211.44 426.80 L 211.09 424.69 L 210.79 422.54 L 210.53 420.38 L 210.29 418.15 L 210.07 415.82 L 209.87 413.30 L 209.72 410.57 L 209.62 407.66 L 209.59 404.63 L 209.60 401.54 L 209.65 398.46 L 209.74 395.42 L 209.91 392.51 L 210.20 389.80 L 210.63 387.33 L 211.18 385.07 L 211.82 382.94 L 212.52 380.88 L 213.26 378.86 L 214.03 376.84 L 214.82 374.84 L 215.64 372.85 L 216.51 370.86 L 217.45 368.86 L 218.49 366.80 L 219.64 364.65 L 220.90 362.44 L 222.20 360.25 L 223.50 358.17 L 224.79 356.24 L 226.10 354.43 L 227.45 352.70 L 228.84 351.02 L 230.27 349.37 L 231.73 347.76 L 233.22 346.17 L 234.73 344.59 L 236.27 343.03 L 237.85 341.49 L 239.49 339.99 L 241.19 338.55 L 242.95 337.16 L 244.76 335.83 L 246.61 334.55 L 248.52 333.33 L 250.46 332.18 L 252.44 331.09 L 254.46 330.06 L 256.51 329.07 L 258.57 328.13 L 260.66 327.22 L 262.78 326.36 L 264.93 325.55 L 267.11 324.79 L 269.32 324.07 L 271.56 323.41 L 273.82 322.81 L 276.11 322.26 L 278.42 321.78 L 280.75 321.37 L 283.08 321.02 L 285.41 320.73 L 287.73 320.51 L 290.05 320.35 L 292.36 320.26 L 294.65 320.23 L 296.92 320.26 L 299.18 320.35 L 301.41 320.50 L 303.63 320.69 L 305.84 320.92 L 308.03 321.21 L 310.21 321.56 L 312.38 321.97 L 314.54 322.44 L 316.70 322.97 L 318.86 323.54 L 321.01 324.18 L 323.16 324.88 L 325.28 325.67 L 327.37 326.54 L 329.45 327.46 L 331.50 328.43 L 333.52 329.44 L 335.50 330.48 L 337.46 331.56 L 339.39 332.67 L 341.31 333.81 L 343.20 334.98 L 345.08 336.19 L 346.93 337.45 L 348.75 338.76 L 350.53 340.14 L 352.25 341.61 L 353.89 343.17 L 355.46 344.80 L 356.99 346.48 L 358.48 348.19 L 359.94 349.94 L 361.35 351.72 L 362.71 353.55 L 364.02 355.41 L 365.27 357.31 L 366.47 359.23 L 367.62 361.17 L 368.75 363.13 L 369.84 365.11 L 370.90 367.10 L 371.91 369.13 L 372.86 371.20 L 373.75 373.29 L 374.59 375.42 L 375.36 377.56 L 376.08 379.72 L 376.76 381.90 L 377.39 384.09 L 377.96 386.29 L 378.45 388.51 L 378.87 390.75 L 379.20 393.01 L 379.46 395.27 L 379.65 397.55 L 379.80 399.82 L 379.90 402.10 L 379.96 404.39 L 379.97 406.69 L 379.93 408.99 L 379.83 411.28 L 379.65 413.57 L 379.38 415.84 L 379.02 418.10 L 378.57 420.34 L 378.05 422.57 L 377.49 424.78 L 376.89 426.97 L 376.23 429.15 L 375.53 431.32 L 374.79 433.46 L 374.00 435.59 L 373.16 437.69 L 372.28 439.76 Z" />
</symbol>
</defs>
<!-- isDone: 0 -->
<rect width="700" height="500" style="fill:#fff;stroke-width:0" />
<use class="p0 borderLine" xlink:href="#bl0"/>
<use class="p1 borderLine" xlink:href="#bl1"/>
<use class="p2 borderLine" xlink:href="#bl2"/>
<use class="p3 borderLine" xlink:href="#bl3"/>
<use class="q0 outLine" xlink:href="#bl0"/>
<use class="q1 outLine" xlink:href="#bl1"/>
<use class="q2 outLine" xlink:href="#bl2"/>
<use class="q3 outLine" xlink:href="#bl3"/>
<circle onclick="fromCircle(8)" class="circle" cx="190.2377" cy="176.7669" r="66.7305" />
<text class="nLabel" x="190.24" y="171.77">359</text>
<text class="belong" x="190.24" y="181.77">(1)</text>
<circle onclick="fromCircle(12)" class="circle" cx="226.4467" cy="88.4274" r="21.4229" />
<text class="nLabel" x="226.45" y="83.43">37</text>
<text class="belong" x="226.45" y="93.43">(1, 2)</text>
<circle onclick="fromCircle(14)" class="circle" cx="206.4490" cy="59.4888" r="6.1001" />
<text class="nLabel" x="206.45" y="54.49">3</text>
<text class="belong" x="206.45" y="64.49">(1, 2, 3)</text>
<circle onclick="fromCircle(4)" class="circle" cx="172.7029" cy="66.5795" r="20.5360" />
<text class="nLabel" x="172.70" y="61.58">34</text>
<text class="belong" x="172.70" y="71.58">(2)</text>
<circle onclick="fromCircle(2)" class="circle" cx="204.1249" cy="28.8183" r="14.9422" />
<text class="nLabel" x="204.12" y="23.82">18</text>
<text class="belong" x="204.12" y="33.82">(3)</text>
<circle onclick="fromCircle(10)" class="circle" cx="227.0471" cy="49.8494" r="9.3181" />
<text class="nLabel" x="227.05" y="44.85">7</text>
<text class="belong" x="227.05" y="54.85">(1, 3)</text>
<circle onclick="fromCircle(1)" class="circle" cx="295.0540" cy="406.3645" r="81.6899" />
<text class="nLabel" x="295.05" y="401.36">538</text>
<text class="belong" x="295.05" y="411.36">(4)</text>
<g id="legendBox">
<rect class="p0 borderLine" x="500.00" y="50.00" width="30.00" height="15.00" />
<rect class="q0" x="500.00" y="50.00" width="30.00" height="15.00" />
<text class="legend" x="540.00" y="65.00">bike UGA_2011</text>
<rect class="p1 borderLine" x="500.00" y="90.00" width="30.00" height="15.00" />
<rect class="q1" x="500.00" y="90.00" width="30.00" height="15.00" />
<text class="legend" x="540.00" y="105.00">motorbike UGA_2011</text>
<rect class="p2 borderLine" x="500.00" y="130.00" width="30.00" height="15.00" />
<rect class="q2" x="500.00" y="130.00" width="30.00" height="15.00" />
<text class="legend" x="540.00" y="145.00">motor_vehicle UGA_2011</text>
<rect class="p3 borderLine" x="500.00" y="170.00" width="30.00" height="15.00" />
<rect class="q3" x="500.00" y="170.00" width="30.00" height="15.00" />
<text class="legend" x="540.00" y="185.00">no_transport UGA_2011</text>
</g>
</svg>
