<svg xmlns="http://www.w3.org/2000/svg" xmlns:xlink="http://www.w3.org/1999/xlink" width="700" height="500">
<defs>
<style type="text/css"><![CDATA[
  .borderLine {
	   stroke: none;
	   fill-opacity:  0.4 ;
  }
  .outLine {
	   stroke-width:  1 ;
	   fill: none;
  }
  .circle {
	   stroke: #888888;
	   stroke-width: 0.5;
	   fill: none;
    pointer-events: all;
  }
  .nLabel {
	   font-family: Arial;
    pointer-events: none;
	   font-size: 10px;
	   text-anchor: middle;
	   alignment-baseline: central;
  }
  .belong {
	   font-family: Arial;
    pointer-events: none;
	   font-size: 5px;
	   text-anchor: middle;
	   alignment-baseline: central;
  }
  .legend {
    font-family: Arial;
    font-size: 15px;
  }
  #legendBox {
    display:  inline ;
  }
  .p0{
    stroke: none;
    fill:  #00F ;
  }
  .q0{
    fill: none;
    stroke:  #00F ;
  }
  .p1{
    stroke: none;
    fill:  #0F0 ;
  }
  .q1{
    fill: none;
    stroke:  #0F0 ;
  }
  .p2{
    stroke: none;
    fill:  #F00 ;
  }
  .q2{
    fill: none;
    stroke:  #F00 ;
  }
  .p3{
    stroke: none;
    fill:  #000 ;
  }
  .q3{
    fill: none;
    stroke:  #000 ;
  }
]]>
</style>
<symbol id="bl0">
<path d="M 290.88 174.31 L 290.18 176.26 L 289.42 178.21 L 288.58 180.15 L 287.68 182.08 L 286.72 184.00 L 285.69 185.89 L 284.60 187.75 L 283.45 189.57 L 282.24 191.35 L 280.98 193.09 L 279.68 194.77 L 278.32 196.41 L 276.93 197.98 L 275.51 199.50 L 274.04 200.96 L 272.55 202.37 L 271.01 203.74 L 269.41 205.07 L 267.73 206.37 L 265.93 207.67 L 263.95 208.98 L 261.80 210.31 L 259.49 211.62 L 257.09 212.87 L 254.65 214.03 L 252.25 215.06 L 249.92 215.97 L 247.70 216.75 L 245.58 217.41 L 243.49 217.97 L 241.41 218.46 L 239.33 218.88 L 237.22 219.23 L 235.11 219.51 L 233.00 219.73 L 230.91 219.88 L 228.82 219.97 L 226.76 219.99 L 224.71 219.95 L 222.67 219.84 L 220.65 219.67 L 218.64 219.44 L 216.63 219.15 L 214.63 218.80 L 212.62 218.39 L 210.63 217.91 L 208.64 217.36 L 206.65 216.76 L 204.68 216.09 L 202.71 215.36 L 200.76 214.56 L 198.82 213.70 L 196.88 212.76 L 194.96 211.75 L 193.05 210.66 L 191.16 209.50 L 189.28 208.25 L 187.43 206.94 L 185.62 205.55 L 183.85 204.11 L 182.13 202.60 L 180.47 201.04 L 178.86 199.43 L 177.32 197.78 L 175.84 196.09 L 174.42 194.35 L 173.07 192.57 L 171.78 190.75 L 170.56 188.89 L 169.40 187.01 L 168.30 185.09 L 167.26 183.16 L 166.29 181.20 L 165.38 179.23 L 164.52 177.26 L 163.70 175.30 L 162.92 173.34 L 162.15 171.37 L 161.38 169.38 L 160.59 167.32 L 159.78 165.16 L 158.93 162.94 L 158.08 160.72 L 157.26 158.56 L 156.46 156.50 L 155.69 154.51 L 154.92 152.55 L 154.16 150.60 L 153.40 148.67 L 152.64 146.75 L 151.90 144.84 L 151.16 142.94 L 150.43 141.06 L 149.70 139.17 L 148.97 137.29 L 148.23 135.39 L 147.49 133.48 L 146.75 131.57 L 146.01 129.64 L 145.28 127.70 L 144.55 125.77 L 143.83 123.85 L 143.12 121.93 L 142.40 120.03 L 141.69 118.15 L 140.98 116.27 L 140.27 114.38 L 139.57 112.49 L 138.88 110.58 L 138.18 108.65 L 137.46 106.68 L 136.70 104.62 L 135.92 102.46 L 135.14 100.22 L 134.40 97.96 L 133.78 95.74 L 133.29 93.58 L 132.96 91.49 L 132.79 89.43 L 132.77 87.38 L 132.91 85.36 L 133.20 83.37 L 133.64 81.41 L 134.23 79.48 L 134.97 77.61 L 135.86 75.78 L 136.91 74.02 L 138.09 72.32 L 139.41 70.71 L 140.86 69.20 L 142.43 67.81 L 144.10 66.55 L 145.86 65.42 L 147.69 64.44 L 149.60 63.62 L 151.57 62.94 L 153.60 62.43 L 155.69 62.06 L 157.84 61.84 L 160.08 61.74 L 162.43 61.70 L 164.92 61.68 L 167.55 61.63 L 170.30 61.55 L 173.12 61.46 L 175.96 61.36 L 178.80 61.28 L 181.60 61.23 L 184.31 61.23 L 186.91 61.28 L 189.37 61.40 L 191.72 61.59 L 193.98 61.87 L 196.21 62.25 L 198.42 62.73 L 200.64 63.32 L 202.87 63.96 L 205.12 64.66 L 207.40 65.39 L 209.71 66.17 L 212.02 67.00 L 214.29 67.88 L 216.45 68.83 L 218.47 69.83 L 220.38 70.88 L 222.21 71.95 L 224.00 73.04 L 225.78 74.13 L 227.57 75.23 L 229.36 76.33 L 231.16 77.43 L 232.96 78.52 L 234.76 79.62 L 236.57 80.70 L 238.38 81.77 L 240.18 82.82 L 241.97 83.86 L 243.76 84.90 L 245.53 85.93 L 247.30 86.95 L 249.06 87.96 L 250.84 88.96 L 252.62 89.95 L 254.42 90.94 L 256.22 91.93 L 258.02 92.93 L 259.81 93.96 L 261.58 95.02 L 263.32 96.12 L 265.04 97.27 L 266.73 98.46 L 268.38 99.70 L 270.00 101.00 L 271.58 102.34 L 273.12 103.74 L 274.61 105.18 L 276.05 106.66 L 277.45 108.19 L 278.81 109.76 L 280.12 111.39 L 281.38 113.06 L 282.60 114.78 L 283.77 116.54 L 284.89 118.34 L 285.95 120.17 L 286.94 122.02 L 287.88 123.91 L 288.75 125.82 L 289.57 127.74 L 290.32 129.69 L 291.01 131.63 L 291.63 133.58 L 292.18 135.54 L 292.68 137.51 L 293.11 139.51 L 293.48 141.52 L 293.79 143.56 L 294.05 145.61 L 294.23 147.67 L 294.36 149.74 L 294.43 151.80 L 294.42 153.87 L 294.35 155.95 L 294.22 158.04 L 294.02 160.13 L 293.76 162.21 L 293.43 164.29 L 293.04 166.34 L 292.60 168.37 L 292.09 170.37 L 291.51 172.35 Z" />
</symbol>
<symbol id="bl1">
<path d="M 175.49 109.30 L 174.53 110.03 L 173.53 110.72 L 172.52 111.34 L 171.49 111.91 L 170.45 112.42 L 169.39 112.89 L 168.32 113.31 L 167.24 113.68 L 166.13 114.01 L 165.01 114.28 L 163.86 114.50 L 162.70 114.68 L 161.52 114.80 L 160.31 114.88 L 159.10 114.90 L 157.89 114.87 L 156.67 114.78 L 155.45 114.64 L 154.23 114.44 L 153.03 114.17 L 151.83 113.86 L 150.65 113.49 L 149.49 113.06 L 148.35 112.59 L 147.26 112.08 L 146.19 111.52 L 145.17 110.93 L 144.17 110.28 L 143.20 109.59 L 142.24 108.84 L 141.31 108.03 L 140.39 107.16 L 139.51 106.23 L 138.66 105.26 L 137.87 104.25 L 137.11 103.20 L 136.42 102.12 L 135.77 101.01 L 135.18 99.87 L 134.65 98.71 L 134.17 97.54 L 133.75 96.37 L 133.40 95.19 L 133.10 94.02 L 132.86 92.83 L 132.68 91.63 L 132.55 90.41 L 132.48 89.15 L 132.45 87.86 L 132.48 86.55 L 132.53 85.22 L 132.61 83.90 L 132.72 82.57 L 132.83 81.26 L 132.95 79.95 L 133.08 78.66 L 133.20 77.38 L 133.33 76.11 L 133.46 74.87 L 133.58 73.64 L 133.69 72.44 L 133.80 71.25 L 133.89 70.08 L 133.97 68.92 L 134.04 67.76 L 134.11 66.62 L 134.18 65.46 L 134.24 64.30 L 134.31 63.13 L 134.38 61.92 L 134.47 60.70 L 134.56 59.47 L 134.67 58.23 L 134.78 56.98 L 134.90 55.75 L 135.03 54.53 L 135.15 53.32 L 135.27 52.12 L 135.40 50.92 L 135.52 49.72 L 135.64 48.51 L 135.77 47.29 L 135.89 46.07 L 136.02 44.84 L 136.14 43.61 L 136.26 42.38 L 136.36 41.15 L 136.45 39.93 L 136.53 38.70 L 136.61 37.47 L 136.70 36.25 L 136.80 35.02 L 136.94 33.81 L 137.10 32.62 L 137.30 31.45 L 137.54 30.29 L 137.83 29.15 L 138.17 28.03 L 138.55 26.93 L 138.97 25.85 L 139.44 24.79 L 139.96 23.75 L 140.52 22.74 L 141.12 21.75 L 141.78 20.80 L 142.49 19.87 L 143.28 18.95 L 144.13 18.03 L 145.05 17.12 L 146.02 16.25 L 146.98 15.45 L 147.95 14.72 L 148.92 14.06 L 149.90 13.46 L 150.91 12.91 L 151.94 12.40 L 153.01 11.93 L 154.12 11.52 L 155.27 11.15 L 156.44 10.82 L 157.65 10.55 L 158.86 10.33 L 160.07 10.16 L 161.29 10.05 L 162.52 10.00 L 163.75 10.01 L 164.99 10.08 L 166.23 10.21 L 167.46 10.41 L 168.69 10.66 L 169.91 10.97 L 171.11 11.34 L 172.29 11.78 L 173.46 12.26 L 174.59 12.81 L 175.70 13.40 L 176.78 14.05 L 177.81 14.75 L 178.82 15.49 L 179.78 16.28 L 180.71 17.11 L 181.59 17.98 L 182.42 18.88 L 183.20 19.80 L 183.93 20.74 L 184.60 21.69 L 185.22 22.65 L 185.81 23.61 L 186.38 24.57 L 186.93 25.54 L 187.47 26.50 L 188.00 27.48 L 188.52 28.48 L 189.03 29.49 L 189.54 30.53 L 190.06 31.60 L 190.60 32.71 L 191.16 33.87 L 191.75 35.05 L 192.34 36.23 L 192.91 37.36 L 193.47 38.44 L 194.02 39.49 L 194.57 40.53 L 195.15 41.60 L 195.77 42.71 L 196.43 43.85 L 197.10 44.99 L 197.78 46.11 L 198.43 47.21 L 199.07 48.35 L 199.66 49.52 L 200.16 50.74 L 200.54 51.99 L 200.80 53.27 L 200.94 54.56 L 201.00 55.87 L 201.02 57.16 L 201.02 58.42 L 201.01 59.65 L 201.01 60.87 L 200.99 62.10 L 200.97 63.38 L 200.93 64.70 L 200.90 66.05 L 200.86 67.40 L 200.79 68.70 L 200.68 69.95 L 200.50 71.15 L 200.23 72.32 L 199.88 73.46 L 199.45 74.59 L 198.93 75.70 L 198.33 76.79 L 197.67 77.87 L 196.96 78.95 L 196.23 80.02 L 195.49 81.08 L 194.77 82.13 L 194.06 83.16 L 193.37 84.18 L 192.70 85.21 L 192.04 86.25 L 191.39 87.29 L 190.74 88.35 L 190.10 89.41 L 189.45 90.48 L 188.79 91.54 L 188.13 92.61 L 187.46 93.67 L 186.80 94.73 L 186.14 95.79 L 185.49 96.86 L 184.85 97.91 L 184.21 98.95 L 183.56 99.98 L 182.90 101.00 L 182.21 102.01 L 181.49 103.00 L 180.73 103.98 L 179.94 104.94 L 179.10 105.88 L 178.23 106.79 L 177.34 107.66 L 176.43 108.50 Z" />
</symbol>
<symbol id="bl2">
<path d="M 222.27 77.86 L 221.84 78.42 L 221.43 79.00 L 221.02 79.60 L 220.62 80.22 L 220.22 80.85 L 219.82 81.48 L 219.41 82.09 L 218.98 82.69 L 218.53 83.27 L 218.05 83.83 L 217.53 84.38 L 216.94 84.91 L 216.28 85.41 L 215.54 85.88 L 214.77 86.30 L 213.98 86.66 L 213.19 86.93 L 212.40 87.14 L 211.59 87.29 L 210.74 87.38 L 209.84 87.40 L 208.90 87.36 L 207.95 87.25 L 206.99 87.09 L 206.04 86.88 L 205.11 86.65 L 204.19 86.39 L 203.28 86.09 L 202.38 85.75 L 201.49 85.38 L 200.61 84.98 L 199.74 84.57 L 198.89 84.14 L 198.09 83.73 L 197.31 83.34 L 196.58 82.98 L 195.85 82.65 L 195.13 82.33 L 194.40 82.01 L 193.66 81.71 L 192.94 81.43 L 192.23 81.15 L 191.52 80.89 L 190.81 80.63 L 190.06 80.36 L 189.27 80.07 L 188.45 79.75 L 187.60 79.39 L 186.76 78.96 L 185.95 78.48 L 185.17 77.93 L 184.45 77.31 L 183.80 76.64 L 183.23 75.93 L 182.74 75.19 L 182.33 74.43 L 181.98 73.66 L 181.71 72.89 L 181.51 72.11 L 181.37 71.33 L 181.30 70.55 L 181.29 69.78 L 181.32 69.01 L 181.38 68.24 L 181.46 67.47 L 181.55 66.71 L 181.65 65.97 L 181.74 65.24 L 181.85 64.51 L 181.96 63.77 L 182.07 63.02 L 182.19 62.25 L 182.31 61.47 L 182.43 60.68 L 182.54 59.88 L 182.65 59.07 L 182.75 58.26 L 182.86 57.45 L 182.98 56.64 L 183.11 55.84 L 183.26 55.05 L 183.41 54.27 L 183.58 53.50 L 183.77 52.75 L 183.98 52.02 L 184.22 51.32 L 184.51 50.64 L 184.83 50.00 L 185.20 49.37 L 185.61 48.78 L 186.06 48.21 L 186.58 47.68 L 187.14 47.19 L 187.75 46.74 L 188.40 46.33 L 189.07 45.96 L 189.77 45.61 L 190.48 45.27 L 191.19 44.95 L 191.90 44.61 L 192.59 44.26 L 193.29 43.90 L 193.97 43.51 L 194.65 43.12 L 195.32 42.71 L 196.00 42.31 L 196.67 41.90 L 197.33 41.49 L 197.99 41.08 L 198.64 40.66 L 199.30 40.23 L 199.96 39.81 L 200.62 39.39 L 201.29 38.97 L 201.94 38.57 L 202.58 38.19 L 203.22 37.81 L 203.84 37.43 L 204.46 37.05 L 205.07 36.64 L 205.70 36.23 L 206.33 35.81 L 206.98 35.39 L 207.62 34.97 L 208.26 34.55 L 208.90 34.13 L 209.53 33.72 L 210.17 33.33 L 210.81 32.97 L 211.47 32.65 L 212.13 32.37 L 212.81 32.13 L 213.50 31.92 L 214.20 31.72 L 214.90 31.53 L 215.60 31.36 L 216.32 31.21 L 217.04 31.08 L 217.76 30.98 L 218.50 30.93 L 219.25 30.91 L 220.02 30.92 L 220.79 30.96 L 221.58 31.02 L 222.36 31.12 L 223.15 31.26 L 223.93 31.44 L 224.69 31.66 L 225.46 31.90 L 226.22 32.19 L 227.02 32.52 L 227.84 32.90 L 228.67 33.33 L 229.47 33.79 L 230.22 34.26 L 230.91 34.73 L 231.54 35.20 L 232.13 35.67 L 232.70 36.15 L 233.24 36.66 L 233.75 37.19 L 234.23 37.76 L 234.68 38.36 L 235.11 39.00 L 235.52 39.66 L 235.92 40.34 L 236.30 41.05 L 236.66 41.77 L 237.00 42.50 L 237.30 43.24 L 237.57 43.97 L 237.81 44.71 L 238.01 45.45 L 238.17 46.19 L 238.31 46.93 L 238.41 47.67 L 238.49 48.43 L 238.54 49.21 L 238.56 50.04 L 238.54 50.91 L 238.47 51.82 L 238.34 52.73 L 238.18 53.60 L 237.99 54.43 L 237.79 55.20 L 237.57 55.92 L 237.32 56.61 L 237.05 57.28 L 236.76 57.93 L 236.44 58.57 L 236.11 59.19 L 235.75 59.81 L 235.37 60.45 L 234.95 61.10 L 234.49 61.79 L 233.98 62.52 L 233.43 63.29 L 232.85 64.08 L 232.25 64.87 L 231.65 65.64 L 231.06 66.39 L 230.48 67.12 L 229.92 67.82 L 229.40 68.49 L 228.89 69.16 L 228.38 69.85 L 227.85 70.57 L 227.30 71.32 L 226.73 72.10 L 226.17 72.88 L 225.61 73.64 L 225.08 74.35 L 224.57 75.02 L 224.08 75.63 L 223.62 76.20 L 223.16 76.76 L 222.71 77.31 Z" />
</symbol>
<symbol id="bl3">
<path d="M 359.44 441.51 L 358.47 443.49 L 357.44 445.45 L 356.37 447.38 L 355.24 449.28 L 354.07 451.16 L 352.85 453.00 L 351.58 454.80 L 350.27 456.58 L 348.91 458.32 L 347.51 460.03 L 346.06 461.70 L 344.57 463.32 L 343.03 464.91 L 341.45 466.46 L 339.83 467.96 L 338.18 469.43 L 336.48 470.85 L 334.75 472.23 L 332.98 473.56 L 331.18 474.84 L 329.35 476.08 L 327.49 477.27 L 325.59 478.41 L 323.67 479.50 L 321.71 480.54 L 319.74 481.52 L 317.73 482.46 L 315.70 483.34 L 313.65 484.18 L 311.57 484.96 L 309.48 485.68 L 307.37 486.35 L 305.24 486.97 L 303.09 487.53 L 300.93 488.03 L 298.76 488.48 L 296.57 488.87 L 294.38 489.20 L 292.17 489.47 L 289.97 489.69 L 287.75 489.85 L 285.53 489.95 L 283.31 490.00 L 281.08 489.99 L 278.86 489.91 L 276.64 489.78 L 274.42 489.58 L 272.21 489.34 L 270.01 489.03 L 267.82 488.67 L 265.64 488.24 L 263.47 487.77 L 261.31 487.24 L 259.17 486.65 L 257.05 486.00 L 254.94 485.30 L 252.85 484.55 L 250.78 483.74 L 248.74 482.88 L 246.72 481.96 L 244.72 480.99 L 242.75 479.97 L 240.81 478.91 L 238.90 477.79 L 237.03 476.62 L 235.18 475.40 L 233.37 474.13 L 231.59 472.82 L 229.85 471.46 L 228.14 470.05 L 226.47 468.61 L 224.84 467.12 L 223.25 465.59 L 221.70 464.02 L 220.19 462.40 L 218.73 460.75 L 217.31 459.06 L 215.93 457.34 L 214.60 455.58 L 213.32 453.79 L 212.09 451.97 L 210.91 450.11 L 209.77 448.23 L 208.69 446.32 L 207.66 444.38 L 206.67 442.41 L 205.74 440.43 L 204.87 438.41 L 204.04 436.38 L 203.27 434.32 L 202.55 432.25 L 201.89 430.16 L 201.28 428.05 L 200.73 425.93 L 200.24 423.79 L 199.80 421.64 L 199.41 419.48 L 199.09 417.31 L 198.81 415.14 L 198.60 412.95 L 198.44 410.76 L 198.33 408.57 L 198.29 406.38 L 198.30 404.19 L 198.37 401.99 L 198.50 399.80 L 198.69 397.62 L 198.94 395.44 L 199.25 393.26 L 199.61 391.10 L 200.02 388.94 L 200.49 386.80 L 201.02 384.67 L 201.60 382.55 L 202.24 380.44 L 202.93 378.36 L 203.68 376.29 L 204.48 374.24 L 205.33 372.21 L 206.24 370.21 L 207.19 368.22 L 208.20 366.27 L 209.26 364.34 L 210.38 362.44 L 211.54 360.56 L 212.76 358.72 L 214.02 356.91 L 215.34 355.13 L 216.69 353.38 L 218.10 351.67 L 219.54 350.00 L 221.03 348.36 L 222.57 346.76 L 224.14 345.21 L 225.76 343.69 L 227.42 342.21 L 229.11 340.78 L 230.84 339.40 L 232.61 338.05 L 234.41 336.76 L 236.25 335.51 L 238.12 334.31 L 240.02 333.16 L 241.95 332.06 L 243.90 331.01 L 245.89 330.01 L 247.90 329.07 L 249.94 328.17 L 252.00 327.33 L 254.08 326.54 L 256.18 325.81 L 258.30 325.13 L 260.44 324.51 L 262.59 323.94 L 264.76 323.43 L 266.94 322.98 L 269.13 322.59 L 271.33 322.25 L 273.54 321.97 L 275.76 321.75 L 277.98 321.59 L 280.21 321.48 L 282.44 321.44 L 284.67 321.44 L 286.90 321.51 L 289.12 321.64 L 291.34 321.82 L 293.55 322.06 L 295.76 322.36 L 297.95 322.72 L 300.14 323.13 L 302.31 323.61 L 304.46 324.14 L 306.61 324.72 L 308.73 325.37 L 310.84 326.06 L 312.93 326.82 L 315.00 327.62 L 317.04 328.48 L 319.06 329.39 L 321.06 330.35 L 323.02 331.37 L 324.96 332.43 L 326.87 333.55 L 328.75 334.71 L 330.59 335.93 L 332.41 337.19 L 334.19 338.50 L 335.93 339.86 L 337.64 341.26 L 339.31 342.70 L 340.95 344.19 L 342.54 345.72 L 344.09 347.29 L 345.60 348.90 L 347.07 350.54 L 348.49 352.23 L 349.86 353.95 L 351.20 355.72 L 352.48 357.51 L 353.72 359.34 L 354.91 361.20 L 356.05 363.09 L 357.14 365.01 L 358.18 366.96 L 359.17 368.93 L 360.10 370.93 L 360.99 372.95 L 361.81 375.00 L 362.59 377.06 L 363.30 379.15 L 363.97 381.25 L 364.58 383.37 L 365.13 385.51 L 365.63 387.66 L 366.07 389.82 L 366.45 391.99 L 366.78 394.17 L 367.05 396.37 L 367.26 398.56 L 367.41 400.76 L 367.51 402.97 L 367.55 405.18 L 367.52 407.38 L 367.45 409.59 L 367.31 411.79 L 367.12 413.99 L 366.86 416.19 L 366.55 418.37 L 366.19 420.55 L 365.76 422.72 L 365.28 424.87 L 364.74 427.02 L 364.15 429.14 L 363.50 431.25 L 362.79 433.34 L 362.04 435.42 L 361.22 437.47 L 360.36 439.50 Z" />
</symbol>
</defs>
<!-- isDone: 0 -->
<rect width="700" height="500" style="fill:#fff;stroke-width:0" />
<use class="p0 borderLine" xlink:href="#bl0"/>
<use class="p1 borderLine" xlink:href="#bl1"/>
<use class="p2 borderLine" xlink:href="#bl2"/>
<use class="p3 borderLine" xlink:href="#bl3"/>
<use class="q0 outLine" xlink:href="#bl0"/>
<use class="q1 outLine" xlink:href="#bl1"/>
<use class="q2 outLine" xlink:href="#bl2"/>
<use class="q3 outLine" xlink:href="#bl3"/>
<circle onclick="fromCircle(8)" class="circle" cx="227.2676" cy="152.8980" r="63.6111" />
<text class="nLabel" x="227.27" y="147.90">336</text>
<text class="belong" x="227.27" y="157.90">(1)</text>
<circle onclick="fromCircle(12)" class="circle" cx="159.0965" cy="88.0322" r="23.0191" />
<text class="nLabel" x="159.10" y="83.03">44</text>
<text class="belong" x="159.10" y="93.03">(1, 2)</text>
<circle onclick="fromCircle(14)" class="circle" cx="190.9826" cy="70.0625" r="6.0107" />
<text class="nLabel" x="190.98" y="65.06">3</text>
<text class="belong" x="190.98" y="75.06">(1, 2, 3)</text>
<circle onclick="fromCircle(4)" class="circle" cx="162.7677" cy="35.6517" r="22.2206" />
<text class="nLabel" x="162.77" y="30.65">41</text>
<text class="belong" x="162.77" y="40.65">(2)</text>
<circle onclick="fromCircle(6)" class="circle" cx="192.4096" cy="53.7230" r="4.9077" />
<text class="nLabel" x="192.41" y="48.72">2</text>
<text class="belong" x="192.41" y="58.72">(2, 3)</text>
<circle onclick="fromCircle(2)" class="circle" cx="219.5756" cy="49.6697" r="15.1265" />
<text class="nLabel" x="219.58" y="44.67">19</text>
<text class="belong" x="219.58" y="54.67">(3)</text>
<circle onclick="fromCircle(10)" class="circle" cx="209.9565" cy="76.6446" r="6.9405" />
<text class="nLabel" x="209.96" y="71.64">4</text>
<text class="belong" x="209.96" y="81.64">(1, 3)</text>
<circle onclick="fromCircle(1)" class="circle" cx="283.3640" cy="407.3200" r="81.3110" />
<text class="nLabel" x="283.36" y="402.32">549</text>
<text class="belong" x="283.36" y="412.32">(4)</text>
<g id="legendBox">
<rect class="p0 borderLine" x="500.00" y="50.00" width="30.00" height="15.00" />
<rect class="q0" x="500.00" y="50.00" width="30.00" height="15.00" />
<text class="legend" x="540.00" y="65.00">bike UGA_2013</text>
<rect class="p1 borderLine" x="500.00" y="90.00" width="30.00" height="15.00" />
<rect class="q1" x="500.00" y="90.00" width="30.00" height="15.00" />
<text class="legend" x="540.00" y="105.00">motorbike UGA_2013</text>
<rect class="p2 borderLine" x="500.00" y="130.00" width="30.00" height="15.00" />
<rect class="q2" x="500.00" y="130.00" width="30.00" height="15.00" />
<text class="legend" x="540.00" y="145.00">motor_vehicle UGA_2013</text>
<rect class="p3 borderLine" x="500.00" y="170.00" width="30.00" height="15.00" />
<rect class="q3" x="500.00" y="170.00" width="30.00" height="15.00" />
<text class="legend" x="540.00" y="185.00">no_transport UGA_2013</text>
</g>
</svg>
