<?xml version="1.0" encoding="UTF-8" standalone="no"?>
<svg
   width="700"
   height="500"
   version="1.1"
   id="svg90"
   sodipodi:docname="ALB_2002.svg"
   inkscape:version="1.1 (1:1.1+202106031931+af4d65493e)"
   xmlns:inkscape="http://www.inkscape.org/namespaces/inkscape"
   xmlns:sodipodi="http://sodipodi.sourceforge.net/DTD/sodipodi-0.dtd"
   xmlns:xlink="http://www.w3.org/1999/xlink"
   xmlns="http://www.w3.org/2000/svg"
   xmlns:svg="http://www.w3.org/2000/svg">
  <sodipodi:namedview
     id="namedview92"
     pagecolor="#ffffff"
     bordercolor="#666666"
     borderopacity="1.0"
     inkscape:pageshadow="2"
     inkscape:pageopacity="0.0"
     inkscape:pagecheckerboard="0"
     showgrid="false"
     inkscape:zoom="1.328"
     inkscape:cx="349.7741"
     inkscape:cy="250.37651"
     inkscape:window-width="1528"
     inkscape:window-height="836"
     inkscape:window-x="72"
     inkscape:window-y="27"
     inkscape:window-maximized="1"
     inkscape:current-layer="svg90" />
  <defs
     id="defs13">
    <style
       type="text/css"
       id="style2"><![CDATA[
  .borderLine {
	   stroke: none;
	   fill-opacity:  0.4 ;
  }
  .outLine {
	   stroke-width:  1 ;
	   fill: none;
  }
  .circle {
	   stroke: #888888;
	   stroke-width: 0.5;
	   fill: none;
    pointer-events: all;
  }
  .nLabel {
	   font-family: Arial;
    pointer-events: none;
	   font-size: 10px;
	   text-anchor: middle;
	   alignment-baseline: central;
  }
  .belong {
	   font-family: Arial;
    pointer-events: none;
	   font-size: 5px;
	   text-anchor: middle;
	   alignment-baseline: central;
  }
  .legend {
    font-family: Arial;
    font-size: 15px;
  }
  #legendBox {
    display:  inline ;
  }
  .p0{
    stroke: none;
    fill:  #00F ;
  }
  .q0{
    fill: none;
    stroke:  #00F ;
  }
  .p1{
    stroke: none;
    fill:  #0F0 ;
  }
  .q1{
    fill: none;
    stroke:  #0F0 ;
  }
  .p2{
    stroke: none;
    fill:  #F00 ;
  }
  .q2{
    fill: none;
    stroke:  #F00 ;
  }
]]></style>
    <symbol
       id="bl0">
      <path
         d="M 287.60 316.03 L 283.72 321.30 L 279.42 325.90 L 274.72 329.84 L 269.62 333.12 L 264.20 335.77 L 258.51 337.76 L 252.63 339.09 L 246.63 339.75 L 240.59 339.75 L 234.57 339.12 L 228.61 337.93 L 222.76 336.28 L 217.01 334.27 L 211.35 332.02 L 205.74 329.62 L 200.16 327.16 L 194.60 324.67 L 189.04 322.17 L 183.48 319.67 L 177.92 317.17 L 172.36 314.66 L 166.80 312.16 L 161.24 309.66 L 155.68 307.16 L 150.13 304.65 L 144.57 302.15 L 139.02 299.64 L 133.46 297.14 L 127.91 294.64 L 122.35 292.13 L 116.80 289.63 L 111.25 287.12 L 105.70 284.62 L 100.15 282.11 L 94.61 279.60 L 89.08 277.07 L 83.57 274.50 L 78.11 271.85 L 72.72 269.04 L 67.45 266.04 L 62.31 262.82 L 57.34 259.36 L 52.55 255.65 L 47.95 251.69 L 43.57 247.51 L 39.41 243.09 L 35.49 238.47 L 31.82 233.65 L 28.41 228.64 L 25.27 223.46 L 22.40 218.12 L 19.81 212.64 L 17.52 207.04 L 15.52 201.32 L 13.82 195.50 L 12.43 189.60 L 11.35 183.64 L 10.59 177.63 L 10.13 171.58 L 10.00 165.52 L 10.18 159.46 L 10.68 153.41 L 11.50 147.40 L 12.63 141.44 L 14.07 135.55 L 15.81 129.74 L 17.86 124.04 L 20.20 118.44 L 22.83 112.97 L 25.74 107.66 L 28.92 102.50 L 32.37 97.51 L 36.08 92.72 L 40.03 88.12 L 44.22 83.73 L 48.63 79.57 L 53.25 75.65 L 58.07 71.98 L 63.07 68.56 L 68.25 65.41 L 73.59 62.53 L 79.06 59.94 L 84.67 57.63 L 90.39 55.63 L 96.21 53.93 L 102.11 52.53 L 108.07 51.44 L 114.09 50.67 L 120.13 50.22 L 126.19 50.08 L 132.25 50.27 L 138.29 50.77 L 144.30 51.59 L 150.25 52.72 L 156.13 54.16 L 161.93 55.91 L 167.63 57.96 L 173.22 60.31 L 178.68 62.94 L 184.00 65.85 L 189.18 69.01 L 194.21 72.40 L 199.13 75.97 L 203.94 79.69 L 208.70 83.48 L 213.43 87.31 L 218.16 91.16 L 222.88 95.01 L 227.60 98.87 L 232.32 102.72 L 237.04 106.58 L 241.76 110.44 L 246.49 114.29 L 251.21 118.16 L 255.94 122.02 L 260.67 125.89 L 265.39 129.75 L 270.12 133.62 L 274.85 137.49 L 279.56 141.38 L 284.25 145.31 L 288.87 149.35 L 293.36 153.57 L 297.59 158.10 L 301.41 163.07 L 304.64 168.59 L 307.19 174.68 L 309.15 181.12 L 310.71 187.62 L 312.01 193.97 L 313.16 200.12 L 314.22 206.15 L 315.18 212.16 L 315.96 218.25 L 316.45 224.50 L 316.55 230.90 L 316.18 237.36 L 315.32 243.74 L 313.97 249.95 L 312.25 255.98 L 310.29 261.89 L 308.23 267.75 L 306.11 273.59 L 303.97 279.45 L 301.76 285.37 L 299.45 291.41 L 296.94 297.62 L 294.17 303.94 L 291.07 310.17 Z"
         id="path4" />
    </symbol>
    <symbol
       id="bl1">
      <path
         d="M 350.57 249.91 L 347.82 251.56 L 344.87 252.88 L 341.81 253.84 L 338.73 254.46 L 335.66 254.80 L 332.61 254.99 L 329.56 255.10 L 326.51 255.18 L 323.46 255.25 L 320.42 255.31 L 317.37 255.37 L 314.33 255.44 L 311.28 255.49 L 308.24 255.54 L 305.20 255.57 L 302.16 255.55 L 299.14 255.40 L 296.13 255.03 L 293.17 254.37 L 290.29 253.36 L 287.52 251.95 L 284.90 250.15 L 282.40 248.04 L 280.01 245.73 L 277.71 243.29 L 275.50 240.79 L 273.36 238.23 L 271.26 235.65 L 269.18 233.07 L 267.10 230.47 L 265.03 227.88 L 262.95 225.29 L 260.88 222.69 L 258.81 220.10 L 256.74 217.50 L 254.68 214.90 L 252.62 212.30 L 250.60 209.67 L 248.66 206.99 L 246.83 204.24 L 245.19 201.37 L 243.75 198.40 L 242.58 195.32 L 241.69 192.12 L 241.11 188.82 L 240.86 185.42 L 240.92 181.96 L 241.28 178.53 L 241.91 175.21 L 242.79 172.07 L 243.92 169.13 L 245.29 166.37 L 246.89 163.79 L 248.72 161.37 L 250.75 159.12 L 252.97 157.06 L 255.36 155.20 L 257.90 153.53 L 260.55 152.05 L 263.31 150.73 L 266.12 149.53 L 268.96 148.42 L 271.83 147.36 L 274.70 146.32 L 277.58 145.30 L 280.46 144.29 L 283.34 143.27 L 286.21 142.26 L 289.09 141.24 L 291.97 140.22 L 294.85 139.20 L 297.73 138.18 L 300.60 137.17 L 303.48 136.15 L 306.36 135.14 L 309.23 134.13 L 312.11 133.11 L 314.98 132.10 L 317.85 131.08 L 320.72 130.08 L 323.60 129.07 L 326.47 128.06 L 329.34 127.05 L 332.22 126.06 L 335.10 125.09 L 338.00 124.16 L 340.92 123.32 L 343.87 122.60 L 346.84 122.05 L 349.85 121.67 L 352.87 121.48 L 355.89 121.48 L 358.91 121.68 L 361.92 122.06 L 364.89 122.64 L 367.82 123.42 L 370.69 124.37 L 373.50 125.51 L 376.23 126.82 L 378.87 128.31 L 381.41 129.96 L 383.84 131.78 L 386.14 133.74 L 388.32 135.85 L 390.35 138.10 L 392.24 140.46 L 393.98 142.95 L 395.55 145.55 L 396.95 148.23 L 398.18 151.00 L 399.22 153.84 L 400.09 156.75 L 400.76 159.70 L 401.24 162.69 L 401.54 165.71 L 401.63 168.74 L 401.53 171.77 L 401.24 174.79 L 400.75 177.79 L 400.08 180.74 L 399.21 183.66 L 398.16 186.50 L 396.94 189.28 L 395.55 191.98 L 394.01 194.60 L 392.36 197.16 L 390.62 199.67 L 388.84 202.14 L 387.02 204.60 L 385.19 207.05 L 383.35 209.49 L 381.52 211.94 L 379.68 214.38 L 377.84 216.82 L 376.01 219.26 L 374.17 221.70 L 372.33 224.15 L 370.49 226.59 L 368.65 229.03 L 366.81 231.47 L 364.97 233.92 L 363.12 236.35 L 361.26 238.78 L 359.36 241.19 L 357.40 243.56 L 355.32 245.84 L 353.06 247.98 Z"
         id="path7" />
    </symbol>
    <symbol
       id="bl2">
      <path
         d="M 488.35 365.64 L 487.26 370.79 L 485.92 375.88 L 484.32 380.90 L 482.46 385.82 L 480.35 390.65 L 478.00 395.36 L 475.41 399.94 L 472.58 404.39 L 469.54 408.68 L 466.28 412.81 L 462.81 416.77 L 459.15 420.55 L 455.29 424.13 L 451.26 427.52 L 447.06 430.69 L 442.71 433.64 L 438.20 436.37 L 433.57 438.87 L 428.81 441.12 L 423.94 443.13 L 418.98 444.88 L 413.93 446.38 L 408.81 447.62 L 403.64 448.60 L 398.42 449.30 L 393.17 449.74 L 387.90 449.92 L 382.64 449.81 L 377.39 449.44 L 372.16 448.81 L 366.97 447.90 L 361.84 446.73 L 356.77 445.30 L 351.79 443.61 L 346.90 441.67 L 342.11 439.48 L 337.45 437.05 L 332.91 434.38 L 328.50 431.50 L 324.22 428.43 L 320.04 425.20 L 315.94 421.87 L 311.90 418.47 L 307.88 415.04 L 303.88 411.58 L 299.89 408.12 L 295.90 404.66 L 291.91 401.19 L 287.92 397.72 L 283.93 394.25 L 279.94 390.78 L 275.95 387.30 L 271.95 383.83 L 267.96 380.35 L 263.96 376.88 L 259.97 373.41 L 255.98 369.93 L 251.98 366.46 L 247.99 362.99 L 244.00 359.51 L 240.00 356.03 L 236.01 352.56 L 232.02 349.08 L 228.02 345.60 L 224.03 342.12 L 220.06 338.62 L 216.12 335.09 L 212.24 331.49 L 208.49 327.75 L 204.93 323.83 L 201.64 319.71 L 198.67 315.36 L 196.12 310.76 L 194.00 305.95 L 192.36 300.97 L 191.22 295.85 L 190.58 290.63 L 190.46 285.39 L 190.86 280.16 L 191.79 274.99 L 193.27 269.92 L 195.31 264.97 L 197.96 260.14 L 201.25 255.43 L 205.17 250.88 L 209.61 246.62 L 214.43 242.80 L 219.51 239.53 L 224.76 236.78 L 230.12 234.46 L 235.57 232.45 L 241.07 230.66 L 246.61 228.99 L 252.16 227.37 L 257.72 225.76 L 263.30 224.13 L 268.93 222.45 L 274.63 220.66 L 280.46 218.71 L 286.42 216.68 L 292.43 214.75 L 298.41 213.19 L 304.30 212.17 L 310.09 211.63 L 315.83 211.45 L 321.60 211.51 L 327.45 211.83 L 333.45 212.51 L 339.57 213.60 L 345.66 215.08 L 351.52 216.86 L 357.01 218.87 L 362.17 221.03 L 367.11 223.27 L 371.94 225.55 L 376.74 227.84 L 381.52 230.13 L 386.30 232.42 L 391.07 234.71 L 395.85 237.00 L 400.62 239.30 L 405.40 241.59 L 410.17 243.88 L 414.94 246.17 L 419.71 248.47 L 424.46 250.78 L 429.19 253.13 L 433.88 255.56 L 438.47 258.14 L 442.96 260.90 L 447.30 263.87 L 451.50 267.04 L 455.53 270.43 L 459.37 274.02 L 463.03 277.80 L 466.49 281.77 L 469.75 285.91 L 472.78 290.21 L 475.59 294.66 L 478.17 299.25 L 480.51 303.96 L 482.60 308.79 L 484.44 313.72 L 486.02 318.73 L 487.35 323.83 L 488.41 328.98 L 489.21 334.18 L 489.74 339.42 L 490.00 344.68 L 489.99 349.94 L 489.71 355.20 L 489.16 360.44 Z"
         id="path10" />
    </symbol>
    <filter
       style="color-interpolation-filters:sRGB;"
       inkscape:label="Invert"
       id="filter96"
       x="-0.0024273168"
       y="-0.0051030324"
       width="1.0024273"
       height="1.005103">
      <feColorMatrix
         values="0 0 -1 0 1 0 -1 0 0 1 -1 0 0 0 1 0.21 0.72 0.07 1 0 "
         result="color2"
         id="feColorMatrix94" />
    </filter>
    <filter
       style="color-interpolation-filters:sRGB;"
       inkscape:label="Invert"
       id="filter100"
       x="0"
       y="0"
       width="1"
       height="1">
      <feColorMatrix
         values="0 0 -1 0 1 0 -1 0 0 1 -1 0 0 0 1 0.21 0.72 0.07 1 0 "
         result="color2"
         id="feColorMatrix98" />
    </filter>
    <filter
       style="color-interpolation-filters:sRGB;"
       inkscape:label="Invert"
       id="filter104"
       x="0"
       y="0"
       width="1"
       height="1">
      <feColorMatrix
         values="0 0 -1 0 1 0 -1 0 0 1 -1 0 0 0 1 0.21 0.72 0.07 1 0 "
         result="color2"
         id="feColorMatrix102" />
    </filter>
    <filter
       style="color-interpolation-filters:sRGB;"
       inkscape:label="Invert"
       id="filter108"
       x="-0.0024523556"
       y="-0.0024523556"
       width="1.0049047"
       height="1.0049047">
      <feColorMatrix
         values="0 0 -1 0 1 0 -1 0 0 1 -1 0 0 0 1 0.21 0.72 0.07 1 0 "
         result="color2"
         id="feColorMatrix106" />
    </filter>
    <filter
       style="color-interpolation-filters:sRGB;"
       inkscape:label="Invert"
       id="filter112"
       x="0"
       y="0"
       width="1"
       height="1">
      <feColorMatrix
         values="0 0 -1 0 1 0 -1 0 0 1 -1 0 0 0 1 0.21 0.72 0.07 1 0 "
         result="color2"
         id="feColorMatrix110" />
    </filter>
    <filter
       style="color-interpolation-filters:sRGB;"
       inkscape:label="Invert"
       id="filter116"
       x="0"
       y="0"
       width="1"
       height="1">
      <feColorMatrix
         values="0 0 -1 0 1 0 -1 0 0 1 -1 0 0 0 1 0.21 0.72 0.07 1 0 "
         result="color2"
         id="feColorMatrix114" />
    </filter>
    <filter
       style="color-interpolation-filters:sRGB;"
       inkscape:label="Invert"
       id="filter120"
       x="-0.0012537348"
       y="-0.0012537348"
       width="1.0025075"
       height="1.0025075">
      <feColorMatrix
         values="0 0 -1 0 1 0 -1 0 0 1 -1 0 0 0 1 0.21 0.72 0.07 1 0 "
         result="color2"
         id="feColorMatrix118" />
    </filter>
    <filter
       style="color-interpolation-filters:sRGB;"
       inkscape:label="Invert"
       id="filter124"
       x="0"
       y="0"
       width="1"
       height="1">
      <feColorMatrix
         values="0 0 -1 0 1 0 -1 0 0 1 -1 0 0 0 1 0.21 0.72 0.07 1 0 "
         result="color2"
         id="feColorMatrix122" />
    </filter>
    <filter
       style="color-interpolation-filters:sRGB;"
       inkscape:label="Invert"
       id="filter128"
       x="0"
       y="0"
       width="1"
       height="1">
      <feColorMatrix
         values="0 0 -1 0 1 0 -1 0 0 1 -1 0 0 0 1 0.21 0.72 0.07 1 0 "
         result="color2"
         id="feColorMatrix126" />
    </filter>
    <filter
       style="color-interpolation-filters:sRGB;"
       inkscape:label="Invert"
       id="filter132"
       x="-0.0067902673"
       y="-0.0067902673"
       width="1.0135805"
       height="1.0135805">
      <feColorMatrix
         values="0 0 -1 0 1 0 -1 0 0 1 -1 0 0 0 1 0.21 0.72 0.07 1 0 "
         result="color2"
         id="feColorMatrix130" />
    </filter>
    <filter
       style="color-interpolation-filters:sRGB;"
       inkscape:label="Invert"
       id="filter136"
       x="0"
       y="0"
       width="1"
       height="1">
      <feColorMatrix
         values="0 0 -1 0 1 0 -1 0 0 1 -1 0 0 0 1 0.21 0.72 0.07 1 0 "
         result="color2"
         id="feColorMatrix134" />
    </filter>
    <filter
       style="color-interpolation-filters:sRGB;"
       inkscape:label="Invert"
       id="filter140"
       x="0"
       y="0"
       width="1"
       height="1">
      <feColorMatrix
         values="0 0 -1 0 1 0 -1 0 0 1 -1 0 0 0 1 0.21 0.72 0.07 1 0 "
         result="color2"
         id="feColorMatrix138" />
    </filter>
    <filter
       style="color-interpolation-filters:sRGB;"
       inkscape:label="Invert"
       id="filter144"
       x="-0.0028524812"
       y="-0.0028524812"
       width="1.005705"
       height="1.005705">
      <feColorMatrix
         values="0 0 -1 0 1 0 -1 0 0 1 -1 0 0 0 1 0.21 0.72 0.07 1 0 "
         result="color2"
         id="feColorMatrix142" />
    </filter>
    <filter
       style="color-interpolation-filters:sRGB;"
       inkscape:label="Invert"
       id="filter148"
       x="0"
       y="0"
       width="1"
       height="1">
      <feColorMatrix
         values="0 0 -1 0 1 0 -1 0 0 1 -1 0 0 0 1 0.21 0.72 0.07 1 0 "
         result="color2"
         id="feColorMatrix146" />
    </filter>
    <filter
       style="color-interpolation-filters:sRGB;"
       inkscape:label="Invert"
       id="filter152"
       x="0"
       y="0"
       width="1"
       height="1">
      <feColorMatrix
         values="0 0 -1 0 1 0 -1 0 0 1 -1 0 0 0 1 0.21 0.72 0.07 1 0 "
         result="color2"
         id="feColorMatrix150" />
    </filter>
    <filter
       style="color-interpolation-filters:sRGB;"
       inkscape:label="Invert"
       id="filter156"
       x="-0.0067902673"
       y="-0.0067902673"
       width="1.0135805"
       height="1.0135805">
      <feColorMatrix
         values="0 0 -1 0 1 0 -1 0 0 1 -1 0 0 0 1 0.21 0.72 0.07 1 0 "
         result="color2"
         id="feColorMatrix154" />
    </filter>
    <filter
       style="color-interpolation-filters:sRGB;"
       inkscape:label="Invert"
       id="filter160"
       x="0"
       y="0"
       width="1"
       height="1">
      <feColorMatrix
         values="0 0 -1 0 1 0 -1 0 0 1 -1 0 0 0 1 0.21 0.72 0.07 1 0 "
         result="color2"
         id="feColorMatrix158" />
    </filter>
    <filter
       style="color-interpolation-filters:sRGB;"
       inkscape:label="Invert"
       id="filter164"
       x="0"
       y="0"
       width="1"
       height="1">
      <feColorMatrix
         values="0 0 -1 0 1 0 -1 0 0 1 -1 0 0 0 1 0.21 0.72 0.07 1 0 "
         result="color2"
         id="feColorMatrix162" />
    </filter>
    <filter
       style="color-interpolation-filters:sRGB;"
       inkscape:label="Invert"
       id="filter168"
       x="-0.0039203633"
       y="-0.0039203633"
       width="1.0078407"
       height="1.0078407">
      <feColorMatrix
         values="0 0 -1 0 1 0 -1 0 0 1 -1 0 0 0 1 0.21 0.72 0.07 1 0 "
         result="color2"
         id="feColorMatrix166" />
    </filter>
    <filter
       style="color-interpolation-filters:sRGB;"
       inkscape:label="Invert"
       id="filter172"
       x="0"
       y="0"
       width="1"
       height="1">
      <feColorMatrix
         values="0 0 -1 0 1 0 -1 0 0 1 -1 0 0 0 1 0.21 0.72 0.07 1 0 "
         result="color2"
         id="feColorMatrix170" />
    </filter>
    <filter
       style="color-interpolation-filters:sRGB;"
       inkscape:label="Invert"
       id="filter176"
       x="0"
       y="0"
       width="1"
       height="1">
      <feColorMatrix
         values="0 0 -1 0 1 0 -1 0 0 1 -1 0 0 0 1 0.21 0.72 0.07 1 0 "
         result="color2"
         id="feColorMatrix174" />
    </filter>
    <filter
       style="color-interpolation-filters:sRGB;"
       inkscape:label="Invert"
       id="filter180"
       x="-0.0011063885"
       y="-0.0011063885"
       width="1.0022128"
       height="1.0022128">
      <feColorMatrix
         values="0 0 -1 0 1 0 -1 0 0 1 -1 0 0 0 1 0.21 0.72 0.07 1 0 "
         result="color2"
         id="feColorMatrix178" />
    </filter>
    <filter
       style="color-interpolation-filters:sRGB;"
       inkscape:label="Invert"
       id="filter184"
       x="-0.0016706863"
       y="-0.0020970416"
       width="1.00334"
       height="1.0041945">
      <feColorMatrix
         values="0 0 -1 0 1 0 -1 0 0 1 -1 0 0 0 1 0.21 0.72 0.07 1 0 "
         result="color2"
         id="feColorMatrix182" />
    </filter>
    <filter
       style="color-interpolation-filters:sRGB;"
       inkscape:label="Invert"
       id="filter188"
       x="-0.0031120135"
       y="-0.0037288388"
       width="1.0062236"
       height="1.0074578">
      <feColorMatrix
         values="0 0 -1 0 1 0 -1 0 0 1 -1 0 0 0 1 0.21 0.72 0.07 1 0 "
         result="color2"
         id="feColorMatrix186" />
    </filter>
    <filter
       style="color-interpolation-filters:sRGB;"
       inkscape:label="Invert"
       id="filter192"
       x="-0.0016315748"
       y="-0.0017267271"
       width="1.0032634"
       height="1.0034528">
      <feColorMatrix
         values="0 0 -1 0 1 0 -1 0 0 1 -1 0 0 0 1 0.21 0.72 0.07 1 0 "
         result="color2"
         id="feColorMatrix190" />
    </filter>
    <filter
       style="color-interpolation-filters:sRGB;"
       inkscape:label="Invert"
       id="filter196"
       x="0"
       y="0"
       width="1"
       height="1">
      <feColorMatrix
         values="0 0 -1 0 1 0 -1 0 0 1 -1 0 0 0 1 0.21 0.72 0.07 1 0 "
         result="color2"
         id="feColorMatrix194" />
    </filter>
    <filter
       style="color-interpolation-filters:sRGB;"
       inkscape:label="Invert"
       id="filter200"
       x="0"
       y="0"
       width="1"
       height="1">
      <feColorMatrix
         values="0 0 -1 0 1 0 -1 0 0 1 -1 0 0 0 1 0.21 0.72 0.07 1 0 "
         result="color2"
         id="feColorMatrix198" />
    </filter>
    <filter
       style="color-interpolation-filters:sRGB;"
       inkscape:label="Invert"
       id="filter204"
       x="0"
       y="0"
       width="1"
       height="1">
      <feColorMatrix
         values="0 0 -1 0 1 0 -1 0 0 1 -1 0 0 0 1 0.21 0.72 0.07 1 0 "
         result="color2"
         id="feColorMatrix202" />
    </filter>
    <filter
       style="color-interpolation-filters:sRGB;"
       inkscape:label="Invert"
       id="filter208"
       x="0"
       y="0"
       width="1"
       height="1">
      <feColorMatrix
         values="0 0 -1 0 1 0 -1 0 0 1 -1 0 0 0 1 0.21 0.72 0.07 1 0 "
         result="color2"
         id="feColorMatrix206" />
    </filter>
  </defs>
  <!-- isDone: 0 -->
  <rect
     width="700"
     height="500"
     style="fill:#fff;stroke-width:0;filter:url(#filter208)"
     id="rect15" />
  <use
     class="p0 borderLine"
     xlink:href="#bl0"
     id="use17"
     style="filter:url(#filter204)" />
  <use
     class="p1 borderLine"
     xlink:href="#bl1"
     id="use19"
     style="filter:url(#filter200)" />
  <use
     class="p2 borderLine"
     xlink:href="#bl2"
     id="use21"
     style="filter:url(#filter196)" />
  <use
     class="q0 outLine"
     xlink:href="#bl0"
     id="use23"
     style="filter:url(#filter192)" />
  <use
     class="q1 outLine"
     xlink:href="#bl1"
     id="use25"
     style="filter:url(#filter188)" />
  <use
     class="q2 outLine"
     xlink:href="#bl2"
     id="use27"
     style="filter:url(#filter184)" />
  <circle
     onclick="fromCircle(4)"
     class="circle"
     cx="124.7053"
     cy="165.4786"
     r="112.9802"
     id="circle29"
     style="filter:url(#filter180)" />
  <text
     class="nLabel"
     x="124.71"
     y="160.48"
     id="text31"
     style="filter:url(#filter176)">113</text>
  <text
     class="belong"
     x="124.71"
     y="170.48"
     id="text33"
     style="filter:url(#filter172)">(1)</text>
  <circle
     onclick="fromCircle(6)"
     class="circle"
     cx="275.6723"
     cy="183.8153"
     r="31.8848"
     id="circle35"
     style="filter:url(#filter168)" />
  <text
     class="nLabel"
     x="275.67"
     y="178.82"
     id="text37"
     style="filter:url(#filter164)">9</text>
  <text
     class="belong"
     x="275.67"
     y="188.82"
     id="text39"
     style="filter:url(#filter160)">(1, 2)</text>
  <circle
     onclick="fromCircle(7)"
     class="circle"
     cx="297.3730"
     cy="233.4645"
     r="18.4087"
     id="circle41"
     style="filter:url(#filter156)" />
  <text
     class="nLabel"
     x="297.37"
     y="228.46"
     id="text43"
     style="filter:url(#filter152)">3</text>
  <text
     class="belong"
     x="297.37"
     y="238.46"
     id="text45"
     style="filter:url(#filter148)">(1, 2, 3)</text>
  <circle
     onclick="fromCircle(2)"
     class="circle"
     cx="354.5420"
     cy="168.5799"
     r="43.8215"
     id="circle47"
     style="filter:url(#filter144)" />
  <text
     class="nLabel"
     x="354.54"
     y="163.58"
     id="text49"
     style="filter:url(#filter140)">17</text>
  <text
     class="belong"
     x="354.54"
     y="173.58"
     id="text51"
     style="filter:url(#filter136)">(2)</text>
  <circle
     onclick="fromCircle(3)"
     class="circle"
     cx="338.0582"
     cy="232.9109"
     r="18.4087"
     id="circle53"
     style="filter:url(#filter132)" />
  <text
     class="nLabel"
     x="338.06"
     y="227.91"
     id="text55"
     style="filter:url(#filter128)">3</text>
  <text
     class="belong"
     x="338.06"
     y="237.91"
     id="text57"
     style="filter:url(#filter124)">(2, 3)</text>
  <circle
     onclick="fromCircle(1)"
     class="circle"
     cx="387.8430"
     cy="347.8230"
     r="99.7021"
     id="circle59"
     style="filter:url(#filter120)" />
  <text
     class="nLabel"
     x="387.84"
     y="342.82"
     id="text61"
     style="filter:url(#filter116)">88</text>
  <text
     class="belong"
     x="387.84"
     y="352.82"
     id="text63"
     style="filter:url(#filter112)">(3)</text>
  <circle
     onclick="fromCircle(5)"
     class="circle"
     cx="243.8452"
     cy="286.8701"
     r="50.9714"
     id="circle65"
     style="filter:url(#filter108)" />
  <text
     class="nLabel"
     x="243.85"
     y="281.87"
     id="text67"
     style="filter:url(#filter104)">23</text>
  <text
     class="belong"
     x="243.85"
     y="291.87"
     id="text69"
     style="filter:url(#filter100)">(1, 3)</text>
  <g
     id="legendBox"
     style="filter:url(#filter96)">
    <rect
       class="p0 borderLine"
       x="500.00"
       y="50.00"
       width="30.00"
       height="15.00"
       id="rect71" />
    <rect
       class="q0"
       x="500.00"
       y="50.00"
       width="30.00"
       height="15.00"
       id="rect73" />
    <text
       class="legend"
       x="540.00"
       y="65.00"
       id="text75">bike ALB_2002</text>
    <rect
       class="p1 borderLine"
       x="500.00"
       y="90.00"
       width="30.00"
       height="15.00"
       id="rect77" />
    <rect
       class="q1"
       x="500.00"
       y="90.00"
       width="30.00"
       height="15.00"
       id="rect79" />
    <text
       class="legend"
       x="540.00"
       y="105.00"
       id="text81">motorbike ALB_2002</text>
    <rect
       class="p2 borderLine"
       x="500.00"
       y="130.00"
       width="30.00"
       height="15.00"
       id="rect83" />
    <rect
       class="q2"
       x="500.00"
       y="130.00"
       width="30.00"
       height="15.00"
       id="rect85" />
    <text
       class="legend"
       x="540.00"
       y="145.00"
       id="text87">motor_vehicle ALB_2002</text>
  </g>
</svg>
