<?xml version="1.0" encoding="UTF-8" standalone="no"?>
<svg
   width="700"
   height="500"
   version="1.1"
   id="svg2577"
   sodipodi:docname="UGA_2005.svg"
   inkscape:version="1.1 (1:1.1+202106031931+af4d65493e)"
   xmlns:inkscape="http://www.inkscape.org/namespaces/inkscape"
   xmlns:sodipodi="http://sodipodi.sourceforge.net/DTD/sodipodi-0.dtd"
   xmlns:xlink="http://www.w3.org/1999/xlink"
   xmlns="http://www.w3.org/2000/svg"
   xmlns:svg="http://www.w3.org/2000/svg">
  <sodipodi:namedview
     id="namedview2579"
     pagecolor="#ffffff"
     bordercolor="#666666"
     borderopacity="1.0"
     inkscape:pageshadow="2"
     inkscape:pageopacity="0.0"
     inkscape:pagecheckerboard="0"
     showgrid="false"
     inkscape:zoom="1.328"
     inkscape:cx="349.7741"
     inkscape:cy="250"
     inkscape:window-width="1528"
     inkscape:window-height="836"
     inkscape:window-x="72"
     inkscape:window-y="27"
     inkscape:window-maximized="1"
     inkscape:current-layer="svg2577" />
  <defs
     id="defs2500">
    <style
       type="text/css"
       id="style2489"><![CDATA[
  .borderLine {
	   stroke: none;
	   fill-opacity:  0.4 ;
  }
  .outLine {
	   stroke-width:  1 ;
	   fill: none;
  }
  .circle {
	   stroke: #888888;
	   stroke-width: 0.5;
	   fill: none;
    pointer-events: all;
  }
  .nLabel {
	   font-family: Arial;
    pointer-events: none;
	   font-size: 10px;
	   text-anchor: middle;
	   alignment-baseline: central;
  }
  .belong {
	   font-family: Arial;
    pointer-events: none;
	   font-size: 5px;
	   text-anchor: middle;
	   alignment-baseline: central;
  }
  .legend {
    font-family: Arial;
    font-size: 15px;
  }
  #legendBox {
    display:  inline ;
  }
  .p0{
    stroke: none;
    fill:  #00F ;
  }
  .q0{
    fill: none;
    stroke:  #00F ;
  }
  .p1{
    stroke: none;
    fill:  #0F0 ;
  }
  .q1{
    fill: none;
    stroke:  #0F0 ;
  }
  .p2{
    stroke: none;
    fill:  #F00 ;
  }
  .q2{
    fill: none;
    stroke:  #F00 ;
  }
]]></style>
    <symbol
       id="bl0">
      <path
         d="M 253.80 372.87 L 247.81 377.10 L 241.62 381.04 L 235.25 384.68 L 228.71 388.01 L 222.02 391.02 L 215.19 393.72 L 208.24 396.07 L 201.18 398.09 L 194.04 399.77 L 186.82 401.10 L 179.54 402.08 L 172.23 402.71 L 164.90 402.99 L 157.56 402.91 L 150.23 402.49 L 142.93 401.70 L 135.68 400.57 L 128.49 399.10 L 121.38 397.28 L 114.36 395.11 L 107.46 392.62 L 100.69 389.79 L 94.06 386.64 L 87.59 383.18 L 81.30 379.42 L 75.19 375.35 L 69.29 371.00 L 63.60 366.36 L 58.13 361.46 L 52.91 356.30 L 47.95 350.90 L 43.24 345.26 L 38.81 339.41 L 34.67 333.35 L 30.83 327.10 L 27.28 320.67 L 24.05 314.08 L 21.14 307.34 L 18.55 300.47 L 16.30 293.48 L 14.39 286.39 L 12.81 279.22 L 11.59 271.98 L 10.71 264.69 L 10.18 257.36 L 10.00 250.02 L 10.17 242.67 L 10.70 235.34 L 11.58 228.05 L 12.80 220.81 L 14.37 213.63 L 16.28 206.54 L 18.53 199.56 L 21.11 192.69 L 24.01 185.96 L 27.24 179.37 L 30.77 172.95 L 34.61 166.71 L 38.74 160.66 L 43.15 154.81 L 47.85 149.18 L 52.80 143.78 L 58.01 138.63 L 63.46 133.73 L 69.13 129.10 L 75.02 124.75 L 81.11 120.69 L 87.39 116.92 L 93.84 113.46 L 100.45 110.31 L 107.20 107.49 L 114.08 104.99 L 121.07 102.82 L 128.16 100.99 L 135.33 99.51 L 142.56 98.36 L 149.84 97.57 L 157.16 97.12 L 164.48 97.01 L 171.82 97.22 L 179.14 97.71 L 186.44 98.46 L 193.73 99.39 L 201.00 100.42 L 208.27 101.51 L 215.54 102.62 L 222.81 103.73 L 230.08 104.85 L 237.35 105.97 L 244.62 107.10 L 251.89 108.22 L 259.16 109.35 L 266.44 110.47 L 273.71 111.59 L 280.99 112.71 L 288.27 113.83 L 295.55 114.95 L 302.83 116.08 L 310.12 117.21 L 317.41 118.34 L 324.70 119.48 L 331.99 120.66 L 339.26 121.92 L 346.51 123.37 L 353.69 125.14 L 360.72 127.40 L 367.48 130.27 L 373.80 133.90 L 379.52 138.35 L 384.51 143.59 L 388.61 149.54 L 391.71 156.11 L 393.72 163.19 L 394.58 170.67 L 394.27 178.43 L 392.86 186.36 L 390.49 194.31 L 387.35 202.24 L 383.70 210.18 L 379.82 218.23 L 375.93 226.45 L 372.12 234.80 L 368.24 242.99 L 364.20 250.77 L 359.89 258.00 L 355.29 264.69 L 350.48 270.97 L 345.56 276.94 L 340.60 282.68 L 335.63 288.28 L 330.66 293.79 L 325.69 299.26 L 320.72 304.71 L 315.76 310.16 L 310.79 315.61 L 305.82 321.05 L 300.85 326.50 L 295.88 331.94 L 290.91 337.37 L 285.92 342.79 L 280.90 348.17 L 275.80 353.47 L 270.58 358.64 L 265.18 363.61 L 259.59 368.37 Z"
         id="path2491" />
    </symbol>
    <symbol
       id="bl1">
      <path
         d="M 413.51 249.86 L 410.22 250.67 L 406.93 251.47 L 403.61 252.24 L 400.26 252.93 L 396.81 253.44 L 393.24 253.68 L 389.54 253.56 L 385.78 253.09 L 382.08 252.34 L 378.51 251.35 L 375.06 250.20 L 371.70 248.95 L 368.40 247.59 L 365.14 246.10 L 361.94 244.42 L 358.81 242.52 L 355.76 240.44 L 352.81 238.29 L 349.97 236.12 L 347.20 233.98 L 344.48 231.86 L 341.78 229.74 L 339.10 227.64 L 336.42 225.54 L 333.74 223.44 L 331.06 221.35 L 328.37 219.25 L 325.70 217.14 L 323.04 215.00 L 320.42 212.82 L 317.87 210.56 L 315.41 208.21 L 313.09 205.72 L 310.96 203.09 L 309.02 200.32 L 307.28 197.43 L 305.73 194.43 L 304.36 191.35 L 303.15 188.21 L 302.13 185.01 L 301.31 181.74 L 300.72 178.41 L 300.37 175.06 L 300.29 171.69 L 300.46 168.33 L 300.88 164.98 L 301.54 161.68 L 302.43 158.43 L 303.54 155.25 L 304.87 152.15 L 306.41 149.15 L 308.15 146.27 L 310.09 143.51 L 312.22 140.90 L 314.52 138.44 L 316.98 136.15 L 319.60 134.03 L 322.36 132.10 L 325.25 130.36 L 328.26 128.83 L 331.36 127.51 L 334.55 126.41 L 337.80 125.53 L 341.11 124.88 L 344.46 124.46 L 347.83 124.27 L 351.21 124.29 L 354.59 124.52 L 357.96 124.92 L 361.31 125.44 L 364.66 126.05 L 367.99 126.71 L 371.33 127.39 L 374.66 128.09 L 377.99 128.79 L 381.32 129.48 L 384.64 130.18 L 387.97 130.88 L 391.30 131.59 L 394.62 132.28 L 397.95 132.98 L 401.27 133.68 L 404.60 134.37 L 407.92 135.07 L 411.25 135.76 L 414.57 136.45 L 417.89 137.15 L 421.22 137.85 L 424.54 138.54 L 427.87 139.23 L 431.19 139.92 L 434.51 140.62 L 437.83 141.31 L 441.15 142.01 L 444.46 142.73 L 447.77 143.50 L 451.06 144.34 L 454.31 145.30 L 457.52 146.39 L 460.65 147.66 L 463.69 149.12 L 466.64 150.78 L 469.46 152.63 L 472.14 154.68 L 474.68 156.90 L 477.06 159.29 L 479.26 161.84 L 481.28 164.54 L 483.11 167.37 L 484.74 170.33 L 486.16 173.39 L 487.37 176.54 L 488.35 179.77 L 489.11 183.05 L 489.64 186.39 L 489.94 189.75 L 490.00 193.14 L 489.83 196.51 L 489.42 199.87 L 488.78 203.20 L 487.92 206.46 L 486.82 209.66 L 485.51 212.78 L 483.99 215.79 L 482.26 218.69 L 480.34 221.45 L 478.23 224.09 L 475.95 226.56 L 473.49 228.87 L 470.89 231.00 L 468.14 232.95 L 465.27 234.71 L 462.28 236.27 L 459.20 237.64 L 456.05 238.85 L 452.85 239.91 L 449.61 240.86 L 446.35 241.74 L 443.08 242.57 L 439.80 243.39 L 436.53 244.20 L 433.24 245.00 L 429.96 245.81 L 426.67 246.61 L 423.38 247.42 L 420.09 248.23 L 416.80 249.05 Z"
         id="path2494" />
    </symbol>
    <symbol
       id="bl2">
      <path
         d="M 420.43 287.10 L 420.64 289.35 L 420.72 291.60 L 420.68 293.86 L 420.50 296.10 L 420.20 298.33 L 419.78 300.53 L 419.22 302.70 L 418.54 304.84 L 417.74 306.93 L 416.82 308.97 L 415.78 310.97 L 414.63 312.90 L 413.36 314.75 L 411.99 316.54 L 410.52 318.24 L 408.96 319.85 L 407.30 321.37 L 405.57 322.79 L 403.75 324.11 L 401.86 325.31 L 399.90 326.41 L 397.88 327.39 L 395.81 328.26 L 393.70 329.00 L 391.55 329.61 L 389.36 330.11 L 387.15 330.48 L 384.92 330.72 L 382.68 330.83 L 380.44 330.82 L 378.20 330.67 L 375.97 330.39 L 373.76 329.99 L 371.58 329.45 L 369.43 328.79 L 367.32 328.01 L 365.26 327.10 L 363.25 326.08 L 361.31 324.94 L 359.43 323.69 L 357.64 322.35 L 355.92 320.89 L 354.30 319.35 L 352.76 317.71 L 351.31 315.99 L 349.94 314.21 L 348.63 312.38 L 347.37 310.51 L 346.12 308.63 L 344.89 306.75 L 343.66 304.86 L 342.42 302.98 L 341.19 301.10 L 339.95 299.22 L 338.72 297.34 L 337.48 295.46 L 336.24 293.58 L 335.01 291.70 L 333.78 289.82 L 332.55 287.94 L 331.32 286.05 L 330.10 284.17 L 328.87 282.29 L 327.64 280.42 L 326.40 278.54 L 325.17 276.66 L 323.94 274.79 L 322.72 272.91 L 321.51 271.02 L 320.34 269.12 L 319.26 267.18 L 318.30 265.17 L 317.52 263.09 L 316.93 260.94 L 316.55 258.71 L 316.40 256.45 L 316.46 254.17 L 316.74 251.93 L 317.23 249.75 L 317.93 247.67 L 318.82 245.68 L 319.92 243.80 L 321.19 242.04 L 322.63 240.40 L 324.21 238.90 L 325.92 237.54 L 327.73 236.30 L 329.61 235.16 L 331.53 234.11 L 333.49 233.10 L 335.45 232.12 L 337.42 231.14 L 339.40 230.17 L 341.37 229.20 L 343.35 228.23 L 345.33 227.26 L 347.30 226.27 L 349.28 225.30 L 351.28 224.32 L 353.31 223.37 L 355.42 222.46 L 357.65 221.61 L 360.04 220.85 L 362.61 220.21 L 365.36 219.70 L 368.27 219.30 L 371.30 219.00 L 374.41 218.74 L 377.55 218.52 L 380.71 218.33 L 383.88 218.18 L 387.03 218.14 L 390.14 218.31 L 393.19 218.77 L 396.09 219.57 L 398.76 220.71 L 401.12 222.15 L 403.10 223.79 L 404.75 225.58 L 406.08 227.49 L 407.16 229.51 L 408.04 231.61 L 408.77 233.77 L 409.39 235.96 L 409.95 238.17 L 410.47 240.38 L 410.97 242.60 L 411.47 244.83 L 411.97 247.06 L 412.46 249.28 L 412.96 251.50 L 413.45 253.71 L 413.94 255.93 L 414.43 258.16 L 414.92 260.38 L 415.40 262.61 L 415.89 264.83 L 416.38 267.06 L 416.88 269.28 L 417.37 271.51 L 417.86 273.73 L 418.34 275.95 L 418.82 278.17 L 419.29 280.39 L 419.73 282.62 L 420.12 284.85 Z"
         id="path2497" />
    </symbol>
    <filter
       style="color-interpolation-filters:sRGB;"
       inkscape:label="Invert"
       id="filter2583"
       x="-0.0037663675"
       y="-0.0051030324"
       width="1.0037664"
       height="1.005103">
      <feColorMatrix
         values="0 0 -1 0 1 0 -1 0 0 1 -1 0 0 0 1 0.21 0.72 0.07 1 0 "
         result="color2"
         id="feColorMatrix2581" />
    </filter>
    <filter
       style="color-interpolation-filters:sRGB;"
       inkscape:label="Invert"
       id="filter2587"
       x="0"
       y="0"
       width="1"
       height="1">
      <feColorMatrix
         values="0 0 -1 0 1 0 -1 0 0 1 -1 0 0 0 1 0.21 0.72 0.07 1 0 "
         result="color2"
         id="feColorMatrix2585" />
    </filter>
    <filter
       style="color-interpolation-filters:sRGB;"
       inkscape:label="Invert"
       id="filter2591"
       x="0"
       y="0"
       width="1"
       height="1">
      <feColorMatrix
         values="0 0 -1 0 1 0 -1 0 0 1 -1 0 0 0 1 0.21 0.72 0.07 1 0 "
         result="color2"
         id="feColorMatrix2589" />
    </filter>
    <filter
       style="color-interpolation-filters:sRGB;"
       inkscape:label="Invert"
       id="filter2595"
       x="-0.0071944105"
       y="-0.0071944105"
       width="1.0143888"
       height="1.0143888">
      <feColorMatrix
         values="0 0 -1 0 1 0 -1 0 0 1 -1 0 0 0 1 0.21 0.72 0.07 1 0 "
         result="color2"
         id="feColorMatrix2593" />
    </filter>
    <filter
       style="color-interpolation-filters:sRGB;"
       inkscape:label="Invert"
       id="filter2599"
       x="0"
       y="0"
       width="1"
       height="1">
      <feColorMatrix
         values="0 0 -1 0 1 0 -1 0 0 1 -1 0 0 0 1 0.21 0.72 0.07 1 0 "
         result="color2"
         id="feColorMatrix2597" />
    </filter>
    <filter
       style="color-interpolation-filters:sRGB;"
       inkscape:label="Invert"
       id="filter2603"
       x="0"
       y="0"
       width="1"
       height="1">
      <feColorMatrix
         values="0 0 -1 0 1 0 -1 0 0 1 -1 0 0 0 1 0.21 0.72 0.07 1 0 "
         result="color2"
         id="feColorMatrix2601" />
    </filter>
    <filter
       style="color-interpolation-filters:sRGB;"
       inkscape:label="Invert"
       id="filter2607"
       x="-0.003690647"
       y="-0.003690647"
       width="1.0073813"
       height="1.0073813">
      <feColorMatrix
         values="0 0 -1 0 1 0 -1 0 0 1 -1 0 0 0 1 0.21 0.72 0.07 1 0 "
         result="color2"
         id="feColorMatrix2605" />
    </filter>
    <filter
       style="color-interpolation-filters:sRGB;"
       inkscape:label="Invert"
       id="filter2611"
       x="0"
       y="0"
       width="1"
       height="1">
      <feColorMatrix
         values="0 0 -1 0 1 0 -1 0 0 1 -1 0 0 0 1 0.21 0.72 0.07 1 0 "
         result="color2"
         id="feColorMatrix2609" />
    </filter>
    <filter
       style="color-interpolation-filters:sRGB;"
       inkscape:label="Invert"
       id="filter2615"
       x="0"
       y="0"
       width="1"
       height="1">
      <feColorMatrix
         values="0 0 -1 0 1 0 -1 0 0 1 -1 0 0 0 1 0.21 0.72 0.07 1 0 "
         result="color2"
         id="feColorMatrix2613" />
    </filter>
    <filter
       style="color-interpolation-filters:sRGB;"
       inkscape:label="Invert"
       id="filter2619"
       x="-0.009287949"
       y="-0.009287949"
       width="1.0185759"
       height="1.0185759">
      <feColorMatrix
         values="0 0 -1 0 1 0 -1 0 0 1 -1 0 0 0 1 0.21 0.72 0.07 1 0 "
         result="color2"
         id="feColorMatrix2617" />
    </filter>
    <filter
       style="color-interpolation-filters:sRGB;"
       inkscape:label="Invert"
       id="filter2623"
       x="0"
       y="0"
       width="1"
       height="1">
      <feColorMatrix
         values="0 0 -1 0 1 0 -1 0 0 1 -1 0 0 0 1 0.21 0.72 0.07 1 0 "
         result="color2"
         id="feColorMatrix2621" />
    </filter>
    <filter
       style="color-interpolation-filters:sRGB;"
       inkscape:label="Invert"
       id="filter2627"
       x="0"
       y="0"
       width="1"
       height="1">
      <feColorMatrix
         values="0 0 -1 0 1 0 -1 0 0 1 -1 0 0 0 1 0.21 0.72 0.07 1 0 "
         result="color2"
         id="feColorMatrix2625" />
    </filter>
    <filter
       style="color-interpolation-filters:sRGB;"
       inkscape:label="Invert"
       id="filter2631"
       x="-0.0028438305"
       y="-0.0028438305"
       width="1.0056877"
       height="1.0056877">
      <feColorMatrix
         values="0 0 -1 0 1 0 -1 0 0 1 -1 0 0 0 1 0.21 0.72 0.07 1 0 "
         result="color2"
         id="feColorMatrix2629" />
    </filter>
    <filter
       style="color-interpolation-filters:sRGB;"
       inkscape:label="Invert"
       id="filter2635"
       x="0"
       y="0"
       width="1"
       height="1">
      <feColorMatrix
         values="0 0 -1 0 1 0 -1 0 0 1 -1 0 0 0 1 0.21 0.72 0.07 1 0 "
         result="color2"
         id="feColorMatrix2633" />
    </filter>
    <filter
       style="color-interpolation-filters:sRGB;"
       inkscape:label="Invert"
       id="filter2639"
       x="0"
       y="0"
       width="1"
       height="1">
      <feColorMatrix
         values="0 0 -1 0 1 0 -1 0 0 1 -1 0 0 0 1 0.21 0.72 0.07 1 0 "
         result="color2"
         id="feColorMatrix2637" />
    </filter>
    <filter
       style="color-interpolation-filters:sRGB;"
       inkscape:label="Invert"
       id="filter2643"
       x="-0.016087102"
       y="-0.016087102"
       width="1.0321742"
       height="1.0321742">
      <feColorMatrix
         values="0 0 -1 0 1 0 -1 0 0 1 -1 0 0 0 1 0.21 0.72 0.07 1 0 "
         result="color2"
         id="feColorMatrix2641" />
    </filter>
    <filter
       style="color-interpolation-filters:sRGB;"
       inkscape:label="Invert"
       id="filter2647"
       x="0"
       y="0"
       width="1"
       height="1">
      <feColorMatrix
         values="0 0 -1 0 1 0 -1 0 0 1 -1 0 0 0 1 0.21 0.72 0.07 1 0 "
         result="color2"
         id="feColorMatrix2645" />
    </filter>
    <filter
       style="color-interpolation-filters:sRGB;"
       inkscape:label="Invert"
       id="filter2651"
       x="0"
       y="0"
       width="1"
       height="1">
      <feColorMatrix
         values="0 0 -1 0 1 0 -1 0 0 1 -1 0 0 0 1 0.21 0.72 0.07 1 0 "
         result="color2"
         id="feColorMatrix2649" />
    </filter>
    <filter
       style="color-interpolation-filters:sRGB;"
       inkscape:label="Invert"
       id="filter2655"
       x="-0.0028438305"
       y="-0.0028438305"
       width="1.0056877"
       height="1.0056877">
      <feColorMatrix
         values="0 0 -1 0 1 0 -1 0 0 1 -1 0 0 0 1 0.21 0.72 0.07 1 0 "
         result="color2"
         id="feColorMatrix2653" />
    </filter>
    <filter
       style="color-interpolation-filters:sRGB;"
       inkscape:label="Invert"
       id="filter2659"
       x="0"
       y="0"
       width="1"
       height="1">
      <feColorMatrix
         values="0 0 -1 0 1 0 -1 0 0 1 -1 0 0 0 1 0.21 0.72 0.07 1 0 "
         result="color2"
         id="feColorMatrix2657" />
    </filter>
    <filter
       style="color-interpolation-filters:sRGB;"
       inkscape:label="Invert"
       id="filter2663"
       x="0"
       y="0"
       width="1"
       height="1">
      <feColorMatrix
         values="0 0 -1 0 1 0 -1 0 0 1 -1 0 0 0 1 0.21 0.72 0.07 1 0 "
         result="color2"
         id="feColorMatrix2661" />
    </filter>
    <filter
       style="color-interpolation-filters:sRGB;"
       inkscape:label="Invert"
       id="filter2667"
       x="-0.00083860026"
       y="-0.00083860026"
       width="1.0016772"
       height="1.0016772">
      <feColorMatrix
         values="0 0 -1 0 1 0 -1 0 0 1 -1 0 0 0 1 0.21 0.72 0.07 1 0 "
         result="color2"
         id="feColorMatrix2665" />
    </filter>
    <filter
       style="color-interpolation-filters:sRGB;"
       inkscape:label="Invert"
       id="filter2671"
       x="-0.004797127"
       y="-0.0044384899"
       width="1.0095916"
       height="1.0088759">
      <feColorMatrix
         values="0 0 -1 0 1 0 -1 0 0 1 -1 0 0 0 1 0.21 0.72 0.07 1 0 "
         result="color2"
         id="feColorMatrix2669" />
    </filter>
    <filter
       style="color-interpolation-filters:sRGB;"
       inkscape:label="Invert"
       id="filter2675"
       x="-0.0026371837"
       y="-0.0038643331"
       width="1.005274"
       height="1.0077322">
      <feColorMatrix
         values="0 0 -1 0 1 0 -1 0 0 1 -1 0 0 0 1 0.21 0.72 0.07 1 0 "
         result="color2"
         id="feColorMatrix2673" />
    </filter>
    <filter
       style="color-interpolation-filters:sRGB;"
       inkscape:label="Invert"
       id="filter2679"
       x="-0.0013004883"
       y="-0.001634445"
       width="1.0026036"
       height="1.0032689">
      <feColorMatrix
         values="0 0 -1 0 1 0 -1 0 0 1 -1 0 0 0 1 0.21 0.72 0.07 1 0 "
         result="color2"
         id="feColorMatrix2677" />
    </filter>
    <filter
       style="color-interpolation-filters:sRGB;"
       inkscape:label="Invert"
       id="filter2683"
       x="0"
       y="0"
       width="1"
       height="1">
      <feColorMatrix
         values="0 0 -1 0 1 0 -1 0 0 1 -1 0 0 0 1 0.21 0.72 0.07 1 0 "
         result="color2"
         id="feColorMatrix2681" />
    </filter>
    <filter
       style="color-interpolation-filters:sRGB;"
       inkscape:label="Invert"
       id="filter2687"
       x="0"
       y="0"
       width="1"
       height="1">
      <feColorMatrix
         values="0 0 -1 0 1 0 -1 0 0 1 -1 0 0 0 1 0.21 0.72 0.07 1 0 "
         result="color2"
         id="feColorMatrix2685" />
    </filter>
    <filter
       style="color-interpolation-filters:sRGB;"
       inkscape:label="Invert"
       id="filter2691"
       x="0"
       y="0"
       width="1"
       height="1">
      <feColorMatrix
         values="0 0 -1 0 1 0 -1 0 0 1 -1 0 0 0 1 0.21 0.72 0.07 1 0 "
         result="color2"
         id="feColorMatrix2689" />
    </filter>
    <filter
       style="color-interpolation-filters:sRGB;"
       inkscape:label="Invert"
       id="filter2695"
       x="0"
       y="0"
       width="1"
       height="1">
      <feColorMatrix
         values="0 0 -1 0 1 0 -1 0 0 1 -1 0 0 0 1 0.21 0.72 0.07 1 0 "
         result="color2"
         id="feColorMatrix2693" />
    </filter>
  </defs>
  <!-- isDone: 0 -->
  <rect
     width="700"
     height="500"
     style="fill:#fff;stroke-width:0;filter:url(#filter2695)"
     id="rect2502" />
  <use
     class="p0 borderLine"
     xlink:href="#bl0"
     id="use2504"
     style="filter:url(#filter2691)" />
  <use
     class="p1 borderLine"
     xlink:href="#bl1"
     id="use2506"
     style="filter:url(#filter2687)" />
  <use
     class="p2 borderLine"
     xlink:href="#bl2"
     id="use2508"
     style="filter:url(#filter2683)" />
  <use
     class="q0 outLine"
     xlink:href="#bl0"
     id="use2510"
     style="filter:url(#filter2679)" />
  <use
     class="q1 outLine"
     xlink:href="#bl1"
     id="use2512"
     style="filter:url(#filter2675)" />
  <use
     class="q2 outLine"
     xlink:href="#bl2"
     id="use2514"
     style="filter:url(#filter2671)" />
  <circle
     onclick="fromCircle(4)"
     class="circle"
     cx="161.8177"
     cy="250.1090"
     r="149.0579"
     id="circle2516"
     style="filter:url(#filter2667)" />
  <text
     class="nLabel"
     x="161.82"
     y="245.11"
     id="text2518"
     style="filter:url(#filter2663)">368</text>
  <text
     class="belong"
     x="161.82"
     y="255.11"
     id="text2520"
     style="filter:url(#filter2659)">(1)</text>
  <circle
     onclick="fromCircle(6)"
     class="circle"
     cx="348.8436"
     cy="172.7927"
     r="43.9548"
     id="circle2522"
     style="filter:url(#filter2655)" />
  <text
     class="nLabel"
     x="348.84"
     y="167.79"
     id="text2524"
     style="filter:url(#filter2651)">32</text>
  <text
     class="belong"
     x="348.84"
     y="177.79"
     id="text2526"
     style="filter:url(#filter2647)">(1, 2)</text>
  <circle
     onclick="fromCircle(7)"
     class="circle"
     cx="364.2092"
     cy="232.3487"
     r="7.7702"
     id="circle2528"
     style="filter:url(#filter2643)" />
  <text
     class="nLabel"
     x="364.21"
     y="227.35"
     id="text2530"
     style="filter:url(#filter2639)">1</text>
  <text
     class="belong"
     x="364.21"
     y="237.35"
     id="text2532"
     style="filter:url(#filter2635)">(1, 2, 3)</text>
  <circle
     onclick="fromCircle(2)"
     class="circle"
     cx="441.6038"
     cy="192.2448"
     r="43.9548"
     id="circle2534"
     style="filter:url(#filter2631)" />
  <text
     class="nLabel"
     x="441.60"
     y="187.24"
     id="text2536"
     style="filter:url(#filter2627)">32</text>
  <text
     class="belong"
     x="441.60"
     y="197.24"
     id="text2538"
     style="filter:url(#filter2623)">(2)</text>
  <circle
     onclick="fromCircle(3)"
     class="circle"
     cx="390.4508"
     cy="236.4106"
     r="13.4583"
     id="circle2540"
     style="filter:url(#filter2619)" />
  <text
     class="nLabel"
     x="390.45"
     y="231.41"
     id="text2542"
     style="filter:url(#filter2615)">3</text>
  <text
     class="belong"
     x="390.45"
     y="241.41"
     id="text2544"
     style="filter:url(#filter2611)">(2, 3)</text>
  <circle
     onclick="fromCircle(1)"
     class="circle"
     cx="381.9329"
     cy="292.0911"
     r="33.8694"
     id="circle2546"
     style="filter:url(#filter2607)" />
  <text
     class="nLabel"
     x="381.93"
     y="287.09"
     id="text2548"
     style="filter:url(#filter2603)">19</text>
  <text
     class="belong"
     x="381.93"
     y="297.09"
     id="text2550"
     style="filter:url(#filter2599)">(3)</text>
  <circle
     onclick="fromCircle(5)"
     class="circle"
     cx="338.4185"
     cy="255.9446"
     r="17.3746"
     id="circle2552"
     style="filter:url(#filter2595)" />
  <text
     class="nLabel"
     x="338.42"
     y="250.94"
     id="text2554"
     style="filter:url(#filter2591)">5</text>
  <text
     class="belong"
     x="338.42"
     y="260.94"
     id="text2556"
     style="filter:url(#filter2587)">(1, 3)</text>
  <g
     id="legendBox"
     style="filter:url(#filter2583)">
    <rect
       class="p0 borderLine"
       x="500.00"
       y="50.00"
       width="30.00"
       height="15.00"
       id="rect2558" />
    <rect
       class="q0"
       x="500.00"
       y="50.00"
       width="30.00"
       height="15.00"
       id="rect2560" />
    <text
       class="legend"
       x="540.00"
       y="65.00"
       id="text2562">bike</text>
    <rect
       class="p1 borderLine"
       x="500.00"
       y="90.00"
       width="30.00"
       height="15.00"
       id="rect2564" />
    <rect
       class="q1"
       x="500.00"
       y="90.00"
       width="30.00"
       height="15.00"
       id="rect2566" />
    <text
       class="legend"
       x="540.00"
       y="105.00"
       id="text2568">motorbike</text>
    <rect
       class="p2 borderLine"
       x="500.00"
       y="130.00"
       width="30.00"
       height="15.00"
       id="rect2570" />
    <rect
       class="q2"
       x="500.00"
       y="130.00"
       width="30.00"
       height="15.00"
       id="rect2572" />
    <text
       class="legend"
       x="540.00"
       y="145.00"
       id="text2574">motor_vehicle</text>
  </g>
</svg>
