<?xml version="1.0" encoding="UTF-8" standalone="no"?>
<svg
   width="700"
   height="500"
   version="1.1"
   id="svg1739"
   sodipodi:docname="UGA_2013.svg"
   inkscape:version="1.1 (1:1.1+202106031931+af4d65493e)"
   xmlns:inkscape="http://www.inkscape.org/namespaces/inkscape"
   xmlns:sodipodi="http://sodipodi.sourceforge.net/DTD/sodipodi-0.dtd"
   xmlns:xlink="http://www.w3.org/1999/xlink"
   xmlns="http://www.w3.org/2000/svg"
   xmlns:svg="http://www.w3.org/2000/svg">
  <sodipodi:namedview
     id="namedview1741"
     pagecolor="#ffffff"
     bordercolor="#666666"
     borderopacity="1.0"
     inkscape:pageshadow="2"
     inkscape:pageopacity="0.0"
     inkscape:pagecheckerboard="0"
     showgrid="false"
     inkscape:zoom="1.328"
     inkscape:cx="349.7741"
     inkscape:cy="250"
     inkscape:window-width="1528"
     inkscape:window-height="836"
     inkscape:window-x="72"
     inkscape:window-y="27"
     inkscape:window-maximized="1"
     inkscape:current-layer="svg1739" />
  <defs
     id="defs1662">
    <style
       type="text/css"
       id="style1651"><![CDATA[
  .borderLine {
	   stroke: none;
	   fill-opacity:  0.4 ;
  }
  .outLine {
	   stroke-width:  1 ;
	   fill: none;
  }
  .circle {
	   stroke: #888888;
	   stroke-width: 0.5;
	   fill: none;
    pointer-events: all;
  }
  .nLabel {
	   font-family: Arial;
    pointer-events: none;
	   font-size: 10px;
	   text-anchor: middle;
	   alignment-baseline: central;
  }
  .belong {
	   font-family: Arial;
    pointer-events: none;
	   font-size: 5px;
	   text-anchor: middle;
	   alignment-baseline: central;
  }
  .legend {
    font-family: Arial;
    font-size: 15px;
  }
  #legendBox {
    display:  inline ;
  }
  .p0{
    stroke: none;
    fill:  #00F ;
  }
  .q0{
    fill: none;
    stroke:  #00F ;
  }
  .p1{
    stroke: none;
    fill:  #0F0 ;
  }
  .q1{
    fill: none;
    stroke:  #0F0 ;
  }
  .p2{
    stroke: none;
    fill:  #F00 ;
  }
  .q2{
    fill: none;
    stroke:  #F00 ;
  }
]]></style>
    <symbol
       id="bl0">
      <path
         d="M 314.44 375.61 L 307.28 378.95 L 300.15 382.25 L 293.08 385.56 L 286.05 388.91 L 279.06 392.32 L 272.08 395.83 L 265.09 399.42 L 258.04 403.07 L 250.90 406.69 L 243.64 410.22 L 236.28 413.58 L 228.82 416.66 L 221.31 419.40 L 213.74 421.78 L 206.15 423.77 L 198.53 425.38 L 190.90 426.60 L 183.25 427.45 L 175.59 427.91 L 167.90 428.01 L 160.19 427.72 L 152.45 427.05 L 144.71 426.00 L 136.98 424.56 L 129.30 422.73 L 121.69 420.52 L 114.18 417.94 L 106.79 414.97 L 99.53 411.63 L 92.45 407.92 L 85.55 403.87 L 78.87 399.49 L 72.43 394.80 L 66.26 389.82 L 60.37 384.55 L 54.76 379.03 L 49.45 373.24 L 44.44 367.21 L 39.74 360.95 L 35.36 354.47 L 31.30 347.78 L 27.56 340.89 L 24.15 333.81 L 21.10 326.57 L 18.40 319.21 L 16.07 311.75 L 14.12 304.21 L 12.55 296.61 L 11.35 288.95 L 10.53 281.24 L 10.07 273.47 L 10.00 265.65 L 10.31 257.79 L 10.99 249.95 L 12.06 242.16 L 13.50 234.45 L 15.31 226.85 L 17.48 219.39 L 20.01 212.07 L 22.88 204.91 L 26.09 197.91 L 29.64 191.06 L 33.53 184.38 L 37.76 177.86 L 42.32 171.53 L 47.21 165.39 L 52.42 159.48 L 57.93 153.81 L 63.72 148.39 L 69.76 143.28 L 76.05 138.47 L 82.56 133.98 L 89.28 129.83 L 96.19 126.02 L 103.28 122.55 L 110.55 119.44 L 117.98 116.69 L 125.55 114.31 L 133.23 112.30 L 140.98 110.67 L 148.76 109.41 L 156.54 108.56 L 164.30 108.09 L 172.04 108.00 L 179.74 108.29 L 187.42 108.95 L 195.07 109.99 L 202.68 111.41 L 210.26 113.19 L 217.78 115.32 L 225.24 117.76 L 232.66 120.43 L 240.06 123.22 L 247.46 126.05 L 254.86 128.90 L 262.28 131.73 L 269.70 134.54 L 277.10 137.32 L 284.46 140.06 L 291.75 142.75 L 299.00 145.39 L 306.21 147.97 L 313.42 150.51 L 320.65 153.02 L 327.94 155.53 L 335.31 158.07 L 342.77 160.64 L 350.31 163.23 L 357.91 165.85 L 365.57 168.50 L 373.24 171.19 L 380.90 173.91 L 388.48 176.66 L 395.92 179.43 L 403.16 182.26 L 410.17 185.24 L 416.91 188.57 L 423.26 192.50 L 429.12 197.19 L 434.37 202.65 L 438.90 208.82 L 442.59 215.57 L 445.38 222.77 L 447.21 230.27 L 447.98 238.02 L 447.64 246.03 L 446.14 254.28 L 443.44 262.55 L 439.69 270.43 L 435.08 277.54 L 429.74 283.82 L 423.73 289.46 L 417.12 294.72 L 410.11 299.95 L 402.98 305.44 L 395.97 311.40 L 389.16 317.80 L 382.58 324.50 L 376.13 331.31 L 369.72 338.04 L 363.24 344.49 L 356.65 350.43 L 349.88 355.76 L 342.97 360.49 L 335.93 364.72 L 328.80 368.58 L 321.63 372.18 Z"
         id="path1653" />
    </symbol>
    <symbol
       id="bl1">
      <path
         d="M 433.44 296.64 L 431.79 301.21 L 430.01 305.77 L 428.15 310.25 L 426.19 314.63 L 424.15 318.89 L 421.95 323.03 L 419.51 326.96 L 416.68 330.51 L 413.32 333.45 L 409.40 335.63 L 405.04 337.04 L 400.47 337.79 L 395.88 338.01 L 391.32 337.90 L 386.79 337.66 L 382.24 337.41 L 377.65 337.16 L 373.01 336.82 L 368.38 336.26 L 363.92 335.30 L 359.82 333.74 L 356.20 331.48 L 353.03 328.52 L 350.21 324.96 L 347.68 320.84 L 345.45 316.25 L 343.54 311.42 L 341.95 306.57 L 340.63 301.82 L 339.55 297.17 L 338.62 292.60 L 337.76 288.08 L 336.87 283.64 L 335.88 279.27 L 334.80 274.94 L 333.65 270.61 L 332.49 266.26 L 331.37 261.86 L 330.39 257.43 L 329.57 252.98 L 328.93 248.52 L 328.50 244.05 L 328.30 239.62 L 328.38 235.22 L 328.78 230.86 L 329.51 226.56 L 330.56 222.29 L 331.88 218.06 L 333.42 213.83 L 335.09 209.59 L 336.85 205.33 L 338.62 201.02 L 340.37 196.67 L 342.07 192.28 L 343.72 187.90 L 345.31 183.51 L 346.89 179.15 L 348.48 174.82 L 350.11 170.51 L 351.79 166.21 L 353.51 161.91 L 355.25 157.58 L 356.98 153.23 L 358.67 148.87 L 360.32 144.51 L 361.94 140.17 L 363.56 135.86 L 365.21 131.60 L 366.91 127.38 L 368.68 123.19 L 370.54 119.01 L 372.48 114.84 L 374.51 110.69 L 376.65 106.59 L 378.93 102.57 L 381.39 98.69 L 384.07 95.01 L 386.98 91.54 L 390.13 88.30 L 393.53 85.32 L 397.14 82.60 L 400.97 80.15 L 405.00 78.00 L 409.20 76.15 L 413.55 74.63 L 418.01 73.45 L 422.55 72.61 L 427.11 72.12 L 431.65 71.99 L 436.14 72.20 L 440.56 72.75 L 444.90 73.62 L 449.14 74.81 L 453.29 76.32 L 457.33 78.17 L 461.24 80.32 L 465.00 82.78 L 468.57 85.53 L 471.94 88.56 L 475.08 91.83 L 477.96 95.35 L 480.57 99.10 L 482.89 103.05 L 484.91 107.19 L 486.62 111.50 L 488.00 115.94 L 489.02 120.47 L 489.68 125.04 L 490.00 129.62 L 489.97 134.15 L 489.63 138.63 L 488.99 143.07 L 488.09 147.44 L 486.98 151.77 L 485.70 156.06 L 484.32 160.32 L 482.87 164.57 L 481.43 168.84 L 480.02 173.15 L 478.63 177.48 L 477.25 181.81 L 475.83 186.13 L 474.37 190.40 L 472.84 194.62 L 471.23 198.77 L 469.55 202.87 L 467.81 206.94 L 466.06 210.99 L 464.31 215.06 L 462.62 219.20 L 460.99 223.40 L 459.42 227.69 L 457.88 232.03 L 456.32 236.40 L 454.74 240.79 L 453.14 245.18 L 451.51 249.54 L 449.88 253.89 L 448.23 258.21 L 446.58 262.49 L 444.90 266.72 L 443.18 270.88 L 441.43 275.01 L 439.69 279.13 L 438.03 283.34 L 436.48 287.66 L 434.98 292.11 Z"
         id="path1656" />
    </symbol>
    <symbol
       id="bl2">
      <path
         d="M 429.31 391.97 L 428.42 394.72 L 427.28 397.51 L 425.90 400.28 L 424.29 402.98 L 422.49 405.58 L 420.58 408.00 L 418.62 410.20 L 416.64 412.16 L 414.62 413.90 L 412.55 415.43 L 410.41 416.78 L 408.20 417.97 L 405.92 419.01 L 403.57 419.94 L 401.16 420.75 L 398.70 421.44 L 396.21 422.00 L 393.70 422.41 L 391.18 422.64 L 388.66 422.72 L 386.13 422.63 L 383.58 422.38 L 380.96 421.97 L 378.27 421.37 L 375.53 420.58 L 372.86 419.65 L 370.34 418.61 L 368.01 417.48 L 365.83 416.22 L 363.73 414.78 L 361.66 413.11 L 359.55 411.17 L 357.38 408.99 L 355.21 406.62 L 353.12 404.19 L 351.17 401.81 L 349.42 399.52 L 347.85 397.32 L 346.42 395.12 L 345.08 392.86 L 343.77 390.49 L 342.44 387.99 L 341.06 385.41 L 339.65 382.87 L 338.26 380.47 L 336.88 378.22 L 335.47 376.11 L 334.01 374.08 L 332.47 372.12 L 330.88 370.21 L 329.22 368.36 L 327.54 366.54 L 325.84 364.72 L 324.14 362.87 L 322.46 360.98 L 320.82 359.00 L 319.26 356.92 L 317.85 354.72 L 316.68 352.40 L 315.81 349.95 L 315.25 347.42 L 314.99 344.88 L 315.00 342.36 L 315.29 339.90 L 315.84 337.48 L 316.67 335.13 L 317.75 332.85 L 319.08 330.67 L 320.65 328.60 L 322.45 326.59 L 324.44 324.60 L 326.57 322.59 L 328.71 320.61 L 330.78 318.64 L 332.80 316.64 L 334.83 314.59 L 336.95 312.52 L 339.18 310.54 L 341.54 308.78 L 344.03 307.24 L 346.67 305.85 L 349.43 304.52 L 352.28 303.18 L 355.16 301.85 L 358.03 300.66 L 360.88 299.75 L 363.72 299.20 L 366.53 299.05 L 369.34 299.27 L 372.17 299.78 L 375.07 300.46 L 378.09 301.22 L 381.25 302.00 L 384.51 302.75 L 387.77 303.41 L 390.95 303.89 L 393.99 304.17 L 396.88 304.31 L 399.66 304.43 L 402.35 304.64 L 405.02 305.02 L 407.72 305.62 L 410.44 306.54 L 413.11 307.81 L 415.62 309.44 L 417.89 311.35 L 419.89 313.42 L 421.56 315.61 L 422.86 317.87 L 423.80 320.20 L 424.52 322.61 L 425.16 325.09 L 425.81 327.66 L 426.43 330.37 L 426.91 333.25 L 427.19 336.27 L 427.36 339.37 L 427.53 342.44 L 427.80 345.38 L 428.15 348.21 L 428.56 350.92 L 428.97 353.59 L 429.34 356.27 L 429.66 359.00 L 429.93 361.84 L 430.15 364.77 L 430.37 367.71 L 430.57 370.57 L 430.75 373.32 L 430.89 376.03 L 430.93 378.72 L 430.88 381.40 L 430.72 384.05 L 430.42 386.67 L 429.96 389.29 Z"
         id="path1659" />
    </symbol>
    <filter
       style="color-interpolation-filters:sRGB;"
       inkscape:label="Invert"
       id="filter1745"
       x="-0.0037663675"
       y="-0.0051030324"
       width="1.0037664"
       height="1.005103">
      <feColorMatrix
         values="0 0 -1 0 1 0 -1 0 0 1 -1 0 0 0 1 0.21 0.72 0.07 1 0 "
         result="color2"
         id="feColorMatrix1743" />
    </filter>
    <filter
       style="color-interpolation-filters:sRGB;"
       inkscape:label="Invert"
       id="filter1749"
       x="0"
       y="0"
       width="1"
       height="1">
      <feColorMatrix
         values="0 0 -1 0 1 0 -1 0 0 1 -1 0 0 0 1 0.21 0.72 0.07 1 0 "
         result="color2"
         id="feColorMatrix1747" />
    </filter>
    <filter
       style="color-interpolation-filters:sRGB;"
       inkscape:label="Invert"
       id="filter1753"
       x="0"
       y="0"
       width="1"
       height="1">
      <feColorMatrix
         values="0 0 -1 0 1 0 -1 0 0 1 -1 0 0 0 1 0.21 0.72 0.07 1 0 "
         result="color2"
         id="feColorMatrix1751" />
    </filter>
    <filter
       style="color-interpolation-filters:sRGB;"
       inkscape:label="Invert"
       id="filter1757"
       x="-0.007346675"
       y="-0.007346675"
       width="1.0146934"
       height="1.0146934">
      <feColorMatrix
         values="0 0 -1 0 1 0 -1 0 0 1 -1 0 0 0 1 0.21 0.72 0.07 1 0 "
         result="color2"
         id="feColorMatrix1755" />
    </filter>
    <filter
       style="color-interpolation-filters:sRGB;"
       inkscape:label="Invert"
       id="filter1761"
       x="0"
       y="0"
       width="1"
       height="1">
      <feColorMatrix
         values="0 0 -1 0 1 0 -1 0 0 1 -1 0 0 0 1 0.21 0.72 0.07 1 0 "
         result="color2"
         id="feColorMatrix1759" />
    </filter>
    <filter
       style="color-interpolation-filters:sRGB;"
       inkscape:label="Invert"
       id="filter1765"
       x="0"
       y="0"
       width="1"
       height="1">
      <feColorMatrix
         values="0 0 -1 0 1 0 -1 0 0 1 -1 0 0 0 1 0.21 0.72 0.07 1 0 "
         result="color2"
         id="feColorMatrix1763" />
    </filter>
    <filter
       style="color-interpolation-filters:sRGB;"
       inkscape:label="Invert"
       id="filter1769"
       x="-0.0033708896"
       y="-0.0033708896"
       width="1.0067418"
       height="1.0067418">
      <feColorMatrix
         values="0 0 -1 0 1 0 -1 0 0 1 -1 0 0 0 1 0.21 0.72 0.07 1 0 "
         result="color2"
         id="feColorMatrix1767" />
    </filter>
    <filter
       style="color-interpolation-filters:sRGB;"
       inkscape:label="Invert"
       id="filter1773"
       x="0"
       y="0"
       width="1"
       height="1">
      <feColorMatrix
         values="0 0 -1 0 1 0 -1 0 0 1 -1 0 0 0 1 0.21 0.72 0.07 1 0 "
         result="color2"
         id="feColorMatrix1771" />
    </filter>
    <filter
       style="color-interpolation-filters:sRGB;"
       inkscape:label="Invert"
       id="filter1777"
       x="0"
       y="0"
       width="1"
       height="1">
      <feColorMatrix
         values="0 0 -1 0 1 0 -1 0 0 1 -1 0 0 0 1 0.21 0.72 0.07 1 0 "
         result="color2"
         id="feColorMatrix1775" />
    </filter>
    <filter
       style="color-interpolation-filters:sRGB;"
       inkscape:label="Invert"
       id="filter1781"
       x="-0.01038974"
       y="-0.01038974"
       width="1.0207795"
       height="1.0207795">
      <feColorMatrix
         values="0 0 -1 0 1 0 -1 0 0 1 -1 0 0 0 1 0.21 0.72 0.07 1 0 "
         result="color2"
         id="feColorMatrix1779" />
    </filter>
    <filter
       style="color-interpolation-filters:sRGB;"
       inkscape:label="Invert"
       id="filter1785"
       x="0"
       y="0"
       width="1"
       height="1">
      <feColorMatrix
         values="0 0 -1 0 1 0 -1 0 0 1 -1 0 0 0 1 0.21 0.72 0.07 1 0 "
         result="color2"
         id="feColorMatrix1783" />
    </filter>
    <filter
       style="color-interpolation-filters:sRGB;"
       inkscape:label="Invert"
       id="filter1789"
       x="0"
       y="0"
       width="1"
       height="1">
      <feColorMatrix
         values="0 0 -1 0 1 0 -1 0 0 1 -1 0 0 0 1 0.21 0.72 0.07 1 0 "
         result="color2"
         id="feColorMatrix1787" />
    </filter>
    <filter
       style="color-interpolation-filters:sRGB;"
       inkscape:label="Invert"
       id="filter1793"
       x="-0.0022947148"
       y="-0.0022947148"
       width="1.0045894"
       height="1.0045894">
      <feColorMatrix
         values="0 0 -1 0 1 0 -1 0 0 1 -1 0 0 0 1 0.21 0.72 0.07 1 0 "
         result="color2"
         id="feColorMatrix1791" />
    </filter>
    <filter
       style="color-interpolation-filters:sRGB;"
       inkscape:label="Invert"
       id="filter1797"
       x="0"
       y="0"
       width="1"
       height="1">
      <feColorMatrix
         values="0 0 -1 0 1 0 -1 0 0 1 -1 0 0 0 1 0.21 0.72 0.07 1 0 "
         result="color2"
         id="feColorMatrix1795" />
    </filter>
    <filter
       style="color-interpolation-filters:sRGB;"
       inkscape:label="Invert"
       id="filter1801"
       x="0"
       y="0"
       width="1"
       height="1">
      <feColorMatrix
         values="0 0 -1 0 1 0 -1 0 0 1 -1 0 0 0 1 0.21 0.72 0.07 1 0 "
         result="color2"
         id="feColorMatrix1799" />
    </filter>
    <filter
       style="color-interpolation-filters:sRGB;"
       inkscape:label="Invert"
       id="filter1805"
       x="-0.0084832035"
       y="-0.0084832035"
       width="1.0169664"
       height="1.0169664">
      <feColorMatrix
         values="0 0 -1 0 1 0 -1 0 0 1 -1 0 0 0 1 0.21 0.72 0.07 1 0 "
         result="color2"
         id="feColorMatrix1803" />
    </filter>
    <filter
       style="color-interpolation-filters:sRGB;"
       inkscape:label="Invert"
       id="filter1809"
       x="0"
       y="0"
       width="1"
       height="1">
      <feColorMatrix
         values="0 0 -1 0 1 0 -1 0 0 1 -1 0 0 0 1 0.21 0.72 0.07 1 0 "
         result="color2"
         id="feColorMatrix1807" />
    </filter>
    <filter
       style="color-interpolation-filters:sRGB;"
       inkscape:label="Invert"
       id="filter1813"
       x="0"
       y="0"
       width="1"
       height="1">
      <feColorMatrix
         values="0 0 -1 0 1 0 -1 0 0 1 -1 0 0 0 1 0.21 0.72 0.07 1 0 "
         result="color2"
         id="feColorMatrix1811" />
    </filter>
    <filter
       style="color-interpolation-filters:sRGB;"
       inkscape:label="Invert"
       id="filter1817"
       x="-0.0022151064"
       y="-0.0022151064"
       width="1.0044302"
       height="1.0044302">
      <feColorMatrix
         values="0 0 -1 0 1 0 -1 0 0 1 -1 0 0 0 1 0.21 0.72 0.07 1 0 "
         result="color2"
         id="feColorMatrix1815" />
    </filter>
    <filter
       style="color-interpolation-filters:sRGB;"
       inkscape:label="Invert"
       id="filter1821"
       x="0"
       y="0"
       width="1"
       height="1">
      <feColorMatrix
         values="0 0 -1 0 1 0 -1 0 0 1 -1 0 0 0 1 0.21 0.72 0.07 1 0 "
         result="color2"
         id="feColorMatrix1819" />
    </filter>
    <filter
       style="color-interpolation-filters:sRGB;"
       inkscape:label="Invert"
       id="filter1825"
       x="0"
       y="0"
       width="1"
       height="1">
      <feColorMatrix
         values="0 0 -1 0 1 0 -1 0 0 1 -1 0 0 0 1 0.21 0.72 0.07 1 0 "
         result="color2"
         id="feColorMatrix1823" />
    </filter>
    <filter
       style="color-interpolation-filters:sRGB;"
       inkscape:label="Invert"
       id="filter1829"
       x="-0.0008015883"
       y="-0.0008015883"
       width="1.0016032"
       height="1.0016032">
      <feColorMatrix
         values="0 0 -1 0 1 0 -1 0 0 1 -1 0 0 0 1 0.21 0.72 0.07 1 0 "
         result="color2"
         id="feColorMatrix1827" />
    </filter>
    <filter
       style="color-interpolation-filters:sRGB;"
       inkscape:label="Invert"
       id="filter1833"
       x="-0.0043134492"
       y="-0.004051456"
       width="1.0086266"
       height="1.0080968">
      <feColorMatrix
         values="0 0 -1 0 1 0 -1 0 0 1 -1 0 0 0 1 0.21 0.72 0.07 1 0 "
         result="color2"
         id="feColorMatrix1831" />
    </filter>
    <filter
       style="color-interpolation-filters:sRGB;"
       inkscape:label="Invert"
       id="filter1837"
       x="-0.0030934146"
       y="-0.001880816"
       width="1.0061863"
       height="1.0037615">
      <feColorMatrix
         values="0 0 -1 0 1 0 -1 0 0 1 -1 0 0 0 1 0.21 0.72 0.07 1 0 "
         result="color2"
         id="feColorMatrix1835" />
    </filter>
    <filter
       style="color-interpolation-filters:sRGB;"
       inkscape:label="Invert"
       id="filter1841"
       x="-0.0011418061"
       y="-0.0015627932"
       width="1.0022858"
       height="1.0031256">
      <feColorMatrix
         values="0 0 -1 0 1 0 -1 0 0 1 -1 0 0 0 1 0.21 0.72 0.07 1 0 "
         result="color2"
         id="feColorMatrix1839" />
    </filter>
    <filter
       style="color-interpolation-filters:sRGB;"
       inkscape:label="Invert"
       id="filter1845"
       x="0"
       y="0"
       width="1"
       height="1">
      <feColorMatrix
         values="0 0 -1 0 1 0 -1 0 0 1 -1 0 0 0 1 0.21 0.72 0.07 1 0 "
         result="color2"
         id="feColorMatrix1843" />
    </filter>
    <filter
       style="color-interpolation-filters:sRGB;"
       inkscape:label="Invert"
       id="filter1849"
       x="0"
       y="0"
       width="1"
       height="1">
      <feColorMatrix
         values="0 0 -1 0 1 0 -1 0 0 1 -1 0 0 0 1 0.21 0.72 0.07 1 0 "
         result="color2"
         id="feColorMatrix1847" />
    </filter>
    <filter
       style="color-interpolation-filters:sRGB;"
       inkscape:label="Invert"
       id="filter1853"
       x="0"
       y="0"
       width="1"
       height="1">
      <feColorMatrix
         values="0 0 -1 0 1 0 -1 0 0 1 -1 0 0 0 1 0.21 0.72 0.07 1 0 "
         result="color2"
         id="feColorMatrix1851" />
    </filter>
    <filter
       style="color-interpolation-filters:sRGB;"
       inkscape:label="Invert"
       id="filter1857"
       x="0"
       y="0"
       width="1"
       height="1">
      <feColorMatrix
         values="0 0 -1 0 1 0 -1 0 0 1 -1 0 0 0 1 0.21 0.72 0.07 1 0 "
         result="color2"
         id="feColorMatrix1855" />
    </filter>
  </defs>
  <!-- isDone: 0 -->
  <rect
     width="700"
     height="500"
     style="fill:#fff;stroke-width:0;filter:url(#filter1857)"
     id="rect1664" />
  <use
     class="p0 borderLine"
     xlink:href="#bl0"
     id="use1666"
     style="filter:url(#filter1853)" />
  <use
     class="p1 borderLine"
     xlink:href="#bl1"
     id="use1668"
     style="filter:url(#filter1849)" />
  <use
     class="p2 borderLine"
     xlink:href="#bl2"
     id="use1670"
     style="filter:url(#filter1845)" />
  <use
     class="q0 outLine"
     xlink:href="#bl0"
     id="use1672"
     style="filter:url(#filter1841)" />
  <use
     class="q1 outLine"
     xlink:href="#bl1"
     id="use1674"
     style="filter:url(#filter1837)" />
  <use
     class="q2 outLine"
     xlink:href="#bl2"
     id="use1676"
     style="filter:url(#filter1833)" />
  <circle
     onclick="fromCircle(4)"
     class="circle"
     cx="168.8477"
     cy="267.9018"
     r="155.9404"
     id="circle1678"
     style="filter:url(#filter1829)" />
  <text
     class="nLabel"
     x="168.85"
     y="262.90"
     id="text1680"
     style="filter:url(#filter1825)">336</text>
  <text
     class="belong"
     x="168.85"
     y="272.90"
     id="text1682"
     style="filter:url(#filter1821)">(1)</text>
  <circle
     onclick="fromCircle(6)"
     class="circle"
     cx="388.9864"
     cy="240.3860"
     r="56.4307"
     id="circle1684"
     style="filter:url(#filter1817)" />
  <text
     class="nLabel"
     x="388.99"
     y="235.39"
     id="text1686"
     style="filter:url(#filter1813)">44</text>
  <text
     class="belong"
     x="388.99"
     y="245.39"
     id="text1688"
     style="filter:url(#filter1809)">(1, 2)</text>
  <circle
     onclick="fromCircle(7)"
     class="circle"
     cx="366.8016"
     cy="318.2627"
     r="14.7350"
     id="circle1690"
     style="filter:url(#filter1805)" />
  <text
     class="nLabel"
     x="366.80"
     y="313.26"
     id="text1692"
     style="filter:url(#filter1801)">3</text>
  <text
     class="belong"
     x="366.80"
     y="323.26"
     id="text1694"
     style="filter:url(#filter1797)">(1, 2, 3)</text>
  <circle
     onclick="fromCircle(2)"
     class="circle"
     cx="431.1230"
     cy="130.4403"
     r="54.4730"
     id="circle1696"
     style="filter:url(#filter1793)" />
  <text
     class="nLabel"
     x="431.12"
     y="125.44"
     id="text1698"
     style="filter:url(#filter1789)">41</text>
  <text
     class="belong"
     x="431.12"
     y="135.44"
     id="text1700"
     style="filter:url(#filter1785)">(2)</text>
  <circle
     onclick="fromCircle(3)"
     class="circle"
     cx="404.7574"
     cy="322.5510"
     r="12.0311"
     id="circle1702"
     style="filter:url(#filter1781)" />
  <text
     class="nLabel"
     x="404.76"
     y="317.55"
     id="text1704"
     style="filter:url(#filter1777)">2</text>
  <text
     class="belong"
     x="404.76"
     y="327.55"
     id="text1706"
     style="filter:url(#filter1773)">(2, 3)</text>
  <circle
     onclick="fromCircle(1)"
     class="circle"
     cx="388.7073"
     cy="380.7480"
     r="37.0822"
     id="circle1708"
     style="filter:url(#filter1769)" />
  <text
     class="nLabel"
     x="388.71"
     y="375.75"
     id="text1710"
     style="filter:url(#filter1765)">19</text>
  <text
     class="belong"
     x="388.71"
     y="385.75"
     id="text1712"
     style="filter:url(#filter1761)">(3)</text>
  <circle
     onclick="fromCircle(5)"
     class="circle"
     cx="336.8376"
     cy="343.2209"
     r="17.0145"
     id="circle1714"
     style="filter:url(#filter1757)" />
  <text
     class="nLabel"
     x="336.84"
     y="338.22"
     id="text1716"
     style="filter:url(#filter1753)">4</text>
  <text
     class="belong"
     x="336.84"
     y="348.22"
     id="text1718"
     style="filter:url(#filter1749)">(1, 3)</text>
  <g
     id="legendBox"
     style="filter:url(#filter1745)">
    <rect
       class="p0 borderLine"
       x="500.00"
       y="50.00"
       width="30.00"
       height="15.00"
       id="rect1720" />
    <rect
       class="q0"
       x="500.00"
       y="50.00"
       width="30.00"
       height="15.00"
       id="rect1722" />
    <text
       class="legend"
       x="540.00"
       y="65.00"
       id="text1724">bike</text>
    <rect
       class="p1 borderLine"
       x="500.00"
       y="90.00"
       width="30.00"
       height="15.00"
       id="rect1726" />
    <rect
       class="q1"
       x="500.00"
       y="90.00"
       width="30.00"
       height="15.00"
       id="rect1728" />
    <text
       class="legend"
       x="540.00"
       y="105.00"
       id="text1730">motorbike</text>
    <rect
       class="p2 borderLine"
       x="500.00"
       y="130.00"
       width="30.00"
       height="15.00"
       id="rect1732" />
    <rect
       class="q2"
       x="500.00"
       y="130.00"
       width="30.00"
       height="15.00"
       id="rect1734" />
    <text
       class="legend"
       x="540.00"
       y="145.00"
       id="text1736">motor_vehicle</text>
  </g>
</svg>
